<svg width="630" height="501" viewBox="0 0 630 501" fill="none" xmlns="http://www.w3.org/2000/svg">
<g clip-path="url(#clip0_770_8050)">
<g style="mix-blend-mode:multiply">
<path d="M566.874 374.805H525.143V375.116H566.874V374.805Z" fill="#EBEBEB"/>
<path d="M417.337 378.187H406.388V378.497H417.337V378.187Z" fill="#EBEBEB"/>
<path d="M523.883 363.269H499.704V363.579H523.883V363.269Z" fill="#EBEBEB"/>
<path d="M120.519 365.357H66.0996V365.668H120.519V365.357Z" fill="#EBEBEB"/>
<path d="M139.721 365.357H131.746V365.668H139.721V365.357Z" fill="#EBEBEB"/>
<path d="M283.689 370.603H165.652V370.914H283.689V370.603Z" fill="#EBEBEB"/>
<path d="M300.384 299.357H57.078C55.1699 299.357 53.3399 298.609 51.9907 297.278C50.6414 295.947 49.8834 294.141 49.8834 292.258V-45.177C49.9 -47.0489 50.6654 -48.8385 52.0128 -50.1563C53.3603 -51.4741 55.1808 -52.2135 57.078 -52.2134H300.384C301.329 -52.2134 302.264 -52.0298 303.137 -51.673C304.01 -51.3163 304.803 -50.7934 305.471 -50.1343C306.139 -49.4751 306.669 -48.6926 307.031 -47.8313C307.393 -46.9701 307.579 -46.047 307.579 -45.1148V292.258C307.579 293.191 307.393 294.114 307.031 294.975C306.669 295.836 306.139 296.619 305.471 297.278C304.803 297.937 304.01 298.46 303.137 298.817C302.264 299.173 301.329 299.357 300.384 299.357ZM57.078 -51.9647C55.2545 -51.9615 53.5065 -51.2453 52.2171 -49.973C50.9276 -48.7008 50.2018 -46.9762 50.1984 -45.177V292.258C50.2018 294.058 50.9276 295.782 52.2171 297.054C53.5065 298.327 55.2545 299.043 57.078 299.046H300.384C302.208 299.043 303.955 298.327 305.245 297.054C306.534 295.782 307.26 294.058 307.264 292.258V-45.177C307.26 -46.9762 306.534 -48.7008 305.245 -49.973C303.955 -51.2453 302.208 -51.9615 300.384 -51.9647H57.078Z" fill="#EBEBEB"/>
<path d="M572.922 299.357H329.616C327.708 299.357 325.878 298.609 324.529 297.278C323.179 295.947 322.421 294.141 322.421 292.258V-45.177C322.438 -47.0489 323.203 -48.8385 324.551 -50.1563C325.898 -51.4741 327.719 -52.2135 329.616 -52.2134H572.922C574.83 -52.2134 576.66 -51.4655 578.009 -50.1343C579.359 -48.803 580.117 -46.9975 580.117 -45.1148V292.258C580.117 294.141 579.359 295.947 578.009 297.278C576.66 298.609 574.83 299.357 572.922 299.357ZM329.616 -51.9647C327.792 -51.9615 326.045 -51.2453 324.755 -49.973C323.466 -48.7008 322.74 -46.9762 322.736 -45.177V292.258C322.74 294.058 323.466 295.782 324.755 297.054C326.045 298.327 327.792 299.043 329.616 299.046H572.922C574.746 299.043 576.493 298.327 577.783 297.054C579.072 295.782 579.798 294.058 579.802 292.258V-45.177C579.798 -46.9762 579.072 -48.7008 577.783 -49.973C576.493 -51.2453 574.746 -51.9615 572.922 -51.9647H329.616Z" fill="#EBEBEB"/>
<path d="M630 354.802H0V355.113H630V354.802Z" fill="#EBEBEB"/>
<path d="M99.3887 223.772H150.028V169.818C136.598 169.818 123.717 175.082 114.221 184.452C104.724 193.822 99.3887 206.53 99.3887 219.781V223.772Z" fill="#E6E6E6"/>
<path d="M158.231 299.829H74.7307L73.5589 240.691C73.5323 239.663 73.6989 238.639 74.0503 237.67L91.2745 189.386C91.9962 187.51 93.2879 185.899 94.9728 184.776C96.6576 183.652 98.6533 183.069 100.687 183.107H158.231V299.829Z" fill="#F0F0F0"/>
<path d="M73.5464 299.829C75.8121 299.829 77.985 298.941 79.5871 297.361C81.1891 295.78 82.0892 293.636 82.0892 291.401V288.206C82.0908 287.098 81.871 286.002 81.4423 284.978C81.0136 283.955 80.3844 283.025 79.5908 282.242C78.7972 281.459 77.8547 280.838 76.8175 280.415C75.7803 279.992 74.6687 279.775 73.5464 279.777V299.829Z" fill="#E6E6E6"/>
<path d="M67.2841 216.773H64.6381V207.61C64.6547 203.994 66.1223 200.532 68.7198 197.981C71.3172 195.43 74.8331 193.998 78.4981 193.998H100.926V196.608H78.4351C75.4787 196.612 72.6443 197.772 70.5538 199.834C68.4633 201.897 67.2874 204.694 67.2841 207.61V216.773Z" fill="#E6E6E6"/>
<path d="M66.2509 235.594C68.1791 235.594 70.0283 234.839 71.3917 233.493C72.7551 232.148 73.5211 230.324 73.5211 228.421V218.165C73.5211 216.263 72.7551 214.438 71.3917 213.093C70.0283 211.748 68.1791 210.992 66.2509 210.992C64.3227 210.992 62.4735 211.748 61.1101 213.093C59.7467 214.438 58.9807 216.263 58.9807 218.165V228.421C58.9807 230.324 59.7467 232.148 61.1101 233.493C62.4735 234.839 64.3227 235.594 66.2509 235.594Z" fill="#E6E6E6"/>
<path d="M61.3494 228.421V218.165C61.3494 216.882 61.8658 215.652 62.785 214.746C63.7041 213.839 64.9508 213.329 66.2508 213.329C67.5507 213.329 68.7974 213.839 69.7166 214.746C70.6358 215.652 71.1522 216.882 71.1522 218.165V228.421C71.1522 229.704 70.6358 230.934 69.7166 231.841C68.7974 232.748 67.5507 233.257 66.2508 233.257C64.9508 233.257 63.7041 232.748 62.785 231.841C61.8658 230.934 61.3494 229.704 61.3494 228.421Z" fill="#FAFAFA"/>
<path d="M91.98 237.832H135.475C136.77 237.832 138.011 237.325 138.928 236.424C139.844 235.522 140.361 234.298 140.364 233.021V197.727C140.364 196.448 139.849 195.221 138.932 194.316C138.015 193.412 136.772 192.904 135.475 192.904H102.992C101.948 192.904 100.931 193.235 100.092 193.848C99.2529 194.462 98.6354 195.324 98.3304 196.31L87.3684 231.604C87.1447 232.319 87.0936 233.077 87.219 233.816C87.3444 234.555 87.6429 235.254 88.0907 235.859C88.5386 236.464 89.1234 236.957 89.7987 237.3C90.4739 237.642 91.2208 237.825 91.98 237.832Z" fill="#E0E0E0"/>
<path d="M93.3661 212.297L87.3685 231.604C87.146 232.323 87.0974 233.083 87.2266 233.824C87.3558 234.565 87.6592 235.266 88.1125 235.87C88.5658 236.475 89.1563 236.966 89.8367 237.304C90.5171 237.643 91.2685 237.819 92.0305 237.82H135.526C136.82 237.82 138.062 237.313 138.978 236.411C139.895 235.509 140.411 234.286 140.415 233.009V212.297H93.3661Z" fill="#FAFAFA"/>
<path d="M86.4109 298.785C86.4076 301.927 87.0324 305.039 88.2495 307.942C89.4666 310.846 91.2522 313.484 93.5039 315.705C95.7557 317.927 98.4295 319.689 101.372 320.89C104.315 322.091 107.469 322.707 110.653 322.704C117.045 322.626 123.152 320.084 127.668 315.621C132.184 311.158 134.751 305.129 134.82 298.822C134.823 295.682 134.199 292.572 132.982 289.67C131.766 286.768 129.981 284.131 127.731 281.911C125.48 279.69 122.808 277.929 119.867 276.729C116.925 275.529 113.773 274.913 110.59 274.916C104.199 274.99 98.0904 277.529 93.5717 281.99C89.053 286.451 86.4829 292.479 86.4109 298.785Z" fill="#E0E0E0"/>
<path d="M329.364 321.97C342.175 321.97 352.561 311.434 352.561 298.437C352.561 285.44 342.175 274.903 329.364 274.903C316.553 274.903 306.167 285.44 306.167 298.437C306.167 311.434 316.553 321.97 329.364 321.97Z" fill="#E0E0E0"/>
<path d="M150.041 267.072L403.49 267.072V114.832L150.041 114.832L150.041 267.072Z" fill="#E6E6E6"/>
<path d="M396.648 260.856C396.717 260.856 396.786 260.842 396.851 260.816C396.915 260.79 396.973 260.751 397.022 260.703C397.071 260.654 397.11 260.597 397.137 260.533C397.164 260.47 397.177 260.402 397.177 260.334V121.558C397.177 121.489 397.164 121.421 397.137 121.358C397.11 121.295 397.071 121.237 397.022 121.189C396.973 121.14 396.915 121.102 396.851 121.076C396.786 121.049 396.717 121.036 396.648 121.036H276.885V260.856H396.648Z" fill="#E0E0E0"/>
<path d="M396.648 158.107C396.95 158.107 397.177 158.045 397.177 157.97V121.135C397.177 121.048 396.95 120.986 396.648 120.986H276.885V158.107H396.648Z" fill="#F5F5F5"/>
<path d="M150.028 114.82H270.585V267.072H150.028V114.82Z" fill="#EBEBEB"/>
<path d="M333.711 260.843H384.729V218.899H333.711V260.843Z" fill="#EBEBEB"/>
<path d="M276.898 260.856H341.271V210.706H276.898V260.856Z" fill="#F0F0F0"/>
<path d="M276.898 210.706H331.821V162.98H276.898V210.706Z" fill="#EBEBEB"/>
<path d="M152.674 299.817H386.997V267.059H152.674V299.817Z" fill="#E6E6E6"/>
<path d="M274 295.901H384.729V271.485H274V295.901Z" fill="#E6E6E6"/>
<path d="M277.654 290.431H309.645V280.734H277.654V290.431Z" fill="#FAFAFA"/>
<path d="M277.641 290.431H296.944V280.734H277.641V290.431Z" fill="#F0F0F0"/>
<path d="M345.593 290.431H377.584V280.734H345.593V290.431Z" fill="#FAFAFA"/>
<path d="M363.094 290.431H377.584V280.734H363.094V290.431Z" fill="#F0F0F0"/>
<path d="M230.366 298.437C230.366 311.428 233.617 321.97 252.617 321.97C265.419 321.97 276.759 311.428 276.759 298.437C276.862 295.368 276.338 292.31 275.218 289.445C274.098 286.58 272.406 283.966 270.242 281.759C268.078 279.552 265.486 277.798 262.621 276.599C259.755 275.401 256.675 274.783 253.562 274.783C250.45 274.783 247.37 275.401 244.504 276.599C241.639 277.798 239.047 279.552 236.883 281.759C234.719 283.966 233.027 286.58 231.907 289.445C230.787 292.31 230.263 295.368 230.366 298.437Z" fill="#E0E0E0"/>
<path d="M223.209 297.791C223.162 300.926 223.743 304.04 224.918 306.954C226.092 309.867 227.838 312.524 230.055 314.771C232.272 317.018 234.916 318.812 237.836 320.049C240.756 321.287 243.895 321.944 247.073 321.983C259.888 321.983 269.602 311.565 269.602 297.803C269.602 284.041 259.207 272.939 246.406 272.939C233.604 272.939 223.209 284.029 223.209 297.791Z" fill="#E6E6E6"/>
<path d="M83.4498 298.362C83.4498 311.801 93.8322 322.703 106.634 322.703C119.435 322.703 129.78 311.801 129.78 298.362C129.78 284.923 119.398 274.008 106.583 274.008C93.7692 274.008 83.4498 284.911 83.4498 298.362Z" fill="#E6E6E6"/>
<path d="M95.231 297.79C95.231 304.553 100.271 310.048 106.571 310.048C112.871 310.048 117.974 304.553 117.974 297.79C117.974 291.027 112.871 285.545 106.571 285.545C100.271 285.545 95.231 291.027 95.231 297.79Z" fill="#E0E0E0"/>
<path d="M235.003 297.79C235.003 304.553 240.106 310.048 246.406 310.048C252.706 310.048 257.809 304.553 257.809 297.79C257.809 291.027 252.706 285.545 246.406 285.545C240.106 285.545 235.003 291.027 235.003 297.79Z" fill="#E0E0E0"/>
<path d="M346.399 148.472H324.853C324.853 149.923 325.437 151.314 326.477 152.34C327.517 153.366 328.927 153.942 330.397 153.942H340.855C342.326 153.942 343.736 153.366 344.775 152.34C345.815 151.314 346.399 149.923 346.399 148.472Z" fill="#F0F0F0"/>
<path d="M198.248 173.771V139.435H222.377V173.771H246.506V208.12H222.377V242.457H198.248V208.12H174.119V173.771H198.248Z" fill="#FAFAFA"/>
<path d="M454.646 322.703H503.068V279.105H454.646V322.703Z" fill="#EBEBEB"/>
<path d="M464.209 314.088H493.504V287.708H464.209V314.088Z" fill="#F5F5F5"/>
<path d="M503.068 322.703H516.84V279.105H503.068V322.703Z" fill="#E0E0E0"/>
<path d="M506.759 284.24H513.148V279.105H506.759V284.24Z" fill="#F5F5F5"/>
<path d="M508.902 322.703H557.323V279.105H508.902V322.703Z" fill="#EBEBEB"/>
<path d="M518.465 314.088H547.76V287.708H518.465V314.088Z" fill="#F5F5F5"/>
<path d="M557.323 322.703H571.095V279.105H557.323V322.703Z" fill="#E0E0E0"/>
<path d="M561.015 284.24H567.403V279.105H561.015V284.24Z" fill="#F5F5F5"/>
<path d="M481.774 279.105H530.196V235.507H481.774V279.105Z" fill="#EBEBEB"/>
<path d="M491.337 270.502H520.632V244.122H491.337V270.502Z" fill="#F5F5F5"/>
<path d="M530.196 279.105H543.968V235.507H530.196V279.105Z" fill="#E0E0E0"/>
<path d="M533.887 240.641H540.276V235.507H533.887V240.641Z" fill="#F5F5F5"/>
<path d="M117.168 72.3279C130.487 72.3279 141.284 61.6748 141.284 48.5335C141.284 35.3922 130.487 24.7391 117.168 24.7391C103.848 24.7391 93.0511 35.3922 93.0511 48.5335C93.0511 61.6748 103.848 72.3279 117.168 72.3279Z" fill="#F5F5F5"/>
<path d="M155.442 57.5777C158.172 51.0759 155.043 43.6219 148.453 40.9287C141.863 38.2356 134.308 41.3231 131.578 47.8249C128.849 54.3268 131.978 61.7808 138.568 64.4739C145.158 67.167 152.713 64.0795 155.442 57.5777Z" fill="#F5F5F5"/>
<path d="M114.229 69.2023C116.785 63.1128 113.855 56.1316 107.683 53.6092C101.511 51.0868 94.4349 53.9786 91.8784 60.0681C89.322 66.1576 92.2528 73.1389 98.4248 75.6613C104.597 78.1836 111.672 75.2919 114.229 69.2023Z" fill="#F5F5F5"/>
<path d="M96.5228 59.0891C102.9 52.7972 102.9 42.5959 96.5228 36.3039C90.1457 30.012 79.8063 30.012 73.4292 36.3039C67.0521 42.5959 67.0521 52.7972 73.4292 59.0891C79.8063 65.3811 90.1457 65.3811 96.5228 59.0891Z" fill="#F5F5F5"/>
<path d="M536.468 84.7879C540.213 69.1314 530.385 53.4436 514.517 49.7483C498.649 46.053 482.748 55.7496 479.003 71.4061C475.258 87.0627 485.086 102.751 500.954 106.446C516.822 110.141 532.723 100.445 536.468 84.7879Z" fill="#F5F5F5"/>
<path d="M475.499 98.8199C484.232 98.8199 491.312 91.8347 491.312 83.2181C491.312 74.6014 484.232 67.6162 475.499 67.6162C466.766 67.6162 459.686 74.6014 459.686 83.2181C459.686 91.8347 466.766 98.8199 475.499 98.8199Z" fill="#F5F5F5"/>
<path d="M539.429 101.169C541.307 93.3178 536.378 85.4505 528.42 83.5973C520.462 81.7442 512.489 86.6069 510.61 94.4586C508.732 102.31 513.661 110.178 521.619 112.031C529.577 113.884 537.55 109.021 539.429 101.169Z" fill="#F5F5F5"/>
<path d="M547.167 96.7935C558.204 96.7935 567.151 87.966 567.151 77.0768C567.151 66.1875 558.204 57.36 547.167 57.36C536.131 57.36 527.184 66.1875 527.184 77.0768C527.184 87.966 536.131 96.7935 547.167 96.7935Z" fill="#F5F5F5"/>
</g>
<g style="mix-blend-mode:multiply">
<path d="M315 451.497C470.751 451.497 597.013 436.97 597.013 419.05C597.013 401.13 470.751 386.603 315 386.603C159.248 386.603 32.9867 401.13 32.9867 419.05C32.9867 436.97 159.248 451.497 315 451.497Z" fill="#F5F5F5"/>
</g>
<path d="M399.105 377.95H323.429V428.983H399.105V377.95Z" fill="#00D749"/>
<path opacity="0.2" d="M399.105 377.95H323.429V428.983H399.105V377.95Z" fill="black"/>
<path opacity="0.8" d="M335.072 377.95H327.587V387.796H335.072V377.95Z" fill="white"/>
<path opacity="0.3" d="M335.072 377.95V387.796H327.587V377.95H323.429V428.846H339.23V377.95H335.072Z" fill="black"/>
<path opacity="0.8" d="M350.079 387.373V418.453H385.359V387.373H350.079ZM377.799 407.264H371.499V412.237H365.199V407.264H358.899V399.805H365.199V393.589H371.499V399.805H377.799V407.264Z" fill="white"/>
<path d="M331.783 377.95H256.108V428.983H331.783V377.95Z" fill="#00D749"/>
<path opacity="0.2" d="M331.783 377.95H256.108V428.983H331.783V377.95Z" fill="white"/>
<path opacity="0.8" d="M267.75 377.95H260.266V387.796H267.75V377.95Z" fill="white"/>
<path opacity="0.3" d="M267.75 377.95V387.796H260.266V377.95H256.108V428.846H271.908V377.95H267.75Z" fill="black"/>
<path opacity="0.8" d="M283.299 387.373V418.453H318.579V387.373H283.299ZM309.759 407.264H304.719V412.237H297.159V407.264H292.119V399.805H297.159V393.589H304.719V399.805H309.759V407.264Z" fill="white"/>
<path d="M341.699 326.234H265.986V377.95H341.699V326.234Z" fill="#00D749"/>
<path opacity="0.8" d="M277.628 326.234H270.144V336.08H277.628V326.234Z" fill="white"/>
<path opacity="0.8" d="M293.442 336.901V367.271H329.226V336.901H293.442ZM320.897 354.964H315.076V361.528H308.423V354.964H302.589V349.221H308.423V342.644H315.076V349.221H320.897V354.964Z" fill="white"/>
<path opacity="0.3" d="M341.7 326.234H281.786V328.696L288.729 345.106H341.7V326.234Z" fill="black"/>
<path opacity="0.3" d="M281.786 326.234H277.628V336.08H270.144V326.234H265.986V377.95H281.786V326.234Z" fill="black"/>
<path d="M265.986 326.234H281.786L274.856 342.644H259.031L265.986 326.234Z" fill="#00D749"/>
<path d="M341.7 326.234H281.786L288.729 342.644H348.655L341.7 326.234Z" fill="#00D749"/>
<path d="M443.52 151.531C443.52 151.531 440.395 154.688 436.25 158.654L435.582 159.288C434.486 160.332 433.327 161.426 432.142 162.52C430.504 164.049 428.828 165.566 427.203 166.996C422.957 170.725 419.101 173.696 417.375 174.044C412.562 175.027 384.615 175.002 382.007 176.009C379.399 177.016 381.515 169.669 381.515 169.669C381.515 169.669 413.129 166.038 416.002 166.001C417.161 166.001 420.651 162.272 424.406 157.833C429.975 151.232 436.149 143.052 436.149 143.052L440.194 147.702L443.52 151.531Z" fill="#FFAA75"/>
<path d="M443.52 133.306C441.366 134.08 439.391 135.272 437.711 136.812C435.468 139.099 421.331 155.534 421.331 155.534C421.331 155.534 429.584 162.098 434.36 163.353C434.322 163.353 443.734 140.69 443.52 133.306Z" fill="#00D749"/>
<path opacity="0.3" d="M443.52 133.293C443.633 136.364 442.083 142.07 440.206 147.702C438.883 151.73 437.396 155.72 436.262 158.654C435.128 161.588 434.385 163.353 434.385 163.353H434.271C433.543 163.15 432.835 162.884 432.155 162.558C430.93 161.982 429.74 161.339 428.589 160.631C427.089 159.711 425.628 158.716 424.418 157.871C422.604 156.566 421.356 155.571 421.356 155.571C421.356 155.571 435.468 139.136 437.736 136.849C439.407 135.298 441.373 134.089 443.52 133.293Z" fill="#263238"/>
<path opacity="0.2" d="M438.278 149.318C438.278 149.318 437.132 154.104 435.532 159.263C435.116 160.606 434.675 161.973 434.208 163.291C433.48 163.088 432.772 162.822 432.092 162.495C430.454 164.025 428.778 165.541 427.153 166.971C427.091 164.76 427.562 162.566 428.526 160.568C430.784 156.08 434.135 152.215 438.278 149.318Z" fill="black"/>
<path d="M484.672 395.243L478.498 402.279L463.39 388.903L469.552 381.854L484.672 395.243Z" fill="#FFAA75"/>
<path opacity="0.2" d="M469.552 381.854L463.39 388.903L471.19 395.802L477.364 388.753L469.552 381.854Z" fill="black"/>
<path d="M428.034 226.706L427.883 197.354L477.363 202.327C477.363 202.327 480.992 223.884 476.103 245.241L463.226 243.19C455.339 264.821 436.262 319.509 440.685 330.921C446.241 345.218 475.486 382.625 475.486 382.625L463.44 394.497C463.44 394.497 411.78 349.308 408.605 319.844C406.148 297.716 420.915 245.726 428.034 226.706Z" fill="#263238"/>
<path d="M475.713 400.775L483.777 393.316C483.91 393.195 484.082 393.123 484.263 393.111C484.444 393.1 484.624 393.15 484.772 393.254L491.601 397.866C491.747 397.966 491.871 398.092 491.967 398.239C492.063 398.386 492.129 398.551 492.161 398.723C492.192 398.895 492.189 399.071 492.152 399.242C492.114 399.413 492.043 399.575 491.941 399.718C491.881 399.795 491.813 399.865 491.74 399.93C489.094 402.304 487.04 403.895 483.764 406.916C481.748 408.781 475.864 414.612 473.079 417.185C470.295 419.758 467.346 417.384 468.254 416.079C472.323 410.261 474.73 405.176 474.995 402.217C475.039 401.664 475.296 401.148 475.713 400.775Z" fill="#263238"/>
<path d="M474.604 403.958C474.186 404.408 473.627 404.706 473.016 404.803C472.799 404.817 472.581 404.776 472.384 404.682C472.188 404.588 472.019 404.446 471.895 404.268C471.809 404.179 471.751 404.067 471.727 403.946C471.702 403.825 471.712 403.7 471.756 403.585C472.134 402.54 475.536 401.857 475.889 401.782C475.932 401.77 475.977 401.772 476.017 401.788C476.058 401.804 476.093 401.832 476.116 401.869C476.14 401.904 476.153 401.945 476.153 401.987C476.153 402.029 476.14 402.07 476.116 402.105C475.687 402.779 475.18 403.401 474.604 403.958ZM472.336 403.51C472.26 403.567 472.203 403.645 472.172 403.734C472.172 403.734 472.172 403.883 472.248 404.02C472.33 404.134 472.44 404.227 472.568 404.29C472.695 404.353 472.836 404.384 472.979 404.38C474.053 404.031 474.953 403.294 475.499 402.317C474.375 402.506 473.301 402.911 472.336 403.51Z" fill="#00D749"/>
<path d="M476.078 402.155L476.003 402.229C474.982 402.49 472.286 402.229 471.769 401.459C471.679 401.324 471.641 401.162 471.662 401.003C471.683 400.843 471.761 400.696 471.883 400.588C471.987 400.462 472.117 400.359 472.265 400.286C472.412 400.213 472.574 400.172 472.739 400.166C474.088 400.079 476.041 401.807 476.129 401.894C476.157 401.921 476.177 401.954 476.188 401.991C476.199 402.028 476.201 402.068 476.192 402.105C476.162 402.136 476.121 402.154 476.078 402.155ZM472.298 400.725L472.21 400.8C472.009 400.986 472.109 401.123 472.135 401.173C472.462 401.67 474.34 401.981 475.499 401.856C474.75 401.152 473.8 400.692 472.777 400.539C472.679 400.531 472.58 400.543 472.486 400.575C472.393 400.607 472.307 400.658 472.235 400.725H472.298Z" fill="#00D749"/>
<path d="M465.86 399.159L478.561 383.371L474.289 379.753L460.82 395.914L465.86 399.159Z" fill="#00D749"/>
<path opacity="0.6" d="M465.86 399.159L478.561 383.371L474.289 379.753L460.82 395.914L465.86 399.159Z" fill="white"/>
<path d="M455.767 419.808H446.683L445.927 399.035H455.024L455.767 419.808Z" fill="#FFAA75"/>
<path d="M445.422 418.776H456.46C456.641 418.777 456.816 418.837 456.957 418.947C457.099 419.058 457.199 419.212 457.241 419.385L459.03 427.379C459.102 427.722 459.033 428.078 458.84 428.371C458.646 428.664 458.344 428.871 457.997 428.945C457.897 428.957 457.795 428.957 457.695 428.945C454.129 428.945 451.521 428.672 447.035 428.672C444.276 428.672 435.935 428.958 432.117 428.958C428.299 428.958 427.808 425.228 429.37 424.905C436.376 423.388 441.655 421.3 443.898 419.323C444.314 418.951 444.861 418.754 445.422 418.776Z" fill="#263238"/>
<path d="M442.411 420.342C441.797 420.392 441.184 420.234 440.672 419.895C440.503 419.759 440.372 419.583 440.292 419.382C440.213 419.182 440.187 418.964 440.219 418.751C440.215 418.628 440.248 418.506 440.313 418.4C440.377 418.294 440.472 418.209 440.584 418.154C441.592 417.645 444.528 419.398 444.855 419.634C444.892 419.652 444.921 419.681 444.939 419.717C444.957 419.753 444.963 419.793 444.956 419.833C444.95 419.876 444.932 419.917 444.903 419.95C444.874 419.983 444.835 420.007 444.792 420.019C444.014 420.22 443.215 420.329 442.411 420.342ZM441.063 418.49C440.972 418.465 440.876 418.465 440.786 418.49C440.723 418.49 440.66 418.577 440.647 418.751C440.626 418.892 440.641 419.035 440.692 419.168C440.743 419.3 440.827 419.418 440.937 419.51C441.957 419.966 443.114 420.024 444.175 419.671C443.221 419.09 442.165 418.69 441.063 418.49Z" fill="#00D749"/>
<path d="M444.78 420.032H444.666C443.734 419.522 441.92 417.545 442.146 416.601C442.176 416.443 442.263 416.301 442.39 416.2C442.517 416.1 442.677 416.048 442.839 416.054C443.002 416.029 443.168 416.041 443.325 416.088C443.482 416.136 443.626 416.217 443.747 416.327C444.805 417.16 445.007 419.746 445.007 419.87C445.006 419.909 444.996 419.946 444.979 419.981C444.961 420.015 444.936 420.045 444.906 420.069C444.86 420.073 444.815 420.06 444.78 420.032ZM442.953 416.389H442.839C442.562 416.389 442.55 416.551 442.537 416.601C442.411 417.185 443.57 418.689 444.515 419.373C444.454 418.353 444.075 417.376 443.432 416.576C443.363 416.511 443.282 416.461 443.193 416.429C443.104 416.397 443.009 416.383 442.915 416.389H442.953Z" fill="#00D749"/>
<path opacity="0.2" d="M455.024 399.047H445.927L446.317 409.763H455.427L455.024 399.047Z" fill="black"/>
<path d="M477.212 195.999C486.032 241.736 456.196 307.885 458.678 405.972H442.058C442.058 405.972 428.539 337.684 439.009 221.683C439.009 221.683 424.481 201.792 428.261 195.999C434.952 185.78 477.212 195.999 477.212 195.999Z" fill="#263238"/>
<path opacity="0.2" d="M477.212 195.999C486.032 241.736 456.196 307.885 458.678 405.972H442.058C442.058 405.972 428.539 337.684 439.009 221.683C439.009 221.683 424.481 201.792 428.261 195.999C434.952 185.78 477.212 195.999 477.212 195.999Z" fill="white"/>
<path d="M440.143 408.035H459.761V402.254L439.412 401.881L440.143 408.035Z" fill="#00D749"/>
<path opacity="0.6" d="M440.143 408.035H459.761V402.254L439.412 401.881L440.143 408.035Z" fill="white"/>
<path d="M454.482 130.533C454.482 130.533 459.711 129.029 473.861 127.935L451.181 157.473L444.024 154.278L448.132 136.787L454.482 130.533Z" fill="#00D749"/>
<path opacity="0.3" d="M454.482 130.533C454.482 130.533 459.711 129.029 473.861 127.935L451.181 157.473L444.024 154.278L448.132 136.787L454.482 130.533Z" fill="#263238"/>
<path d="M490.694 144.867C490.694 144.867 486.813 155.322 483.247 168.053C482.92 169.196 482.605 170.365 482.29 171.533C481.975 172.702 481.698 173.771 481.42 174.902C481.143 176.034 480.904 176.941 480.664 177.961C480.425 178.98 480.186 179.999 479.971 181.019C479.795 181.839 479.619 182.672 479.455 183.505C479.152 184.972 478.875 186.439 478.648 187.881C478.548 188.416 478.459 188.938 478.384 189.472C477.955 192.207 477.64 194.868 477.489 197.367H427.883C427.883 197.367 427.883 194.333 428.173 189.472C428.173 189.037 428.173 188.577 428.261 188.117C428.261 188.043 428.261 187.968 428.261 187.881C428.261 187.173 428.349 186.427 428.412 185.643C428.475 184.86 428.538 184.239 428.601 183.505C428.664 182.772 428.752 181.889 428.828 181.019C428.904 180.149 429.042 179.017 429.168 177.961C429.168 177.7 429.168 177.426 429.256 177.153C429.345 176.419 429.445 175.661 429.546 174.902C429.685 173.808 429.849 172.69 430.012 171.533C430.176 170.377 430.378 169.221 430.579 168.053C432.583 156.503 436.073 144.134 442.02 133.902L454.482 130.533C454.482 130.533 448.182 144.432 448.749 154.291C448.749 154.291 460.845 139.049 473.772 128.022L473.835 127.96C473.835 127.96 485.654 127.028 487.695 129.29C489.736 131.553 490.694 144.867 490.694 144.867Z" fill="#00D749"/>
<path opacity="0.9" d="M490.694 144.867C490.694 144.867 486.813 155.322 483.247 168.053C482.932 169.147 482.63 170.265 482.328 171.384V171.533C482.025 172.652 481.735 173.771 481.458 174.902C481.181 176.034 480.942 176.941 480.702 177.961C480.463 178.98 480.223 179.999 480.009 181.019C479.833 181.839 479.656 182.672 479.493 183.505C479.19 184.972 478.913 186.439 478.686 187.881C478.585 188.416 478.497 188.938 478.422 189.472C477.993 192.207 477.678 194.868 477.527 197.367H427.883C427.883 197.367 427.883 194.333 428.173 189.472C428.173 189.037 428.173 188.577 428.261 188.117C428.261 188.043 428.261 187.968 428.261 187.881C428.261 187.173 428.349 186.427 428.412 185.643C428.475 184.86 428.538 184.239 428.601 183.505C428.664 182.772 428.752 181.889 428.828 181.019C428.904 180.149 429.042 179.017 429.168 177.961C429.168 177.7 429.168 177.426 429.256 177.153C429.345 176.419 429.445 175.661 429.546 174.902C429.685 173.808 429.849 172.69 430.012 171.533C430.176 170.377 430.378 169.221 430.579 168.053C432.583 156.503 436.073 144.134 442.02 133.902L454.482 130.533C454.482 130.533 448.182 144.432 448.749 154.291C448.749 154.291 460.845 139.049 473.772 128.022L473.835 127.96C473.835 127.96 485.654 127.028 487.695 129.29C489.333 131.031 490.215 139.609 490.492 143.239C490.656 144.208 490.694 144.867 490.694 144.867Z" fill="#263238"/>
<path d="M483.248 168.052C482.92 169.196 482.605 170.365 482.29 171.533C481.975 172.702 481.698 173.771 481.421 174.902H429.572C429.71 173.808 429.874 172.69 430.038 171.533C430.202 170.377 430.403 169.221 430.605 168.052H483.248Z" fill="#00D749"/>
<path opacity="0.8" d="M483.248 168.052C482.92 169.196 482.605 170.365 482.29 171.533C481.975 172.702 481.698 173.771 481.421 174.902H429.572C429.71 173.808 429.874 172.69 430.038 171.533C430.202 170.377 430.403 169.221 430.605 168.052H483.248Z" fill="white"/>
<path d="M479.972 181.019C479.795 181.839 479.619 182.672 479.455 183.505C479.153 184.972 478.875 186.439 478.649 187.881H428.249C428.249 187.173 428.337 186.427 428.4 185.643C428.463 184.86 428.526 184.239 428.589 183.505C428.652 182.772 428.74 181.889 428.816 181.019H479.972Z" fill="#00D749"/>
<path opacity="0.8" d="M479.972 181.019C479.795 181.839 479.619 182.672 479.455 183.505C479.153 184.972 478.875 186.439 478.649 187.881H428.249C428.249 187.173 428.337 186.427 428.4 185.643C428.463 184.86 428.526 184.239 428.589 183.505C428.652 182.772 428.74 181.889 428.816 181.019H479.972Z" fill="white"/>
<path d="M471.719 202.973L478.031 202.874L477.489 196.509H471.719V202.973Z" fill="black"/>
<path d="M469.98 196.509H450.538V203.346L469.98 203.01V196.509Z" fill="black"/>
<path d="M448.673 196.509H427.896V203.744L448.673 203.383V196.509Z" fill="black"/>
<path d="M437.535 204.366H432.041C431.561 204.362 431.101 204.173 430.762 203.838C430.422 203.503 430.23 203.049 430.227 202.575V197.155C430.23 196.683 430.423 196.23 430.763 195.897C431.103 195.564 431.562 195.377 432.041 195.377H437.535C438.014 195.377 438.473 195.564 438.813 195.897C439.153 196.23 439.346 196.683 439.349 197.155V202.638C439.33 203.1 439.13 203.538 438.793 203.86C438.455 204.182 438.004 204.363 437.535 204.366ZM432.041 196.621C431.896 196.621 431.757 196.677 431.654 196.776C431.55 196.876 431.49 197.012 431.487 197.155V202.638C431.487 202.783 431.545 202.922 431.649 203.024C431.753 203.127 431.894 203.185 432.041 203.185H437.535C437.682 203.185 437.823 203.127 437.927 203.024C438.031 202.922 438.089 202.783 438.089 202.638V197.217C438.086 197.074 438.026 196.938 437.922 196.839C437.819 196.739 437.68 196.683 437.535 196.683L432.041 196.621Z" fill="white"/>
<path d="M437.22 200.487H434.8C434.633 200.487 434.473 200.421 434.355 200.305C434.237 200.188 434.17 200.03 434.17 199.865C434.17 199.7 434.237 199.542 434.355 199.426C434.473 199.309 434.633 199.244 434.8 199.244H437.22C437.386 199.247 437.544 199.313 437.662 199.429C437.779 199.545 437.846 199.701 437.85 199.865C437.85 200.03 437.783 200.188 437.665 200.305C437.547 200.421 437.387 200.487 437.22 200.487Z" fill="white"/>
<path d="M470.169 115.006C469.86 119.697 470.148 124.408 471.026 129.029C471.026 129.029 463.844 135.991 457.645 134.673C452.201 133.517 457.317 129.974 457.317 129.974C458.713 127.868 459.417 125.39 459.333 122.875C459.207 118.624 470.169 115.006 470.169 115.006Z" fill="#FFAA75"/>
<path opacity="0.2" d="M459.333 122.875C459.384 124.399 459.14 125.918 458.615 127.351C460.312 127.378 461.99 126.986 463.495 126.211C465 125.436 466.285 124.302 467.233 122.913C468.549 121.175 469.503 119.197 470.043 117.095C470.043 115.851 470.169 115.006 470.169 115.006C470.169 115.006 459.207 118.624 459.333 122.875Z" fill="black"/>
<path d="M477.54 91.0873C477.54 91.0873 479.619 107.932 470.711 119.805C468.511 118.512 466.694 116.672 465.442 114.468C464.19 112.264 463.548 109.775 463.579 107.249C463.554 98.3723 477.54 91.0873 477.54 91.0873Z" fill="#263238"/>
<path d="M471.719 102.177C471.719 110.792 472.109 115.851 467.939 120.476C461.727 127.475 450.752 124.131 448.194 115.702C445.876 108.057 446.33 95.3018 454.646 91.3982C456.054 90.7302 457.581 90.3424 459.141 90.257C460.701 90.1716 462.263 90.3903 463.737 90.9006C465.212 91.4109 466.57 92.2027 467.734 93.2309C468.898 94.2591 469.845 95.5035 470.522 96.893C471.338 98.5362 471.748 100.347 471.719 102.177Z" fill="#FFAA75"/>
<path d="M470.748 113.838L465.368 118.35L464.159 118.064L465.154 117.256L470.219 113.838L470.748 112.769V113.838Z" fill="#00D749"/>
<path opacity="0.8" d="M470.748 113.838L465.368 118.35L464.159 118.064L465.154 117.256L470.219 113.838L470.748 112.769V113.838Z" fill="white"/>
<path d="M458.262 105.421C458.262 106.13 457.96 106.664 457.493 106.739C457.027 106.814 456.624 106.217 456.586 105.496C456.548 104.775 456.889 104.253 457.355 104.253C457.821 104.253 458.224 104.737 458.262 105.421Z" fill="#2E353A"/>
<path d="M450.261 105.881C450.261 106.577 449.958 107.124 449.492 107.187C449.026 107.249 448.623 106.664 448.585 105.943C448.547 105.222 448.887 104.7 449.354 104.626C449.82 104.551 450.223 105.173 450.261 105.881Z" fill="#2E353A"/>
<path d="M453.247 105.981C452.519 108.159 451.493 110.23 450.198 112.135C450.702 112.449 451.27 112.652 451.862 112.729C452.453 112.806 453.055 112.756 453.625 112.582L453.247 105.981Z" fill="#ED893E"/>
<path d="M460.82 101.94C460.886 101.959 460.956 101.959 461.021 101.94C461.095 101.86 461.136 101.756 461.136 101.648C461.136 101.54 461.095 101.436 461.021 101.356C460.601 100.852 460.065 100.453 459.459 100.192C458.852 99.9305 458.192 99.814 457.531 99.8516C457.423 99.8671 457.325 99.924 457.259 100.01C457.193 100.096 457.164 100.205 457.178 100.312C457.183 100.366 457.199 100.42 457.225 100.468C457.252 100.516 457.288 100.559 457.332 100.593C457.375 100.626 457.426 100.651 457.48 100.665C457.534 100.678 457.59 100.681 457.645 100.672C458.167 100.652 458.688 100.754 459.163 100.97C459.638 101.186 460.055 101.51 460.379 101.915C460.442 101.961 460.517 101.988 460.596 101.993C460.674 101.997 460.752 101.979 460.82 101.94Z" fill="#2E353A"/>
<path d="M446.96 102.873C447.028 102.858 447.092 102.828 447.147 102.785C447.201 102.742 447.245 102.687 447.275 102.624C447.459 102.146 447.755 101.717 448.138 101.372C448.521 101.026 448.98 100.774 449.48 100.635C449.54 100.634 449.599 100.62 449.653 100.593C449.708 100.567 449.755 100.53 449.793 100.484C449.831 100.437 449.859 100.384 449.874 100.326C449.889 100.268 449.89 100.208 449.879 100.149C449.868 100.091 449.844 100.035 449.809 99.9869C449.774 99.9384 449.729 99.898 449.677 99.8686C449.624 99.8391 449.566 99.8212 449.506 99.8162C449.446 99.8111 449.385 99.8191 449.328 99.8395C448.685 99.9988 448.09 100.308 447.592 100.74C447.095 101.173 446.709 101.716 446.468 102.326C446.447 102.374 446.437 102.426 446.436 102.478C446.436 102.53 446.446 102.582 446.465 102.631C446.485 102.679 446.515 102.723 446.552 102.761C446.589 102.798 446.634 102.828 446.682 102.848C446.769 102.89 446.867 102.898 446.96 102.873Z" fill="#2E353A"/>
<path d="M457.216 115.988C456.919 116.124 456.611 116.236 456.296 116.324C456.248 116.341 456.195 116.338 456.148 116.317C456.101 116.297 456.064 116.259 456.044 116.212C456.032 116.163 456.04 116.111 456.066 116.067C456.092 116.023 456.133 115.99 456.183 115.976C456.982 115.76 457.719 115.362 458.334 114.813C458.949 114.265 459.425 113.581 459.723 112.818C459.738 112.77 459.771 112.728 459.816 112.703C459.86 112.678 459.913 112.67 459.963 112.682C459.988 112.687 460.012 112.698 460.033 112.713C460.054 112.728 460.071 112.748 460.084 112.77C460.097 112.792 460.105 112.817 460.108 112.842C460.111 112.868 460.109 112.893 460.101 112.918C459.851 113.593 459.467 114.212 458.971 114.739C458.476 115.266 457.879 115.691 457.216 115.988Z" fill="#263238"/>
<path d="M444.163 90.5031C444.163 93.4494 447.388 95.3266 451.206 95.8363C455.024 96.346 462.685 95.1775 463.554 95.8363C464.423 96.4952 464.562 103.009 465.885 103.581C467.208 104.153 468.745 107.883 469.224 109.138C469.703 110.394 473.71 108.057 475.007 104.663C476.305 101.269 477.994 92.7781 477.527 91.0874C477.061 89.3967 473.747 89.5956 472.878 88.6011C472.009 87.6065 469.098 84.4861 465.746 83.6284C459.131 82.149 444.163 84.5359 444.163 90.5031Z" fill="#263238"/>
<path d="M462.659 109.474L470.106 105.981L468.732 107.92L462.659 111.55" fill="#00D749"/>
<path opacity="0.8" d="M462.659 109.474L470.106 105.981L468.732 107.92L462.659 111.55" fill="white"/>
<path d="M451.773 109.474C450.192 109.676 448.655 110.134 447.224 110.829C447.42 112.478 447.753 114.108 448.22 115.702C448.804 117.628 449.867 119.379 451.313 120.794C452.759 122.21 454.542 123.246 456.498 123.808C462.055 123.808 465.734 118.35 465.734 118.35C464.433 115.491 463.404 112.52 462.659 109.474C459.572 110.021 453.449 109.474 451.773 109.474Z" fill="#00D749"/>
<path opacity="0.5" d="M451.773 109.474C450.192 109.676 448.655 110.134 447.224 110.829C447.42 112.478 447.753 114.108 448.22 115.702C448.804 117.628 449.867 119.379 451.313 120.794C452.759 122.21 454.542 123.246 456.498 123.808C462.055 123.808 465.734 118.35 465.734 118.35C464.433 115.491 463.404 112.52 462.659 109.474C459.572 110.021 453.449 109.474 451.773 109.474Z" fill="white"/>
<path d="M476.431 109.946C475.369 111.835 473.594 113.233 471.492 113.837C468.682 114.608 467.284 112.134 468.052 109.524C468.758 107.186 471.051 103.954 473.861 104.327C474.477 104.415 475.061 104.655 475.559 105.024C476.057 105.394 476.452 105.881 476.708 106.441C476.964 107.001 477.073 107.616 477.025 108.229C476.976 108.841 476.772 109.432 476.431 109.946Z" fill="#FFAA75"/>
<path d="M438.687 162.991L367.884 154.995L361.765 207.734L432.568 215.73L438.687 162.991Z" fill="#00D749"/>
<path opacity="0.3" d="M367.92 155.012L361.796 207.747L404.636 212.583L410.76 159.848L367.92 155.012ZM399.281 204.229L368.89 200.798L373.237 163.366L403.628 166.797L399.281 204.229Z" fill="black"/>
<path opacity="0.8" d="M373.174 163.366L368.827 200.798L399.218 204.229L403.565 166.797L373.174 163.366ZM393.914 188.229L388.962 187.72L388.03 195.813L382.372 195.179L383.317 187.086L378.365 186.526L379.184 179.44L384.136 179.999L385.069 171.906L390.726 172.54L389.781 180.633L394.733 181.193L393.914 188.229Z" fill="white"/>
<path opacity="0.8" d="M430.771 162.085L420.006 160.869L418.921 170.219L429.687 171.435L430.771 162.085Z" fill="white"/>
<path opacity="0.2" d="M490.694 144.867C490.694 144.867 486.813 155.322 483.248 168.052C482.933 169.146 482.63 170.265 482.328 171.384C478.157 167.107 475.574 156.466 475.574 156.466C475.574 156.466 485.377 145.178 490.568 143.301C490.656 144.208 490.694 144.867 490.694 144.867Z" fill="black"/>
<path d="M479.758 141.2C479.758 141.2 469.514 167.903 466.754 168.711C463.995 169.519 434.599 181.566 434.599 181.566C434.599 181.566 434.599 189.174 436.829 187.521C439.06 185.867 465.935 178.321 470.295 176.083C474.655 173.846 489.195 147.366 489.195 147.366L479.758 141.2Z" fill="#FFAA75"/>
<path d="M469.375 159.126L481.333 165.081C481.333 165.081 493.265 146.831 493.29 138.341C493.29 133.368 488.704 124.914 482.971 130.471C480.791 132.535 469.375 159.126 469.375 159.126Z" fill="#00D749"/>
<path opacity="0.3" d="M469.375 159.126L481.333 165.081C481.333 165.081 493.265 146.831 493.29 138.341C493.29 133.368 488.704 124.914 482.971 130.471C480.791 132.535 469.375 159.126 469.375 159.126Z" fill="#263238"/>
<path d="M437.825 187.72L436.162 180.062L432.848 180.994C431.422 180.528 429.965 180.158 428.488 179.888C425.288 179.888 417.955 184.997 417.955 184.997C417.955 184.997 422.843 192.978 424.015 193.699C425.187 194.42 434.524 189.584 435.595 188.093L437.825 187.72Z" fill="#00D749"/>
<path opacity="0.6" d="M437.825 187.72L436.162 180.062L432.848 180.994C431.422 180.528 429.965 180.158 428.488 179.888C425.288 179.888 417.955 184.997 417.955 184.997C417.955 184.997 422.843 192.978 424.015 193.699C425.187 194.42 434.524 189.584 435.595 188.093L437.825 187.72Z" fill="white"/>
<path d="M178.555 410.981L173.565 422.531L161.885 421.101L153.014 420.007L142.065 418.664L147.596 413.841L156.341 413.033L164.745 412.262L178.555 410.981Z" fill="#FFC2BC"/>
<path opacity="0.2" d="M164.745 412.262L161.885 421.101L153.014 420.007L156.341 413.033L164.745 412.262Z" fill="black"/>
<path d="M150.973 413.107C151.54 413.679 144.156 420.206 144.156 420.206C144.156 420.206 135.462 420.206 130.296 423.426C125.13 426.646 124.941 421.847 129.578 417.21L141.032 405.698C144.345 402.354 145.152 407.19 150.973 413.107Z" fill="#263238"/>
<path d="M143.64 420.019H143.741H143.816H143.892C143.919 420.038 143.941 420.064 143.955 420.094C143.955 420.206 145.064 422.381 144.534 423.699C144.452 423.903 144.326 424.088 144.165 424.24C144.004 424.392 143.812 424.509 143.602 424.582C143.437 424.673 143.248 424.711 143.061 424.691C142.874 424.671 142.697 424.594 142.556 424.47C142.203 424.085 142.329 423.227 142.556 422.357C142.124 422.973 141.526 423.46 140.83 423.761C140.69 423.805 140.543 423.818 140.397 423.801C140.251 423.784 140.111 423.737 139.986 423.662C139.807 423.589 139.655 423.465 139.549 423.305C139.443 423.145 139.389 422.958 139.394 422.767C139.449 422.465 139.604 422.19 139.835 421.984C140.977 421.114 142.265 420.449 143.64 420.019ZM143.123 420.765C141.649 421.374 139.998 422.27 139.948 422.866C139.948 422.866 139.948 423.078 140.276 423.277C140.345 423.308 140.42 423.324 140.496 423.324C140.572 423.324 140.647 423.308 140.717 423.277C141.091 423.135 141.424 422.904 141.687 422.605C142.224 422.036 142.709 421.42 143.136 420.765H143.123ZM144.043 423.562C144.226 422.66 144.112 421.723 143.715 420.89C143.085 422.307 142.644 423.836 142.947 424.172C143.035 424.271 143.287 424.172 143.426 424.172C143.577 424.119 143.714 424.034 143.829 423.923C143.932 423.822 144.01 423.699 144.056 423.562H144.043Z" fill="#00D749"/>
<path d="M255.868 411.616C253.625 420.952 246.67 423.948 239.69 424.42C231.197 425.005 156.278 421.934 156.278 421.934L159.982 410.497L225.83 406.643L189.063 387.448C189.063 387.448 154.715 383.284 156.946 358.992C157.961 349.757 160.316 340.713 163.939 332.139C164.216 331.468 164.506 330.797 164.783 330.138L200.189 327.44L200.479 329.118L202.709 341.662L206.93 352.204C206.93 352.204 260.656 391.75 255.868 411.616Z" fill="#00D749"/>
<path opacity="0.3" d="M255.868 411.616C253.625 420.952 246.67 423.948 239.69 424.42C231.197 425.005 156.278 421.934 156.278 421.934L159.982 410.497L225.83 406.643L189.063 387.448C189.063 387.448 154.715 383.284 156.946 358.992C157.961 349.757 160.316 340.713 163.939 332.139C164.216 331.468 164.506 330.797 164.783 330.138L200.189 327.44L200.479 329.118L202.709 341.662L206.93 352.204C206.93 352.204 260.656 391.75 255.868 411.616Z" fill="black"/>
<path opacity="0.2" d="M208.568 353.385L163.308 376.197C172.721 385.397 189.063 387.386 189.063 387.386L225.83 406.58L160.02 410.434L156.315 421.872C156.315 421.872 231.235 425.004 239.727 424.358C246.708 423.886 253.663 420.889 255.906 411.553C260.152 393.826 217.539 360.222 208.568 353.385Z" fill="black"/>
<path d="M215.321 308.482C215.321 308.482 224.141 327.353 225.83 330.138C227.518 332.922 262.785 329.106 262.785 329.106V324.469C262.785 324.469 231.789 327.303 231.159 325.575C230.529 323.847 223.965 305.56 223.965 305.56L215.321 308.482Z" fill="#FFC2BC"/>
<path d="M251.634 324.382L251.496 330.759L254.797 331.207L258.703 333.121L271.076 332.4L275.524 323.81C275.524 323.81 260.656 319.583 259.484 320.006C258.312 320.429 255.704 324.382 255.704 324.382H251.634Z" fill="#00D749"/>
<path opacity="0.6" d="M251.634 324.382L251.496 330.759L254.797 331.207L258.703 333.121L271.076 332.4L275.524 323.81C275.524 323.81 260.656 319.583 259.484 320.006C258.312 320.429 255.704 324.382 255.704 324.382H251.634Z" fill="white"/>
<path d="M197.139 263.242C197.139 263.242 193.561 274.22 187.387 281.617C180.407 289.958 197.656 300.525 212.096 293.75C215.578 292.046 218.523 289.437 220.612 286.203C222.702 282.97 223.857 279.234 223.952 275.401C224.595 261.751 204.372 255.062 197.139 263.242Z" fill="#263238"/>
<path d="M218.547 293.812C215.157 292.072 205.796 305.287 205.796 305.287C205.796 305.287 215.649 315.655 217.69 320.752L229.698 317.022C229.698 317.022 224.418 296.821 218.547 293.812Z" fill="#00D749"/>
<path opacity="0.7" d="M229.698 317.01L217.69 320.739C216.401 318.117 214.789 315.662 212.889 313.43C209.538 309.215 205.796 305.274 205.796 305.274C207.887 302.349 210.19 299.578 212.688 296.982C214.943 294.745 217.211 293.104 218.547 293.787C224.418 296.821 229.698 317.01 229.698 317.01Z" fill="white"/>
<path opacity="0.2" d="M212.94 313.442C209.588 309.228 205.846 305.287 205.846 305.287C207.937 302.362 210.24 299.591 212.738 296.995C213.986 299.717 214.88 306.281 212.94 313.442Z" fill="black"/>
<path opacity="0.2" d="M172.544 333.246C172.544 333.246 168.537 355.126 156.945 358.93C158.172 349.739 160.515 340.727 163.926 332.09L172.544 333.246Z" fill="black"/>
<path opacity="0.2" d="M206.93 352.142C197.643 347.679 197.807 330.076 197.807 330.076L200.478 329.056L202.709 341.6L206.93 352.142Z" fill="black"/>
<path d="M222.276 416.824C222.276 416.029 232.193 416.452 232.193 416.452C232.193 416.452 238.404 422.444 244.352 423.687C250.299 424.93 247.073 428.51 240.458 428.66L224.078 428.995C219.404 429.082 222.251 425.067 222.276 416.824Z" fill="#263238"/>
<path d="M232.419 416.936H232.331V416.874C232.324 416.845 232.324 416.816 232.331 416.787C232.318 416.755 232.318 416.72 232.331 416.688C232.331 416.563 233.15 414.288 234.473 413.716C234.671 413.628 234.886 413.582 235.103 413.582C235.32 413.582 235.535 413.628 235.733 413.716C236.187 413.928 236.414 414.189 236.401 414.524C236.401 415.047 235.683 415.569 234.889 416.016C235.631 415.872 236.4 415.937 237.107 416.203C237.239 416.27 237.357 416.363 237.452 416.476C237.547 416.59 237.618 416.721 237.661 416.862C237.733 417.038 237.749 417.232 237.709 417.418C237.668 417.604 237.573 417.774 237.434 417.906C237.179 418.078 236.874 418.165 236.565 418.154C235.121 417.991 233.718 417.579 232.419 416.936ZM233.314 416.762C234.788 417.334 236.615 417.844 237.094 417.446C237.094 417.446 237.258 417.309 237.094 416.936C237.072 416.863 237.035 416.796 236.985 416.738C236.935 416.68 236.873 416.634 236.804 416.601C236.425 416.465 236.02 416.419 235.62 416.464C234.843 416.487 234.071 416.587 233.314 416.762ZM234.637 414.127C233.866 414.638 233.286 415.385 232.986 416.252C234.435 415.681 235.834 414.885 235.847 414.45C235.847 414.313 235.632 414.189 235.494 414.127C235.346 414.064 235.188 414.031 235.028 414.027C234.892 414.037 234.76 414.07 234.637 414.127Z" fill="#00D749"/>
<path d="M165.816 329.33L200.768 333.358C200.768 333.358 203.616 314.934 220.5 295.254C216.593 292.531 212.524 290.04 208.316 287.795C203.726 285.319 198.998 283.103 194.153 281.157C187.689 278.733 179.915 276.557 179.915 276.557C179.915 276.557 169.583 295.876 165.816 329.33Z" fill="#00D749"/>
<path opacity="0.6" d="M220.5 295.254C203.578 314.934 200.73 333.357 200.73 333.357L165.778 329.33C166.978 318.554 169.085 307.897 172.078 297.467C173.605 292.138 175.439 286.9 177.572 281.778C179.008 278.372 179.966 276.594 179.966 276.594C179.966 276.594 187.74 278.77 194.204 281.194C199.052 283.132 203.781 285.349 208.366 287.832C212.556 290.067 216.608 292.545 220.5 295.254Z" fill="white"/>
<path opacity="0.6" d="M186.543 334.24C186.485 334.585 186.532 334.939 186.679 335.257C186.825 335.575 187.063 335.843 187.364 336.027C187.665 336.212 188.014 336.304 188.368 336.292C188.722 336.281 189.064 336.166 189.352 335.962C189.639 335.758 189.859 335.475 189.983 335.148C190.108 334.821 190.131 334.465 190.05 334.125C189.969 333.785 189.788 333.476 189.529 333.238C189.271 332.999 188.946 332.842 188.597 332.786C188.129 332.714 187.652 332.826 187.268 333.098C186.884 333.37 186.623 333.78 186.543 334.24Z" fill="white"/>
<path d="M165.677 329.106L163.611 332.463L201.108 336.578L201.058 332.052L165.677 329.106Z" fill="#263238"/>
<path d="M185.535 330.921L185.308 335.024C185.297 335.238 185.371 335.449 185.515 335.611C185.658 335.774 185.859 335.875 186.077 335.894L191.595 336.341C191.706 336.35 191.818 336.337 191.924 336.302C192.029 336.268 192.127 336.214 192.211 336.142C192.296 336.07 192.365 335.983 192.415 335.885C192.465 335.787 192.495 335.68 192.503 335.571L192.767 331.53C192.781 331.315 192.711 331.103 192.57 330.938C192.429 330.774 192.228 330.67 192.011 330.648L186.455 330.138C186.342 330.128 186.228 330.14 186.12 330.174C186.012 330.208 185.912 330.264 185.826 330.337C185.74 330.41 185.67 330.499 185.62 330.6C185.57 330.7 185.541 330.809 185.535 330.921Z" fill="white"/>
<path d="M176.324 329.951L175.115 334.613L173.766 334.402L174.762 329.69L176.324 329.951Z" fill="#00D749"/>
<path d="M196.169 331.642L195.892 336.689L197.127 336.888L197.543 331.654L196.169 331.642Z" fill="#00D749"/>
<g opacity="0.3">
<path d="M176.324 329.951L175.115 334.613L173.766 334.402L174.762 329.69L176.324 329.951Z" fill="black"/>
<path d="M196.169 331.642L195.892 336.69L197.127 336.888L197.543 331.655L196.169 331.642Z" fill="black"/>
</g>
<path d="M208.984 282.425C207.731 283.72 206.86 285.327 206.464 287.074C206.371 287.47 206.377 287.881 206.483 288.273C206.588 288.666 206.789 289.026 207.068 289.324C206.35 293.24 201.02 292.78 201.02 292.78C194.72 286.39 194.947 281.753 194.947 281.753C196.578 281.548 198.133 280.953 199.477 280.019C200.821 279.085 201.913 277.841 202.658 276.395C203.658 274.702 204.397 272.871 204.851 270.963L212.071 279.155C210.961 280.168 209.929 281.261 208.984 282.425Z" fill="#FFC2BC"/>
<path opacity="0.2" d="M212.133 279.155C211.002 280.165 209.949 281.258 208.983 282.425C207.731 283.72 206.859 285.327 206.463 287.074C205.148 285.63 204.136 283.942 203.487 282.109C202.838 280.276 202.565 278.334 202.683 276.395C203.683 274.702 204.422 272.871 204.876 270.963L212.133 279.155Z" fill="black"/>
<path d="M205.304 260.607C202.696 269.645 201.385 273.412 204.283 279.516C208.656 288.703 220.462 289.896 225.703 281.815C230.466 274.543 233.931 261.017 226.434 254.466C224.783 253.009 222.781 251.994 220.619 251.516C218.458 251.039 216.208 251.116 214.085 251.739C211.962 252.362 210.036 253.511 208.49 255.076C206.944 256.641 205.83 258.571 205.254 260.681L205.304 260.607Z" fill="#FFC2BC"/>
<path d="M202.658 273.399C202.658 273.81 202.658 274.207 202.759 274.642L207.408 278.248H208.92L207.786 276.445L202.658 273.399Z" fill="#00D749"/>
<path opacity="0.8" d="M202.658 273.399C202.658 273.81 202.658 274.207 202.759 274.642L207.408 278.248H208.92L207.786 276.445L202.658 273.399Z" fill="white"/>
<path d="M226.107 257.238C226.107 257.238 230.63 261.9 230.794 267.022C233.39 264.846 235.323 262.001 236.376 258.804C237.321 255.46 235.217 251.544 229.61 250.363C229.61 250.363 224.28 252.713 226.107 257.238Z" fill="#263238"/>
<path d="M226.107 257.238C220.404 262.35 213.615 266.139 206.237 268.327L195.98 266.375C196.883 260.392 198.732 254.586 201.461 249.17C203.124 246.037 211.869 240.89 219.265 243.687C223.145 245.18 226.668 247.454 229.61 250.363C229.975 251.028 230.172 251.769 230.184 252.525C230.196 253.281 230.023 254.028 229.679 254.703C229.334 255.379 228.83 255.962 228.208 256.403C227.586 256.845 226.865 257.131 226.107 257.238Z" fill="#263238"/>
<path d="M210.684 270.155L204.876 266.139V267.022L210.684 272.591V270.155Z" fill="#00D749"/>
<path opacity="0.8" d="M210.684 270.155L204.876 266.139V267.022L210.684 272.591V270.155Z" fill="white"/>
<path d="M223.99 272.591C223.836 274.453 223.942 276.327 224.305 278.161C223.83 278.244 223.341 278.222 222.875 278.098C222.409 277.973 221.976 277.748 221.609 277.439L223.99 272.591Z" fill="#ED893E"/>
<path d="M218.66 264.237C218.611 264.192 218.573 264.137 218.547 264.075C218.512 263.984 218.514 263.884 218.551 263.794C218.589 263.704 218.659 263.631 218.748 263.591C219.399 263.317 220.106 263.199 220.812 263.249C221.518 263.299 222.201 263.514 222.806 263.877C222.885 263.936 222.939 264.023 222.955 264.12C222.971 264.217 222.949 264.317 222.894 264.399C222.838 264.478 222.752 264.533 222.656 264.552C222.559 264.57 222.46 264.551 222.377 264.498C221.871 264.209 221.304 264.039 220.72 264.002C220.137 263.965 219.552 264.063 219.013 264.287C218.954 264.307 218.892 264.313 218.83 264.304C218.769 264.295 218.711 264.272 218.66 264.237Z" fill="#263238"/>
<path d="M230.164 269.011C230.121 268.981 230.09 268.937 230.076 268.886C229.897 268.45 229.614 268.063 229.253 267.756C228.891 267.449 228.461 267.231 227.997 267.121C227.957 267.115 227.919 267.101 227.884 267.08C227.85 267.06 227.82 267.032 227.796 267C227.773 266.967 227.756 266.93 227.747 266.892C227.738 266.853 227.738 266.812 227.745 266.773C227.76 266.695 227.805 266.626 227.871 266.579C227.937 266.533 228.018 266.513 228.098 266.524C228.658 266.658 229.178 266.92 229.616 267.289C230.054 267.659 230.397 268.125 230.618 268.65C230.637 268.685 230.648 268.723 230.651 268.763C230.655 268.802 230.65 268.842 230.637 268.879C230.624 268.917 230.603 268.951 230.576 268.98C230.549 269.009 230.516 269.032 230.479 269.048C230.429 269.082 230.37 269.1 230.309 269.1C230.248 269.1 230.189 269.082 230.139 269.048L230.164 269.011Z" fill="#263238"/>
<path d="M218.244 268.203C217.854 268.973 217.967 269.819 218.496 270.067C219.026 270.316 219.756 269.893 220.122 269.098C220.487 268.302 220.399 267.482 219.882 267.221C219.366 266.959 218.635 267.407 218.244 268.203Z" fill="#263238"/>
<path d="M226.308 271.696C225.968 272.38 226.069 273.113 226.523 273.324C226.976 273.536 227.606 273.163 227.946 272.479C228.287 271.795 228.198 271.062 227.745 270.851C227.291 270.639 226.649 271.012 226.308 271.696Z" fill="#263238"/>
<path d="M227.531 270.788L229.421 271.112C229.421 271.112 227.934 271.982 227.531 270.788Z" fill="#263238"/>
<path d="M219.63 267.158L221.81 267.531C221.81 267.531 220.109 268.526 219.63 267.158Z" fill="#263238"/>
<path d="M219.126 280.697C219.476 280.955 219.847 281.184 220.235 281.38C220.289 281.406 220.351 281.411 220.407 281.392C220.464 281.373 220.511 281.333 220.538 281.281C220.575 281.233 220.591 281.172 220.584 281.112C220.577 281.052 220.547 280.997 220.5 280.958C219.631 280.541 218.873 279.929 218.286 279.172C217.7 278.414 217.301 277.531 217.123 276.594C217.123 276.535 217.099 276.478 217.057 276.436C217.014 276.394 216.956 276.37 216.896 276.37C216.836 276.37 216.778 276.394 216.736 276.436C216.693 276.478 216.669 276.535 216.669 276.594C216.918 278.224 217.799 279.695 219.126 280.697Z" fill="#263238"/>
<path d="M200.516 269.657C200.869 271.442 201.925 273.016 203.452 274.033C205.481 275.363 207.232 273.747 207.308 271.472C207.371 269.421 206.375 266.251 204.032 265.841C203.624 265.779 203.207 265.797 202.807 265.894C202.406 265.992 202.028 266.166 201.696 266.407C201.364 266.649 201.083 266.952 200.869 267.301C200.656 267.65 200.515 268.036 200.453 268.439C200.398 268.845 200.42 269.258 200.516 269.657Z" fill="#FFC2BC"/>
<path d="M223.927 274.506C219.652 272.671 215.22 271.215 210.684 270.154C209 272.567 207.881 275.318 207.408 278.21C207.408 278.21 210.306 284.501 215.636 287.186C217.644 287.231 219.63 286.76 221.397 285.818C223.165 284.877 224.653 283.497 225.716 281.815C226.559 280.513 227.3 279.15 227.934 277.738C226.75 276.489 225.403 275.402 223.927 274.506Z" fill="#00D749"/>
<path opacity="0.5" d="M223.927 274.506C219.652 272.671 215.22 271.215 210.684 270.154C209 272.567 207.881 275.318 207.408 278.21C207.408 278.21 210.306 284.501 215.636 287.186C217.644 287.231 219.63 286.76 221.397 285.818C223.165 284.877 224.653 283.497 225.716 281.815C226.559 280.513 227.3 279.15 227.934 277.738C226.75 276.489 225.403 275.402 223.927 274.506Z" fill="white"/>
<path opacity="0.2" d="M180.659 300.501C177.042 301.744 174.17 299.966 172.065 297.467C173.592 292.139 175.426 286.9 177.559 281.778C181.44 288.181 186.48 298.462 180.659 300.501Z" fill="black"/>
<path d="M208.353 287.832C207.977 290.592 207.018 293.243 205.538 295.613C204.057 297.984 202.089 300.022 199.76 301.594C197.769 291.649 191.457 279.018 191.457 279.018L181.44 276.308C181.44 276.308 183.96 291.114 180.936 297.678C177.912 304.242 169.81 303.123 169.81 303.123L168.235 311.49L167.378 316.015L166.37 321.386L165.261 327.291L164.732 330.075L200.718 333.357C200.718 333.357 200.945 332.736 201.323 331.741C201.789 330.498 202.482 328.646 203.213 326.769C203.78 325.252 204.384 323.686 204.914 322.306C205.304 321.311 205.657 320.404 205.947 319.695C206.136 319.223 206.489 318.514 206.955 317.631C210.445 311.154 220.487 295.254 220.487 295.254C214.049 288.988 208.353 287.832 208.353 287.832Z" fill="#263238"/>
<path opacity="0.8" d="M165.312 327.291L201.373 331.741C201.839 330.498 202.532 328.646 203.263 326.769L166.421 321.435L165.312 327.291Z" fill="white"/>
<path opacity="0.8" d="M168.285 311.49L167.429 316.015L204.964 322.231C205.355 321.237 205.707 320.329 205.997 319.62C206.186 319.148 206.539 318.439 207.005 317.557L168.285 311.49Z" fill="white"/>
<path d="M191.52 298.661C191.52 298.661 194.531 309.998 196.787 311.614C197.354 312.025 231.563 309.514 231.563 309.514L232.558 313.529C232.558 313.529 201.31 320.913 192.78 319.496C187.488 318.589 179.84 295.093 179.84 295.093L191.52 298.661Z" fill="#FFC2BC"/>
<path d="M179.953 276.594C173.401 274.108 169.356 288.628 178.491 305.523L195.01 299.804C195.01 299.804 187.878 279.615 179.953 276.594Z" fill="#00D749"/>
<path opacity="0.7" d="M179.953 276.594C173.401 274.108 169.356 288.628 178.491 305.523L195.01 299.804C195.01 299.804 187.878 279.615 179.953 276.594Z" fill="white"/>
<path d="M236.54 296.759L233.201 304.678L237.434 308.482L245.561 306.443L248.9 299.568L247.829 298.462L236.54 296.759Z" fill="#00D749"/>
<path opacity="0.5" d="M234.473 305.821L237.434 308.482L245.561 306.443L248.9 299.568L237.585 298.014L234.473 305.821Z" fill="black"/>
<path opacity="0.3" d="M236.54 296.759L237.585 298.014L248.9 299.568L247.829 298.462L236.54 296.759Z" fill="white"/>
<path d="M225.83 308.619L226.548 314.971H229.887L234.02 316.351L246.179 313.989L249.417 304.889C249.417 304.889 234.108 302.676 233.037 303.248C231.966 303.82 229.925 308.084 229.925 308.084L225.83 308.619Z" fill="#00D749"/>
<path opacity="0.6" d="M225.83 308.619L226.548 314.971H229.887L234.02 316.351L246.179 313.989L249.417 304.889C249.417 304.889 234.108 302.676 233.037 303.248C231.966 303.82 229.925 308.084 229.925 308.084L225.83 308.619Z" fill="white"/>
<path d="M243.558 390.246L241.832 393.9L234.687 408.943L228.891 421.163L223.133 421.002L226.145 407.687L229.572 392.471L230.34 389.089L243.558 390.246Z" fill="#FFC2BC"/>
<path opacity="0.2" d="M241.832 393.9L234.688 408.943L226.145 407.687L229.572 392.471L241.832 393.9Z" fill="black"/>
<path d="M157.588 356.791C157.588 356.791 154.073 381.655 172.544 383.806C202.873 387.274 230.504 357.314 233.944 357.314C237.384 357.314 224.847 405.275 224.847 405.275L238.43 406.991C238.43 406.991 261.689 347.716 255.503 335.173C249.316 322.629 179.021 356.791 157.588 356.791Z" fill="#00D749"/>
<path opacity="0.3" d="M157.588 356.791C157.588 356.791 154.073 381.655 172.544 383.806C202.873 387.274 230.504 357.314 233.944 357.314C237.384 357.314 224.847 405.275 224.847 405.275L238.43 406.991C238.43 406.991 261.689 347.716 255.503 335.173C249.316 322.629 179.021 356.791 157.588 356.791Z" fill="black"/>
</g>
<defs>
<clipPath id="clip0_770_8050">
<rect width="630" height="501" fill="white"/>
</clipPath>
</defs>
</svg>
