<svg width="89" height="41" viewBox="0 0 89 41" fill="none" xmlns="http://www.w3.org/2000/svg">
<path d="M23.3669 9.68753H16.5029C16.4542 9.11959 16.3244 8.60438 16.1134 8.14191C15.9106 7.67944 15.6266 7.28188 15.2615 6.94922C14.9045 6.60845 14.4704 6.34882 13.9593 6.17032C13.4481 5.98371 12.868 5.89041 12.2189 5.89041C11.0831 5.89041 10.1216 6.16627 9.33459 6.71799C8.5557 7.26971 7.96341 8.06077 7.55774 9.09119C7.16017 10.1216 6.96139 11.3589 6.96139 12.8031C6.96139 14.3285 7.16423 15.6063 7.56991 16.6368C7.98369 17.6591 8.58004 18.4298 9.35894 18.9491C10.1378 19.4603 11.0749 19.7158 12.1703 19.7158C12.795 19.7158 13.3548 19.6388 13.8498 19.4846C14.3447 19.3223 14.7747 19.0911 15.1398 18.7909C15.5049 18.4907 15.8011 18.1296 16.0282 17.7077C16.2635 17.2777 16.4217 16.795 16.5029 16.2595L23.3669 16.3082C23.2858 17.3629 22.9896 18.438 22.4785 19.5333C21.9673 20.6205 21.2412 21.6266 20.3 22.5515C19.3669 23.4683 18.2108 24.2067 16.8315 24.7665C15.4522 25.3263 13.8498 25.6062 12.0242 25.6062C9.73621 25.6062 7.68349 25.1154 5.86607 24.1336C4.05676 23.1519 2.62472 21.7077 1.56996 19.801C0.523321 17.8943 0 15.5617 0 12.8031C0 10.0283 0.535492 7.69161 1.60648 5.79305C2.67746 3.88637 4.12166 2.44622 5.93909 1.4726C7.75652 0.490867 9.78489 0 12.0242 0C13.5982 0 15.0465 0.215008 16.369 0.645023C17.6915 1.07504 18.8517 1.70384 19.8497 2.53142C20.8477 3.35088 21.6509 4.36101 22.2594 5.56181C22.8679 6.76261 23.2371 8.13785 23.3669 9.68753Z" fill="white"/>
<path d="M26.4369 0.340768H34.8587L40.6517 14.4583H40.9438L46.7369 0.340768H55.1587V25.2655H48.5381V10.8559H48.3433L42.7937 25.0707H38.8019L33.2522 10.7585H33.0575V25.2655H26.4369V0.340768Z" fill="#00D749"/>
<path d="M71.8015 8.12974C71.7366 7.31839 71.4324 6.68553 70.8888 6.23118C70.3533 5.77682 69.5379 5.54964 68.4425 5.54964C67.7448 5.54964 67.1728 5.63483 66.7265 5.80522C66.2884 5.96749 65.9638 6.19061 65.7529 6.47458C65.5419 6.75855 65.4324 7.0831 65.4243 7.4482C65.4081 7.7484 65.4608 8.02021 65.5825 8.26361C65.7123 8.4989 65.9152 8.71391 66.191 8.90864C66.4669 9.09525 66.8198 9.26563 67.2498 9.41979C67.6799 9.57394 68.191 9.71187 68.7833 9.83358L70.8279 10.2717C72.2072 10.5638 73.3877 10.9492 74.3694 11.4279C75.3512 11.9066 76.1544 12.4705 76.7792 13.1195C77.4039 13.7605 77.8623 14.4826 78.1544 15.2859C78.4546 16.0891 78.6088 16.9654 78.6169 17.9146C78.6088 19.5536 78.199 20.941 77.3877 22.0769C76.5763 23.2128 75.4161 24.0768 73.907 24.6691C72.406 25.2614 70.6007 25.5576 68.4912 25.5576C66.3249 25.5576 64.4345 25.2371 62.8199 24.5961C61.2134 23.9551 59.9639 22.9694 59.0714 21.6387C58.1871 20.3 57.7408 18.5881 57.7327 16.5029H64.1586C64.1992 17.2656 64.3898 17.9065 64.7306 18.4258C65.0714 18.945 65.5501 19.3386 66.1667 19.6063C66.7914 19.874 67.5338 20.0079 68.3938 20.0079C69.1159 20.0079 69.7204 19.9187 70.2072 19.7402C70.694 19.5617 71.0632 19.3142 71.3147 18.9978C71.5662 18.6814 71.696 18.3203 71.7042 17.9146C71.696 17.5333 71.5703 17.2006 71.3269 16.9167C71.0916 16.6246 70.7021 16.365 70.1585 16.1378C69.6149 15.9025 68.8807 15.6834 67.9557 15.4806L65.473 14.9451C63.2661 14.4664 61.5258 13.6672 60.2519 12.5475C58.9862 11.4198 58.3574 9.88226 58.3655 7.93501C58.3574 6.35288 58.7793 4.96953 59.6313 3.78495C60.4913 2.59227 61.6799 1.66327 63.1971 0.997962C64.7225 0.332654 66.4709 0 68.4425 0C70.4547 0 72.195 0.336711 73.6636 1.01013C75.1321 1.68355 76.2639 2.63283 77.0591 3.85798C77.8623 5.075 78.268 6.49892 78.2761 8.12974H71.8015Z" fill="white"/>
<path d="M84.9393 25.6549C83.9982 25.6549 83.1909 25.3263 82.5174 24.6691C81.8521 24.0038 81.5235 23.1965 81.5316 22.2472C81.5235 21.3223 81.8521 20.5312 82.5174 19.874C83.1909 19.2169 83.9982 18.8883 84.9393 18.8883C85.8318 18.8883 86.6188 19.2169 87.3004 19.874C87.99 20.5312 88.3389 21.3223 88.347 22.2472C88.3389 22.8801 88.1726 23.4562 87.848 23.9754C87.5316 24.4866 87.1178 24.8963 86.6066 25.2046C86.0955 25.5048 85.5397 25.6549 84.9393 25.6549Z" fill="#00D749"/>
<path d="M58.313 36.6553H55.4976V28.347H58.3698C59.1946 28.347 59.9032 28.5134 60.4955 28.846C61.0905 29.176 61.5476 29.6506 61.8667 30.2699C62.1858 30.8893 62.3454 31.6303 62.3454 32.493C62.3454 33.3585 62.1845 34.1022 61.8626 34.7243C61.5435 35.3463 61.0824 35.8236 60.4793 36.1563C59.8789 36.4889 59.1568 36.6553 58.313 36.6553ZM57.0026 35.3531H58.24C58.8187 35.3531 59.3015 35.2476 59.6882 35.0366C60.075 34.823 60.3657 34.5052 60.5604 34.0833C60.7551 33.6587 60.8525 33.1286 60.8525 32.493C60.8525 31.8575 60.7551 31.3301 60.5604 30.9109C60.3657 30.489 60.0777 30.1739 59.6963 29.9657C59.3177 29.7547 58.8471 29.6493 58.2846 29.6493H57.0026V35.3531ZM66.4285 36.777C65.82 36.777 65.2926 36.6431 64.8464 36.3754C64.4001 36.1076 64.054 35.733 63.8079 35.2516C63.5644 34.7702 63.4427 34.2077 63.4427 33.564C63.4427 32.9204 63.5644 32.3565 63.8079 31.8724C64.054 31.3883 64.4001 31.0123 64.8464 30.7446C65.2926 30.4768 65.82 30.343 66.4285 30.343C67.037 30.343 67.5644 30.4768 68.0107 30.7446C68.4569 31.0123 68.8017 31.3883 69.0451 31.8724C69.2912 32.3565 69.4143 32.9204 69.4143 33.564C69.4143 34.2077 69.2912 34.7702 69.0451 35.2516C68.8017 35.733 68.4569 36.1076 68.0107 36.3754C67.5644 36.6431 67.037 36.777 66.4285 36.777ZM66.4366 35.6005C66.7666 35.6005 67.0424 35.5099 67.2642 35.3287C67.486 35.1448 67.651 34.8987 67.7591 34.5904C67.87 34.2821 67.9255 33.9386 67.9255 33.56C67.9255 33.1786 67.87 32.8338 67.7591 32.5255C67.651 32.2145 67.486 31.967 67.2642 31.7831C67.0424 31.5992 66.7666 31.5073 66.4366 31.5073C66.0986 31.5073 65.8173 31.5992 65.5928 31.7831C65.3711 31.967 65.2047 32.2145 65.0938 32.5255C64.9857 32.8338 64.9316 33.1786 64.9316 33.56C64.9316 33.9386 64.9857 34.2821 65.0938 34.5904C65.2047 34.8987 65.3711 35.1448 65.5928 35.3287C65.8173 35.5099 66.0986 35.6005 66.4366 35.6005ZM72.1293 33.0042V36.6553H70.6607V30.4241H72.0644V31.4829H72.1374C72.2807 31.134 72.5093 30.8568 72.823 30.6513C73.1394 30.4457 73.5302 30.343 73.9954 30.343C74.4254 30.343 74.8 30.4349 75.1191 30.6188C75.4409 30.8027 75.6898 31.0691 75.8655 31.418C76.044 31.7669 76.1319 32.1901 76.1292 32.6878V36.6553H74.6607V32.9149C74.6607 32.4985 74.5525 32.1726 74.3362 31.9373C74.1225 31.702 73.8264 31.5843 73.4477 31.5843C73.1908 31.5843 72.9623 31.6411 72.7621 31.7547C72.5647 31.8656 72.4092 32.0265 72.2956 32.2375C72.1847 32.4484 72.1293 32.704 72.1293 33.0042ZM80.3401 36.777C79.7316 36.777 79.2043 36.6431 78.758 36.3754C78.3118 36.1076 77.9656 35.733 77.7195 35.2516C77.4761 34.7702 77.3544 34.2077 77.3544 33.564C77.3544 32.9204 77.4761 32.3565 77.7195 31.8724C77.9656 31.3883 78.3118 31.0123 78.758 30.7446C79.2043 30.4768 79.7316 30.343 80.3401 30.343C80.9487 30.343 81.476 30.4768 81.9223 30.7446C82.3685 31.0123 82.7133 31.3883 82.9568 31.8724C83.2029 32.3565 83.3259 32.9204 83.3259 33.564C83.3259 34.2077 83.2029 34.7702 82.9568 35.2516C82.7133 35.733 82.3685 36.1076 81.9223 36.3754C81.476 36.6431 80.9487 36.777 80.3401 36.777ZM80.3483 35.6005C80.6782 35.6005 80.9541 35.5099 81.1758 35.3287C81.3976 35.1448 81.5626 34.8987 81.6708 34.5904C81.7816 34.2821 81.8371 33.9386 81.8371 33.56C81.8371 33.1786 81.7816 32.8338 81.6708 32.5255C81.5626 32.2145 81.3976 31.967 81.1758 31.7831C80.9541 31.5992 80.6782 31.5073 80.3483 31.5073C80.0102 31.5073 79.7289 31.5992 79.5045 31.7831C79.2827 31.967 79.1164 32.2145 79.0055 32.5255C78.8973 32.8338 78.8432 33.1786 78.8432 33.56C78.8432 33.9386 78.8973 34.2821 79.0055 34.5904C79.1164 34.8987 79.2827 35.1448 79.5045 35.3287C79.7289 35.5099 80.0102 35.6005 80.3483 35.6005ZM84.5724 36.6553V30.4241H85.9963V31.4626H86.0612C86.1748 31.1029 86.3695 30.8257 86.6454 30.631C86.9239 30.4336 87.2417 30.3348 87.5987 30.3348C87.6798 30.3348 87.7704 30.3389 87.8705 30.347C87.9733 30.3524 88.0585 30.3619 88.1261 30.3754V31.7263C88.0639 31.7047 87.9652 31.6857 87.8299 31.6695C87.6974 31.6506 87.5689 31.6411 87.4445 31.6411C87.1768 31.6411 86.9361 31.6993 86.7224 31.8156C86.5115 31.9292 86.3452 32.0874 86.2235 32.2902C86.1018 32.493 86.0409 32.727 86.0409 32.992V36.6553H84.5724Z" fill="#D1D1D1"/>
</svg>
