<svg width="89" height="41" viewBox="0 0 89 41" fill="none" xmlns="http://www.w3.org/2000/svg">
<path d="M23.3669 9.68753H16.5029C16.4542 9.11959 16.3244 8.60438 16.1134 8.14191C15.9106 7.67944 15.6266 7.28188 15.2615 6.94922C14.9045 6.60845 14.4704 6.34882 13.9593 6.17032C13.4481 5.98371 12.868 5.89041 12.2189 5.89041C11.0831 5.89041 10.1216 6.16627 9.33459 6.71799C8.5557 7.26971 7.96341 8.06077 7.55774 9.09119C7.16017 10.1216 6.96139 11.3589 6.96139 12.8031C6.96139 14.3285 7.16423 15.6063 7.56991 16.6368C7.98369 17.6591 8.58004 18.4298 9.35894 18.9491C10.1378 19.4603 11.0749 19.7158 12.1703 19.7158C12.795 19.7158 13.3548 19.6388 13.8498 19.4846C14.3447 19.3223 14.7747 19.0911 15.1398 18.7909C15.5049 18.4907 15.8011 18.1296 16.0282 17.7077C16.2635 17.2777 16.4217 16.795 16.5029 16.2595L23.3669 16.3082C23.2858 17.3629 22.9896 18.438 22.4785 19.5333C21.9673 20.6205 21.2412 21.6266 20.3 22.5515C19.3669 23.4683 18.2108 24.2067 16.8315 24.7665C15.4522 25.3263 13.8498 25.6062 12.0242 25.6062C9.73621 25.6062 7.68349 25.1154 5.86607 24.1336C4.05676 23.1519 2.62472 21.7077 1.56996 19.801C0.523321 17.8944 0 15.5617 0 12.8031C0 10.0283 0.535492 7.69161 1.60647 5.79305C2.67746 3.88637 4.12166 2.44622 5.93909 1.4726C7.75652 0.490867 9.78489 0 12.0242 0C13.5982 0 15.0465 0.215008 16.369 0.645023C17.6915 1.07504 18.8517 1.70384 19.8497 2.53141C20.8477 3.35088 21.6509 4.36101 22.2594 5.56181C22.8679 6.76261 23.2371 8.13785 23.3669 9.68753Z" fill="white"/>
<path d="M26.4369 0.340768H34.8587L40.6517 14.4583H40.9438L46.7369 0.340768H55.1587V25.2655H48.5381V10.8559H48.3433L42.7937 25.0707H38.8018L33.2522 10.7585H33.0575V25.2655H26.4369V0.340768Z" fill="#00D749"/>
<path d="M71.8015 8.12974C71.7366 7.31839 71.4324 6.68553 70.8887 6.23118C70.3533 5.77682 69.5379 5.54964 68.4425 5.54964C67.7448 5.54964 67.1728 5.63483 66.7265 5.80522C66.2884 5.96749 65.9638 6.19061 65.7529 6.47458C65.5419 6.75855 65.4324 7.0831 65.4243 7.4482C65.4081 7.7484 65.4608 8.02021 65.5825 8.26361C65.7123 8.4989 65.9152 8.71391 66.191 8.90864C66.4669 9.09525 66.8198 9.26563 67.2498 9.41979C67.6799 9.57394 68.191 9.71187 68.7833 9.83358L70.8279 10.2717C72.2072 10.5638 73.3877 10.9492 74.3694 11.4279C75.3512 11.9066 76.1544 12.4705 76.7792 13.1195C77.4039 13.7605 77.8623 14.4826 78.1544 15.2859C78.4546 16.0891 78.6088 16.9654 78.6169 17.9146C78.6088 19.5536 78.199 20.941 77.3877 22.0769C76.5763 23.2128 75.4161 24.0768 73.907 24.6691C72.406 25.2614 70.6007 25.5576 68.4912 25.5576C66.3249 25.5576 64.4345 25.2371 62.8199 24.5961C61.2134 23.9551 59.9639 22.9694 59.0714 21.6387C58.1871 20.3 57.7408 18.5881 57.7327 16.5029H64.1586C64.1992 17.2656 64.3898 17.9065 64.7306 18.4258C65.0714 18.945 65.5501 19.3386 66.1667 19.6063C66.7914 19.874 67.5338 20.0079 68.3938 20.0079C69.116 20.0079 69.7204 19.9187 70.2072 19.7402C70.694 19.5617 71.0632 19.3142 71.3147 18.9978C71.5662 18.6814 71.696 18.3203 71.7042 17.9146C71.696 17.5333 71.5703 17.2006 71.3269 16.9167C71.0916 16.6246 70.7021 16.365 70.1585 16.1378C69.6149 15.9025 68.8807 15.6834 67.9557 15.4806L65.473 14.9451C63.2661 14.4664 61.5258 13.6672 60.2519 12.5475C58.9862 11.4198 58.3574 9.88226 58.3655 7.93501C58.3574 6.35288 58.7793 4.96953 59.6313 3.78495C60.4913 2.59227 61.6799 1.66327 63.1971 0.997962C64.7225 0.332654 66.4709 0 68.4425 0C70.4547 0 72.195 0.336711 73.6636 1.01013C75.1321 1.68355 76.2639 2.63283 77.0591 3.85798C77.8623 5.075 78.268 6.49892 78.2761 8.12974H71.8015Z" fill="white"/>
<path d="M84.9393 25.6549C83.9982 25.6549 83.1909 25.3263 82.5174 24.6691C81.8521 24.0038 81.5235 23.1965 81.5316 22.2472C81.5235 21.3223 81.8521 20.5312 82.5174 19.874C83.1909 19.2169 83.9982 18.8883 84.9393 18.8883C85.8318 18.8883 86.6188 19.2169 87.3004 19.874C87.99 20.5312 88.3389 21.3223 88.347 22.2472C88.3389 22.8801 88.1726 23.4562 87.848 23.9754C87.5316 24.4866 87.1178 24.8963 86.6067 25.2046C86.0955 25.5048 85.5397 25.6549 84.9393 25.6549Z" fill="#00D749"/>
<path d="M70.4407 31.1503H68.9234C68.8802 30.9014 68.8004 30.681 68.6841 30.489C68.5678 30.2943 68.4231 30.1293 68.25 29.9941C68.0769 29.8589 67.8795 29.7574 67.6577 29.6898C67.4387 29.6195 67.202 29.5843 66.9478 29.5843C66.4961 29.5843 66.0959 29.6979 65.747 29.9251C65.3981 30.1496 65.1249 30.4795 64.9275 30.915C64.7301 31.3477 64.6314 31.8764 64.6314 32.5012C64.6314 33.1367 64.7301 33.6722 64.9275 34.1076C65.1277 34.5404 65.4008 34.8676 65.747 35.0894C66.0959 35.3084 66.4948 35.418 66.9437 35.418C67.1925 35.418 67.4251 35.3855 67.6415 35.3206C67.8606 35.253 68.0566 35.1543 68.2297 35.0245C68.4055 34.8946 68.5529 34.7351 68.6719 34.5458C68.7936 34.3564 68.8774 34.1401 68.9234 33.8967L70.4407 33.9048C70.3839 34.2997 70.2608 34.6702 70.0715 35.0163C69.8849 35.3625 69.6401 35.6681 69.3372 35.9332C69.0343 36.1955 68.68 36.4011 68.2743 36.5498C67.8687 36.6958 67.4184 36.7689 66.9234 36.7689C66.1932 36.7689 65.5414 36.5998 64.9681 36.2618C64.3947 35.9237 63.9431 35.4355 63.6131 34.7973C63.2832 34.159 63.1182 33.3936 63.1182 32.5012C63.1182 31.606 63.2845 30.8406 63.6172 30.205C63.9498 29.5668 64.4028 29.0786 64.9762 28.7405C65.5496 28.4025 66.1986 28.2334 66.9234 28.2334C67.3859 28.2334 67.8159 28.2984 68.2135 28.4282C68.6111 28.558 68.9653 28.7487 69.2764 29.0002C69.5874 29.249 69.843 29.5546 70.0431 29.917C70.2459 30.2767 70.3784 30.6878 70.4407 31.1503ZM71.8189 36.6553V28.347H73.324V31.8642H77.1738V28.347H78.683V36.6553H77.1738V33.1259H73.324V36.6553H71.8189ZM87.7437 32.5012C87.7437 33.3963 87.576 34.1631 87.2407 34.8013C86.908 35.4369 86.4537 35.9237 85.8776 36.2618C85.3043 36.5998 84.6538 36.7689 83.9263 36.7689C83.1988 36.7689 82.547 36.5998 81.971 36.2618C81.3976 35.921 80.9432 35.4328 80.6079 34.7973C80.2752 34.159 80.1089 33.3936 80.1089 32.5012C80.1089 31.606 80.2752 30.8406 80.6079 30.205C80.9432 29.5668 81.3976 29.0786 81.971 28.7405C82.547 28.4025 83.1988 28.2334 83.9263 28.2334C84.6538 28.2334 85.3043 28.4025 85.8776 28.7405C86.4537 29.0786 86.908 29.5668 87.2407 30.205C87.576 30.8406 87.7437 31.606 87.7437 32.5012ZM86.2306 32.5012C86.2306 31.871 86.1318 31.3396 85.9344 30.9069C85.7397 30.4714 85.4692 30.1428 85.1231 29.9211C84.7769 29.6966 84.378 29.5843 83.9263 29.5843C83.4747 29.5843 83.0758 29.6966 82.7296 29.9211C82.3834 30.1428 82.1116 30.4714 81.9142 30.9069C81.7194 31.3396 81.6221 31.871 81.6221 32.5012C81.6221 33.1313 81.7194 33.6641 81.9142 34.0995C82.1116 34.5322 82.3834 34.8608 82.7296 35.0853C83.0758 35.3071 83.4747 35.418 83.9263 35.418C84.378 35.418 84.7769 35.3071 85.1231 35.0853C85.4692 34.8608 85.7397 34.5322 85.9344 34.0995C86.1318 33.6641 86.2306 33.1313 86.2306 32.5012Z" fill="#D1D1D1"/>
</svg>
