<svg width="89" height="41" viewBox="0 0 89 41" fill="none" xmlns="http://www.w3.org/2000/svg">
<path d="M23.3669 9.68753H16.5029C16.4542 9.11959 16.3244 8.60438 16.1134 8.14191C15.9106 7.67944 15.6266 7.28188 15.2615 6.94922C14.9045 6.60845 14.4704 6.34882 13.9593 6.17032C13.4481 5.98371 12.868 5.89041 12.2189 5.89041C11.0831 5.89041 10.1216 6.16627 9.33459 6.71799C8.5557 7.26971 7.96341 8.06077 7.55774 9.09119C7.16017 10.1216 6.96139 11.3589 6.96139 12.8031C6.96139 14.3285 7.16423 15.6063 7.56991 16.6368C7.98369 17.6591 8.58004 18.4298 9.35894 18.9491C10.1378 19.4603 11.0749 19.7158 12.1703 19.7158C12.795 19.7158 13.3548 19.6388 13.8498 19.4846C14.3447 19.3223 14.7747 19.0911 15.1398 18.7909C15.5049 18.4907 15.8011 18.1296 16.0282 17.7077C16.2635 17.2777 16.4217 16.795 16.5029 16.2595L23.3669 16.3082C23.2858 17.3629 22.9896 18.438 22.4785 19.5333C21.9673 20.6205 21.2412 21.6266 20.3 22.5515C19.3669 23.4683 18.2108 24.2067 16.8315 24.7665C15.4522 25.3263 13.8498 25.6062 12.0242 25.6062C9.73621 25.6062 7.68349 25.1154 5.86607 24.1336C4.05676 23.1519 2.62472 21.7077 1.56996 19.801C0.523321 17.8944 0 15.5617 0 12.8031C0 10.0283 0.535492 7.69161 1.60647 5.79305C2.67746 3.88637 4.12166 2.44622 5.93909 1.4726C7.75652 0.490867 9.78489 0 12.0242 0C13.5982 0 15.0465 0.215008 16.369 0.645023C17.6915 1.07504 18.8517 1.70384 19.8497 2.53141C20.8477 3.35088 21.6509 4.36101 22.2594 5.56181C22.8679 6.76261 23.2371 8.13785 23.3669 9.68753Z" fill="white"/>
<path d="M26.4369 0.340768H34.8587L40.6517 14.4583H40.9438L46.7369 0.340768H55.1587V25.2655H48.5381V10.8559H48.3433L42.7937 25.0707H38.8018L33.2522 10.7585H33.0575V25.2655H26.4369V0.340768Z" fill="#00D749"/>
<path d="M71.8015 8.12974C71.7366 7.31839 71.4324 6.68553 70.8887 6.23118C70.3533 5.77682 69.5379 5.54964 68.4425 5.54964C67.7448 5.54964 67.1728 5.63483 66.7265 5.80522C66.2884 5.96749 65.9638 6.19061 65.7529 6.47458C65.5419 6.75855 65.4324 7.0831 65.4243 7.4482C65.4081 7.7484 65.4608 8.02021 65.5825 8.26361C65.7123 8.4989 65.9152 8.71391 66.191 8.90864C66.4669 9.09525 66.8198 9.26563 67.2498 9.41979C67.6799 9.57394 68.191 9.71187 68.7833 9.83358L70.8279 10.2717C72.2072 10.5638 73.3877 10.9492 74.3694 11.4279C75.3512 11.9066 76.1544 12.4705 76.7792 13.1195C77.4039 13.7605 77.8623 14.4826 78.1544 15.2859C78.4546 16.0891 78.6088 16.9654 78.6169 17.9146C78.6088 19.5536 78.199 20.941 77.3877 22.0769C76.5763 23.2128 75.4161 24.0768 73.907 24.6691C72.406 25.2614 70.6007 25.5576 68.4912 25.5576C66.3249 25.5576 64.4345 25.2371 62.8199 24.5961C61.2134 23.9551 59.9639 22.9694 59.0714 21.6387C58.1871 20.3 57.7408 18.5881 57.7327 16.5029H64.1586C64.1992 17.2656 64.3898 17.9065 64.7306 18.4258C65.0714 18.945 65.5501 19.3386 66.1667 19.6063C66.7914 19.874 67.5338 20.0079 68.3938 20.0079C69.116 20.0079 69.7204 19.9187 70.2072 19.7402C70.694 19.5617 71.0632 19.3142 71.3147 18.9978C71.5662 18.6814 71.696 18.3203 71.7042 17.9146C71.696 17.5333 71.5703 17.2006 71.3269 16.9167C71.0916 16.6246 70.7021 16.365 70.1585 16.1378C69.6149 15.9025 68.8807 15.6834 67.9557 15.4806L65.473 14.9451C63.2661 14.4664 61.5258 13.6672 60.2519 12.5475C58.9862 11.4198 58.3574 9.88226 58.3655 7.93501C58.3574 6.35288 58.7793 4.96953 59.6313 3.78495C60.4913 2.59227 61.6799 1.66327 63.1971 0.997962C64.7225 0.332654 66.4709 0 68.4425 0C70.4547 0 72.195 0.336711 73.6636 1.01013C75.1321 1.68355 76.2639 2.63283 77.0591 3.85798C77.8623 5.075 78.268 6.49892 78.2761 8.12974H71.8015Z" fill="white"/>
<path d="M84.9393 25.6549C83.9982 25.6549 83.1909 25.3263 82.5174 24.6691C81.8521 24.0038 81.5235 23.1965 81.5316 22.2472C81.5235 21.3223 81.8521 20.5312 82.5174 19.874C83.1909 19.2169 83.9982 18.8883 84.9393 18.8883C85.8318 18.8883 86.6188 19.2169 87.3004 19.874C87.99 20.5312 88.3389 21.3223 88.347 22.2472C88.3389 22.8801 88.1726 23.4562 87.848 23.9754C87.5316 24.4866 87.1178 24.8963 86.6067 25.2046C86.0955 25.5048 85.5397 25.6549 84.9393 25.6549Z" fill="#00D749"/>
<path d="M39.1762 36.6553V28.347H40.6813V35.3936H44.3405V36.6553H39.1762ZM48.2999 36.777C47.6914 36.777 47.164 36.6431 46.7178 36.3754C46.2715 36.1076 45.9253 35.733 45.6792 35.2516C45.4358 34.7702 45.3141 34.2077 45.3141 33.564C45.3141 32.9204 45.4358 32.3565 45.6792 31.8724C45.9253 31.3883 46.2715 31.0123 46.7178 30.7446C47.164 30.4768 47.6914 30.343 48.2999 30.343C48.9084 30.343 49.4358 30.4768 49.882 30.7446C50.3283 31.0123 50.6731 31.3883 50.9165 31.8724C51.1626 32.3565 51.2857 32.9204 51.2857 33.564C51.2857 34.2077 51.1626 34.7702 50.9165 35.2516C50.6731 35.733 50.3283 36.1076 49.882 36.3754C49.4358 36.6431 48.9084 36.777 48.2999 36.777ZM48.308 35.6005C48.638 35.6005 48.9138 35.5099 49.1356 35.3287C49.3574 35.1448 49.5223 34.8987 49.6305 34.5904C49.7414 34.2821 49.7968 33.9386 49.7968 33.56C49.7968 33.1786 49.7414 32.8338 49.6305 32.5255C49.5223 32.2145 49.3574 31.967 49.1356 31.7831C48.9138 31.5992 48.638 31.5073 48.308 31.5073C47.9699 31.5073 47.6887 31.5992 47.4642 31.7831C47.2424 31.967 47.0761 32.2145 46.9652 32.5255C46.857 32.8338 46.8029 33.1786 46.8029 33.56C46.8029 33.9386 46.857 34.2821 46.9652 34.5904C47.0761 34.8987 47.2424 35.1448 47.4642 35.3287C47.6887 35.5099 47.9699 35.6005 48.308 35.6005ZM55.242 39.1218C54.7146 39.1218 54.2616 39.0501 53.883 38.9068C53.5044 38.7661 53.2001 38.5768 52.9702 38.3388C52.7403 38.1008 52.5808 37.8371 52.4915 37.5478L53.814 37.2273C53.8735 37.349 53.9601 37.4693 54.0737 37.5883C54.1873 37.71 54.3401 37.8101 54.5321 37.8885C54.7268 37.9697 54.9716 38.0102 55.2664 38.0102C55.6828 38.0102 56.0277 37.9088 56.3008 37.706C56.574 37.5058 56.7106 37.1759 56.7106 36.7161V35.5356H56.6375C56.5618 35.6871 56.4509 35.8426 56.3049 36.0021C56.1615 36.1617 55.9709 36.2956 55.7329 36.4038C55.4976 36.5119 55.2014 36.566 54.8445 36.566C54.3658 36.566 53.9317 36.4538 53.5422 36.2293C53.1555 36.0021 52.8472 35.6641 52.6173 35.2151C52.3901 34.7635 52.2765 34.1982 52.2765 33.5194C52.2765 32.8352 52.3901 32.2578 52.6173 31.7872C52.8472 31.3139 53.1568 30.9555 53.5463 30.7121C53.9357 30.466 54.3698 30.343 54.8485 30.343C55.2136 30.343 55.5138 30.4052 55.7491 30.5296C55.9871 30.6513 56.1764 30.7987 56.3171 30.9718C56.4577 31.1421 56.5645 31.3031 56.6375 31.4545H56.7187V30.4241H58.1669V36.7567C58.1669 37.2895 58.0398 37.7303 57.7856 38.0792C57.5314 38.4281 57.1838 38.6891 56.743 38.8621C56.3022 39.0352 55.8018 39.1218 55.242 39.1218ZM55.2542 35.4139C55.5652 35.4139 55.8302 35.3382 56.0493 35.1867C56.2684 35.0353 56.4347 34.8176 56.5483 34.5336C56.6619 34.2496 56.7187 33.9088 56.7187 33.5113C56.7187 33.1191 56.6619 32.7757 56.5483 32.4809C56.4374 32.1861 56.2724 31.9576 56.0534 31.7953C55.837 31.6303 55.5706 31.5478 55.2542 31.5478C54.9269 31.5478 54.6538 31.633 54.4347 31.8034C54.2157 31.9738 54.0507 32.2077 53.9398 32.5052C53.8289 32.8 53.7735 33.1354 53.7735 33.5113C53.7735 33.8926 53.8289 34.2266 53.9398 34.5133C54.0534 34.7973 54.2197 35.019 54.4388 35.1786C54.6605 35.3355 54.9323 35.4139 55.2542 35.4139ZM59.672 36.6553V30.4241H61.1405V36.6553H59.672ZM60.4103 29.5397C60.1777 29.5397 59.9776 29.4626 59.8099 29.3085C59.6422 29.1516 59.5584 28.9637 59.5584 28.7446C59.5584 28.5228 59.6422 28.3349 59.8099 28.1807C59.9776 28.0238 60.1777 27.9454 60.4103 27.9454C60.6456 27.9454 60.8457 28.0238 61.0107 28.1807C61.1784 28.3349 61.2622 28.5228 61.2622 28.7446C61.2622 28.9637 61.1784 29.1516 61.0107 29.3085C60.8457 29.4626 60.6456 29.5397 60.4103 29.5397ZM67.5756 32.0711L66.2368 32.2172C66.199 32.082 66.1327 31.9548 66.0381 31.8358C65.9461 31.7168 65.8217 31.6208 65.6648 31.5478C65.508 31.4748 65.316 31.4383 65.0888 31.4383C64.7832 31.4383 64.5262 31.5045 64.318 31.6371C64.1124 31.7696 64.011 31.9413 64.0137 32.1523C64.011 32.3335 64.0773 32.4809 64.2125 32.5945C64.3504 32.7081 64.5776 32.8014 64.8941 32.8744L65.9569 33.1016C66.5465 33.2287 66.9846 33.4302 67.2713 33.706C67.5607 33.9819 67.7067 34.3429 67.7094 34.7892C67.7067 35.1813 67.5918 35.5275 67.3646 35.8277C67.1401 36.1252 66.8278 36.3578 66.4275 36.5255C66.0272 36.6931 65.5675 36.777 65.0482 36.777C64.2855 36.777 63.6716 36.6174 63.2064 36.2983C62.7413 35.9764 62.4641 35.5288 62.3748 34.9555L63.8068 34.8176C63.8717 35.0988 64.0097 35.3111 64.2206 35.4545C64.4316 35.5978 64.7061 35.6695 65.0442 35.6695C65.393 35.6695 65.6729 35.5978 65.8839 35.4545C66.0976 35.3111 66.2044 35.134 66.2044 34.923C66.2044 34.7445 66.1354 34.5971 65.9975 34.4809C65.8623 34.3646 65.6513 34.2753 65.3646 34.2131L64.3018 33.99C63.7041 33.8656 63.2619 33.656 62.9752 33.3612C62.6885 33.0637 62.5465 32.6878 62.5492 32.2334C62.5465 31.8494 62.6507 31.5167 62.8616 31.2354C63.0753 30.9515 63.3714 30.7324 63.75 30.5783C64.1314 30.4214 64.5709 30.343 65.0685 30.343C65.7987 30.343 66.3734 30.4985 66.7926 30.8095C67.2145 31.1205 67.4755 31.5411 67.5756 32.0711ZM72.0319 30.4241V31.56H68.4498V30.4241H72.0319ZM69.3342 28.9312H70.8027V34.7811C70.8027 34.9785 70.8325 35.1299 70.892 35.2354C70.9542 35.3382 71.0353 35.4085 71.1354 35.4464C71.2354 35.4842 71.3463 35.5032 71.468 35.5032C71.56 35.5032 71.6438 35.4964 71.7195 35.4829C71.798 35.4693 71.8575 35.4572 71.898 35.4464L72.1455 36.5944C72.0671 36.6215 71.9548 36.6512 71.8088 36.6837C71.6655 36.7161 71.4897 36.7351 71.2814 36.7405C70.9136 36.7513 70.5823 36.6958 70.2875 36.5741C69.9927 36.4497 69.7588 36.2577 69.5857 35.9981C69.4153 35.7384 69.3315 35.4139 69.3342 35.0245V28.9312ZM73.2601 36.6553V30.4241H74.7286V36.6553H73.2601ZM73.9984 29.5397C73.7658 29.5397 73.5657 29.4626 73.398 29.3085C73.2303 29.1516 73.1465 28.9637 73.1465 28.7446C73.1465 28.5228 73.2303 28.3349 73.398 28.1807C73.5657 28.0238 73.7658 27.9454 73.9984 27.9454C74.2337 27.9454 74.4339 28.0238 74.5988 28.1807C74.7665 28.3349 74.8503 28.5228 74.8503 28.7446C74.8503 28.9637 74.7665 29.1516 74.5988 29.3085C74.4339 29.4626 74.2337 29.5397 73.9984 29.5397ZM78.9568 36.777C78.3348 36.777 77.8006 36.6404 77.3544 36.3672C76.9108 36.0941 76.5687 35.7168 76.328 35.2354C76.09 34.7513 75.971 34.1942 75.971 33.564C75.971 32.9312 76.0927 32.3727 76.3361 31.8886C76.5795 31.4018 76.923 31.0231 77.3665 30.7527C77.8128 30.4795 78.3402 30.343 78.9487 30.343C79.4544 30.343 79.902 30.4363 80.2915 30.6229C80.6836 30.8068 80.996 31.0678 81.2286 31.4058C81.4612 31.7412 81.5937 32.1333 81.6261 32.5823H80.2225C80.1657 32.2821 80.0305 32.0319 79.8168 31.8318C79.6059 31.629 79.3233 31.5275 78.969 31.5275C78.6688 31.5275 78.4051 31.6087 78.1779 31.7709C77.9507 31.9305 77.7736 32.1604 77.6465 32.4606C77.5221 32.7608 77.4599 33.1205 77.4599 33.5397C77.4599 33.9643 77.5221 34.3294 77.6465 34.635C77.7709 34.9379 77.9453 35.1719 78.1698 35.3368C78.397 35.4991 78.6634 35.5802 78.969 35.5802C79.1853 35.5802 79.3787 35.5397 79.5491 35.4585C79.7222 35.3747 79.8669 35.2543 79.9832 35.0975C80.0994 34.9406 80.1792 34.75 80.2225 34.5255H81.6261C81.591 34.9663 81.4612 35.3571 81.2367 35.6979C81.0122 36.0359 80.7066 36.301 80.3199 36.493C79.9331 36.6823 79.4788 36.777 78.9568 36.777ZM87.7569 32.0711L86.4182 32.2172C86.3803 32.082 86.3141 31.9548 86.2194 31.8358C86.1274 31.7168 86.003 31.6208 85.8462 31.5478C85.6893 31.4748 85.4973 31.4383 85.2701 31.4383C84.9645 31.4383 84.7076 31.5045 84.4993 31.6371C84.2938 31.7696 84.1924 31.9413 84.1951 32.1523C84.1924 32.3335 84.2586 32.4809 84.3939 32.5945C84.5318 32.7081 84.759 32.8014 85.0754 32.8744L86.1383 33.1016C86.7278 33.2287 87.166 33.4302 87.4527 33.706C87.742 33.9819 87.8881 34.3429 87.8908 34.7892C87.8881 35.1813 87.7731 35.5275 87.546 35.8277C87.3215 36.1252 87.0091 36.3578 86.6088 36.5255C86.2086 36.6931 85.7488 36.777 85.2296 36.777C84.4669 36.777 83.853 36.6174 83.3878 36.2983C82.9226 35.9764 82.6454 35.5288 82.5562 34.9555L83.9882 34.8176C84.0531 35.0988 84.191 35.3111 84.402 35.4545C84.6129 35.5978 84.8874 35.6695 85.2255 35.6695C85.5744 35.6695 85.8543 35.5978 86.0652 35.4545C86.2789 35.3111 86.3857 35.134 86.3857 34.923C86.3857 34.7445 86.3168 34.5971 86.1788 34.4809C86.0436 34.3646 85.8327 34.2753 85.546 34.2131L84.4831 33.99C83.8854 33.8656 83.4432 33.656 83.1566 33.3612C82.8699 33.0637 82.7279 32.6878 82.7306 32.2334C82.7279 31.8494 82.832 31.5167 83.043 31.2354C83.2566 30.9515 83.5528 30.7324 83.9314 30.5783C84.3127 30.4214 84.7522 30.343 85.2498 30.343C85.9801 30.343 86.5548 30.4985 86.974 30.8095C87.3959 31.1205 87.6568 31.5411 87.7569 32.0711Z" fill="#D1D1D1"/>
</svg>
