<svg width="89" height="41" viewBox="0 0 89 41" fill="none" xmlns="http://www.w3.org/2000/svg">
<path d="M23.3669 9.68753H16.5029C16.4542 9.11959 16.3244 8.60438 16.1134 8.14191C15.9106 7.67944 15.6266 7.28188 15.2615 6.94922C14.9045 6.60845 14.4704 6.34882 13.9593 6.17032C13.4481 5.98371 12.868 5.89041 12.2189 5.89041C11.0831 5.89041 10.1216 6.16627 9.33459 6.71799C8.5557 7.26971 7.96341 8.06077 7.55774 9.09119C7.16017 10.1216 6.96139 11.3589 6.96139 12.8031C6.96139 14.3285 7.16423 15.6063 7.56991 16.6368C7.98369 17.6591 8.58004 18.4298 9.35894 18.9491C10.1378 19.4603 11.0749 19.7158 12.1703 19.7158C12.795 19.7158 13.3548 19.6388 13.8498 19.4846C14.3447 19.3223 14.7747 19.0911 15.1398 18.7909C15.5049 18.4907 15.8011 18.1296 16.0282 17.7077C16.2635 17.2777 16.4217 16.795 16.5029 16.2595L23.3669 16.3082C23.2858 17.3629 22.9896 18.438 22.4785 19.5333C21.9673 20.6205 21.2412 21.6266 20.3 22.5515C19.3669 23.4683 18.2108 24.2067 16.8315 24.7665C15.4522 25.3263 13.8498 25.6062 12.0242 25.6062C9.73621 25.6062 7.68349 25.1154 5.86607 24.1336C4.05676 23.1519 2.62472 21.7077 1.56996 19.801C0.523321 17.8944 0 15.5617 0 12.8031C0 10.0283 0.535492 7.69161 1.60647 5.79305C2.67746 3.88637 4.12166 2.44622 5.93909 1.4726C7.75652 0.490867 9.78489 0 12.0242 0C13.5982 0 15.0465 0.215008 16.369 0.645023C17.6915 1.07504 18.8517 1.70384 19.8497 2.53141C20.8477 3.35088 21.6509 4.36101 22.2594 5.56181C22.8679 6.76261 23.2371 8.13785 23.3669 9.68753Z" fill="white"/>
<path d="M26.4369 0.340768H34.8587L40.6517 14.4583H40.9438L46.7369 0.340768H55.1587V25.2655H48.5381V10.8559H48.3433L42.7937 25.0707H38.8018L33.2522 10.7585H33.0575V25.2655H26.4369V0.340768Z" fill="#00D749"/>
<path d="M71.8015 8.12974C71.7366 7.31839 71.4324 6.68553 70.8887 6.23118C70.3533 5.77682 69.5379 5.54964 68.4425 5.54964C67.7448 5.54964 67.1728 5.63483 66.7265 5.80522C66.2884 5.96749 65.9638 6.19061 65.7529 6.47458C65.5419 6.75855 65.4324 7.0831 65.4243 7.4482C65.4081 7.7484 65.4608 8.02021 65.5825 8.26361C65.7123 8.4989 65.9152 8.71391 66.191 8.90864C66.4669 9.09525 66.8198 9.26563 67.2498 9.41979C67.6799 9.57394 68.191 9.71187 68.7833 9.83358L70.8279 10.2717C72.2072 10.5638 73.3877 10.9492 74.3694 11.4279C75.3512 11.9066 76.1544 12.4705 76.7792 13.1195C77.4039 13.7605 77.8623 14.4826 78.1544 15.2859C78.4546 16.0891 78.6088 16.9654 78.6169 17.9146C78.6088 19.5536 78.199 20.941 77.3877 22.0769C76.5763 23.2128 75.4161 24.0768 73.907 24.6691C72.406 25.2614 70.6007 25.5576 68.4912 25.5576C66.3249 25.5576 64.4345 25.2371 62.8199 24.5961C61.2134 23.9551 59.9639 22.9694 59.0714 21.6387C58.1871 20.3 57.7408 18.5881 57.7327 16.5029H64.1586C64.1992 17.2656 64.3898 17.9065 64.7306 18.4258C65.0714 18.945 65.5501 19.3386 66.1667 19.6063C66.7914 19.874 67.5338 20.0079 68.3938 20.0079C69.116 20.0079 69.7204 19.9187 70.2072 19.7402C70.694 19.5617 71.0632 19.3142 71.3147 18.9978C71.5662 18.6814 71.696 18.3203 71.7042 17.9146C71.696 17.5333 71.5703 17.2006 71.3269 16.9167C71.0916 16.6246 70.7021 16.365 70.1585 16.1378C69.6149 15.9025 68.8807 15.6834 67.9557 15.4806L65.473 14.9451C63.2661 14.4664 61.5258 13.6672 60.2519 12.5475C58.9862 11.4198 58.3574 9.88226 58.3655 7.93501C58.3574 6.35288 58.7793 4.96953 59.6313 3.78495C60.4913 2.59227 61.6799 1.66327 63.1971 0.997962C64.7225 0.332654 66.4709 0 68.4425 0C70.4547 0 72.195 0.336711 73.6636 1.01013C75.1321 1.68355 76.2639 2.63283 77.0591 3.85798C77.8623 5.075 78.268 6.49892 78.2761 8.12974H71.8015Z" fill="white"/>
<path d="M84.9393 25.6549C83.9982 25.6549 83.1909 25.3263 82.5174 24.6691C81.8521 24.0038 81.5235 23.1965 81.5316 22.2472C81.5235 21.3223 81.8521 20.5312 82.5174 19.874C83.1909 19.2169 83.9982 18.8883 84.9393 18.8883C85.8318 18.8883 86.6188 19.2169 87.3004 19.874C87.99 20.5312 88.3389 21.3223 88.347 22.2472C88.3389 22.8801 88.1726 23.4562 87.848 23.9754C87.5316 24.4866 87.1178 24.8963 86.6067 25.2046C86.0955 25.5048 85.5397 25.6549 84.9393 25.6549Z" fill="#00D749"/>
<path d="M56.2491 36.6553H53.4337V28.347H56.3059C57.1308 28.347 57.8394 28.5134 58.4316 28.846C59.0266 29.176 59.4837 29.6506 59.8028 30.2699C60.122 30.8893 60.2815 31.6303 60.2815 32.493C60.2815 33.3585 60.1206 34.1022 59.7988 34.7243C59.4796 35.3463 59.0185 35.8236 58.4154 36.1563C57.815 36.4889 57.0929 36.6553 56.2491 36.6553ZM54.9388 35.3531H56.1761C56.7548 35.3531 57.2376 35.2476 57.6243 35.0366C58.0111 34.823 58.3018 34.5052 58.4965 34.0833C58.6913 33.6587 58.7886 33.1286 58.7886 32.493C58.7886 31.8575 58.6913 31.3301 58.4965 30.9109C58.3018 30.489 58.0138 30.1739 57.6325 29.9657C57.2538 29.7547 56.7832 29.6493 56.2207 29.6493H54.9388V35.3531ZM64.3646 36.777C63.7561 36.777 63.2288 36.6431 62.7825 36.3754C62.3363 36.1076 61.9901 35.733 61.744 35.2516C61.5006 34.7702 61.3789 34.2077 61.3789 33.564C61.3789 32.9204 61.5006 32.3565 61.744 31.8724C61.9901 31.3883 62.3363 31.0123 62.7825 30.7446C63.2288 30.4768 63.7561 30.343 64.3646 30.343C64.9732 30.343 65.5005 30.4768 65.9468 30.7446C66.393 31.0123 66.7378 31.3883 66.9812 31.8724C67.2274 32.3565 67.3504 32.9204 67.3504 33.564C67.3504 34.2077 67.2274 34.7702 66.9812 35.2516C66.7378 35.733 66.393 36.1076 65.9468 36.3754C65.5005 36.6431 64.9732 36.777 64.3646 36.777ZM64.3728 35.6005C64.7027 35.6005 64.9786 35.5099 65.2003 35.3287C65.4221 35.1448 65.5871 34.8987 65.6953 34.5904C65.8061 34.2821 65.8616 33.9386 65.8616 33.56C65.8616 33.1786 65.8061 32.8338 65.6953 32.5255C65.5871 32.2145 65.4221 31.967 65.2003 31.7831C64.9786 31.5992 64.7027 31.5073 64.3728 31.5073C64.0347 31.5073 63.7534 31.5992 63.529 31.7831C63.3072 31.967 63.1409 32.2145 63.03 32.5255C62.9218 32.8338 62.8677 33.1786 62.8677 33.56C62.8677 33.9386 62.9218 34.2821 63.03 34.5904C63.1409 34.8987 63.3072 35.1448 63.529 35.3287C63.7534 35.5099 64.0347 35.6005 64.3728 35.6005ZM70.0654 33.0042V36.6553H68.5969V30.4241H70.0005V31.4829H70.0735C70.2169 31.134 70.4454 30.8568 70.7591 30.6513C71.0755 30.4457 71.4663 30.343 71.9315 30.343C72.3615 30.343 72.7361 30.4349 73.0552 30.6188C73.3771 30.8027 73.6259 31.0691 73.8017 31.418C73.9802 31.7669 74.0681 32.1901 74.0654 32.6878V36.6553H72.5968V32.9149C72.5968 32.4985 72.4886 32.1726 72.2723 31.9373C72.0586 31.702 71.7625 31.5843 71.3838 31.5843C71.1269 31.5843 70.8984 31.6411 70.6983 31.7547C70.5008 31.8656 70.3453 32.0265 70.2317 32.2375C70.1208 32.4484 70.0654 32.704 70.0654 33.0042ZM78.3168 36.777C77.6921 36.777 77.1525 36.6472 76.6982 36.3875C76.2465 36.1252 75.899 35.7547 75.6556 35.276C75.4122 34.7946 75.2905 34.228 75.2905 33.5762C75.2905 32.9352 75.4122 32.3727 75.6556 31.8886C75.9017 31.4018 76.2452 31.0231 76.686 30.7527C77.1269 30.4795 77.6448 30.343 78.2398 30.343C78.6238 30.343 78.9862 30.4052 79.327 30.5296C79.6704 30.6513 79.9733 30.8406 80.2357 31.0975C80.5007 31.3544 80.709 31.6817 80.8604 32.0793C81.0119 32.4741 81.0876 32.9447 81.0876 33.491V33.9413H75.9801V32.9515H79.6799C79.6772 32.6702 79.6164 32.42 79.4974 32.201C79.3784 31.9792 79.212 31.8047 78.9984 31.6776C78.7874 31.5505 78.5413 31.487 78.26 31.487C77.9598 31.487 77.6962 31.56 77.469 31.706C77.2418 31.8494 77.0647 32.0387 76.9375 32.274C76.8131 32.5066 76.7496 32.7621 76.7469 33.0407V33.9048C76.7469 34.2672 76.8131 34.5782 76.9457 34.8378C77.0782 35.0948 77.2634 35.2922 77.5014 35.4301C77.7394 35.5654 78.018 35.633 78.3371 35.633C78.5508 35.633 78.7442 35.6032 78.9172 35.5437C79.0903 35.4815 79.2404 35.3909 79.3675 35.2719C79.4946 35.1529 79.5907 35.0055 79.6556 34.8297L81.0268 34.9839C80.9402 35.3463 80.7752 35.6627 80.5318 35.9332C80.2911 36.2009 79.9828 36.4092 79.6069 36.5579C79.231 36.704 78.8009 36.777 78.3168 36.777ZM85.0886 36.777C84.4638 36.777 83.9243 36.6472 83.4699 36.3875C83.0183 36.1252 82.6708 35.7547 82.4273 35.276C82.1839 34.7946 82.0622 34.228 82.0622 33.5762C82.0622 32.9352 82.1839 32.3727 82.4273 31.8886C82.6735 31.4018 83.0169 31.0231 83.4578 30.7527C83.8986 30.4795 84.4165 30.343 85.0115 30.343C85.3955 30.343 85.7579 30.4052 86.0987 30.5296C86.4422 30.6513 86.7451 30.8406 87.0074 31.0975C87.2725 31.3544 87.4807 31.6817 87.6322 32.0793C87.7836 32.4741 87.8593 32.9447 87.8593 33.491V33.9413H82.7519V32.9515H86.4516C86.4489 32.6702 86.3881 32.42 86.2691 32.201C86.1501 31.9792 85.9838 31.8047 85.7701 31.6776C85.5592 31.5505 85.3131 31.487 85.0318 31.487C84.7316 31.487 84.4679 31.56 84.2407 31.706C84.0135 31.8494 83.8364 32.0387 83.7093 32.274C83.5849 32.5066 83.5213 32.7621 83.5186 33.0407V33.9048C83.5186 34.2672 83.5849 34.5782 83.7174 34.8378C83.8499 35.0948 84.0352 35.2922 84.2732 35.4301C84.5112 35.5654 84.7897 35.633 85.1089 35.633C85.3225 35.633 85.5159 35.6032 85.689 35.5437C85.8621 35.4815 86.0122 35.3909 86.1393 35.2719C86.2664 35.1529 86.3624 35.0055 86.4273 34.8297L87.7985 34.9839C87.7119 35.3463 87.547 35.6627 87.3036 35.9332C87.0629 36.2009 86.7546 36.4092 86.3786 36.5579C86.0027 36.704 85.5727 36.777 85.0886 36.777Z" fill="#D1D1D1"/>
</svg>
