<svg width="97" height="45" viewBox="0 0 97 45" fill="none" xmlns="http://www.w3.org/2000/svg">
<g filter="url(#filter0_d_930_7615)">
<path d="M27.3669 9.68753H20.5029C20.4542 9.11959 20.3244 8.60438 20.1134 8.14191C19.9106 7.67944 19.6266 7.28188 19.2615 6.94922C18.9045 6.60845 18.4704 6.34882 17.9593 6.17032C17.4481 5.98371 16.868 5.89041 16.2189 5.89041C15.0831 5.89041 14.1216 6.16627 13.3346 6.71799C12.5557 7.26971 11.9634 8.06077 11.5577 9.09119C11.1602 10.1216 10.9614 11.3589 10.9614 12.8031C10.9614 14.3285 11.1642 15.6063 11.5699 16.6368C11.9837 17.6591 12.58 18.4298 13.3589 18.9491C14.1378 19.4603 15.0749 19.7158 16.1703 19.7158C16.795 19.7158 17.3548 19.6388 17.8498 19.4846C18.3447 19.3223 18.7747 19.0911 19.1398 18.7909C19.5049 18.4907 19.8011 18.1296 20.0282 17.7077C20.2635 17.2777 20.4217 16.795 20.5029 16.2595L27.3669 16.3082C27.2858 17.3629 26.9896 18.438 26.4785 19.5333C25.9673 20.6205 25.2412 21.6266 24.3 22.5515C23.3669 23.4683 22.2108 24.2067 20.8315 24.7665C19.4522 25.3263 17.8498 25.6062 16.0242 25.6062C13.7362 25.6062 11.6835 25.1154 9.86607 24.1336C8.05676 23.1519 6.62472 21.7077 5.56996 19.801C4.52332 17.8944 4 15.5617 4 12.8031C4 10.0283 4.53549 7.69161 5.60647 5.79305C6.67746 3.88637 8.12166 2.44622 9.93909 1.4726C11.7565 0.490867 13.7849 0 16.0242 0C17.5982 0 19.0465 0.215008 20.369 0.645023C21.6915 1.07504 22.8517 1.70384 23.8497 2.53141C24.8477 3.35088 25.6509 4.36101 26.2594 5.56181C26.8679 6.76261 27.2371 8.13785 27.3669 9.68753Z" fill="white"/>
<path d="M30.4369 0.340768H38.8587L44.6517 14.4583H44.9438L50.7369 0.340768H59.1587V25.2655H52.5381V10.8559H52.3433L46.7937 25.0707H42.8018L37.2522 10.7585H37.0575V25.2655H30.4369V0.340768Z" fill="#00D749"/>
<path d="M75.8015 8.12974C75.7366 7.31839 75.4324 6.68553 74.8887 6.23118C74.3533 5.77682 73.5379 5.54964 72.4425 5.54964C71.7448 5.54964 71.1728 5.63483 70.7265 5.80522C70.2884 5.96749 69.9638 6.19061 69.7529 6.47458C69.5419 6.75855 69.4324 7.0831 69.4243 7.4482C69.4081 7.7484 69.4608 8.02021 69.5825 8.26361C69.7123 8.4989 69.9152 8.71391 70.191 8.90864C70.4669 9.09525 70.8198 9.26563 71.2498 9.41979C71.6799 9.57394 72.191 9.71187 72.7833 9.83358L74.8279 10.2717C76.2072 10.5638 77.3877 10.9492 78.3694 11.4279C79.3512 11.9066 80.1544 12.4705 80.7792 13.1195C81.4039 13.7605 81.8623 14.4826 82.1544 15.2859C82.4546 16.0891 82.6088 16.9654 82.6169 17.9146C82.6088 19.5536 82.199 20.941 81.3877 22.0769C80.5763 23.2128 79.4161 24.0768 77.907 24.6691C76.406 25.2614 74.6007 25.5576 72.4912 25.5576C70.3249 25.5576 68.4345 25.2371 66.8199 24.5961C65.2134 23.9551 63.9639 22.9694 63.0714 21.6387C62.1871 20.3 61.7408 18.5881 61.7327 16.5029H68.1586C68.1992 17.2656 68.3898 17.9065 68.7306 18.4258C69.0714 18.945 69.5501 19.3386 70.1667 19.6063C70.7914 19.874 71.5338 20.0079 72.3938 20.0079C73.116 20.0079 73.7204 19.9187 74.2072 19.7402C74.694 19.5617 75.0632 19.3142 75.3147 18.9978C75.5662 18.6814 75.696 18.3203 75.7042 17.9146C75.696 17.5333 75.5703 17.2006 75.3269 16.9167C75.0916 16.6246 74.7021 16.365 74.1585 16.1378C73.6149 15.9025 72.8807 15.6834 71.9557 15.4806L69.473 14.9451C67.2661 14.4664 65.5258 13.6672 64.2519 12.5475C62.9862 11.4198 62.3574 9.88226 62.3655 7.93501C62.3574 6.35288 62.7793 4.96953 63.6313 3.78495C64.4913 2.59227 65.6799 1.66327 67.1971 0.997962C68.7225 0.332654 70.4709 0 72.4425 0C74.4547 0 76.195 0.336711 77.6636 1.01013C79.1321 1.68355 80.2639 2.63283 81.0591 3.85798C81.8623 5.075 82.268 6.49892 82.2761 8.12974H75.8015Z" fill="white"/>
<path d="M88.9393 25.6549C87.9982 25.6549 87.1909 25.3263 86.5174 24.6691C85.8521 24.0038 85.5235 23.1965 85.5316 22.2472C85.5235 21.3223 85.8521 20.5312 86.5174 19.874C87.1909 19.2169 87.9982 18.8883 88.9393 18.8883C89.8318 18.8883 90.6188 19.2169 91.3004 19.874C91.99 20.5312 92.3389 21.3223 92.347 22.2472C92.3389 22.8801 92.1726 23.4562 91.848 23.9754C91.5316 24.4866 91.1178 24.8963 90.6067 25.2046C90.0955 25.5048 89.5397 25.6549 88.9393 25.6549Z" fill="#00D749"/>
<path d="M58.7684 36.6553H57.1619L60.0868 28.347H61.9448L64.8738 36.6553H63.2673L61.0483 30.0509H60.9834L58.7684 36.6553ZM58.8211 33.3977H63.2024V34.6066H58.8211V33.3977ZM68.0259 36.7648C67.5364 36.7648 67.0983 36.639 66.7115 36.3875C66.3248 36.136 66.0192 35.7709 65.7947 35.2922C65.5702 34.8135 65.458 34.232 65.458 33.5478C65.458 32.8554 65.5716 32.2713 65.7987 31.7953C66.0286 31.3166 66.3383 30.9555 66.7277 30.7121C67.1172 30.466 67.5513 30.343 68.03 30.343C68.3951 30.343 68.6953 30.4052 68.9306 30.5296C69.1659 30.6513 69.3525 30.7987 69.4904 30.9718C69.6283 31.1421 69.7351 31.3031 69.8109 31.4545H69.8717V28.347H71.3443V36.6553H69.9001V35.6735H69.8109C69.7351 35.825 69.6256 35.9859 69.4823 36.1563C69.3389 36.324 69.1496 36.4673 68.9143 36.5863C68.679 36.7053 68.3829 36.7648 68.0259 36.7648ZM68.4356 35.5599C68.7467 35.5599 69.0117 35.4761 69.2308 35.3084C69.4498 35.138 69.6162 34.9014 69.7297 34.5985C69.8433 34.2956 69.9001 33.9427 69.9001 33.5397C69.9001 33.1367 69.8433 32.7865 69.7297 32.489C69.6189 32.1915 69.4539 31.9603 69.2348 31.7953C69.0185 31.6303 68.7521 31.5478 68.4356 31.5478C68.1084 31.5478 67.8352 31.633 67.6162 31.8034C67.3971 31.9738 67.2321 32.2091 67.1212 32.5093C67.0104 32.8095 66.9549 33.1529 66.9549 33.5397C66.9549 33.9291 67.0104 34.2767 67.1212 34.5823C67.2348 34.8852 67.4012 35.1245 67.6202 35.3003C67.842 35.4734 68.1138 35.5599 68.4356 35.5599ZM72.9092 36.6553V30.4241H74.3129V31.4829H74.3859C74.5157 31.1259 74.7307 30.8474 75.0309 30.6472C75.3311 30.4444 75.6895 30.343 76.1059 30.343C76.5278 30.343 76.8835 30.4457 77.1729 30.6513C77.465 30.8541 77.6705 31.1313 77.7895 31.4829H77.8544C77.9923 31.1367 78.2249 30.8609 78.5522 30.6553C78.8821 30.4471 79.2729 30.343 79.7246 30.343C80.2979 30.343 80.7658 30.5242 81.1282 30.8866C81.4906 31.249 81.6718 31.7777 81.6718 32.4728V36.6553H80.1992V32.6999C80.1992 32.3132 80.0964 32.0306 79.8909 31.8521C79.6854 31.6709 79.4338 31.5803 79.1363 31.5803C78.7821 31.5803 78.5048 31.6912 78.3047 31.9129C78.1073 32.132 78.0086 32.4173 78.0086 32.7689V36.6553H76.5684V32.6391C76.5684 32.3172 76.4711 32.0603 76.2763 31.8683C76.0843 31.6763 75.8328 31.5803 75.5218 31.5803C75.3108 31.5803 75.1188 31.6344 74.9457 31.7425C74.7726 31.848 74.6347 31.9981 74.5319 32.1928C74.4292 32.3849 74.3778 32.6093 74.3778 32.8663V36.6553H72.9092ZM83.1617 36.6553V30.4241H84.6302V36.6553H83.1617ZM83.9 29.5397C83.6674 29.5397 83.4673 29.4626 83.2996 29.3085C83.1319 29.1516 83.0481 28.9637 83.0481 28.7446C83.0481 28.5228 83.1319 28.3349 83.2996 28.1807C83.4673 28.0238 83.6674 27.9454 83.9 27.9454C84.1353 27.9454 84.3354 28.0238 84.5004 28.1807C84.6681 28.3349 84.7519 28.5228 84.7519 28.7446C84.7519 28.9637 84.6681 29.1516 84.5004 29.3085C84.3354 29.4626 84.1353 29.5397 83.9 29.5397ZM87.6089 33.0042V36.6553H86.1403V30.4241H87.544V31.4829H87.617C87.7603 31.134 87.9889 30.8568 88.3026 30.6513C88.619 30.4457 89.0098 30.343 89.475 30.343C89.905 30.343 90.2796 30.4349 90.5987 30.6188C90.9205 30.8027 91.1694 31.0691 91.3451 31.418C91.5236 31.7669 91.6115 32.1901 91.6088 32.6878V36.6553H90.1403V32.9149C90.1403 32.4985 90.0321 32.1726 89.8157 31.9373C89.6021 31.702 89.306 31.5843 88.9273 31.5843C88.6704 31.5843 88.4419 31.6411 88.2417 31.7547C88.0443 31.8656 87.8888 32.0265 87.7752 32.2375C87.6643 32.4484 87.6089 32.704 87.6089 33.0042Z" fill="#D1D1D1"/>
</g>
<defs>
<filter id="filter0_d_930_7615" x="0" y="0" width="96.3472" height="48.6553" filterUnits="userSpaceOnUse" color-interpolation-filters="sRGB">
<feFlood flood-opacity="0" result="BackgroundImageFix"/>
<feColorMatrix in="SourceAlpha" type="matrix" values="0 0 0 0 0 0 0 0 0 0 0 0 0 0 0 0 0 0 127 0" result="hardAlpha"/>
<feOffset dy="4"/>
<feGaussianBlur stdDeviation="2"/>
<feComposite in2="hardAlpha" operator="out"/>
<feColorMatrix type="matrix" values="0 0 0 0 0 0 0 0 0 0 0 0 0 0 0 0 0 0 0.25 0"/>
<feBlend mode="normal" in2="BackgroundImageFix" result="effect1_dropShadow_930_7615"/>
<feBlend mode="normal" in="SourceGraphic" in2="effect1_dropShadow_930_7615" result="shape"/>
</filter>
</defs>
</svg>
