<svg width="89" height="41" viewBox="0 0 89 41" fill="none" xmlns="http://www.w3.org/2000/svg">
<path d="M23.3669 9.68753H16.5029C16.4542 9.11959 16.3244 8.60438 16.1134 8.14191C15.9106 7.67944 15.6266 7.28188 15.2615 6.94922C14.9045 6.60845 14.4704 6.34882 13.9593 6.17032C13.4481 5.98371 12.868 5.89041 12.2189 5.89041C11.0831 5.89041 10.1216 6.16627 9.33459 6.71799C8.5557 7.26971 7.96341 8.06077 7.55774 9.09119C7.16017 10.1216 6.96139 11.3589 6.96139 12.8031C6.96139 14.3285 7.16423 15.6063 7.56991 16.6368C7.98369 17.6591 8.58004 18.4298 9.35894 18.9491C10.1378 19.4603 11.0749 19.7158 12.1703 19.7158C12.795 19.7158 13.3548 19.6388 13.8498 19.4846C14.3447 19.3223 14.7747 19.0911 15.1398 18.7909C15.5049 18.4907 15.8011 18.1296 16.0282 17.7077C16.2635 17.2777 16.4217 16.795 16.5029 16.2595L23.3669 16.3082C23.2858 17.3629 22.9896 18.438 22.4785 19.5333C21.9673 20.6205 21.2412 21.6266 20.3 22.5515C19.3669 23.4683 18.2108 24.2067 16.8315 24.7665C15.4522 25.3263 13.8498 25.6062 12.0242 25.6062C9.73621 25.6062 7.68349 25.1154 5.86607 24.1336C4.05676 23.1519 2.62472 21.7077 1.56996 19.801C0.523321 17.8944 0 15.5617 0 12.8031C0 10.0283 0.535492 7.69161 1.60647 5.79305C2.67746 3.88637 4.12166 2.44622 5.93909 1.4726C7.75652 0.490867 9.78489 0 12.0242 0C13.5982 0 15.0465 0.215008 16.369 0.645023C17.6915 1.07504 18.8517 1.70384 19.8497 2.53141C20.8477 3.35088 21.6509 4.36101 22.2594 5.56181C22.8679 6.76261 23.2371 8.13785 23.3669 9.68753Z" fill="white"/>
<path d="M26.4369 0.340768H34.8587L40.6517 14.4583H40.9438L46.7369 0.340768H55.1587V25.2655H48.5381V10.8559H48.3433L42.7937 25.0707H38.8018L33.2522 10.7585H33.0575V25.2655H26.4369V0.340768Z" fill="#00D749"/>
<path d="M71.8015 8.12974C71.7366 7.31839 71.4324 6.68553 70.8887 6.23118C70.3533 5.77682 69.5379 5.54964 68.4425 5.54964C67.7448 5.54964 67.1728 5.63483 66.7265 5.80522C66.2884 5.96749 65.9638 6.19061 65.7529 6.47458C65.5419 6.75855 65.4324 7.0831 65.4243 7.4482C65.4081 7.7484 65.4608 8.02021 65.5825 8.26361C65.7123 8.4989 65.9152 8.71391 66.191 8.90864C66.4669 9.09525 66.8198 9.26563 67.2498 9.41979C67.6799 9.57394 68.191 9.71187 68.7833 9.83358L70.8279 10.2717C72.2072 10.5638 73.3877 10.9492 74.3694 11.4279C75.3512 11.9066 76.1544 12.4705 76.7792 13.1195C77.4039 13.7605 77.8623 14.4826 78.1544 15.2859C78.4546 16.0891 78.6088 16.9654 78.6169 17.9146C78.6088 19.5536 78.199 20.941 77.3877 22.0769C76.5763 23.2128 75.4161 24.0768 73.907 24.6691C72.406 25.2614 70.6007 25.5576 68.4912 25.5576C66.3249 25.5576 64.4345 25.2371 62.8199 24.5961C61.2134 23.9551 59.9639 22.9694 59.0714 21.6387C58.1871 20.3 57.7408 18.5881 57.7327 16.5029H64.1586C64.1992 17.2656 64.3898 17.9065 64.7306 18.4258C65.0714 18.945 65.5501 19.3386 66.1667 19.6063C66.7914 19.874 67.5338 20.0079 68.3938 20.0079C69.116 20.0079 69.7204 19.9187 70.2072 19.7402C70.694 19.5617 71.0632 19.3142 71.3147 18.9978C71.5662 18.6814 71.696 18.3203 71.7042 17.9146C71.696 17.5333 71.5703 17.2006 71.3269 16.9167C71.0916 16.6246 70.7021 16.365 70.1585 16.1378C69.6149 15.9025 68.8807 15.6834 67.9557 15.4806L65.473 14.9451C63.2661 14.4664 61.5258 13.6672 60.2519 12.5475C58.9862 11.4198 58.3574 9.88226 58.3655 7.93501C58.3574 6.35288 58.7793 4.96953 59.6313 3.78495C60.4913 2.59227 61.6799 1.66327 63.1971 0.997962C64.7225 0.332654 66.4709 0 68.4425 0C70.4547 0 72.195 0.336711 73.6636 1.01013C75.1321 1.68355 76.2639 2.63283 77.0591 3.85798C77.8623 5.075 78.268 6.49892 78.2761 8.12974H71.8015Z" fill="white"/>
<path d="M84.9393 25.6549C83.9982 25.6549 83.1909 25.3263 82.5174 24.6691C81.8521 24.0038 81.5235 23.1965 81.5316 22.2472C81.5235 21.3223 81.8521 20.5312 82.5174 19.874C83.1909 19.2169 83.9982 18.8883 84.9393 18.8883C85.8318 18.8883 86.6188 19.2169 87.3004 19.874C87.99 20.5312 88.3389 21.3223 88.347 22.2472C88.3389 22.8801 88.1726 23.4562 87.848 23.9754C87.5316 24.4866 87.1178 24.8963 86.6067 25.2046C86.0955 25.5048 85.5397 25.6549 84.9393 25.6549Z" fill="#00D749"/>
<path d="M40.2919 28.347H42.1336L44.6001 34.3673H44.6975L47.164 28.347H49.0058V36.6553H47.5616V30.9474H47.4845L45.1884 36.6309H44.1093L41.8131 30.9352H41.7361V36.6553H40.2919V28.347ZM52.3729 36.781C51.978 36.781 51.6224 36.7107 51.3059 36.5701C50.9922 36.4267 50.7434 36.2158 50.5595 35.9372C50.3783 35.6587 50.2877 35.3152 50.2877 34.9068C50.2877 34.5552 50.3526 34.2645 50.4824 34.0346C50.6122 33.8047 50.7894 33.6208 51.0139 33.4829C51.2383 33.345 51.4912 33.2408 51.7725 33.1705C52.0564 33.0975 52.3499 33.0448 52.6528 33.0123C53.0179 32.9744 53.314 32.9406 53.5412 32.9109C53.7684 32.8784 53.9334 32.8298 54.0361 32.7648C54.1416 32.6972 54.1944 32.5931 54.1944 32.4525V32.4281C54.1944 32.1225 54.1038 31.8859 53.9226 31.7182C53.7414 31.5505 53.4804 31.4667 53.1396 31.4667C52.7799 31.4667 52.4946 31.5451 52.2836 31.702C52.0754 31.8588 51.9347 32.0441 51.8617 32.2578L50.4905 32.063C50.5987 31.6844 50.7772 31.368 51.026 31.1137C51.2748 30.8568 51.5791 30.6648 51.9388 30.5377C52.2985 30.4079 52.6961 30.343 53.1315 30.343C53.4317 30.343 53.7305 30.3781 54.028 30.4484C54.3255 30.5188 54.5973 30.635 54.8434 30.7973C55.0895 30.9569 55.287 31.1746 55.4357 31.4505C55.5872 31.7263 55.6629 32.0711 55.6629 32.4849V36.6553H54.2512V35.7993H54.2025C54.1132 35.9724 53.9875 36.1347 53.8252 36.2861C53.6656 36.4349 53.4641 36.5552 53.2207 36.6472C52.98 36.7364 52.6974 36.781 52.3729 36.781ZM52.7542 35.7019C53.049 35.7019 53.3046 35.6438 53.5209 35.5275C53.7373 35.4085 53.9036 35.2516 54.0199 35.0569C54.1389 34.8622 54.1984 34.6499 54.1984 34.42V33.6857C54.1524 33.7236 54.074 33.7587 53.9631 33.7912C53.8549 33.8237 53.7332 33.8521 53.598 33.8764C53.4628 33.9007 53.3289 33.9224 53.1964 33.9413C53.0639 33.9602 52.9489 33.9765 52.8516 33.99C52.6325 34.0197 52.4364 34.0684 52.2633 34.136C52.0903 34.2036 51.9537 34.2983 51.8536 34.42C51.7535 34.539 51.7035 34.6932 51.7035 34.8825C51.7035 35.1529 51.8022 35.3571 51.9997 35.495C52.1971 35.633 52.4486 35.7019 52.7542 35.7019ZM58.6081 33.0042V36.6553H57.1396V30.4241H58.5432V31.4829H58.6162C58.7596 31.134 58.9881 30.8568 59.3018 30.6513C59.6182 30.4457 60.009 30.343 60.4742 30.343C60.9042 30.343 61.2788 30.4349 61.5979 30.6188C61.9198 30.8027 62.1686 31.0691 62.3444 31.418C62.5229 31.7669 62.6108 32.1901 62.6081 32.6878V36.6553H61.1395V32.9149C61.1395 32.4985 61.0313 32.1726 60.815 31.9373C60.6013 31.702 60.3052 31.5843 59.9266 31.5843C59.6696 31.5843 59.4411 31.6411 59.241 31.7547C59.0435 31.8656 58.888 32.0265 58.7744 32.2375C58.6636 32.4484 58.6081 32.704 58.6081 33.0042ZM65.894 36.781C65.4992 36.781 65.1435 36.7107 64.8271 36.5701C64.5134 36.4267 64.2646 36.2158 64.0807 35.9372C63.8995 35.6587 63.8089 35.3152 63.8089 34.9068C63.8089 34.5552 63.8738 34.2645 64.0036 34.0346C64.1334 33.8047 64.3106 33.6208 64.535 33.4829C64.7595 33.345 65.0124 33.2408 65.2936 33.1705C65.5776 33.0975 65.8711 33.0448 66.174 33.0123C66.5391 32.9744 66.8352 32.9406 67.0624 32.9109C67.2896 32.8784 67.4545 32.8298 67.5573 32.7648C67.6628 32.6972 67.7155 32.5931 67.7155 32.4525V32.4281C67.7155 32.1225 67.6249 31.8859 67.4437 31.7182C67.2625 31.5505 67.0015 31.4667 66.6608 31.4667C66.3011 31.4667 66.0157 31.5451 65.8048 31.702C65.5965 31.8588 65.4559 32.0441 65.3829 32.2578L64.0117 32.063C64.1199 31.6844 64.2984 31.368 64.5472 31.1137C64.796 30.8568 65.1003 30.6648 65.46 30.5377C65.8197 30.4079 66.2172 30.343 66.6527 30.343C66.9529 30.343 67.2517 30.3781 67.5492 30.4484C67.8467 30.5188 68.1185 30.635 68.3646 30.7973C68.6107 30.9569 68.8081 31.1746 68.9569 31.4505C69.1083 31.7263 69.1841 32.0711 69.1841 32.4849V36.6553H67.7723V35.7993H67.7236C67.6344 35.9724 67.5086 36.1347 67.3464 36.2861C67.1868 36.4349 66.9853 36.5552 66.7419 36.6472C66.5012 36.7364 66.2186 36.781 65.894 36.781ZM66.2754 35.7019C66.5702 35.7019 66.8257 35.6438 67.0421 35.5275C67.2585 35.4085 67.4248 35.2516 67.5411 35.0569C67.6601 34.8622 67.7196 34.6499 67.7196 34.42V33.6857C67.6736 33.7236 67.5952 33.7587 67.4843 33.7912C67.3761 33.8237 67.2544 33.8521 67.1192 33.8764C66.984 33.9007 66.8501 33.9224 66.7176 33.9413C66.585 33.9602 66.4701 33.9765 66.3727 33.99C66.1537 34.0197 65.9576 34.0684 65.7845 34.136C65.6114 34.2036 65.4748 34.2983 65.3748 34.42C65.2747 34.539 65.2247 34.6932 65.2247 34.8825C65.2247 35.1529 65.3234 35.3571 65.5208 35.495C65.7182 35.633 65.9698 35.7019 66.2754 35.7019ZM73.3706 39.1218C72.8433 39.1218 72.3903 39.0501 72.0116 38.9068C71.633 38.7661 71.3287 38.5768 71.0989 38.3388C70.869 38.1008 70.7094 37.8371 70.6202 37.5478L71.9427 37.2273C72.0022 37.349 72.0887 37.4693 72.2023 37.5883C72.3159 37.71 72.4687 37.8101 72.6607 37.8885C72.8554 37.9697 73.1002 38.0102 73.395 38.0102C73.8115 38.0102 74.1563 37.9088 74.4295 37.706C74.7026 37.5058 74.8392 37.1759 74.8392 36.7161V35.5356H74.7662C74.6904 35.6871 74.5796 35.8426 74.4335 36.0021C74.2902 36.1617 74.0995 36.2956 73.8615 36.4038C73.6262 36.5119 73.3301 36.566 72.9731 36.566C72.4944 36.566 72.0603 36.4538 71.6709 36.2293C71.2841 36.0021 70.9758 35.6641 70.7459 35.2151C70.5187 34.7635 70.4052 34.1982 70.4052 33.5194C70.4052 32.8352 70.5187 32.2578 70.7459 31.7872C70.9758 31.3139 71.2855 30.9555 71.6749 30.7121C72.0644 30.466 72.4984 30.343 72.9771 30.343C73.3422 30.343 73.6424 30.4052 73.8777 30.5296C74.1157 30.6513 74.305 30.7987 74.4457 30.9718C74.5863 31.1421 74.6931 31.3031 74.7662 31.4545H74.8473V30.4241H76.2956V36.7567C76.2956 37.2895 76.1685 37.7303 75.9142 38.0792C75.66 38.4281 75.3125 38.6891 74.8716 38.8621C74.4308 39.0352 73.9305 39.1218 73.3706 39.1218ZM73.3828 35.4139C73.6938 35.4139 73.9589 35.3382 74.1779 35.1867C74.397 35.0353 74.5633 34.8176 74.6769 34.5336C74.7905 34.2496 74.8473 33.9088 74.8473 33.5113C74.8473 33.1191 74.7905 32.7757 74.6769 32.4809C74.566 32.1861 74.4011 31.9576 74.182 31.7953C73.9656 31.6303 73.6992 31.5478 73.3828 31.5478C73.0556 31.5478 72.7824 31.633 72.5633 31.8034C72.3443 31.9738 72.1793 32.2077 72.0684 32.5052C71.9575 32.8 71.9021 33.1354 71.9021 33.5113C71.9021 33.8926 71.9575 34.2266 72.0684 34.5133C72.182 34.7973 72.3483 35.019 72.5674 35.1786C72.7892 35.3355 73.061 35.4139 73.3828 35.4139ZM80.5592 36.777C79.9345 36.777 79.3949 36.6472 78.9406 36.3875C78.4889 36.1252 78.1414 35.7547 77.898 35.276C77.6546 34.7946 77.5329 34.228 77.5329 33.5762C77.5329 32.9352 77.6546 32.3727 77.898 31.8886C78.1441 31.4018 78.4876 31.0231 78.9284 30.7527C79.3692 30.4795 79.8871 30.343 80.4821 30.343C80.8662 30.343 81.2286 30.4052 81.5693 30.5296C81.9128 30.6513 82.2157 30.8406 82.4781 31.0975C82.7431 31.3544 82.9513 31.6817 83.1028 32.0793C83.2543 32.4741 83.33 32.9447 83.33 33.491V33.9413H78.2225V32.9515H81.9223C81.9196 32.6702 81.8587 32.42 81.7397 32.201C81.6207 31.9792 81.4544 31.8047 81.2407 31.6776C81.0298 31.5505 80.7837 31.487 80.5024 31.487C80.2022 31.487 79.9385 31.56 79.7114 31.706C79.4842 31.8494 79.307 32.0387 79.1799 32.274C79.0555 32.5066 78.992 32.7621 78.9892 33.0407V33.9048C78.9892 34.2672 79.0555 34.5782 79.188 34.8378C79.3206 35.0948 79.5058 35.2922 79.7438 35.4301C79.9818 35.5654 80.2604 35.633 80.5795 35.633C80.7932 35.633 80.9865 35.6032 81.1596 35.5437C81.3327 35.4815 81.4828 35.3909 81.6099 35.2719C81.737 35.1529 81.833 35.0055 81.8979 34.8297L83.2691 34.9839C83.1826 35.3463 83.0176 35.6627 82.7742 35.9332C82.5335 36.2009 82.2252 36.4092 81.8493 36.5579C81.4733 36.704 81.0433 36.777 80.5592 36.777ZM84.5724 36.6553V30.4241H85.9963V31.4626H86.0612C86.1748 31.1029 86.3695 30.8257 86.6454 30.631C86.9239 30.4336 87.2417 30.3348 87.5987 30.3348C87.6798 30.3348 87.7704 30.3389 87.8705 30.347C87.9733 30.3524 88.0585 30.3619 88.1261 30.3754V31.7263C88.0639 31.7047 87.9652 31.6857 87.8299 31.6695C87.6974 31.6506 87.5689 31.6411 87.4445 31.6411C87.1768 31.6411 86.9361 31.6993 86.7224 31.8156C86.5115 31.9292 86.3452 32.0874 86.2235 32.2902C86.1018 32.493 86.0409 32.727 86.0409 32.992V36.6553H84.5724Z" fill="#D1D1D1"/>
</svg>
