<svg width="89" height="41" viewBox="0 0 89 41" fill="none" xmlns="http://www.w3.org/2000/svg">
<path d="M23.3669 9.68753H16.5029C16.4542 9.11959 16.3244 8.60438 16.1134 8.14191C15.9106 7.67944 15.6266 7.28188 15.2615 6.94922C14.9045 6.60845 14.4704 6.34882 13.9593 6.17032C13.4481 5.98371 12.868 5.89041 12.2189 5.89041C11.0831 5.89041 10.1216 6.16627 9.33459 6.71799C8.5557 7.26971 7.96341 8.06077 7.55774 9.09119C7.16017 10.1216 6.96139 11.3589 6.96139 12.8031C6.96139 14.3285 7.16423 15.6063 7.56991 16.6368C7.98369 17.6591 8.58004 18.4298 9.35894 18.9491C10.1378 19.4603 11.0749 19.7158 12.1703 19.7158C12.795 19.7158 13.3548 19.6388 13.8498 19.4846C14.3447 19.3223 14.7747 19.0911 15.1398 18.7909C15.5049 18.4907 15.8011 18.1296 16.0282 17.7077C16.2635 17.2777 16.4217 16.795 16.5029 16.2595L23.3669 16.3082C23.2858 17.3629 22.9896 18.438 22.4785 19.5333C21.9673 20.6205 21.2412 21.6266 20.3 22.5515C19.3669 23.4683 18.2108 24.2067 16.8315 24.7665C15.4522 25.3263 13.8498 25.6062 12.0242 25.6062C9.73621 25.6062 7.68349 25.1154 5.86607 24.1336C4.05676 23.1519 2.62472 21.7077 1.56996 19.801C0.523321 17.8943 0 15.5617 0 12.8031C0 10.0283 0.535492 7.69161 1.60648 5.79305C2.67746 3.88637 4.12166 2.44622 5.93909 1.4726C7.75652 0.490867 9.78489 0 12.0242 0C13.5982 0 15.0465 0.215008 16.369 0.645023C17.6915 1.07504 18.8517 1.70384 19.8497 2.53142C20.8477 3.35088 21.6509 4.36101 22.2594 5.56181C22.8679 6.76261 23.2371 8.13785 23.3669 9.68753Z" fill="white"/>
<path d="M26.4369 0.340768H34.8587L40.6517 14.4583H40.9438L46.7369 0.340768H55.1587V25.2655H48.5381V10.8559H48.3433L42.7937 25.0707H38.8019L33.2522 10.7585H33.0575V25.2655H26.4369V0.340768Z" fill="#00D749"/>
<path d="M71.8015 8.12974C71.7366 7.31839 71.4324 6.68553 70.8888 6.23118C70.3533 5.77682 69.5379 5.54964 68.4425 5.54964C67.7448 5.54964 67.1728 5.63483 66.7265 5.80522C66.2884 5.96749 65.9638 6.19061 65.7529 6.47458C65.5419 6.75855 65.4324 7.0831 65.4243 7.4482C65.4081 7.7484 65.4608 8.02021 65.5825 8.26361C65.7123 8.4989 65.9152 8.71391 66.191 8.90864C66.4669 9.09525 66.8198 9.26563 67.2498 9.41979C67.6799 9.57394 68.191 9.71187 68.7833 9.83358L70.8279 10.2717C72.2072 10.5638 73.3877 10.9492 74.3694 11.4279C75.3512 11.9066 76.1544 12.4705 76.7792 13.1195C77.4039 13.7605 77.8623 14.4826 78.1544 15.2859C78.4546 16.0891 78.6088 16.9654 78.6169 17.9146C78.6088 19.5536 78.199 20.941 77.3877 22.0769C76.5763 23.2128 75.4161 24.0768 73.907 24.6691C72.406 25.2614 70.6007 25.5576 68.4912 25.5576C66.3249 25.5576 64.4345 25.2371 62.8199 24.5961C61.2134 23.9551 59.9639 22.9694 59.0714 21.6387C58.1871 20.3 57.7408 18.5881 57.7327 16.5029H64.1586C64.1992 17.2656 64.3898 17.9065 64.7306 18.4258C65.0714 18.945 65.5501 19.3386 66.1667 19.6063C66.7914 19.874 67.5338 20.0079 68.3938 20.0079C69.1159 20.0079 69.7204 19.9187 70.2072 19.7402C70.694 19.5617 71.0632 19.3142 71.3147 18.9978C71.5662 18.6814 71.696 18.3203 71.7042 17.9146C71.696 17.5333 71.5703 17.2006 71.3269 16.9167C71.0916 16.6246 70.7021 16.365 70.1585 16.1378C69.6149 15.9025 68.8807 15.6834 67.9557 15.4806L65.473 14.9451C63.2661 14.4664 61.5258 13.6672 60.2519 12.5475C58.9862 11.4198 58.3574 9.88226 58.3655 7.93501C58.3574 6.35288 58.7793 4.96953 59.6313 3.78495C60.4913 2.59227 61.6799 1.66327 63.1971 0.997962C64.7225 0.332654 66.4709 0 68.4425 0C70.4547 0 72.195 0.336711 73.6636 1.01013C75.1321 1.68355 76.2639 2.63283 77.0591 3.85798C77.8623 5.075 78.268 6.49892 78.2761 8.12974H71.8015Z" fill="white"/>
<path d="M84.9393 25.6549C83.9982 25.6549 83.1909 25.3263 82.5174 24.6691C81.8521 24.0038 81.5235 23.1965 81.5316 22.2472C81.5235 21.3223 81.8521 20.5312 82.5174 19.874C83.1909 19.2169 83.9982 18.8883 84.9393 18.8883C85.8318 18.8883 86.6188 19.2169 87.3004 19.874C87.99 20.5312 88.3389 21.3223 88.347 22.2472C88.3389 22.8801 88.1726 23.4562 87.848 23.9754C87.5316 24.4866 87.1178 24.8963 86.6066 25.2046C86.0955 25.5048 85.5397 25.6549 84.9393 25.6549Z" fill="#00D749"/>
<path d="M58.5249 36.6553H55.7096V28.347H58.5817C59.4066 28.347 60.1152 28.5134 60.7075 28.846C61.3025 29.176 61.7595 29.6506 62.0787 30.2699C62.3978 30.8893 62.5574 31.6303 62.5574 32.493C62.5574 33.3585 62.3964 34.1022 62.0746 34.7243C61.7555 35.3463 61.2944 35.8236 60.6913 36.1563C60.0909 36.4889 59.3687 36.6553 58.5249 36.6553ZM57.2146 35.3531H58.4519C59.0307 35.3531 59.5134 35.2476 59.9002 35.0366C60.2869 34.823 60.5777 34.5052 60.7724 34.0833C60.9671 33.6587 61.0645 33.1286 61.0645 32.493C61.0645 31.8575 60.9671 31.3301 60.7724 30.9109C60.5777 30.489 60.2896 30.1739 59.9083 29.9657C59.5297 29.7547 59.0591 29.6493 58.4965 29.6493H57.2146V35.3531ZM63.9225 36.6553V30.4241H65.3464V31.4626H65.4113C65.5249 31.1029 65.7196 30.8257 65.9955 30.631C66.274 30.4336 66.5918 30.3348 66.9488 30.3348C67.0299 30.3348 67.1205 30.3389 67.2206 30.347C67.3234 30.3524 67.4086 30.3619 67.4762 30.3754V31.7263C67.414 31.7047 67.3153 31.6857 67.18 31.6695C67.0475 31.6506 66.919 31.6411 66.7946 31.6411C66.5269 31.6411 66.2862 31.6993 66.0725 31.8156C65.8616 31.9292 65.6953 32.0874 65.5736 32.2902C65.4519 32.493 65.391 32.727 65.391 32.992V36.6553H63.9225ZM68.4518 36.6553V30.4241H69.9204V36.6553H68.4518ZM69.1902 29.5397C68.9576 29.5397 68.7574 29.4626 68.5898 29.3085C68.4221 29.1516 68.3382 28.9637 68.3382 28.7446C68.3382 28.5228 68.4221 28.3349 68.5898 28.1807C68.7574 28.0238 68.9576 27.9454 69.1902 27.9454C69.4254 27.9454 69.6256 28.0238 69.7906 28.1807C69.9582 28.3349 70.0421 28.5228 70.0421 28.7446C70.0421 28.9637 69.9582 29.1516 69.7906 29.3085C69.6256 29.4626 69.4254 29.5397 69.1902 29.5397ZM76.9964 30.4241L74.7773 36.6553H73.1546L70.9356 30.4241H72.5015L73.9335 35.0529H73.9984L75.4345 30.4241H76.9964ZM80.5592 36.777C79.9345 36.777 79.3949 36.6472 78.9406 36.3875C78.4889 36.1252 78.1414 35.7547 77.898 35.276C77.6546 34.7946 77.5329 34.228 77.5329 33.5762C77.5329 32.9352 77.6546 32.3727 77.898 31.8886C78.1441 31.4018 78.4876 31.0231 78.9284 30.7527C79.3692 30.4795 79.8871 30.343 80.4821 30.343C80.8662 30.343 81.2286 30.4052 81.5693 30.5296C81.9128 30.6513 82.2157 30.8406 82.4781 31.0975C82.7431 31.3544 82.9513 31.6817 83.1028 32.0793C83.2542 32.4741 83.33 32.9447 83.33 33.491V33.9413H78.2225V32.9515H81.9223C81.9196 32.6702 81.8587 32.42 81.7397 32.201C81.6207 31.9792 81.4544 31.8047 81.2407 31.6776C81.0298 31.5505 80.7837 31.487 80.5024 31.487C80.2022 31.487 79.9385 31.56 79.7113 31.706C79.4842 31.8494 79.307 32.0387 79.1799 32.274C79.0555 32.5066 78.9919 32.7621 78.9892 33.0407V33.9048C78.9892 34.2672 79.0555 34.5782 79.188 34.8378C79.3205 35.0948 79.5058 35.2922 79.7438 35.4301C79.9818 35.5654 80.2604 35.633 80.5795 35.633C80.7931 35.633 80.9865 35.6032 81.1596 35.5437C81.3327 35.4815 81.4828 35.3909 81.6099 35.2719C81.737 35.1529 81.833 35.0055 81.8979 34.8297L83.2691 34.9839C83.1826 35.3463 83.0176 35.6627 82.7742 35.9332C82.5335 36.2009 82.2252 36.4092 81.8493 36.5579C81.4733 36.704 81.0433 36.777 80.5592 36.777ZM84.5724 36.6553V30.4241H85.9963V31.4626H86.0612C86.1748 31.1029 86.3695 30.8257 86.6454 30.631C86.9239 30.4336 87.2417 30.3348 87.5987 30.3348C87.6798 30.3348 87.7704 30.3389 87.8705 30.347C87.9733 30.3524 88.0585 30.3619 88.1261 30.3754V31.7263C88.0639 31.7047 87.9652 31.6857 87.8299 31.6695C87.6974 31.6506 87.5689 31.6411 87.4445 31.6411C87.1768 31.6411 86.9361 31.6993 86.7224 31.8156C86.5115 31.9292 86.3452 32.0874 86.2235 32.2902C86.1018 32.493 86.0409 32.727 86.0409 32.992V36.6553H84.5724Z" fill="#D1D1D1"/>
</svg>
