<svg xmlns="http://www.w3.org/2000/svg" viewBox="0 0 750 500"><g id="freepik--background-simple--inject-22"><path d="M670.88,36.71l-1.73-.2A39.29,39.29,0,0,0,632,53a37.56,37.56,0,0,0-2.8,4.84,41.23,41.23,0,0,0,2.11,38.88c4.21,6.82,10.55,12.74,12,20.58,1.88,10.21-5.12,19.61-11.7,27.54S618.06,162.23,620,172.43c1.21,6.39,5.84,11.72,11.2,15.46,14.21,9.89,33.8,9.87,49.26,2.5s27.09-21.18,34.71-36.48c10.68-21.44,14.14-47,6.53-70S694.58,41.54,670.88,36.71Z" style="fill:#f5f5f5"></path><path d="M55.75,200.61l1.58.74a39.29,39.29,0,0,0,40.45-3.85,36.93,36.93,0,0,0,4.2-3.7,41.24,41.24,0,0,0,10.37-37.54c-1.82-7.79-5.95-15.43-4.82-23.32,1.46-10.28,11.09-17,19.86-22.39s18.38-12.14,19.8-22.42c.89-6.44-1.81-13-5.7-18.22-10.33-13.89-28.9-20.11-45.91-18S63.17,63.33,51.07,75.42c-17,16.92-28.37,40.1-28.45,64.25S34.82,188.49,55.75,200.61Z" style="fill:#f5f5f5"></path><circle cx="668.73" cy="252.66" r="30.62" style="fill:#f5f5f5"></circle></g><g id="freepik--Device--inject-22"><rect x="163.9" y="46.99" width="443.49" height="293.28" rx="14.57" style="fill:#e0e0e0"></rect><path d="M592.82,340.27l.95-.06a7,7,0,0,0,1.15-.13,9.42,9.42,0,0,0,1.59-.33,13.52,13.52,0,0,0,4.19-1.85,14.33,14.33,0,0,0,4.41-4.49A15.07,15.07,0,0,0,606.7,330a15.91,15.91,0,0,0,.62-4.18c0-3,0-6.23,0-9.76,0-7.05,0-15.19,0-24.35,0-36.65,0-89.69-.08-155.22q0-24.57,0-51.43V64.59a24.75,24.75,0,0,0-.53-6.83,14.36,14.36,0,0,0-9.1-9.74,14,14,0,0,0-1.68-.48c-.57-.12-1.15-.2-1.73-.27-1.17-.08-2.36-.07-3.56-.06H583.4l-123,0-281.88,0a14.37,14.37,0,0,0-13.74,10.23,15.6,15.6,0,0,0-.6,4.52v50.71q0,36.53,0,71.92c0,47.16,0,92.64,0,136v4a19.5,19.5,0,0,0,.3,4,14.49,14.49,0,0,0,3.63,6.92,14,14,0,0,0,3.07,2.45,15.9,15.9,0,0,0,1.74.9,15,15,0,0,0,1.86.62c2.52.74,5.19.46,7.83.51h90.95l107.19,0,155.2.09,42.2.05,11,0,3.73,0-3.73,0-11,0-42.2.05-155.2.08-107.19,0-59.72,0H178.61a15,15,0,0,1-4-.52,16.62,16.62,0,0,1-1.92-.64,18.12,18.12,0,0,1-1.8-.94,14.23,14.23,0,0,1-3.16-2.53,14.55,14.55,0,0,1-2.37-3.3,15.9,15.9,0,0,1-1.39-3.84,20,20,0,0,1-.31-4.08v-4c0-43.33,0-88.81,0-136V62a15.75,15.75,0,0,1,.62-4.67,14.89,14.89,0,0,1,14.24-10.6l281.88,0,123,0h7.19c1.2,0,2.38,0,3.59.07a18,18,0,0,1,1.79.27,14.91,14.91,0,0,1,11.09,10.53l.22.85c.06.29.09.58.14.87a12.94,12.94,0,0,1,.16,1.75c0,1.17,0,2.32,0,3.47v6.87q0,6.84,0,13.55,0,26.83,0,51.43c0,65.53-.07,118.57-.09,155.22,0,9.16,0,17.3,0,24.35,0,3.53,0,6.79,0,9.76a15.8,15.8,0,0,1-.64,4.22,14.77,14.77,0,0,1-1.61,3.47,14.31,14.31,0,0,1-4.46,4.51,13.59,13.59,0,0,1-4.21,1.83,9.8,9.8,0,0,1-1.6.32,6.85,6.85,0,0,1-1.16.11Z" style="fill:#263238"></path><path d="M609.26,347H164.36a17.8,17.8,0,0,1-17.79-17.8v-7.86H627.06v7.86A17.8,17.8,0,0,1,609.26,347Z" style="fill:#e0e0e0"></path><path d="M609.26,347l.58,0a16.68,16.68,0,0,0,1.71-.15l1.27-.2,1.51-.39c.55-.16,1.11-.4,1.73-.62s1.25-.57,1.9-.94a18.62,18.62,0,0,0,4-3.07,17.78,17.78,0,0,0,5-12c0-2.57,0-5.33,0-8.26l.1.09-462.67.17H146.57l.26-.26v6.25a20.85,20.85,0,0,0,.6,6.12,17.48,17.48,0,0,0,6.85,9.82,18.24,18.24,0,0,0,11.49,3.21H316.44l152.72.06,102.58.08,27.83.05,7.23,0,2.46,0-2.46,0-7.23,0-27.83,0-102.58.08-152.72.06H165.77A18.76,18.76,0,0,1,154,344a18,18,0,0,1-7-10.12,21.6,21.6,0,0,1-.62-6.25v-6.51h18.08l462.67.16h.09v.1c0,2.93,0,5.68,0,8.27A17.81,17.81,0,0,1,622,341.66a18.85,18.85,0,0,1-4,3.08c-.66.37-1.31.65-1.91.93s-1.2.46-1.75.61l-1.52.38-1.27.19a13.15,13.15,0,0,1-1.72.12Z" style="fill:#263238"></path><polygon points="341.93 321.33 347.89 330.81 431.79 330.81 437.32 321.33 341.93 321.33" style="fill:#263238"></polygon><rect x="184.42" y="67.03" width="402.07" height="238.49" rx="8.48" style="fill:#455a64"></rect><path d="M577.83,305.52a9.15,9.15,0,0,0,3.18-.64,8.55,8.55,0,0,0,3.25-2.29,8.67,8.67,0,0,0,2.14-5c.06-8.42,0-20.87,0-36.89,0-32,0-78.4-.09-135.68q0-21.48,0-45V77.12a15.56,15.56,0,0,0-.14-2.91,8.4,8.4,0,0,0-2.83-4.94,8.51,8.51,0,0,0-5.37-2H547.06l-107.54,0-246.41,0a8.44,8.44,0,0,0-6.81,3.46,8.16,8.16,0,0,0-1.5,3.62,33.53,33.53,0,0,0-.12,4V189.67q0,30.92,0,60.69v29.42c0,4.84,0,9.67,0,14.46,0,1.19,0,2.42.06,3.56a8.41,8.41,0,0,0,6.5,7.27,15.41,15.41,0,0,0,3.48.21h104l93.7,0,135.68.08,36.89.05,9.59,0,3.27,0-3.27,0-9.59,0-36.89.05-135.68.08-93.7,0h-104a15.47,15.47,0,0,1-3.58-.23,8.91,8.91,0,0,1-6.88-7.68c-.11-1.24,0-2.41-.06-3.61V279.78q0-14.55,0-29.42V189.67q0-30.91,0-62.87V78.4a33.48,33.48,0,0,1,.12-4.11,8.68,8.68,0,0,1,1.6-3.85,8.93,8.93,0,0,1,7.23-3.67l246.41,0,107.54,0H578a8.86,8.86,0,0,1,8.6,7.31,16.66,16.66,0,0,1,.14,3v2.94q0,23.44,0,45c0,57.28-.06,103.64-.08,135.68,0,16,0,28.46-.09,36.9a8.69,8.69,0,0,1-5.47,7.33,8.73,8.73,0,0,1-2.38.56Z" style="fill:#263238"></path><path d="M333.5,126.06v2.29H324V116h9.32v2.29h-6.48V121h5.72v2.22h-5.72v2.85Z" style="fill:#fff"></path><path d="M345.26,122.93v5.42h-2.75v-5c0-1.53-.7-2.24-1.92-2.24s-2.27.81-2.27,2.55v4.69h-2.74v-9.47h2.62V120a4.15,4.15,0,0,1,3.13-1.25C343.57,118.73,345.26,120,345.26,122.93Z" style="fill:#fff"></path><path d="M353.85,127.89a3.87,3.87,0,0,1-2.23.6c-2.24,0-3.54-1.14-3.54-3.4V121.2h-1.46v-2.11h1.46v-2.31h2.74v2.31h2.36v2.11h-2.36v3.86a1.11,1.11,0,0,0,1.19,1.25,1.83,1.83,0,0,0,1.1-.36Z" style="fill:#fff"></path><path d="M364.33,124.39h-7.16a2.52,2.52,0,0,0,2.71,1.9,3.19,3.19,0,0,0,2.37-.92l1.47,1.59a5,5,0,0,1-3.91,1.53c-3.28,0-5.41-2.06-5.41-4.88a4.83,4.83,0,0,1,5.05-4.88,4.69,4.69,0,0,1,4.93,4.92C364.38,123.86,364.35,124.16,364.33,124.39Zm-7.2-1.61h4.67a2.27,2.27,0,0,0-2.33-2A2.24,2.24,0,0,0,357.13,122.78Z" style="fill:#fff"></path><path d="M372.1,118.73v2.54c-.23,0-.41,0-.62,0a2.33,2.33,0,0,0-2.52,2.64v4.47h-2.74v-9.47h2.62v1.25A3.82,3.82,0,0,1,372.1,118.73Z" style="fill:#fff"></path><path d="M384.9,124v4.37h-2.85V124L377.28,116h3l3.3,5.48,3.29-5.48h2.8Z" style="fill:#fff"></path><path d="M388.93,123.61a5.22,5.22,0,1,1,5.22,4.88A4.88,4.88,0,0,1,388.93,123.61Zm7.63,0a2.43,2.43,0,1,0-2.41,2.63A2.39,2.39,0,0,0,396.56,123.61Z" style="fill:#fff"></path><path d="M410.72,118.88v9.47h-2.61v-1.13a3.83,3.83,0,0,1-2.94,1.27c-2.38,0-4.05-1.34-4.05-4.26v-5.35h2.75v4.94c0,1.59.7,2.29,1.92,2.29s2.18-.81,2.18-2.55v-4.68Z" style="fill:#fff"></path><path d="M419.15,118.73v2.54c-.23,0-.4,0-.61,0a2.32,2.32,0,0,0-2.52,2.64v4.47h-2.75v-9.47h2.62v1.25A3.82,3.82,0,0,1,419.15,118.73Z" style="fill:#fff"></path><path d="M425.26,122.19c0-3.67,2.85-6.38,6.75-6.38s6.74,2.7,6.74,6.38-2.87,6.37-6.74,6.37S425.26,125.85,425.26,122.19Zm10.6,0a3.86,3.86,0,1,0-3.85,3.94A3.76,3.76,0,0,0,435.86,122.19Z" style="fill:#fff"></path><path d="M443.28,118.35h-3.95V116h10.74v2.33h-3.94v10h-2.85Z" style="fill:#fff"></path><path d="M462.3,120.5c0,2.74-2.06,4.45-5.36,4.45h-2.48v3.4h-2.85V116h5.33C460.24,116,462.3,117.73,462.3,120.5Zm-2.89,0c0-1.36-.88-2.15-2.63-2.15h-2.32v4.28h2.32C458.53,122.63,459.41,121.83,459.41,120.5Z" style="fill:#fff"></path><g style="opacity:0.2"><rect x="277.94" y="153.78" width="31.29" height="42.63" rx="5.47" style="fill:#fff"></rect></g><g style="opacity:0.2"><rect x="317.31" y="153.78" width="31.29" height="42.63" rx="5.47" style="fill:#fff"></rect></g><g style="opacity:0.2"><rect x="356.69" y="153.78" width="31.29" height="42.63" rx="5.47" style="fill:#fff"></rect></g><g style="opacity:0.2"><rect x="396.06" y="153.78" width="31.29" height="42.63" rx="5.47" style="fill:#fff"></rect></g><g style="opacity:0.2"><rect x="435.43" y="153.78" width="31.29" height="42.63" rx="5.47" style="fill:#fff"></rect></g><g style="opacity:0.2"><rect x="474.8" y="153.78" width="31.29" height="42.63" rx="5.47" style="fill:#fff"></rect></g><path d="M296.85,175.27l3.75,2-1.68,2.82-3.78-2.24.06,4.16H292l0-4.19-3.78,2.27-1.65-2.82,3.74-2-3.74-2.06,1.65-2.82,3.78,2.27,0-4.19h3.23l-.06,4.19,3.78-2.27,1.68,2.82Z" style="fill:#263238"></path><rect x="342.78" y="222.58" width="98.48" height="28.71" rx="13.03" style="fill:#00D776"></rect><path d="M364.5,236.26a4.46,4.46,0,0,1,7.72-2.76l-1.2,1.11a2.61,2.61,0,0,0-2-.94,2.59,2.59,0,0,0,0,5.18,2.6,2.6,0,0,0,2-1l1.2,1.11a4.45,4.45,0,0,1-7.72-2.74Z" style="fill:#fff"></path><path d="M372.67,237.19a3.43,3.43,0,1,1,3.43,3.21A3.21,3.21,0,0,1,372.67,237.19Zm5,0a1.6,1.6,0,1,0-1.58,1.73A1.57,1.57,0,0,0,377.68,237.19Z" style="fill:#fff"></path><path d="M387.07,236.74v3.56h-1.8V237c0-1-.47-1.47-1.26-1.47s-1.5.53-1.5,1.68v3.07h-1.8v-6.22h1.72v.73a2.75,2.75,0,0,1,2.06-.82A2.44,2.44,0,0,1,387.07,236.74Z" style="fill:#fff"></path><path d="M392.71,240a2.54,2.54,0,0,1-1.47.4,2.05,2.05,0,0,1-2.32-2.24v-2.55h-1v-1.39h1v-1.51h1.8v1.51h1.55v1.39h-1.55v2.53a.73.73,0,0,0,.78.82,1.24,1.24,0,0,0,.73-.23Z" style="fill:#fff"></path><path d="M393.51,232.21a1,1,0,0,1,1.12-1,1,1,0,0,1,1.12,1,1.13,1.13,0,0,1-2.24,0Zm.22,1.87h1.8v6.22h-1.8Z" style="fill:#fff"></path><path d="M403.57,236.74v3.56h-1.8V237c0-1-.47-1.47-1.26-1.47s-1.5.53-1.5,1.68v3.07h-1.8v-6.22h1.72v.73A2.75,2.75,0,0,1,401,234,2.44,2.44,0,0,1,403.57,236.74Z" style="fill:#fff"></path><path d="M411.47,234.08v6.22h-1.71v-.74a2.51,2.51,0,0,1-1.93.84,2.48,2.48,0,0,1-2.66-2.8v-3.52H407v3.25c0,1,.46,1.51,1.26,1.51s1.44-.54,1.44-1.68v-3.08Z" style="fill:#fff"></path><path d="M419.21,237.7H414.5a1.65,1.65,0,0,0,1.78,1.25,2.13,2.13,0,0,0,1.56-.6l1,1a3.63,3.63,0,0,1-6.12-2.2A3.17,3.17,0,0,1,416,234a3.08,3.08,0,0,1,3.24,3.23C419.24,237.36,419.22,237.55,419.21,237.7Zm-4.73-1h3.06a1.48,1.48,0,0,0-1.53-1.3A1.46,1.46,0,0,0,414.48,236.65Z" style="fill:#fff"></path><path d="M394.48,57.1a4.42,4.42,0,1,1-4.41-4.42A4.41,4.41,0,0,1,394.48,57.1Z" style="fill:#263238"></path><path d="M556.69,81.44V77.2a.87.87,0,0,1,.83-.91h6.37a.87.87,0,0,1,.83.91v4.24a.87.87,0,0,1-.83.91h-6.37A.87.87,0,0,1,556.69,81.44Z" style="fill:#263238"></path><path d="M568.77,83.79H556.19a1.13,1.13,0,0,1-1.12-1.13V75.73a1.12,1.12,0,0,1,1.12-1.12h12.4a1,1,0,0,1,1,1v1.28a.16.16,0,0,0,.16.16h1.36a.67.67,0,0,1,.67.67V80a.83.83,0,0,1-.83.83h-1a.17.17,0,0,0-.17.17v1.77A1,1,0,0,1,568.77,83.79Zm-12.58-8.68a.62.62,0,0,0-.62.62v6.93a.63.63,0,0,0,.62.63h12.58a.53.53,0,0,0,.52-.53V81a.67.67,0,0,1,.67-.67h1a.33.33,0,0,0,.33-.33V77.74a.18.18,0,0,0-.17-.17h-1.36a.67.67,0,0,1-.66-.66V75.63a.52.52,0,0,0-.53-.52Z" style="fill:#263238"></path></g></svg>