<svg width="1216" height="1112" viewBox="0 0 1216 1112" fill="none" xmlns="http://www.w3.org/2000/svg">
<g clip-path="url(#clip0_937_7631)">
<path d="M178.145 1028.21C415.556 1139.48 800.444 1139.48 1037.86 1028.21C1275.27 916.942 1275.27 736.132 1037.86 624.864C800.444 513.596 415.556 513.596 178.145 624.864C-59.2666 736.132 -59.2666 916.942 178.145 1028.21Z" fill="#F5F5F5"/>
<path d="M981.001 934.921C1012.01 949.508 1061.98 949.508 1092.99 934.921C1124 920.334 1124 896.927 1092.99 882.34C1061.98 867.754 1012.01 867.754 981.001 882.34C950.334 896.927 950.334 920.674 981.001 934.921Z" fill="#EBEBEB"/>
<path d="M159.882 914.228L187.793 898.284C187.793 898.284 210.879 881.662 222.25 850.453C230.864 827.046 229.831 809.067 223.628 800.247C216.048 789.391 196.407 791.087 195.373 814.494C193.995 859.951 180.556 891.839 159.882 914.228Z" fill="#04EB84"/>
<path opacity="0.2" d="M159.882 914.228L187.793 898.284C187.793 898.284 210.879 881.662 222.25 850.453C230.864 827.046 229.831 809.067 223.628 800.247C216.048 789.391 196.407 791.087 195.373 814.494C193.995 859.951 180.556 891.839 159.882 914.228Z" fill="black"/>
<path d="M159.882 915.924C159.193 915.924 158.848 915.585 158.504 915.246C157.815 914.567 158.159 913.55 158.848 912.871C223.628 868.771 211.224 807.37 210.879 806.692C210.534 805.674 211.224 804.996 212.257 804.656C213.291 804.317 213.98 804.996 214.325 806.013C214.325 806.692 227.419 870.128 160.916 915.585C160.571 915.585 160.227 915.924 159.882 915.924Z" fill="white"/>
<path d="M104.061 945.777C104.061 945.777 94.4132 937.974 96.8252 927.458C99.2372 916.942 105.44 909.14 94.7578 895.571C84.076 882.001 81.3194 863.683 93.724 853.845C103.717 846.382 118.878 856.898 124.391 836.884C128.526 822.297 127.148 789.73 146.099 778.875C165.051 768.02 177.111 784.303 174.01 806.353C171.253 826.028 167.807 845.025 170.564 850.453C176.077 860.63 185.725 859.273 185.381 877.931C185.036 895.231 168.496 909.479 168.496 909.479L104.061 945.777Z" fill="#04EB84"/>
<path d="M135.762 929.494C135.073 929.494 134.039 928.815 134.039 928.137C129.215 888.108 140.931 818.565 150.579 797.872C150.923 796.854 151.957 796.515 152.991 797.194C154.025 797.533 154.369 798.55 153.68 799.568C144.032 819.922 132.661 889.464 137.485 927.798C137.83 928.476 137.14 929.155 135.762 929.494C136.107 929.494 136.107 929.494 135.762 929.494Z" fill="white"/>
<path d="M135.073 898.284C134.728 898.284 134.728 898.284 134.384 897.945C122.324 892.178 114.743 871.824 114.399 870.807C114.054 869.789 114.398 869.11 115.432 868.771C116.466 868.432 117.155 868.771 117.5 869.789C117.5 870.128 125.08 889.804 135.762 894.892C136.451 895.231 137.14 896.249 136.451 897.267C136.107 897.945 135.762 898.284 135.073 898.284Z" fill="white"/>
<path d="M134.728 911.854C134.039 911.854 133.35 911.514 133.005 910.836C132.661 909.818 133.005 909.14 134.039 908.801C154.024 900.998 166.774 877.252 166.774 876.913C167.118 876.234 168.152 875.895 169.186 876.234C169.875 876.574 170.219 877.591 169.875 878.609C169.186 879.627 156.436 903.712 135.417 911.854C135.073 911.514 135.073 911.854 134.728 911.854Z" fill="white"/>
<path d="M838.003 729.347C838.003 729.347 822.842 705.262 821.463 679.141C820.085 653.02 825.943 642.165 833.868 639.112C841.793 636.059 842.482 645.557 846.617 651.324C850.752 657.091 859.022 653.699 862.123 636.059C865.224 618.419 876.595 588.566 900.026 582.799C925.869 576.354 912.086 606.206 905.539 618.079C898.992 629.613 893.824 645.557 898.303 649.967C902.438 654.377 909.33 646.236 915.532 653.699C923.113 662.519 899.337 694.746 885.554 702.548L838.003 729.347Z" fill="#04EB84"/>
<path d="M858.677 719.17C857.643 719.17 856.954 718.153 856.954 717.474C860.745 647.932 895.202 599.761 895.547 599.422C896.236 598.743 897.269 598.404 897.959 599.082C898.648 599.761 898.992 600.779 898.303 601.457C897.959 601.796 864.19 649.289 860.4 717.813C860.4 718.492 859.711 719.17 858.677 719.17Z" fill="white"/>
<path d="M860.745 699.156C860.4 699.156 860.056 699.156 860.056 698.816C850.408 693.728 844.894 678.123 844.894 677.445C844.55 676.427 845.239 675.749 845.928 675.409C846.962 675.07 847.651 675.749 847.996 676.427C847.996 676.427 853.164 691.353 861.779 696.103C862.468 696.442 862.812 697.459 862.468 698.477C862.123 698.816 861.434 699.156 860.745 699.156Z" fill="white"/>
<path d="M862.468 688.639C861.778 688.639 861.089 687.961 860.745 687.283C860.4 686.265 861.089 685.586 862.123 685.247C886.932 679.141 895.547 666.25 895.547 666.25C895.891 665.572 897.269 665.232 897.959 665.572C898.648 665.911 898.992 667.268 898.648 667.946C898.303 668.625 889.344 681.855 863.157 688.639C862.812 688.639 862.468 688.639 862.468 688.639Z" fill="white"/>
<path d="M463.451 676.427C463.451 676.427 430.372 668.625 428.649 607.563C426.927 541.752 436.575 465.086 397.638 458.98C358.701 452.874 336.648 499.688 337.337 554.304C337.682 602.135 357.323 706.28 463.451 726.973V676.427Z" fill="#04EB84"/>
<path opacity="0.2" d="M463.451 676.427C463.451 676.427 430.372 668.625 428.649 607.563C426.927 541.752 436.575 465.086 397.638 458.98C358.701 452.874 336.648 499.688 337.337 554.304C337.682 602.135 357.323 706.28 463.451 726.973V676.427Z" fill="black"/>
<path d="M463.451 720.866C463.107 720.527 463.107 720.866 463.451 720.866C439.331 716.456 420.035 703.566 405.563 682.533C362.836 619.775 376.274 502.401 380.754 481.708C381.098 480.691 381.788 480.351 382.821 480.351C383.855 480.691 384.2 481.369 384.2 482.387C379.72 502.741 366.282 618.758 408.664 680.498C422.447 700.852 441.054 713.403 464.141 717.474C465.174 717.474 465.864 718.492 465.519 719.509C464.83 720.188 464.141 720.866 463.451 720.866Z" fill="white"/>
<path d="M463.451 876.913C429.339 881.323 373.862 881.323 341.817 856.559C309.772 831.795 316.663 810.423 328.723 801.264C341.128 792.444 351.81 782.267 330.446 762.253C309.427 742.577 275.314 710.689 264.288 662.858C253.262 615.026 258.775 585.174 280.483 575.336C301.502 565.838 307.015 581.103 319.764 612.652C332.514 644.2 361.458 617.062 386.267 626.899C411.076 636.737 410.043 656.412 411.421 673.035C413.144 689.996 421.069 694.406 435.196 694.406C449.324 694.406 463.107 702.209 463.107 718.153L463.451 876.913Z" fill="#04EB84"/>
<path d="M463.451 821.618H463.107C461.729 821.279 426.237 811.102 374.896 764.627C320.109 715.099 294.266 640.808 293.921 640.129C293.577 639.112 294.266 638.433 294.955 638.094C295.989 637.755 296.678 638.433 297.022 639.112C297.367 639.79 322.865 713.403 376.963 762.253C427.616 808.049 463.451 818.565 463.796 818.565C464.83 818.904 465.174 819.922 464.83 820.6C464.83 821.279 464.141 821.618 463.451 821.618Z" fill="white"/>
<path d="M389.024 776.5C388.334 776.5 387.645 776.161 387.301 775.483C376.274 747.666 373.862 687.622 373.518 685.247C373.518 684.229 374.207 683.551 375.241 683.551C376.274 683.551 376.964 684.229 376.964 685.247C376.964 685.926 379.72 746.987 390.402 774.465C390.747 775.483 390.402 776.161 389.368 776.5H389.024Z" fill="white"/>
<path d="M388.679 816.53C383.166 816.53 379.72 816.19 379.031 816.19C377.997 816.19 377.308 815.173 377.653 814.155C377.653 813.137 378.686 812.459 379.72 812.798C380.065 812.798 412.11 816.53 426.927 801.603C427.616 800.925 428.65 800.925 429.339 801.603C430.028 802.282 430.028 803.3 429.339 803.978C418.312 814.833 400.05 816.53 388.679 816.53Z" fill="white"/>
<path d="M363.87 174.365L360.079 153.332L341.128 165.545C339.06 161.813 336.648 159.099 333.892 156.725L343.195 132.3L325.967 128.569L313.217 152.315C309.082 152.993 304.603 154.35 300.124 156.386L294.61 138.406L274.28 154.35L275.659 175.383C271.524 179.793 267.734 184.881 264.288 189.969L247.404 189.291L235.688 215.412L250.16 221.518C248.782 227.285 247.748 232.713 247.404 238.14L229.141 254.763L232.932 275.795L252.228 263.243C254.295 266.975 256.707 269.689 259.464 272.063L250.16 296.488L267.389 300.22L285.307 282.919C289.442 282.24 288.408 274.438 292.887 272.403L298.401 290.382L318.73 274.438L318.041 266.296C322.176 261.886 337.682 251.71 341.128 246.621L345.263 239.836L356.978 213.716L351.465 203.878L345.263 190.987L363.87 174.365ZM301.502 243.907C285.651 256.12 281.172 258.833 278.071 242.55C275.314 226.267 284.273 201.503 300.124 189.291C315.974 177.079 321.832 176.4 324.588 192.344C327.345 208.288 317.008 231.695 301.502 243.907Z" fill="#E0E0E0"/>
<path d="M325.622 128.569L348.019 141.459L335.615 164.866L313.217 152.315L325.622 128.569Z" fill="#F5F5F5"/>
<path d="M382.477 165.884L363.18 178.096L341.128 165.545L360.079 152.993L382.477 165.884Z" fill="#F5F5F5"/>
<path d="M379.375 226.267L364.903 220.161L342.506 207.609L356.978 213.716L379.375 226.267Z" fill="#E0E0E0"/>
<path d="M249.471 296.827L271.868 309.379L281.172 284.954L258.775 272.403L249.471 296.827Z" fill="#E0E0E0"/>
<path d="M320.109 303.273L298.056 290.382L292.543 272.742L314.94 285.293L320.109 303.273Z" fill="#E0E0E0"/>
<path d="M386.267 186.916L382.477 165.884L363.18 178.436C361.113 174.704 358.701 171.99 355.944 169.616L365.248 145.191L348.019 141.459L335.27 165.206C331.135 165.884 326.656 167.241 322.176 169.276L317.008 151.297L296.333 167.241L297.712 188.273C293.577 192.683 289.786 197.772 286.341 202.86L269.456 202.182L257.741 228.303L272.213 234.409C270.835 240.176 269.801 245.603 269.456 251.031L251.194 267.653L254.984 288.686L274.281 276.134C276.348 279.866 278.76 282.58 281.517 284.954L272.213 309.379L289.442 313.11L302.191 289.364C306.326 288.686 310.805 287.329 315.285 285.293L320.798 303.273L341.128 287.329L339.749 266.296C343.884 261.886 347.675 256.798 351.12 251.709L368.005 252.388L379.72 226.267L365.248 220.161C366.626 214.394 367.66 208.966 368.005 203.539L386.267 186.916ZM323.555 256.798C307.704 269.01 292.887 265.618 290.131 249.335C287.374 233.052 297.712 209.984 313.562 198.111C329.412 185.899 344.229 189.291 346.986 205.574C349.742 221.518 339.405 244.586 323.555 256.798Z" fill="#EBEBEB"/>
<path d="M317.007 151.297L294.61 138.746L273.936 154.35L296.333 167.241L317.007 151.297Z" fill="#F5F5F5"/>
<path d="M273.936 154.35L275.314 175.383L297.711 188.273L296.333 167.241L273.936 154.35Z" fill="#E0E0E0"/>
<path d="M286.341 202.86L264.288 190.309L247.404 189.291L269.456 202.182L286.341 202.86Z" fill="#F5F5F5"/>
<path d="M247.404 189.291L235.344 215.412L257.741 228.303L269.456 202.182L247.404 189.291Z" fill="#E0E0E0"/>
<path d="M269.456 251.031L247.059 238.14L228.452 254.763L250.849 267.653L269.456 251.031Z" fill="#F5F5F5"/>
<path d="M254.64 288.686L232.242 276.134L228.452 254.763L250.849 267.653L254.64 288.686Z" fill="#E0E0E0"/>
<path d="M348.019 141.459L325.622 128.569L342.851 132.3L365.248 145.191L348.019 141.459Z" fill="#F5F5F5"/>
<path d="M263.599 78.3624V46.8139L238.1 58.0085C236.722 52.2416 234.31 47.1531 231.209 43.0824L247.404 11.1946L227.763 0L207.778 29.8524C202.609 29.5131 197.096 29.8524 191.238 31.5485L188.482 4.07078L160.571 20.0146L157.815 50.5455C151.957 55.6339 146.444 61.4009 141.275 67.8463L121.29 61.0616L101.649 94.6455L117.844 108.215C114.743 115.678 112.331 123.48 110.953 130.943L85.4541 148.583V179.793L110.953 168.598C112.331 174.365 114.743 179.453 117.844 183.524L101.649 215.412L121.29 226.606L141.275 196.754C146.444 197.093 151.957 196.754 157.815 195.058L160.571 222.536L188.482 206.592L191.238 176.061C199.508 173.347 208.467 166.902 213.635 160.796L228.108 165.884L247.748 132.3L235.688 122.123C238.789 114.66 239.134 102.448 238.445 96.0024L263.599 78.3624ZM174.354 157.064C152.991 169.276 139.897 160.456 139.897 136.371C139.897 112.286 157.47 82.4332 178.834 70.2209C200.197 58.0085 212.946 66.8286 212.946 91.2532C212.946 115.678 195.718 145.191 174.354 157.064Z" fill="#E0E0E0"/>
<path d="M250.16 12.5516L227.763 0L207.778 29.8524L230.175 42.4039L250.16 12.5516Z" fill="#F5F5F5"/>
<path d="M285.996 59.3655L263.599 46.814L238.1 58.0086L260.498 70.8994L285.996 59.3655Z" fill="#F5F5F5"/>
<path d="M182.969 235.427L160.571 222.875L157.815 195.397L179.867 207.949L182.969 235.427Z" fill="#E0E0E0"/>
<path d="M101.305 215.412L123.702 228.303L139.897 196.076L117.5 183.524L101.305 215.412Z" fill="#E0E0E0"/>
<path d="M285.996 90.9139V59.3654L260.498 70.5601C259.119 64.7931 256.707 59.7047 253.606 55.6339L269.801 23.7461L250.16 12.5515L230.175 42.4039C225.007 42.0646 219.493 42.4039 213.636 44.1L210.879 16.6223L182.969 32.5662L180.212 63.097C174.354 68.1854 168.841 73.9524 163.672 80.3978L143.687 73.6131L124.047 107.197L140.241 120.766C137.14 128.229 134.728 136.032 133.35 143.495L107.852 161.135V192.683L133.35 181.489C134.728 187.256 137.14 192.344 140.241 196.415L124.047 228.303L143.687 239.497L163.672 209.645C168.841 209.984 174.354 209.645 180.212 207.949L182.969 235.426L210.879 219.483L213.636 188.952C219.493 183.863 225.007 178.096 230.175 171.651L250.16 178.436L269.801 144.852L253.606 131.282C256.707 123.819 259.119 116.017 260.498 108.554L285.996 90.9139ZM196.752 169.955C175.388 182.167 158.159 172.329 158.159 147.905C158.159 123.48 175.388 94.3062 196.752 82.0939C218.115 69.8816 235.344 79.7193 235.344 104.144C235.344 128.229 218.115 157.742 196.752 169.955Z" fill="#EBEBEB"/>
<path d="M140.931 67.507L163.328 80.3978L143.343 73.274L120.945 60.7224L140.931 67.507Z" fill="#F0F0F0"/>
<path d="M123.702 106.858L101.305 94.3063L120.945 60.7224L143.343 73.274L123.702 106.858Z" fill="#F5F5F5"/>
<path d="M101.305 94.3064L123.702 106.858L139.897 120.427L117.5 107.876L101.305 94.3064Z" fill="#E0E0E0"/>
<path d="M110.608 130.604L133.005 143.156L107.507 161.135L85.1096 148.244L110.608 130.604Z" fill="#F5F5F5"/>
<path d="M85.1096 148.244L107.507 161.135V192.683L85.1096 179.793V148.244Z" fill="#E0E0E0"/>
<path d="M210.534 16.6222L188.137 3.73145L160.571 19.6753L182.969 32.2269L210.534 16.6222Z" fill="#F5F5F5"/>
<path d="M497.22 922.37L821.119 738.167C824.565 736.132 824.565 733.418 821.119 731.383L791.141 714.421C787.695 712.386 782.527 712.386 779.081 714.421L455.182 898.624C451.736 900.659 451.736 903.373 455.182 905.408L485.16 922.37C488.605 924.405 494.119 924.405 497.22 922.37Z" fill="#E0E0E0"/>
<path d="M812.16 27.4778L520.306 193.362C512.036 198.111 505.49 209.306 505.49 218.804V900.998C505.49 910.497 512.036 914.228 520.306 909.479L812.505 743.595C820.774 738.846 827.321 727.651 827.321 718.153V35.9586C827.321 26.4602 820.43 22.7286 812.16 27.4778Z" fill="#455A64"/>
<path d="M520.306 193.362L812.505 27.4778C819.741 23.407 825.943 25.7816 827.321 33.2447C826.288 24.4247 820.085 14.9262 812.505 10.5162L800.444 3.73161C792.175 -1.01763 778.736 -1.01763 770.467 3.73161L478.268 169.616C474.133 171.99 470.343 176.061 467.586 180.471L509.624 204.217C512.381 199.807 516.171 195.736 520.306 193.362Z" fill="#37474F"/>
<path d="M463.452 876.913C463.452 886.411 469.998 897.606 478.268 902.355L490.328 909.14C497.909 913.211 509.28 913.889 517.55 910.157C510.658 912.871 505.145 908.801 505.145 900.659V218.804C505.145 214.055 506.868 208.966 509.624 204.217L467.586 180.471C464.83 185.22 463.107 190.309 463.107 195.058L463.452 876.913Z" fill="#263238"/>
<path d="M528.231 284.276L804.235 127.551C809.059 124.837 813.194 126.873 813.194 132.639V637.416C813.194 643.182 809.059 649.967 804.235 652.681L528.231 809.745C523.407 812.459 519.272 810.423 519.272 804.657V299.88C519.272 294.114 523.407 286.99 528.231 284.276Z" fill="white"/>
<path d="M666.405 136.371C663.649 138.067 661.237 142.138 661.237 145.191C661.237 148.583 663.649 149.94 666.405 148.244C669.162 146.548 671.574 142.477 671.574 139.424C671.574 136.032 669.162 134.675 666.405 136.371Z" fill="#37474F"/>
<path d="M666.405 755.129C655.034 761.574 645.731 777.518 645.731 790.409C645.731 803.3 655.034 808.727 666.405 802.282C677.776 795.836 687.08 779.893 687.08 767.002C687.08 754.111 677.776 748.683 666.405 755.129Z" fill="#37474F"/>
<path d="M616.787 188.613C610.929 192.005 606.449 199.807 606.449 206.592C606.449 213.037 611.273 215.751 616.787 212.698C622.644 209.306 627.124 201.503 627.124 194.719C627.124 188.273 622.644 185.559 616.787 188.613Z" fill="#37474F"/>
<path d="M642.285 186.577C642.285 190.987 645.731 192.683 649.866 190.309L718.781 150.958C722.915 148.583 726.361 143.156 726.361 138.746C726.361 134.336 722.915 132.639 718.781 135.014L649.866 174.365C645.731 176.739 642.285 182.167 642.285 186.577Z" fill="#37474F"/>
<path d="M486.538 305.987C491.017 308.7 494.808 315.146 494.808 320.234C494.808 325.662 491.017 327.697 486.538 324.984C482.058 322.27 478.268 315.824 478.268 310.736C478.268 305.647 482.058 303.612 486.538 305.987Z" fill="#37474F"/>
<path d="M486.538 369.762C491.017 372.476 494.808 378.921 494.808 384.01C494.808 389.098 491.017 391.473 486.538 388.759C482.058 386.045 478.268 379.6 478.268 374.511C478.268 369.423 482.058 367.048 486.538 369.762Z" fill="#37474F"/>
<path d="M484.126 307.344C488.605 310.057 492.396 316.503 492.396 321.591C492.396 327.019 488.605 329.054 484.126 326.34C479.647 323.627 475.856 317.181 475.856 312.093C475.512 307.004 479.302 304.63 484.126 307.344Z" fill="#455A64"/>
<path d="M484.126 371.119C488.605 373.833 492.396 380.278 492.396 385.367C492.396 390.794 488.605 392.83 484.126 390.116C479.646 387.402 475.856 380.957 475.856 375.868C475.856 370.78 479.302 368.405 484.126 371.119Z" fill="#455A64"/>
<path d="M869.359 148.583C869.359 142.816 865.224 140.781 860.4 143.495L827.321 162.153L584.397 300.22C579.573 302.934 575.438 309.718 575.438 315.485V820.261C575.438 826.028 579.573 828.064 584.397 825.35L827.321 687.283L860.4 668.625C865.224 665.911 869.359 659.126 869.359 653.359V148.583Z" fill="white" stroke="#04EB84" stroke-miterlimit="10"/>
<path d="M580.262 828.403C579.228 828.403 578.195 828.064 577.161 827.724C574.749 826.367 573.715 823.993 573.715 820.6V315.824C573.715 309.718 578.195 302.255 583.363 299.202L826.288 161.135L828.01 164.188L585.086 302.255C580.607 304.63 577.161 311.075 577.161 316.164V820.94C577.161 822.975 577.85 824.671 578.884 825.01C579.917 825.689 581.64 825.35 583.363 824.332L826.288 686.265L828.01 689.318L585.086 827.385C583.363 827.724 581.64 828.403 580.262 828.403Z" fill="#04EB84" stroke="#04EB84" stroke-miterlimit="10"/>
<path d="M828.355 688.639L826.632 685.586L859.711 666.929C864.191 664.554 867.636 658.109 867.636 653.02V148.244C867.636 146.209 866.947 144.513 865.913 144.173C864.88 143.495 863.157 143.834 861.434 144.852L828.355 163.51L826.632 160.456L859.711 141.799C862.812 140.103 865.569 139.763 867.636 141.12C870.048 142.477 871.082 144.852 871.082 148.244V653.02C871.082 659.126 866.603 666.589 861.434 669.642L828.355 688.639Z" fill="#04EB84" stroke="#04EB84" stroke-miterlimit="10"/>
<path d="M722.226 265.618C753.238 247.978 778.047 262.226 778.047 297.506C778.047 332.786 752.893 375.529 722.226 392.83C691.215 410.47 666.405 396.222 666.405 360.942C666.405 326.001 691.215 283.258 722.226 265.618Z" fill="#04EB84"/>
<path d="M722.226 293.435C732.219 287.668 740.489 292.417 740.489 303.612C740.489 315.146 732.219 328.715 722.226 334.482C712.234 340.249 703.964 335.5 703.964 324.305C703.964 313.111 712.234 299.202 722.226 293.435Z" fill="#04EB84"/>
<path d="M757.717 354.157C757.717 335.5 744.279 327.697 727.739 337.196L717.402 342.963C700.863 352.461 687.424 375.19 687.424 393.848V398.936C697.072 401.989 708.788 400.293 721.882 392.83C735.32 385.028 747.725 372.815 757.373 358.228V354.157H757.717Z" fill="#04EB84"/>
<path opacity="0.7" d="M722.226 293.435C732.219 287.668 740.489 292.417 740.489 303.612C740.489 315.146 732.219 328.715 722.226 334.482C712.234 340.249 703.964 335.5 703.964 324.305C703.964 313.111 712.234 299.202 722.226 293.435Z" fill="white"/>
<path opacity="0.7" d="M757.717 354.157C757.717 335.5 744.279 327.697 727.739 337.196L717.402 342.963C700.863 352.461 687.424 375.19 687.424 393.848V398.936C697.072 401.989 708.788 400.293 721.882 392.83C735.32 385.028 747.725 372.815 757.373 358.228V354.157H757.717Z" fill="white"/>
<path d="M614.03 470.514L686.046 429.467C689.492 427.431 691.904 429.128 691.904 432.859V435.234C691.904 438.965 689.147 443.375 686.046 445.411L614.03 486.458C610.584 488.493 608.172 486.797 608.172 483.065V480.691C607.828 476.959 610.584 472.549 614.03 470.514Z" fill="#04EB84"/>
<path opacity="0.1" d="M614.03 470.514L686.046 429.467C689.492 427.431 691.904 429.128 691.904 432.859V435.234C691.904 438.965 689.147 443.375 686.046 445.411L614.03 486.458C610.584 488.493 608.172 486.797 608.172 483.065V480.691C607.828 476.959 610.584 472.549 614.03 470.514Z" fill="black"/>
<path d="M610.929 520.042L829.044 396.222C830.767 395.205 832.145 395.883 832.145 397.918V423.021C832.145 425.057 830.767 427.092 829.044 428.11L610.929 551.929C609.206 552.947 607.828 552.269 607.828 550.233V525.13C607.828 523.095 609.206 521.059 610.929 520.042Z" fill="#04EB84"/>
<path opacity="0.2" d="M610.929 520.042L829.044 396.222C830.767 395.205 832.145 395.883 832.145 397.918V423.021C832.145 425.057 830.767 427.092 829.044 428.11L610.929 551.929C609.206 552.947 607.828 552.269 607.828 550.233V525.13C607.828 523.095 609.206 521.059 610.929 520.042Z" fill="white"/>
<path d="M614.03 581.782L686.046 540.735C689.492 538.699 691.904 540.395 691.904 544.127V546.502C691.904 550.233 689.147 554.643 686.046 556.679L614.03 597.725C610.584 599.761 608.172 598.065 608.172 594.333V591.959C607.828 588.227 610.584 583.817 614.03 581.782Z" fill="#04EB84"/>
<path opacity="0.1" d="M614.03 581.782L686.046 540.735C689.492 538.699 691.904 540.395 691.904 544.127V546.502C691.904 550.233 689.147 554.643 686.046 556.679L614.03 597.725C610.584 599.761 608.172 598.065 608.172 594.333V591.959C607.828 588.227 610.584 583.817 614.03 581.782Z" fill="black"/>
<path d="M610.929 631.309L829.044 507.49C830.767 506.472 832.145 507.151 832.145 509.186V534.289C832.145 536.325 830.767 538.36 829.044 539.378L610.929 663.197C609.206 664.215 607.828 663.536 607.828 661.501V636.398C607.828 634.702 609.206 632.327 610.929 631.309Z" fill="#04EB84"/>
<path opacity="0.2" d="M610.929 631.309L829.044 507.49C830.767 506.472 832.145 507.151 832.145 509.186V534.289C832.145 536.325 830.767 538.36 829.044 539.378L610.929 663.197C609.206 664.215 607.828 663.536 607.828 661.501V636.398C607.828 634.702 609.206 632.327 610.929 631.309Z" fill="white"/>
<path d="M697.762 645.557L783.905 596.708C787.351 594.672 789.763 596.369 789.763 600.1V626.221C789.763 629.952 787.006 634.362 783.905 636.398L697.762 685.247C694.316 687.283 691.904 685.586 691.904 681.855V655.734C691.904 652.002 694.66 647.592 697.762 645.557Z" fill="#04EB84"/>
<path opacity="0.1" d="M697.762 645.557L783.905 596.708C787.351 594.672 789.763 596.369 789.763 600.1V626.221C789.763 629.952 787.006 634.362 783.905 636.398L697.762 685.247C694.316 687.283 691.904 685.586 691.904 681.855V655.734C691.904 652.002 694.66 647.592 697.762 645.557Z" fill="black"/>
<path d="M901.749 534.968C901.749 534.968 859.366 477.638 856.954 470.514C854.887 465.425 856.954 457.623 857.643 454.231C857.988 450.499 858.677 442.697 859.366 440.661C860.4 436.93 855.231 437.608 852.475 441.001C849.718 444.732 848.685 451.517 847.306 452.874C845.928 453.891 834.557 437.947 828.699 430.484C822.842 423.021 819.051 418.611 815.605 421.325C812.849 423.361 814.916 427.771 819.051 434.216C823.186 440.661 825.254 443.714 825.943 445.071C826.632 446.428 823.186 446.428 821.119 449.481C819.74 451.856 821.119 455.248 819.051 456.944C816.984 458.641 815.261 461.694 817.328 465.425C820.085 469.835 825.598 476.281 831.8 480.691C838.003 485.101 840.759 486.458 844.55 492.564C848.34 498.331 882.108 558.375 884.176 562.106C886.588 565.838 890.723 572.962 897.614 573.301C904.161 573.64 958.604 527.505 961.36 525.13C970.319 517.667 973.076 516.649 974.798 523.434C975.143 525.469 975.488 527.844 975.832 530.558C976.866 539.038 982.724 568.891 982.724 568.891C982.724 568.891 1010.29 582.121 1033.03 575.675C1055.77 569.23 1063.35 559.732 1063.35 559.732L1051.98 541.413C1055.08 533.95 1069.21 503.419 1073.69 482.387L1002.71 471.192C1001.33 470.853 998.919 470.174 995.817 469.496C992.027 468.478 982.035 465.086 974.454 471.531C950.334 491.546 901.749 534.968 901.749 534.968Z" fill="#FFA8A7"/>
<path d="M1042.68 887.768L1029.93 905.069C1029.93 905.069 1035.79 908.461 1048.54 908.801C1059.91 909.14 1063.01 905.408 1063.35 904.73C1065.42 900.659 1062.32 893.196 1061.29 887.09L1042.68 887.768Z" fill="#37474F"/>
<path d="M1030.62 896.588C1030.62 896.588 1015.11 895.571 1004.43 894.214C993.75 892.857 985.48 897.945 987.892 902.355C990.304 906.765 996.162 910.158 1005.47 913.211C1013.39 915.924 1022.69 917.621 1030.96 919.995C1039.23 922.37 1044.75 925.423 1049.57 923.727C1054.74 922.031 1057.15 919.995 1056.81 915.924C1056.46 912.193 1052.67 899.98 1052.67 899.98L1030.62 896.588Z" fill="#37474F"/>
<path d="M1063.35 870.128C1063.35 870.128 1061.29 886.072 1061.29 889.464C1061.29 892.857 1045.78 893.874 1042.68 887.768L1042.33 868.432L1063.35 870.128Z" fill="#F28F8F"/>
<path d="M1047.85 879.966L1053.36 904.051C1053.36 904.051 1054.05 907.104 1041.3 908.8C1028.55 910.497 1008.57 902.355 1005.47 900.659C1002.02 898.963 1001.68 895.571 1014.08 896.249C1026.48 896.927 1030.96 896.927 1030.96 896.927L1026.83 886.411L1047.85 879.966Z" fill="#FFA8A7"/>
<path d="M1073.69 481.369L1082.31 478.995C1082.31 478.995 1100.57 536.325 1102.64 541.752C1104.7 547.18 1107.11 553.286 1102.98 560.071C1098.16 568.212 1073.35 600.779 1073.35 600.779L1057.5 585.513L1075.41 553.286L1059.56 521.738L1073.69 481.369Z" fill="#F28F8F"/>
<path d="M983.413 407.078C983.413 407.078 976.521 395.883 983.757 382.314C992.372 366.37 1012.01 358.567 1035.1 361.621C1045.78 362.977 1058.53 371.797 1065.42 385.027C1073 399.614 1073.69 428.788 1075.76 439.983L983.413 407.078Z" fill="#37474F"/>
<path d="M983.068 413.184C983.068 413.184 977.555 423.7 978.589 424.378C979.623 425.396 983.068 426.074 983.068 426.074V413.184Z" fill="#FFA8A7"/>
<path d="M999.608 380.617C993.75 384.349 983.413 391.473 982.724 414.88C982.379 438.626 985.825 446.428 989.271 449.142C991.683 450.838 1005.81 450.16 1012.01 448.803C1018.21 447.446 1035.44 438.965 1041.99 426.074C1049.23 410.809 1047.85 388.759 1036.82 382.314C1021.32 372.815 1004.78 377.225 999.608 380.617Z" fill="#FFA8A7"/>
<path d="M1063.35 558.714C1074.04 574.997 1084.03 589.245 1086.1 607.563C1090.58 646.236 1075.76 690.336 1072.66 718.831C1072.66 718.831 1082.65 731.722 1082.65 746.648C1082.65 758.521 1063.35 869.789 1063.35 869.789C1063.35 869.789 1049.23 873.86 1042.33 868.093L1028.9 663.197L1035.79 638.094L1063.35 558.714Z" fill="#04EB84"/>
<path opacity="0.2" d="M1063.35 558.714C1074.04 574.997 1084.03 589.245 1086.1 607.563C1090.58 646.236 1075.76 690.336 1072.66 718.831C1072.66 718.831 1082.65 731.722 1082.65 746.648C1082.65 758.521 1063.35 869.789 1063.35 869.789C1063.35 869.789 1049.23 873.86 1042.33 868.093L1028.9 663.197L1035.79 638.094L1063.35 558.714Z" fill="black"/>
<path d="M1028.9 663.197L1035.79 638.094C1035.79 638.094 1055.08 633.345 1073.69 623.168C1073.69 623.168 1066.45 636.059 1045.78 643.182L1035.1 675.409L1034.07 748.683L1028.9 663.197Z" fill="#04EB84"/>
<path opacity="0.3" d="M1028.9 663.197L1035.79 638.094C1035.79 638.094 1055.08 633.345 1073.69 623.168C1073.69 623.168 1066.45 636.059 1045.78 643.182L1035.1 675.409L1034.07 748.683L1028.9 663.197Z" fill="black"/>
<path d="M1063.35 558.714C1069.21 567.873 1082.65 583.478 1079.89 598.404C1076.45 616.722 1066.46 629.274 1036.13 638.433L1007.53 740.203C1007.53 740.203 1022.35 753.772 1026.83 767.002C1031.31 779.893 1047.85 880.305 1047.85 880.305C1047.85 880.305 1042.68 888.447 1026.83 886.411C1026.83 886.411 971.008 760.896 966.873 752.754C963.083 744.613 960.326 738.506 962.049 725.616C963.772 712.386 982.724 568.212 982.724 568.212L1063.35 558.714Z" fill="#04EB84"/>
<path opacity="0.2" d="M1063.35 558.714C1069.21 567.873 1082.65 583.478 1079.89 598.404C1076.45 616.722 1066.46 629.274 1036.13 638.433L1007.53 740.203C1007.53 740.203 1022.35 753.772 1026.83 767.002C1031.31 779.893 1047.85 880.305 1047.85 880.305C1047.85 880.305 1042.68 888.447 1026.83 886.411C1026.83 886.411 971.008 760.896 966.873 752.754C963.083 744.613 960.326 738.506 962.049 725.616C963.772 712.386 982.724 568.212 982.724 568.212L1063.35 558.714Z" fill="black"/>
<path d="M1073.69 481.369L1002.71 470.175C1001.33 469.835 998.919 469.157 995.817 468.478C995.817 468.478 992.716 512.239 974.454 522.416C974.798 524.452 975.143 526.826 975.488 529.54C976.521 538.021 982.379 567.873 982.379 567.873C982.379 567.873 1009.95 581.103 1032.69 574.658C1055.43 568.212 1063.01 558.714 1063.01 558.714L1051.64 540.395C1055.08 532.932 1069.21 502.741 1073.69 481.369Z" fill="#04EB84"/>
<path opacity="0.7" d="M1073.69 481.369L1002.71 470.175C1001.33 469.835 998.919 469.157 995.817 468.478C995.817 468.478 992.716 512.239 974.454 522.416C974.798 524.452 975.143 526.826 975.488 529.54C976.521 538.021 982.379 567.873 982.379 567.873C982.379 567.873 1009.95 581.103 1032.69 574.658C1055.43 568.212 1063.01 558.714 1063.01 558.714L1051.64 540.395C1055.08 532.932 1069.21 502.741 1073.69 481.369Z" fill="white"/>
<path d="M1055.08 533.271C1054.74 533.95 1032.34 545.823 1025.45 547.519C1036.13 546.841 1044.75 544.466 1051.98 540.395L1055.08 533.271Z" fill="#04EB84"/>
<path d="M997.885 381.635C997.885 381.635 994.439 403.685 1002.71 416.576C1002.71 416.576 1005.81 407.756 1013.39 409.452C1020.97 411.148 1021.32 420.986 1016.15 426.414C1010.98 431.841 1005.12 429.806 1005.12 429.806C1005.12 429.806 1004.09 445.75 1003.4 458.98C1002.71 471.871 999.263 501.384 1014.42 513.257C1029.59 525.13 1067.83 529.201 1086.1 504.437C1096.09 490.528 1082.65 466.443 1076.79 439.304C1071.28 414.201 1067.83 377.225 1040.96 371.119C1013.05 365.691 997.885 381.635 997.885 381.635Z" fill="#37474F"/>
<path d="M1096.78 80.3977L1090.92 83.79C1091.26 81.7546 1091.61 79.7192 1091.61 77.6838C1091.61 66.4892 1083.68 61.74 1073.69 67.5069C1070.93 69.2031 1068.18 71.5777 1065.77 74.2915C1065.77 59.0261 1054.74 52.92 1041.3 60.3831C1027.86 68.1854 1016.84 86.5039 1016.84 101.769C1016.84 102.448 1016.84 103.126 1016.84 104.144C1014.08 103.805 1010.63 104.483 1006.84 106.519C996.851 112.285 988.926 125.855 988.926 137.389C988.926 139.085 988.926 140.442 989.271 141.799L986.17 143.495C977.9 148.244 971.353 157.403 971.353 163.849C971.353 170.294 977.9 171.99 986.17 167.241L1096.43 104.483C1104.7 99.7339 1111.25 90.5746 1111.25 84.1292C1111.94 77.3446 1105.05 75.6485 1096.78 80.3977Z" fill="#EBEBEB"/>
</g>
<defs>
<clipPath id="clip0_937_7631">
<rect width="1216" height="1112" fill="white"/>
</clipPath>
</defs>
</svg>
