<svg width="500" height="500" viewBox="0 0 500 500" fill="none" xmlns="http://www.w3.org/2000/svg">
<path d="M343.127 52.8754V152H325.17V70.3481H324.589L301.405 85.1587V68.7024L326.041 52.8754H343.127Z" fill="#7B857F"/>
<path d="M249.999 427.56C357.082 427.56 443.889 422.492 443.889 416.24C443.889 409.988 357.082 404.92 249.999 404.92C142.917 404.92 56.1094 409.988 56.1094 416.24C56.1094 422.492 142.917 427.56 249.999 427.56Z" fill="#F5F5F5"/>
<path d="M311.819 173.19C311.379 173.98 311.039 174.55 310.649 175.19C310.259 175.83 309.869 176.43 309.479 177.05C308.689 178.27 307.849 179.45 306.999 180.63C305.285 182.996 303.445 185.27 301.489 187.44C299.498 189.668 297.356 191.756 295.079 193.69C292.713 195.741 290.143 197.544 287.409 199.07C286.549 199.572 285.649 200.004 284.719 200.36C283.747 200.731 282.743 201.012 281.719 201.2C279.894 201.516 278.036 201.603 276.189 201.46C272.993 201.181 269.853 200.454 266.859 199.3C264.096 198.247 261.421 196.976 258.859 195.5C256.341 194.063 253.934 192.438 251.659 190.64C251.015 190.118 250.578 189.383 250.425 188.568C250.272 187.753 250.414 186.91 250.825 186.19C251.235 185.469 251.888 184.918 252.668 184.634C253.447 184.351 254.301 184.353 255.079 184.64L255.259 184.71C259.968 186.593 264.829 188.068 269.789 189.12C271.975 189.576 274.208 189.761 276.439 189.67C277.31 189.633 278.172 189.475 278.999 189.2C279.308 189.1 279.606 188.969 279.889 188.81C280.169 188.65 280.219 188.6 280.789 188.21C284.617 185.397 288.051 182.084 290.999 178.36C292.569 176.44 294.099 174.45 295.549 172.36C296.289 171.36 296.989 170.29 297.699 169.25L298.699 167.69L299.639 166.22L299.799 165.97C300.789 164.457 302.327 163.385 304.09 162.98C305.853 162.574 307.704 162.867 309.255 163.797C310.807 164.727 311.938 166.221 312.413 167.966C312.887 169.712 312.667 171.573 311.799 173.16L311.819 173.19Z" fill="#DADADA"/>
<path d="M256.74 185.46L249.07 180.38L245.82 190.58C247.357 191.39 249.084 191.771 250.819 191.683C252.554 191.595 254.233 191.041 255.68 190.08L256.74 185.46Z" fill="#DADADA"/>
<path d="M242 181.911L241.399 185.161C241.291 185.737 241.348 186.332 241.564 186.877C241.78 187.422 242.146 187.895 242.619 188.241L245.789 190.581L249.039 180.381L245.96 179.481C245.539 179.357 245.098 179.323 244.664 179.381C244.23 179.439 243.813 179.587 243.44 179.816C243.066 180.045 242.745 180.35 242.497 180.71C242.249 181.071 242.08 181.48 242 181.911Z" fill="#DADADA"/>
<path d="M312.06 156.94C304.25 158.17 296.35 167.34 291.6 175.89C294.719 181.328 299.445 185.667 305.13 188.31C305.13 188.31 314.39 179.55 318.13 173.07C321.87 166.59 319.41 155.77 312.06 156.94Z" fill="#00D776"/>
<path opacity="0.2" d="M312.06 156.94C304.25 158.17 296.35 167.34 291.6 175.89C294.719 181.328 299.445 185.667 305.13 188.31C305.13 188.31 314.39 179.55 318.13 173.07C321.87 166.59 319.41 155.77 312.06 156.94Z" fill="#263238"/>
<path d="M291.9 173.93C291.177 174.749 290.611 175.695 290.23 176.72C292.18 179.72 296.81 187.72 305.45 189.42C306.29 188.95 306.933 188.194 307.26 187.29C307.26 187.29 297.32 182.39 291.9 173.93Z" fill="#263238"/>
<path d="M343.53 156.671C334.09 155.09 324.476 154.814 314.96 155.851C307.86 156.761 302.56 163.291 302.61 170.441C302.646 177.9 303.315 185.344 304.61 192.691C302 206.441 301.06 225.131 303.81 229.251L353 229.941C355.11 224.061 352.46 198.611 355.27 172.041C355.652 168.463 354.647 164.875 352.463 162.016C350.279 159.157 347.082 157.244 343.53 156.671Z" fill="#00D776"/>
<path opacity="0.2" d="M325.001 229.31C322.191 207.18 325.001 170.17 325.001 169.79L326.001 169.87C326.001 170.24 323.211 207.15 326.001 229.18L325.001 229.31Z" fill="#263238"/>
<path d="M319.65 156.54C321.34 155.91 320.71 154.97 320.71 154.97C320.71 154.97 313.03 154.97 307.71 156.4C306.9 157.26 307.77 158.4 307.77 158.4C307.77 158.4 314.62 158.42 319.65 156.54Z" fill="#263238"/>
<path opacity="0.2" d="M322.789 155C322.789 155 319.619 160.86 323.859 166.19C320.499 166.19 318.329 171.92 318.329 171.92C318.329 171.92 311.769 162.8 320.159 155.51C320.629 154.78 322.789 155 322.789 155Z" fill="#263238"/>
<path d="M319.401 157.84C318.581 161.42 325.791 168.17 325.791 168.17C325.791 168.17 338.541 162.01 339.351 158.48L319.401 157.84Z" fill="white"/>
<path opacity="0.2" d="M348.181 178.79C346.821 181.41 348.631 192.79 353.881 197.6C353.941 192.9 354.081 187.91 354.381 182.78L348.181 178.79Z" fill="#263238"/>
<path d="M336.69 137.25L323.53 145.89C325.09 149.71 325.82 153.69 321.32 155.53C320.742 155.762 320.247 156.162 319.898 156.678C319.55 157.194 319.363 157.802 319.363 158.425C319.363 159.048 319.55 159.656 319.898 160.172C320.247 160.688 320.742 161.088 321.32 161.32C322.646 161.802 324.033 162.095 325.44 162.19C329.67 162.6 333.934 161.911 337.82 160.19C338.229 159.986 338.589 159.694 338.874 159.337C339.16 158.979 339.364 158.564 339.472 158.119C339.581 157.675 339.591 157.212 339.503 156.763C339.414 156.314 339.229 155.89 338.96 155.52C335.51 150.64 335.93 142.16 336.69 137.25Z" fill="#DADADA"/>
<path opacity="0.2" d="M331.331 140.771L323.541 145.881C323.979 146.926 324.314 148.011 324.541 149.12C327.651 148.94 331.711 146.481 331.791 143.911C331.868 142.843 331.711 141.771 331.331 140.771Z" fill="#263238"/>
<path d="M322.08 120.77C325.43 120.7 326.34 125.51 325.08 127.14C327.62 127.69 328.85 130.66 328.08 132.14C327.31 133.62 324.37 135.29 321.75 134.63C317.26 133.51 316.49 129.78 317.75 128.08C315.35 126.1 316.57 120 322.08 120.77Z" fill="#263238"/>
<path opacity="0.2" d="M322.08 120.77C325.43 120.7 326.34 125.51 325.08 127.14C327.62 127.69 328.85 130.66 328.08 132.14C327.31 133.62 324.37 135.29 321.75 134.63C317.26 133.51 316.49 129.78 317.75 128.08C315.35 126.1 316.57 120 322.08 120.77Z" fill="white"/>
<path d="M341 128.7C340 136.59 339.81 141.26 335.54 145.04C329.11 150.71 319.54 146.35 318.18 138.29C316.94 131.04 318.79 119.35 326.76 116.77C328.526 116.208 330.405 116.101 332.223 116.46C334.041 116.818 335.739 117.63 337.16 118.82C338.58 120.01 339.677 121.54 340.348 123.267C341.02 124.994 341.244 126.863 341 128.7Z" fill="#DADADA"/>
<path d="M340.049 134.73C336.699 134.73 335.959 129.85 337.239 128.27C334.719 127.62 333.599 124.61 334.379 123.13C335.159 121.65 338.189 120.13 340.789 120.86C345.239 122.14 345.889 125.86 344.599 127.55C346.999 129.65 345.529 135.67 340.049 134.73Z" fill="#263238"/>
<path opacity="0.2" d="M340.049 134.73C336.699 134.73 335.959 129.85 337.239 128.27C334.719 127.62 333.599 124.61 334.379 123.13C335.159 121.65 338.189 120.13 340.789 120.86C345.239 122.14 345.889 125.86 344.599 127.55C346.999 129.65 345.529 135.67 340.049 134.73Z" fill="white"/>
<path opacity="0.2" d="M332 130C332.402 129.89 332.822 129.861 333.236 129.915C333.649 129.968 334.048 130.102 334.41 130.31C333.594 130.362 332.776 130.256 332 130Z" fill="#263238"/>
<path opacity="0.2" d="M332 130.54C332.381 130.519 332.762 130.581 333.116 130.723C333.47 130.864 333.789 131.082 334.05 131.36C333.317 131.234 332.618 130.954 332 130.54Z" fill="#263238"/>
<path opacity="0.2" d="M319.471 129.39C319.379 129.336 319.277 129.301 319.171 129.287C319.065 129.273 318.958 129.281 318.855 129.31C318.752 129.339 318.656 129.388 318.573 129.455C318.49 129.523 318.421 129.606 318.371 129.7C318.764 129.746 319.16 129.635 319.471 129.39Z" fill="#263238"/>
<path opacity="0.2" d="M319.481 130.001C319.481 130.001 318.871 129.911 318.551 130.821C318.933 130.642 319.256 130.358 319.481 130.001Z" fill="#263238"/>
<path d="M343.381 136.74C342.463 138.39 340.956 139.633 339.161 140.22C336.881 140.88 335.971 138.6 336.791 136.22C337.541 134.09 339.611 131.17 341.791 131.56C343.971 131.95 344.581 134.63 343.381 136.74Z" fill="#DADADA"/>
<path d="M330.4 130C330.4 130.64 329.99 131.14 329.56 131.11C329.13 131.08 328.83 130.53 328.88 129.88C328.93 129.23 329.29 128.74 329.72 128.77C330.15 128.8 330.45 129.37 330.4 130Z" fill="#263238"/>
<path d="M327.2 141.75C326.38 141.91 325.63 141.59 325.53 141.05C325.43 140.51 326.03 139.95 326.85 139.79C327.67 139.63 328.42 139.95 328.52 140.49C328.62 141.03 328 141.6 327.2 141.75Z" fill="#263238"/>
<path d="M321.65 129.31C321.65 129.95 321.23 130.45 320.81 130.42C320.39 130.39 320.07 129.84 320.12 129.19C320.17 128.54 320.54 128.05 320.96 128.08C321.38 128.11 321.69 128.66 321.65 129.31Z" fill="#263238"/>
<path d="M323.639 135.75C318.959 136.07 318.059 138.35 318.879 139.35C319.699 140.35 321.699 139.35 321.699 139.35C321.699 139.35 325.489 140.16 326.599 138.95C328.389 139.71 331.119 138.29 330.349 137.21C329.579 136.13 327.649 135.47 323.639 135.75Z" fill="#263238"/>
<path opacity="0.2" d="M323.639 135.75C318.959 136.07 318.059 138.35 318.879 139.35C319.699 140.35 321.699 139.35 321.699 139.35C321.699 139.35 325.489 140.16 326.599 138.95C328.389 139.71 331.119 138.29 330.349 137.21C329.579 136.13 327.649 135.47 323.639 135.75Z" fill="white"/>
<path d="M323.78 130C322.881 131.915 321.72 133.695 320.33 135.29C320.75 135.637 321.24 135.89 321.766 136.029C322.293 136.169 322.843 136.193 323.38 136.1L323.78 130Z" fill="#7E7E7E"/>
<path d="M331.811 126.64C331.874 126.632 331.935 126.612 331.991 126.58C332.033 126.552 332.069 126.517 332.098 126.475C332.126 126.434 332.146 126.387 332.157 126.338C332.167 126.288 332.167 126.238 332.158 126.188C332.148 126.139 332.129 126.092 332.101 126.05C331.782 125.532 331.342 125.099 330.82 124.787C330.298 124.476 329.708 124.295 329.101 124.26C329 124.26 328.903 124.3 328.832 124.371C328.761 124.442 328.721 124.539 328.721 124.64C328.721 124.741 328.761 124.837 328.832 124.908C328.903 124.98 329 125.02 329.101 125.02C329.579 125.054 330.042 125.203 330.451 125.454C330.86 125.704 331.203 126.049 331.451 126.46C331.488 126.52 331.541 126.57 331.605 126.601C331.669 126.633 331.74 126.646 331.811 126.64Z" fill="#263238"/>
<path d="M318.78 125.89C318.843 125.889 318.904 125.873 318.96 125.843C319.016 125.814 319.063 125.772 319.1 125.72C319.356 125.32 319.703 124.986 320.113 124.746C320.524 124.506 320.985 124.367 321.46 124.34C321.56 124.34 321.657 124.3 321.728 124.229C321.8 124.158 321.84 124.061 321.84 123.96C321.84 123.859 321.8 123.763 321.728 123.691C321.657 123.62 321.56 123.58 321.46 123.58C320.858 123.604 320.271 123.773 319.749 124.073C319.227 124.372 318.784 124.793 318.46 125.3C318.432 125.341 318.413 125.387 318.403 125.436C318.394 125.485 318.394 125.535 318.404 125.583C318.415 125.632 318.435 125.678 318.463 125.718C318.491 125.759 318.528 125.794 318.57 125.82C318.629 125.867 318.704 125.892 318.78 125.89Z" fill="#263238"/>
<path d="M331.691 310.8C333.931 274.72 333.431 237.7 329.541 229.64L303.791 229.25C303.791 229.25 307.001 289.57 308.001 313.6C309.051 338.6 311.291 403.6 311.291 403.6L326.191 403.78C326.191 403.78 334.931 338.71 331.691 310.8Z" fill="#263238"/>
<path opacity="0.2" d="M332.8 255.65C324.01 265.25 328.12 291.83 331.95 306.47C333 288.16 333.28 269.93 332.8 255.65Z" fill="#263238"/>
<path d="M326 405.66L312.9 405.49C312.071 405.448 311.252 405.691 310.58 406.18C306.78 409.18 303.89 409.27 299.58 410.04C294.41 410.97 296.97 416.17 300.78 416.23C307.08 416.33 306.55 416.1 311.93 416.18L315.65 416.23L317.33 414.52L318.82 416.23H325.7C325.879 416.234 326.056 416.2 326.221 416.13C326.385 416.06 326.533 415.955 326.654 415.824C326.775 415.692 326.867 415.537 326.923 415.367C326.979 415.197 326.999 415.018 326.98 414.84L326 405.66Z" fill="#263238"/>
<path d="M327.001 407C326.771 407 309.811 406.46 309.811 406.46L309.121 400.37L327.931 400.79L327.001 407Z" fill="#00D776"/>
<path d="M361.929 310.8C359.169 274.72 357.999 238 352.999 229.94L321.949 229.54C321.949 229.54 334.299 289.54 338.639 313.6C343.149 338.6 355.289 403.6 355.289 403.6L370.219 403.78C370.219 403.78 368.999 338.71 361.929 310.8Z" fill="#263238"/>
<path d="M370.93 405.66L357.82 405.49C356.994 405.449 356.179 405.693 355.51 406.18C351.71 409.18 353.45 409.27 349.14 410.04C343.97 410.97 346.52 416.17 350.33 416.23C356.63 416.33 356.11 416.1 361.48 416.18L367.32 416.23L368.09 414.52L369.09 416.23H370.63C370.807 416.229 370.981 416.192 371.142 416.12C371.302 416.048 371.446 415.943 371.564 415.812C371.682 415.681 371.771 415.527 371.825 415.36C371.88 415.192 371.899 415.015 371.88 414.84L370.93 405.66Z" fill="#263238"/>
<path d="M371.92 407C371.68 407 354.65 406.46 354.65 406.46L353 400.33L371.87 400.75L371.92 407Z" fill="#00D776"/>
<path d="M323.31 154.29C323.31 154.29 319.62 160.86 323.86 166.19C320.5 166.19 318.3 169.83 318.3 169.83C318.3 169.83 313.83 160.83 320.44 154.83C320.9 154.15 323.31 154.29 323.31 154.29Z" fill="#00D776"/>
<path d="M354.329 232.68C336.759 233.41 316.609 233.63 304.009 232.68C303.94 232.677 303.873 232.659 303.812 232.626C303.752 232.593 303.699 232.546 303.659 232.49C302.833 231.09 302.453 229.472 302.569 227.85C302.58 227.731 302.635 227.62 302.724 227.54C302.813 227.46 302.93 227.417 303.049 227.42C319.679 227.87 336.209 227.85 353.589 227.42C353.685 227.418 353.778 227.445 353.859 227.497C353.939 227.548 354.002 227.623 354.039 227.71C354.621 229.15 354.873 230.701 354.779 232.25C354.772 232.365 354.722 232.473 354.638 232.553C354.555 232.632 354.445 232.678 354.329 232.68Z" fill="#263238"/>
<path opacity="0.2" d="M354.329 232.68C336.759 233.41 316.609 233.63 304.009 232.68C303.94 232.677 303.873 232.659 303.812 232.626C303.752 232.593 303.699 232.546 303.659 232.49C302.833 231.09 302.453 229.472 302.569 227.85C302.58 227.731 302.635 227.62 302.724 227.54C302.813 227.46 302.93 227.417 303.049 227.42C319.679 227.87 336.209 227.85 353.589 227.42C353.685 227.418 353.778 227.445 353.859 227.497C353.939 227.548 354.002 227.623 354.039 227.71C354.621 229.15 354.873 230.701 354.779 232.25C354.772 232.365 354.722 232.473 354.638 232.553C354.555 232.632 354.445 232.678 354.329 232.68Z" fill="#263238"/>
<path d="M320 227.14C319.792 229.351 319.971 231.581 320.53 233.73C324.34 234.32 332.16 233.88 332.16 233.88C332.273 231.664 332.193 229.442 331.92 227.24C325.92 227 320 227.14 320 227.14Z" fill="white"/>
<path d="M355.129 166.72L355.699 167.23L356.149 167.65L356.999 168.47C357.549 169.01 358.049 169.55 358.559 170.1C359.559 171.19 360.509 172.32 361.409 173.46C363.207 175.718 364.877 178.075 366.409 180.52C369.395 185.351 371.916 190.454 373.939 195.76C374.209 196.47 374.419 196.9 374.799 198.11C375.1 199.089 375.314 200.093 375.439 201.11C375.623 202.89 375.6 204.686 375.369 206.46C374.939 209.518 374.133 212.51 372.969 215.37C371.905 218.025 370.655 220.601 369.229 223.08C367.833 225.516 366.272 227.855 364.559 230.08C364.05 230.733 363.326 231.185 362.515 231.354C361.704 231.523 360.86 231.4 360.131 231.005C359.403 230.61 358.839 229.97 358.538 229.199C358.237 228.427 358.22 227.573 358.489 226.79L358.549 226.62C360.284 221.925 361.697 217.117 362.779 212.23C363.27 210.047 363.525 207.818 363.539 205.58C363.541 204.713 363.434 203.85 363.219 203.01C362.974 202.249 362.638 201.521 362.219 200.84C360.014 196.419 357.512 192.153 354.729 188.07C353.359 186.07 351.899 184.07 350.399 182.25C349.649 181.31 348.869 180.42 348.099 179.54L346.939 178.27L346.379 177.68L346.119 177.41L345.949 177.25C344.548 176.031 343.687 174.306 343.558 172.453C343.429 170.6 344.041 168.772 345.259 167.37C346.478 165.968 348.204 165.108 350.056 164.979C351.909 164.85 353.738 165.461 355.139 166.68L355.129 166.72Z" fill="#DADADA"/>
<path d="M346.511 158.06C354.301 159.41 362.061 168.69 366.691 177.31C363.497 182.698 358.715 186.967 353.001 189.53C353.001 189.53 343.86 180.63 340.21 174.11C336.56 167.59 339.181 156.79 346.511 158.06Z" fill="#00D776"/>
<path d="M366.421 175.34C367.13 176.174 367.682 177.129 368.051 178.16C366.051 181.16 361.311 189.09 352.641 190.64C351.811 190.156 351.182 189.389 350.871 188.48C350.871 188.48 360.881 183.72 366.421 175.34Z" fill="#263238"/>
<path d="M340.869 157.36C339.259 156.67 339.869 155.76 339.869 155.76C339.869 155.76 347.279 156.02 352.349 157.63C353.099 158.52 352.219 159.63 352.219 159.63C352.219 159.63 345.649 159.41 340.869 157.36Z" fill="#263238"/>
<path opacity="0.2" d="M338.93 155.56C338.93 155.56 337.25 161.42 329.57 166.2C332.93 166.2 335.18 172.33 335.18 172.33C335.18 172.33 342.18 164.11 340.56 156C340.09 155.28 338.93 155.56 338.93 155.56Z" fill="#263238"/>
<path d="M338.71 154.5C338.71 154.5 336.71 160.84 329.57 166.2C332.93 166.2 335.26 169.83 335.26 169.83C335.26 169.83 342.14 164.11 340.56 156C340.037 155.394 339.411 154.887 338.71 154.5Z" fill="#00D776"/>
<path d="M345.909 178.57C345.449 187.21 339.979 189.27 339.209 189.27C338.439 189.27 333.209 187.21 333.669 178.57L339.919 176.11L345.909 178.57Z" fill="white"/>
<path d="M359.371 226.101L353.211 231.401L361.381 236.711C361.381 236.711 366.381 231.231 363.901 228.111L359.371 226.101Z" fill="#DADADA"/>
<path d="M352.52 239.81L355.69 241.18C356.302 241.447 356.988 241.487 357.627 241.295C358.267 241.103 358.817 240.69 359.18 240.13L361.38 236.71L353.21 231.4L351.08 236.05C350.924 236.391 350.838 236.76 350.826 237.135C350.814 237.509 350.877 237.883 351.011 238.233C351.145 238.583 351.347 238.903 351.607 239.174C351.866 239.444 352.176 239.661 352.52 239.81Z" fill="#DADADA"/>
<path d="M317.701 119.13C312.211 119.88 314.051 121.62 326.291 123.18C338.531 124.74 341.601 123.51 341.601 123.51C341.601 123.51 327.541 119.1 317.701 119.13Z" fill="#263238"/>
<path d="M345.39 125.89C345.39 125.89 334.64 121.52 317.7 119.13C317.49 116.64 319.54 114 319.54 114C319.54 114 315.76 112.11 316.93 108.5C318.1 104.89 323.51 105.36 329.82 102.5C332.13 105.04 338.48 109.17 342.82 109.7C343.89 111.91 346.69 117.44 351.23 119.57C351.16 121.98 346.65 122.57 346.65 122.57C346.67 123.179 346.569 123.787 346.353 124.356C346.137 124.926 345.809 125.448 345.39 125.89Z" fill="#00D776"/>
<path opacity="0.3" d="M346.641 122.57C342.711 119 328.751 112.48 319.541 114C319.541 114 317.491 116.65 317.701 119.13C334.641 121.52 345.391 125.89 345.391 125.89C345.808 125.447 346.134 124.926 346.349 124.356C346.563 123.786 346.662 123.179 346.641 122.57Z" fill="#263238"/>
<path d="M331.441 109.84C330.231 116 326.031 117.11 325.441 117.05C324.851 116.99 321.251 115.17 322.441 109.05L327.271 107.71L331.441 109.84Z" fill="white"/>
<path d="M251.75 210.78C251.139 210.779 250.55 210.555 250.093 210.15C249.636 209.745 249.343 209.186 249.27 208.58L242.13 150.39C242.049 149.727 242.235 149.059 242.646 148.533C243.058 148.007 243.662 147.666 244.325 147.585C244.988 147.504 245.656 147.69 246.182 148.102C246.708 148.513 247.049 149.117 247.13 149.78L254.23 208C254.272 208.326 254.249 208.657 254.162 208.974C254.076 209.291 253.927 209.587 253.726 209.847C253.524 210.106 253.273 210.323 252.987 210.485C252.701 210.647 252.386 210.75 252.06 210.79L251.75 210.78Z" fill="#263238"/>
<path d="M250.16 184.6C249.55 182.36 250.7 182.03 249.59 178.85C249 177.16 250.94 175.85 251.18 177.21C252.08 182.16 258.65 184.93 256.37 188.06C254.09 191.19 250.76 186.84 250.16 184.6Z" fill="#DADADA"/>
<path d="M294.729 100.786C296.69 69.5278 272.94 42.5979 241.681 40.6367C210.423 38.6756 183.493 62.4259 181.531 93.6845C179.57 124.943 203.321 151.873 234.579 153.834C265.838 155.795 292.768 132.045 294.729 100.786Z" fill="#00D776"/>
<path d="M281.287 112.521C289.735 88.6788 277.255 62.5026 253.412 54.0549C229.57 45.6072 203.394 58.087 194.946 81.9293C186.499 105.772 198.978 131.948 222.821 140.395C246.663 148.843 272.839 136.363 281.287 112.521Z" fill="white"/>
<path d="M267.87 89.4899C264.11 84.4099 256.87 89.4899 254.7 94.8299C254.11 96.1547 253.723 97.5603 253.55 98.9999L251.16 82.6899L249.27 67.2299C249.07 65.9033 248.361 64.7067 247.294 63.8948C246.226 63.0829 244.883 62.7198 243.551 62.8826C242.22 63.0455 241.004 63.7215 240.164 64.7669C239.323 65.8122 238.923 67.1444 239.05 68.4799L238.58 64.6299C238.497 63.9595 238.283 63.312 237.95 62.7243C237.617 62.1366 237.171 61.6202 236.639 61.2047C236.106 60.7891 235.497 60.4826 234.846 60.3024C234.195 60.1223 233.515 60.0722 232.845 60.1549C232.174 60.2377 231.527 60.4516 230.939 60.7846C230.351 61.1176 229.835 61.5631 229.419 62.0956C229.004 62.6282 228.697 63.2374 228.517 63.8884C228.337 64.5394 228.287 65.2195 228.37 65.8899L229.03 71.2499C228.94 70.5245 228.697 69.8264 228.317 69.2021C227.936 68.5778 227.428 68.0416 226.824 67.6292C226.221 67.2168 225.536 66.9376 224.816 66.8101C224.097 66.6826 223.358 66.7098 222.65 66.8899C221.437 67.2012 220.378 67.943 219.672 68.977C218.965 70.011 218.659 71.2667 218.81 72.5099L219.63 79.1999C219.542 78.4738 219.3 77.7748 218.92 77.1497C218.54 76.5245 218.031 75.9877 217.427 75.575C216.823 75.1623 216.138 74.8832 215.418 74.7564C214.697 74.6297 213.958 74.6582 213.25 74.8399C212.038 75.1492 210.981 75.8895 210.276 76.9221C209.571 77.9548 209.266 79.209 209.42 80.4499L211.06 93.8199L212.23 103.41L213.78 116C214.88 125 218.39 130.08 223.6 132.37C231.6 135.88 246.25 135.92 252.83 130.58C258.59 125.91 262.29 114.66 263.18 107.69C264.07 100.72 269.4 91.5399 267.87 89.4899Z" fill="#7B857F"/>
<path d="M276.512 57.7445L267.176 50.4473L199.727 136.746L209.064 144.044L276.512 57.7445Z" fill="#00D776"/>
<path d="M92.0181 126.608V112.33L134.078 45.8754H145.985V66.2037H138.725L110.41 111.071V111.846H169.12V126.608H92.0181ZM139.306 145V122.252L139.499 115.863V45.8754H156.439V145H139.306Z" fill="#7B857F"/>
<path d="M94.9574 176H91.696L99.0241 155.636H102.574L109.902 176H106.641L100.884 159.335H100.724L94.9574 176ZM95.5043 168.026H106.084V170.611H95.5043V168.026ZM118.791 176.308C117.313 176.308 116.04 175.973 114.973 175.304C113.912 174.628 113.097 173.696 112.527 172.51C111.957 171.323 111.672 169.964 111.672 168.433C111.672 166.882 111.964 165.513 112.547 164.327C113.13 163.134 113.952 162.202 115.013 161.533C116.073 160.863 117.323 160.528 118.761 160.528C119.921 160.528 120.955 160.744 121.864 161.175C122.772 161.599 123.504 162.196 124.061 162.964C124.625 163.733 124.959 164.632 125.065 165.659H122.172C122.013 164.943 121.648 164.327 121.078 163.81C120.515 163.293 119.759 163.034 118.811 163.034C117.982 163.034 117.257 163.253 116.634 163.69C116.017 164.121 115.536 164.738 115.192 165.54C114.847 166.335 114.675 167.277 114.675 168.364C114.675 169.477 114.844 170.438 115.182 171.247C115.52 172.056 115.997 172.682 116.614 173.126C117.237 173.571 117.969 173.793 118.811 173.793C119.375 173.793 119.885 173.69 120.342 173.484C120.806 173.272 121.194 172.971 121.506 172.58C121.824 172.188 122.046 171.718 122.172 171.168H125.065C124.959 172.155 124.638 173.037 124.101 173.812C123.564 174.588 122.845 175.198 121.943 175.642C121.048 176.086 119.998 176.308 118.791 176.308ZM134.678 176.308C133.2 176.308 131.927 175.973 130.86 175.304C129.799 174.628 128.984 173.696 128.414 172.51C127.844 171.323 127.559 169.964 127.559 168.433C127.559 166.882 127.85 165.513 128.434 164.327C129.017 163.134 129.839 162.202 130.9 161.533C131.96 160.863 133.21 160.528 134.648 160.528C135.808 160.528 136.842 160.744 137.75 161.175C138.658 161.599 139.391 162.196 139.948 162.964C140.511 163.733 140.846 164.632 140.952 165.659H138.059C137.9 164.943 137.535 164.327 136.965 163.81C136.401 163.293 135.646 163.034 134.698 163.034C133.869 163.034 133.143 163.253 132.52 163.69C131.904 164.121 131.423 164.738 131.078 165.54C130.734 166.335 130.561 167.277 130.561 168.364C130.561 169.477 130.73 170.438 131.069 171.247C131.407 172.056 131.884 172.682 132.5 173.126C133.123 173.571 133.856 173.793 134.698 173.793C135.261 173.793 135.772 173.69 136.229 173.484C136.693 173.272 137.081 172.971 137.392 172.58C137.711 172.188 137.933 171.718 138.059 171.168H140.952C140.846 172.155 140.525 173.037 139.988 173.812C139.451 174.588 138.731 175.198 137.83 175.642C136.935 176.086 135.884 176.308 134.678 176.308ZM150.714 176.308C149.209 176.308 147.913 175.987 146.826 175.344C145.746 174.694 144.91 173.783 144.32 172.609C143.737 171.429 143.445 170.047 143.445 168.463C143.445 166.899 143.737 165.52 144.32 164.327C144.91 163.134 145.732 162.202 146.786 161.533C147.847 160.863 149.086 160.528 150.505 160.528C151.367 160.528 152.202 160.671 153.011 160.956C153.819 161.241 154.545 161.688 155.188 162.298C155.831 162.908 156.338 163.7 156.71 164.675C157.081 165.643 157.266 166.819 157.266 168.205V169.259H145.126V167.031H154.353C154.353 166.249 154.194 165.556 153.876 164.953C153.558 164.343 153.11 163.863 152.533 163.511C151.963 163.16 151.294 162.984 150.525 162.984C149.69 162.984 148.96 163.19 148.337 163.601C147.721 164.005 147.244 164.536 146.906 165.192C146.574 165.841 146.408 166.547 146.408 167.31V169.05C146.408 170.071 146.587 170.939 146.945 171.655C147.31 172.371 147.817 172.918 148.467 173.295C149.116 173.667 149.875 173.852 150.744 173.852C151.307 173.852 151.821 173.773 152.285 173.614C152.749 173.448 153.15 173.203 153.488 172.878C153.826 172.553 154.085 172.152 154.263 171.675L157.077 172.182C156.852 173.01 156.448 173.736 155.864 174.359C155.288 174.976 154.562 175.456 153.687 175.801C152.818 176.139 151.827 176.308 150.714 176.308ZM172.01 164.456L169.315 164.933C169.202 164.589 169.023 164.26 168.778 163.949C168.539 163.637 168.215 163.382 167.804 163.183C167.393 162.984 166.879 162.885 166.262 162.885C165.421 162.885 164.718 163.074 164.154 163.452C163.591 163.823 163.309 164.304 163.309 164.893C163.309 165.404 163.498 165.815 163.876 166.126C164.254 166.438 164.864 166.693 165.706 166.892L168.132 167.449C169.537 167.774 170.584 168.274 171.274 168.95C171.963 169.626 172.308 170.505 172.308 171.585C172.308 172.5 172.043 173.315 171.512 174.031C170.989 174.741 170.256 175.297 169.315 175.702C168.38 176.106 167.297 176.308 166.064 176.308C164.353 176.308 162.958 175.944 161.877 175.214C160.797 174.479 160.134 173.435 159.889 172.082L162.762 171.645C162.941 172.394 163.309 172.961 163.866 173.345C164.423 173.723 165.149 173.912 166.044 173.912C167.018 173.912 167.797 173.71 168.38 173.305C168.964 172.894 169.255 172.394 169.255 171.804C169.255 171.327 169.076 170.926 168.718 170.601C168.367 170.276 167.827 170.031 167.098 169.865L164.512 169.298C163.087 168.973 162.033 168.456 161.35 167.747C160.674 167.038 160.336 166.14 160.336 165.053C160.336 164.151 160.588 163.362 161.092 162.686C161.596 162.01 162.292 161.483 163.18 161.105C164.068 160.721 165.086 160.528 166.233 160.528C167.883 160.528 169.182 160.886 170.13 161.602C171.078 162.312 171.705 163.263 172.01 164.456ZM187.021 164.456L184.327 164.933C184.214 164.589 184.035 164.26 183.79 163.949C183.551 163.637 183.226 163.382 182.815 163.183C182.404 162.984 181.891 162.885 181.274 162.885C180.432 162.885 179.73 163.074 179.166 163.452C178.603 163.823 178.321 164.304 178.321 164.893C178.321 165.404 178.51 165.815 178.888 166.126C179.266 166.438 179.875 166.693 180.717 166.892L183.143 167.449C184.549 167.774 185.596 168.274 186.286 168.95C186.975 169.626 187.32 170.505 187.32 171.585C187.32 172.5 187.054 173.315 186.524 174.031C186 174.741 185.268 175.297 184.327 175.702C183.392 176.106 182.308 176.308 181.075 176.308C179.365 176.308 177.97 175.944 176.889 175.214C175.809 174.479 175.146 173.435 174.901 172.082L177.774 171.645C177.953 172.394 178.321 172.961 178.878 173.345C179.435 173.723 180.161 173.912 181.055 173.912C182.03 173.912 182.809 173.71 183.392 173.305C183.975 172.894 184.267 172.394 184.267 171.804C184.267 171.327 184.088 170.926 183.73 170.601C183.379 170.276 182.839 170.031 182.109 169.865L179.524 169.298C178.099 168.973 177.045 168.456 176.362 167.747C175.686 167.038 175.348 166.14 175.348 165.053C175.348 164.151 175.6 163.362 176.104 162.686C176.607 162.01 177.304 161.483 178.192 161.105C179.08 160.721 180.098 160.528 181.244 160.528C182.895 160.528 184.194 160.886 185.142 161.602C186.09 162.312 186.716 163.263 187.021 164.456ZM98.7159 210.298C97.483 210.298 96.3826 209.983 95.4148 209.354C94.4536 208.717 93.6979 207.812 93.1477 206.639C92.6042 205.459 92.3324 204.044 92.3324 202.393C92.3324 200.743 92.6075 199.331 93.1577 198.158C93.7145 196.984 94.4768 196.086 95.4446 195.463C96.4124 194.84 97.5095 194.528 98.7358 194.528C99.6837 194.528 100.446 194.688 101.023 195.006C101.606 195.317 102.057 195.682 102.375 196.099C102.7 196.517 102.952 196.885 103.131 197.203H103.31V189.636H106.283V210H103.379V207.624H103.131C102.952 207.948 102.693 208.32 102.355 208.737C102.024 209.155 101.566 209.519 100.983 209.831C100.4 210.143 99.6439 210.298 98.7159 210.298ZM99.3722 207.763C100.227 207.763 100.95 207.537 101.54 207.087C102.136 206.629 102.587 205.996 102.892 205.188C103.204 204.379 103.359 203.437 103.359 202.364C103.359 201.303 103.207 200.375 102.902 199.58C102.597 198.784 102.15 198.164 101.56 197.72C100.97 197.276 100.241 197.054 99.3722 197.054C98.4773 197.054 97.7315 197.286 97.1349 197.75C96.5384 198.214 96.0876 198.847 95.7827 199.649C95.4844 200.451 95.3352 201.356 95.3352 202.364C95.3352 203.384 95.4877 204.303 95.7926 205.118C96.0975 205.933 96.5483 206.58 97.1449 207.057C97.7481 207.527 98.4905 207.763 99.3722 207.763ZM117.108 210.308C115.604 210.308 114.308 209.987 113.221 209.344C112.14 208.694 111.305 207.783 110.715 206.609C110.132 205.429 109.84 204.047 109.84 202.463C109.84 200.899 110.132 199.52 110.715 198.327C111.305 197.134 112.127 196.202 113.181 195.533C114.241 194.863 115.481 194.528 116.9 194.528C117.761 194.528 118.596 194.671 119.405 194.956C120.214 195.241 120.94 195.688 121.583 196.298C122.226 196.908 122.733 197.7 123.104 198.675C123.475 199.643 123.661 200.819 123.661 202.205V203.259H111.52V201.031H120.748C120.748 200.249 120.588 199.556 120.27 198.953C119.952 198.343 119.505 197.863 118.928 197.511C118.358 197.16 117.688 196.984 116.919 196.984C116.084 196.984 115.355 197.19 114.732 197.601C114.115 198.005 113.638 198.536 113.3 199.192C112.969 199.841 112.803 200.547 112.803 201.31V203.05C112.803 204.071 112.982 204.939 113.34 205.655C113.704 206.371 114.212 206.918 114.861 207.295C115.511 207.667 116.27 207.852 117.138 207.852C117.702 207.852 118.215 207.773 118.679 207.614C119.143 207.448 119.544 207.203 119.882 206.878C120.221 206.553 120.479 206.152 120.658 205.675L123.472 206.182C123.247 207.01 122.842 207.736 122.259 208.359C121.682 208.976 120.956 209.456 120.081 209.801C119.213 210.139 118.222 210.308 117.108 210.308ZM129.933 200.932V210H126.96V194.727H129.813V197.213H130.002C130.353 196.404 130.904 195.755 131.653 195.264C132.408 194.774 133.36 194.528 134.506 194.528C135.547 194.528 136.459 194.747 137.241 195.185C138.023 195.616 138.629 196.259 139.06 197.114C139.491 197.969 139.707 199.026 139.707 200.286V210H136.734V200.643C136.734 199.536 136.445 198.671 135.869 198.048C135.292 197.419 134.5 197.104 133.492 197.104C132.803 197.104 132.19 197.253 131.653 197.551C131.122 197.849 130.701 198.287 130.39 198.864C130.085 199.434 129.933 200.123 129.933 200.932ZM143.694 210V194.727H146.667V210H143.694ZM145.195 192.371C144.678 192.371 144.234 192.198 143.863 191.854C143.498 191.502 143.316 191.085 143.316 190.601C143.316 190.11 143.498 189.693 143.863 189.348C144.234 188.997 144.678 188.821 145.195 188.821C145.712 188.821 146.153 188.997 146.518 189.348C146.889 189.693 147.075 190.11 147.075 190.601C147.075 191.085 146.889 191.502 146.518 191.854C146.153 192.198 145.712 192.371 145.195 192.371ZM157.249 210.308C155.744 210.308 154.448 209.987 153.361 209.344C152.281 208.694 151.445 207.783 150.855 206.609C150.272 205.429 149.98 204.047 149.98 202.463C149.98 200.899 150.272 199.52 150.855 198.327C151.445 197.134 152.267 196.202 153.321 195.533C154.382 194.863 155.622 194.528 157.04 194.528C157.902 194.528 158.737 194.671 159.546 194.956C160.355 195.241 161.08 195.688 161.723 196.298C162.366 196.908 162.873 197.7 163.245 198.675C163.616 199.643 163.801 200.819 163.801 202.205V203.259H151.661V201.031H160.888C160.888 200.249 160.729 199.556 160.411 198.953C160.093 198.343 159.645 197.863 159.069 197.511C158.498 197.16 157.829 196.984 157.06 196.984C156.225 196.984 155.496 197.19 154.873 197.601C154.256 198.005 153.779 198.536 153.441 199.192C153.109 199.841 152.944 200.547 152.944 201.31V203.05C152.944 204.071 153.123 204.939 153.48 205.655C153.845 206.371 154.352 206.918 155.002 207.295C155.651 207.667 156.41 207.852 157.279 207.852C157.842 207.852 158.356 207.773 158.82 207.614C159.284 207.448 159.685 207.203 160.023 206.878C160.361 206.553 160.62 206.152 160.799 205.675L163.613 206.182C163.387 207.01 162.983 207.736 162.4 208.359C161.823 208.976 161.097 209.456 160.222 209.801C159.354 210.139 158.363 210.308 157.249 210.308ZM172.817 210.298C171.585 210.298 170.484 209.983 169.516 209.354C168.555 208.717 167.799 207.812 167.249 206.639C166.706 205.459 166.434 204.044 166.434 202.393C166.434 200.743 166.709 199.331 167.259 198.158C167.816 196.984 168.578 196.086 169.546 195.463C170.514 194.84 171.611 194.528 172.837 194.528C173.785 194.528 174.548 194.688 175.124 195.006C175.708 195.317 176.158 195.682 176.477 196.099C176.801 196.517 177.053 196.885 177.232 197.203H177.411V189.636H180.384V210H177.481V207.624H177.232C177.053 207.948 176.795 208.32 176.457 208.737C176.125 209.155 175.668 209.519 175.085 209.831C174.501 210.143 173.746 210.298 172.817 210.298ZM173.474 207.763C174.329 207.763 175.051 207.537 175.641 207.087C176.238 206.629 176.689 205.996 176.994 205.188C177.305 204.379 177.461 203.437 177.461 202.364C177.461 201.303 177.308 200.375 177.004 199.58C176.699 198.784 176.251 198.164 175.661 197.72C175.071 197.276 174.342 197.054 173.474 197.054C172.579 197.054 171.833 197.286 171.237 197.75C170.64 198.214 170.189 198.847 169.884 199.649C169.586 200.451 169.437 201.356 169.437 202.364C169.437 203.384 169.589 204.303 169.894 205.118C170.199 205.933 170.65 206.58 171.246 207.057C171.85 207.527 172.592 207.763 173.474 207.763Z" fill="#7B857F"/>
</svg>
