<svg width="500" height="500" viewBox="0 0 500 500" fill="none" xmlns="http://www.w3.org/2000/svg">
<g opacity="0.25">
<path d="M296.228 298.541L205.161 299.905C204.634 299.912 204.11 299.816 203.62 299.621C203.13 299.426 202.683 299.135 202.306 298.767C201.928 298.399 201.627 297.959 201.42 297.474C201.212 296.989 201.103 296.468 201.098 295.94L199.116 163.328C199.1 162.267 199.506 161.242 200.245 160.481C200.984 159.719 201.995 159.281 203.056 159.264L294.127 157.901C294.654 157.893 295.178 157.99 295.667 158.186C296.157 158.381 296.603 158.671 296.98 159.04C297.357 159.408 297.658 159.847 297.865 160.332C298.072 160.817 298.181 161.338 298.186 161.865L300.169 294.477C300.185 295.539 299.778 296.563 299.039 297.325C298.301 298.087 297.289 298.524 296.228 298.541Z" fill="#707070"/>
<path d="M296.227 298.54L296.533 298.517C296.836 298.485 297.134 298.422 297.425 298.33C297.897 298.167 298.336 297.92 298.721 297.601C299.254 297.154 299.663 296.578 299.91 295.928C300.056 295.538 300.138 295.127 300.152 294.711C300.152 294.275 300.152 293.811 300.152 293.327C300.136 292.357 300.119 291.3 300.101 290.156C300.065 287.857 300.021 285.201 299.974 282.227L299.181 231.596C299.018 220.892 298.84 209.202 298.646 196.635C298.55 190.348 298.453 183.854 298.352 177.155C298.302 173.809 298.251 170.414 298.198 166.971C298.169 165.25 298.14 163.518 298.11 161.773C298.072 160.912 297.75 160.087 297.195 159.427C296.63 158.766 295.864 158.309 295.014 158.126C294.585 158.05 294.149 158.023 293.714 158.047H292.382L289.706 158.091L284.311 158.17L273.298 158.325L250.662 158.665L203.055 159.379C202.051 159.391 201.089 159.79 200.371 160.493C199.654 161.196 199.235 162.149 199.202 163.153C199.202 165.167 199.258 167.197 199.281 169.206C199.34 173.234 199.399 177.234 199.46 181.206C199.579 189.151 199.695 196.971 199.809 204.667C200.039 220.048 200.257 234.886 200.467 249.019C200.677 263.151 200.863 276.582 201.061 289.153C201.083 290.723 201.105 292.281 201.129 293.827C201.129 294.596 201.129 295.369 201.172 296.126C201.212 296.877 201.47 297.6 201.914 298.207C202.352 298.809 202.951 299.274 203.642 299.551C203.986 299.684 204.346 299.771 204.713 299.809C205.073 299.837 205.45 299.809 205.822 299.809L210.239 299.746L227.019 299.5L277.659 298.782L291.423 298.592L294.991 298.548H296.212L294.991 298.576L291.423 298.64L277.659 298.873L227.031 299.666L210.255 299.924L205.834 299.991C205.466 299.991 205.093 300.011 204.709 299.991C204.328 299.952 203.955 299.863 203.599 299.726C202.88 299.438 202.257 298.954 201.799 298.33C201.332 297.701 201.057 296.951 201.006 296.17C200.978 295.377 200.978 294.632 200.962 293.859C200.939 292.318 200.915 290.761 200.891 289.189C200.701 276.618 200.495 263.187 200.284 249.055C200.074 234.922 199.848 220.084 199.614 204.702C199.498 197.012 199.381 189.192 199.262 181.242C199.201 177.278 199.141 173.278 199.083 169.242C199.055 167.224 199.012 165.21 199 163.177C199.035 162.123 199.474 161.123 200.227 160.384C200.98 159.646 201.989 159.226 203.044 159.213L250.65 158.503L273.298 158.142L284.275 157.98L289.671 157.9L292.342 157.861H293.674C294.123 157.835 294.573 157.863 295.014 157.944C295.902 158.124 296.704 158.594 297.294 159.28C297.884 159.966 298.228 160.83 298.273 161.734C298.302 163.478 298.33 165.212 298.356 166.935C298.406 170.371 298.457 173.767 298.507 177.123C298.607 183.815 298.702 190.307 298.792 196.599C298.979 209.166 299.149 220.877 299.304 231.564C299.613 252.94 299.859 270.24 300.033 282.196C300.073 285.185 300.108 287.841 300.14 290.124C300.156 291.274 300.171 292.331 300.184 293.296C300.184 293.783 300.208 294.243 300.184 294.687C300.167 295.106 300.083 295.52 299.934 295.912C299.724 296.475 299.389 296.984 298.956 297.401C298.522 297.817 298 298.131 297.429 298.318C297.139 298.412 296.84 298.472 296.537 298.497L296.227 298.54Z" fill="#263238"/>
<g opacity="0.3">
<path d="M210.504 296.329L293.571 294.632L294.285 278.569L291.593 268.924L209.549 283.005L210.504 296.329Z" fill="black"/>
</g>
<path d="M296.227 298.54L296.533 298.517C296.836 298.485 297.134 298.422 297.425 298.33C297.897 298.167 298.336 297.92 298.721 297.601C299.254 297.154 299.663 296.578 299.91 295.928C300.056 295.538 300.138 295.127 300.152 294.711C300.152 294.275 300.152 293.811 300.152 293.327C300.136 292.357 300.119 291.3 300.101 290.156C300.065 287.857 300.021 285.201 299.974 282.227L299.181 231.596C299.018 220.892 298.84 209.202 298.646 196.635C298.55 190.348 298.453 183.854 298.352 177.155C298.302 173.809 298.251 170.414 298.198 166.971C298.169 165.25 298.14 163.518 298.11 161.773C298.072 160.912 297.75 160.087 297.195 159.427C296.63 158.766 295.864 158.309 295.014 158.126C294.585 158.05 294.149 158.023 293.714 158.047H292.382L289.706 158.091L284.311 158.17L273.298 158.325L250.662 158.665L203.055 159.379C202.051 159.391 201.089 159.79 200.371 160.493C199.654 161.196 199.235 162.149 199.202 163.153C199.202 165.167 199.258 167.197 199.281 169.206C199.34 173.234 199.399 177.234 199.46 181.206C199.579 189.151 199.695 196.971 199.809 204.667C200.039 220.048 200.257 234.886 200.467 249.019C200.677 263.151 200.863 276.582 201.061 289.153C201.083 290.723 201.105 292.281 201.129 293.827C201.129 294.596 201.129 295.369 201.172 296.126C201.212 296.877 201.47 297.6 201.914 298.207C202.352 298.809 202.951 299.274 203.642 299.551C203.986 299.684 204.346 299.771 204.713 299.809C205.073 299.837 205.45 299.809 205.822 299.809L210.239 299.746L227.019 299.5L277.659 298.782L291.423 298.592L294.991 298.548H296.212L294.991 298.576L291.423 298.64L277.659 298.873L227.031 299.666L210.255 299.924L205.834 299.991C205.466 299.991 205.093 300.011 204.709 299.991C204.328 299.952 203.955 299.863 203.599 299.726C202.88 299.438 202.257 298.954 201.799 298.33C201.332 297.701 201.057 296.951 201.006 296.17C200.978 295.377 200.978 294.632 200.962 293.859C200.939 292.318 200.915 290.761 200.891 289.189C200.701 276.618 200.495 263.187 200.284 249.055C200.074 234.922 199.848 220.084 199.614 204.702C199.498 197.012 199.381 189.192 199.262 181.242C199.201 177.278 199.141 173.278 199.083 169.242C199.055 167.224 199.012 165.21 199 163.177C199.035 162.123 199.474 161.123 200.227 160.384C200.98 159.646 201.989 159.226 203.044 159.213L250.65 158.503L273.298 158.142L284.275 157.98L289.671 157.9L292.342 157.861H293.674C294.123 157.835 294.573 157.863 295.014 157.944C295.902 158.124 296.704 158.594 297.294 159.28C297.884 159.966 298.228 160.83 298.273 161.734C298.302 163.478 298.33 165.212 298.356 166.935C298.406 170.371 298.457 173.767 298.507 177.123C298.607 183.815 298.702 190.307 298.792 196.599C298.979 209.166 299.149 220.877 299.304 231.564C299.613 252.94 299.859 270.24 300.033 282.196C300.073 285.185 300.108 287.841 300.14 290.124C300.156 291.274 300.171 292.331 300.184 293.296C300.184 293.783 300.208 294.243 300.184 294.687C300.167 295.106 300.083 295.52 299.934 295.912C299.724 296.475 299.389 296.984 298.956 297.401C298.522 297.817 298 298.131 297.429 298.318C297.139 298.412 296.84 298.472 296.537 298.497L296.227 298.54Z" fill="#263238"/>
<g opacity="0.3">
<path d="M210.504 296.329L293.571 294.632L294.285 278.569L291.593 268.924L209.549 283.005L210.504 296.329Z" fill="black"/>
</g>
<path d="M293.199 163.591L204.156 164.928L206.082 293.24L295.125 291.904L293.199 163.591Z" fill="white"/>
<path d="M295.102 291.916C295.102 291.175 294.281 239.326 293.1 163.601L293.183 163.684L204.166 165.024L204.257 164.933C204.97 213.118 205.632 257.637 206.16 293.244L206.084 293.173L295.102 291.916L206.072 293.323H206.001V293.252C205.462 257.641 204.792 213.122 204.062 164.937V164.842H204.162L293.195 163.518H293.278V163.601C294.364 239.326 295.102 291.175 295.102 291.916Z" fill="#263238"/>
<path d="M229.195 195.955L209.721 196.247L209.783 200.369L229.257 200.077L229.195 195.955Z" fill="#E0E0E0"/>
<path d="M270.452 186.347L231.416 186.933L231.478 191.055L270.514 190.469L270.452 186.347Z" fill="#F5F5F5"/>
<path d="M227.965 186.897L209.395 187.176L209.456 191.298L228.027 191.019L227.965 186.897Z" fill="#F5F5F5"/>
<path d="M286.807 186.089L272.68 186.301L272.742 190.423L286.869 190.211L286.807 186.089Z" fill="#F5F5F5"/>
<path d="M283.509 255.743L258.398 256.12L258.469 260.817L283.58 260.44L283.509 255.743Z" fill="#E0E0E0"/>
<path d="M286.82 205.428L209.791 206.584L209.862 211.281L286.89 210.125L286.82 205.428Z" fill="#E0E0E0"/>
<path d="M285.532 216.156C285.532 216.211 268.938 216.508 248.466 216.814C227.995 217.119 211.393 217.321 211.393 217.266C211.393 217.21 227.987 216.913 248.462 216.608C268.938 216.302 285.532 216.1 285.532 216.156Z" fill="#263238"/>
<path d="M269.47 182.415C269.47 182.475 260.162 182.661 248.681 182.812C237.201 182.962 227.893 183.077 227.889 183.018C227.885 182.958 237.197 182.776 248.677 182.621C260.158 182.467 269.466 182.36 269.47 182.415Z" fill="#263238"/>
<path d="M285.587 220.231C285.587 220.29 268.988 220.584 248.521 220.889C228.053 221.194 211.455 221.396 211.455 221.341C211.455 221.285 228.046 220.988 248.525 220.683C269.004 220.378 285.587 220.175 285.587 220.231Z" fill="#263238"/>
<path d="M285.655 224.31C285.655 224.365 269.061 224.663 248.589 224.968C228.118 225.273 211.516 225.475 211.516 225.42C211.516 225.364 228.11 225.067 248.585 224.762C269.061 224.457 285.655 224.254 285.655 224.31Z" fill="#263238"/>
<path d="M244.644 229C244.644 229.059 237.243 229.214 228.113 229.353C218.983 229.492 211.578 229.551 211.574 229.495C211.57 229.44 218.975 229.281 228.109 229.147C237.243 229.012 244.64 228.944 244.644 229Z" fill="#263238"/>
<path d="M285.778 232.464C285.778 232.52 269.18 232.817 248.712 233.122C228.245 233.428 211.639 233.63 211.639 233.574C211.639 233.519 228.229 233.222 248.708 232.916C269.188 232.611 285.778 232.405 285.778 232.464Z" fill="#263238"/>
<path d="M285.837 236.539C285.837 236.599 269.242 236.892 248.771 237.198C228.3 237.503 211.697 237.705 211.697 237.649C211.697 237.594 228.292 237.297 248.767 236.991C269.242 236.686 285.837 236.484 285.837 236.539Z" fill="#263238"/>
<path d="M271.174 240.837C271.174 240.896 257.874 241.142 241.47 241.384C225.066 241.626 211.762 241.78 211.738 241.729C211.715 241.677 225.038 241.423 241.446 241.178C257.855 240.932 271.174 240.781 271.174 240.837Z" fill="#263238"/>
<path d="M285.96 244.694C285.96 244.753 269.366 245.047 248.894 245.352C228.423 245.657 211.82 245.859 211.82 245.804C211.82 245.748 228.415 245.451 248.89 245.146C269.366 244.84 285.96 244.638 285.96 244.694Z" fill="#263238"/>
<path d="M286.024 248.773C286.024 248.828 269.426 249.122 248.955 249.431C228.483 249.74 211.881 249.938 211.881 249.883C211.881 249.827 228.475 249.53 248.951 249.225C269.426 248.92 286.02 248.713 286.024 248.773Z" fill="#263238"/>
<path d="M230.386 155.367L271.027 154.757C271.692 154.747 272.335 155.001 272.812 155.465C273.29 155.928 273.564 156.563 273.574 157.228L273.735 167.962L228.08 168.647L227.919 157.913C227.909 157.249 228.163 156.607 228.625 156.13C229.088 155.652 229.721 155.378 230.386 155.367Z" fill="#263238"/>
<path d="M256.445 150L244.826 150.174L246.333 160.117L255.086 159.982L256.445 150Z" fill="#263238"/>
<path d="M270.606 154.769C270.606 154.825 261.698 154.999 250.709 155.166C239.72 155.332 230.812 155.42 230.812 155.364C230.812 155.309 239.716 155.138 250.709 154.968C261.702 154.797 270.602 154.718 270.606 154.769Z" fill="#455A64"/>
<path d="M229.068 166.499C229.017 166.499 228.946 164.628 228.91 162.317C228.874 160.006 228.898 158.143 228.942 158.143C228.985 158.143 229.068 160.014 229.1 162.325C229.132 164.636 229.12 166.499 229.068 166.499Z" fill="#455A64"/>
<path d="M272.212 164.882C272.094 163.621 272.043 162.354 272.057 161.088C272.007 159.821 272.02 158.552 272.097 157.286C272.148 157.286 272.22 158.987 272.251 161.084C272.283 163.181 272.263 164.882 272.212 164.882Z" fill="#455A64"/>
<path d="M270.037 166.658C270.037 166.709 260.896 166.891 249.617 167.054C238.339 167.217 229.193 167.32 229.193 167.264C229.193 167.209 238.311 167.034 249.613 166.868C260.915 166.701 270.037 166.606 270.037 166.658Z" fill="#455A64"/>
<g opacity="0.3">
<path d="M273.595 158.516L275.57 164.093L275.609 166.837L273.477 166.868L273.595 158.516Z" fill="black"/>
</g>
<g opacity="0.3">
<path d="M220.721 273.162L221.074 277.967C221.074 277.967 231.777 278.122 236.693 277.345L236.574 280.366L247.277 271.367L233.006 270.804L220.721 273.162Z" fill="black"/>
</g>
<path d="M219.095 276.911L218.453 264.008C225.042 265.483 231.801 266.267 239.614 265.594L240.161 276.515C233.161 277.169 226.124 277.49 219.095 276.911Z" fill="#868686"/>
<path d="M237.297 270.973L237.27 262.577L242.546 266.755L247.818 270.934L242.574 275.152L237.329 279.366L237.297 270.973Z" fill="#868686"/>
<path d="M281.398 266.272C281.398 266.272 281.469 266.272 281.608 266.295L282.218 266.387C283.002 266.503 283.778 266.667 284.541 266.878C285.087 267.037 285.618 267.244 286.127 267.497C286.746 267.797 287.31 268.199 287.796 268.686C288.366 269.239 288.799 269.918 289.061 270.668C289.349 271.52 289.325 272.448 288.993 273.284C288.601 274.184 287.991 274.972 287.217 275.576C286.394 276.23 285.498 276.787 284.545 277.233C282.479 278.273 280.304 279.083 278.06 279.647C272.895 280.938 267.489 280.917 262.334 279.588C261.648 279.409 260.982 279.191 260.316 278.989C259.656 278.769 259.016 278.496 258.401 278.172C257.786 277.854 257.216 277.454 256.708 276.983C256.206 276.518 255.807 275.952 255.539 275.322C255.286 274.694 255.19 274.014 255.257 273.34C255.326 272.686 255.514 272.05 255.812 271.465C256.411 270.343 257.292 269.397 258.369 268.721C259.37 268.081 260.433 267.542 261.541 267.112C262.607 266.66 263.673 266.319 264.712 265.986C266.645 265.42 268.624 265.029 270.627 264.817C273.531 264.498 276.464 264.571 279.348 265.035C279.86 265.102 280.307 265.209 280.696 265.281C281.084 265.352 281.414 265.435 281.675 265.503L282.274 265.653C282.409 265.685 282.476 265.709 282.476 265.709C282.476 265.709 282.405 265.709 282.27 265.673L281.667 265.542C281.402 265.483 281.077 265.407 280.684 265.34C280.292 265.273 279.848 265.177 279.336 265.114C278.1 264.933 276.855 264.818 275.606 264.769C273.953 264.714 272.298 264.779 270.655 264.963C268.662 265.183 266.693 265.581 264.772 266.153C263.696 266.473 262.637 266.849 261.6 267.278C260.5 267.699 259.446 268.231 258.453 268.864C257.405 269.523 256.549 270.444 255.967 271.536C255.66 272.096 255.478 272.716 255.432 273.353C255.386 273.989 255.478 274.629 255.701 275.227C255.961 275.828 256.345 276.369 256.827 276.813C257.325 277.262 257.878 277.645 258.472 277.954C259.08 278.266 259.711 278.531 260.359 278.747C261.017 278.953 261.683 279.144 262.361 279.342C267.485 280.663 272.857 280.688 277.992 279.413C280.224 278.862 282.387 278.064 284.442 277.035C285.387 276.599 286.276 276.052 287.09 275.405C287.848 274.824 288.448 274.062 288.835 273.189C289.157 272.383 289.184 271.488 288.91 270.664C288.661 269.931 288.244 269.266 287.693 268.721C286.79 267.859 285.684 267.238 284.478 266.914C283.72 266.693 282.949 266.516 282.171 266.383L281.564 266.272H281.398Z" fill="#263238"/>
</g>
<path d="M108.313 321.141V319.818H116.193V321.141H113.016V330H111.485V321.141H108.313ZM119.301 325.466V330H117.815V319.818H119.281V323.607H119.376C119.555 323.196 119.828 322.869 120.196 322.627C120.564 322.385 121.045 322.264 121.638 322.264C122.162 322.264 122.619 322.372 123.01 322.587C123.404 322.803 123.709 323.124 123.925 323.552C124.144 323.976 124.253 324.506 124.253 325.143V330H122.766V325.322C122.766 324.762 122.622 324.327 122.334 324.019C122.046 323.708 121.645 323.552 121.131 323.552C120.779 323.552 120.465 323.626 120.186 323.776C119.911 323.925 119.694 324.143 119.535 324.432C119.379 324.717 119.301 325.062 119.301 325.466ZM126.237 330V322.364H127.723V330H126.237ZM126.987 321.185C126.729 321.185 126.507 321.099 126.321 320.927C126.139 320.751 126.048 320.542 126.048 320.3C126.048 320.055 126.139 319.846 126.321 319.674C126.507 319.498 126.729 319.411 126.987 319.411C127.246 319.411 127.466 319.498 127.649 319.674C127.834 319.846 127.927 320.055 127.927 320.3C127.927 320.542 127.834 320.751 127.649 320.927C127.466 321.099 127.246 321.185 126.987 321.185ZM135.445 324.228L134.098 324.467C134.042 324.294 133.952 324.13 133.829 323.974C133.71 323.819 133.548 323.691 133.342 323.592C133.137 323.492 132.88 323.442 132.572 323.442C132.151 323.442 131.799 323.537 131.518 323.726C131.236 323.911 131.095 324.152 131.095 324.447C131.095 324.702 131.19 324.907 131.378 325.063C131.567 325.219 131.872 325.347 132.293 325.446L133.506 325.724C134.209 325.887 134.733 326.137 135.077 326.475C135.422 326.813 135.594 327.252 135.594 327.793C135.594 328.25 135.462 328.658 135.197 329.016C134.935 329.37 134.569 329.649 134.098 329.851C133.631 330.053 133.089 330.154 132.472 330.154C131.617 330.154 130.919 329.972 130.379 329.607C129.839 329.239 129.507 328.717 129.385 328.041L130.822 327.822C130.911 328.197 131.095 328.48 131.373 328.673C131.652 328.862 132.015 328.956 132.462 328.956C132.949 328.956 133.339 328.855 133.631 328.653C133.922 328.447 134.068 328.197 134.068 327.902C134.068 327.663 133.979 327.463 133.8 327.3C133.624 327.138 133.354 327.015 132.989 326.933L131.697 326.649C130.984 326.487 130.457 326.228 130.116 325.874C129.778 325.519 129.609 325.07 129.609 324.526C129.609 324.076 129.735 323.681 129.986 323.343C130.238 323.005 130.586 322.741 131.03 322.553C131.475 322.36 131.983 322.264 132.557 322.264C133.382 322.264 134.032 322.443 134.506 322.801C134.98 323.156 135.293 323.631 135.445 324.228ZM140.934 332.864V322.364H142.386V323.602H142.51C142.596 323.442 142.72 323.259 142.883 323.05C143.045 322.841 143.271 322.659 143.559 322.503C143.847 322.344 144.228 322.264 144.702 322.264C145.319 322.264 145.869 322.42 146.353 322.732C146.837 323.043 147.216 323.492 147.491 324.079C147.77 324.665 147.909 325.371 147.909 326.197C147.909 327.022 147.771 327.73 147.496 328.32C147.221 328.906 146.843 329.359 146.363 329.677C145.882 329.992 145.334 330.149 144.717 330.149C144.253 330.149 143.874 330.071 143.579 329.915C143.287 329.76 143.058 329.577 142.893 329.369C142.727 329.16 142.599 328.974 142.51 328.812H142.42V332.864H140.934ZM142.391 326.182C142.391 326.719 142.468 327.189 142.624 327.594C142.78 327.998 143.005 328.315 143.3 328.543C143.595 328.769 143.957 328.881 144.384 328.881C144.828 328.881 145.199 328.764 145.498 328.528C145.796 328.29 146.021 327.967 146.174 327.559C146.33 327.151 146.408 326.692 146.408 326.182C146.408 325.678 146.331 325.226 146.179 324.825C146.03 324.424 145.804 324.107 145.503 323.875C145.204 323.643 144.832 323.527 144.384 323.527C143.953 323.527 143.589 323.638 143.29 323.86C142.995 324.082 142.772 324.392 142.619 324.79C142.467 325.187 142.391 325.652 142.391 326.182ZM151.797 330.169C151.313 330.169 150.875 330.08 150.484 329.901C150.093 329.718 149.783 329.455 149.555 329.11C149.329 328.765 149.217 328.343 149.217 327.842C149.217 327.411 149.299 327.057 149.465 326.778C149.631 326.5 149.855 326.28 150.136 326.117C150.418 325.955 150.733 325.832 151.081 325.749C151.429 325.666 151.784 325.603 152.145 325.56C152.602 325.507 152.973 325.464 153.258 325.431C153.543 325.395 153.751 325.337 153.88 325.257C154.009 325.178 154.074 325.048 154.074 324.869V324.835C154.074 324.4 153.951 324.064 153.706 323.825C153.464 323.587 153.103 323.467 152.622 323.467C152.122 323.467 151.727 323.578 151.439 323.8C151.154 324.019 150.957 324.263 150.847 324.531L149.45 324.213C149.616 323.749 149.858 323.375 150.176 323.089C150.498 322.801 150.867 322.592 151.285 322.463C151.702 322.33 152.141 322.264 152.602 322.264C152.907 322.264 153.23 322.301 153.572 322.374C153.916 322.443 154.238 322.572 154.536 322.761C154.838 322.95 155.085 323.22 155.277 323.572C155.469 323.92 155.565 324.372 155.565 324.929V330H154.114V328.956H154.054C153.958 329.148 153.814 329.337 153.621 329.523C153.429 329.708 153.182 329.862 152.881 329.985C152.579 330.108 152.218 330.169 151.797 330.169ZM152.12 328.976C152.531 328.976 152.882 328.895 153.174 328.732C153.469 328.57 153.693 328.358 153.845 328.096C154.001 327.831 154.079 327.547 154.079 327.246V326.261C154.026 326.314 153.923 326.364 153.771 326.411C153.621 326.454 153.451 326.492 153.258 326.525C153.066 326.555 152.879 326.583 152.697 326.609C152.514 326.633 152.362 326.652 152.239 326.669C151.951 326.705 151.687 326.767 151.449 326.853C151.213 326.939 151.025 327.063 150.882 327.226C150.743 327.385 150.673 327.597 150.673 327.862C150.673 328.23 150.809 328.509 151.081 328.697C151.353 328.883 151.699 328.976 152.12 328.976ZM160.747 333.023C160.14 333.023 159.618 332.943 159.181 332.784C158.747 332.625 158.392 332.415 158.117 332.153C157.842 331.891 157.636 331.604 157.5 331.293L158.778 330.766C158.868 330.911 158.987 331.066 159.136 331.228C159.289 331.394 159.494 331.535 159.753 331.651C160.014 331.767 160.351 331.825 160.762 331.825C161.325 331.825 161.791 331.687 162.159 331.412C162.527 331.14 162.711 330.706 162.711 330.109V328.608H162.616C162.527 328.77 162.397 328.951 162.228 329.15C162.063 329.349 161.834 329.521 161.542 329.667C161.251 329.813 160.871 329.886 160.404 329.886C159.801 329.886 159.257 329.745 158.773 329.463C158.293 329.178 157.911 328.759 157.63 328.205C157.351 327.648 157.212 326.964 157.212 326.152C157.212 325.34 157.35 324.644 157.625 324.064C157.903 323.484 158.284 323.04 158.768 322.732C159.252 322.42 159.801 322.264 160.414 322.264C160.888 322.264 161.271 322.344 161.562 322.503C161.854 322.659 162.081 322.841 162.243 323.05C162.409 323.259 162.537 323.442 162.626 323.602H162.736V322.364H164.192V330.169C164.192 330.825 164.04 331.364 163.735 331.785C163.43 332.206 163.017 332.517 162.497 332.719C161.98 332.922 161.397 333.023 160.747 333.023ZM160.732 328.653C161.16 328.653 161.521 328.553 161.816 328.354C162.114 328.152 162.339 327.864 162.492 327.489C162.648 327.112 162.726 326.659 162.726 326.132C162.726 325.618 162.649 325.166 162.497 324.775C162.344 324.384 162.121 324.079 161.826 323.86C161.531 323.638 161.166 323.527 160.732 323.527C160.285 323.527 159.912 323.643 159.613 323.875C159.315 324.104 159.09 324.415 158.937 324.81C158.788 325.204 158.714 325.645 158.714 326.132C158.714 326.633 158.79 327.072 158.942 327.45C159.095 327.827 159.32 328.122 159.618 328.335C159.92 328.547 160.291 328.653 160.732 328.653ZM169.477 330.154C168.725 330.154 168.077 329.993 167.533 329.672C166.993 329.347 166.575 328.891 166.28 328.305C165.989 327.715 165.843 327.024 165.843 326.232C165.843 325.449 165.989 324.76 166.28 324.163C166.575 323.567 166.986 323.101 167.513 322.766C168.044 322.432 168.663 322.264 169.373 322.264C169.803 322.264 170.221 322.335 170.625 322.478C171.03 322.621 171.393 322.844 171.714 323.149C172.036 323.454 172.289 323.85 172.475 324.337C172.66 324.821 172.753 325.41 172.753 326.102V326.629H166.683V325.516H171.297C171.297 325.125 171.217 324.778 171.058 324.477C170.899 324.172 170.675 323.931 170.387 323.756C170.102 323.58 169.767 323.492 169.383 323.492C168.965 323.492 168.6 323.595 168.289 323.8C167.981 324.003 167.742 324.268 167.573 324.596C167.407 324.921 167.324 325.274 167.324 325.655V326.525C167.324 327.035 167.414 327.469 167.593 327.827C167.775 328.185 168.029 328.459 168.353 328.648C168.678 328.833 169.058 328.926 169.492 328.926C169.774 328.926 170.031 328.886 170.263 328.807C170.495 328.724 170.695 328.601 170.864 328.439C171.033 328.277 171.162 328.076 171.252 327.837L172.659 328.091C172.546 328.505 172.344 328.868 172.052 329.18C171.764 329.488 171.401 329.728 170.964 329.901C170.529 330.07 170.034 330.154 169.477 330.154ZM179.763 330L177.516 322.364H179.052L180.549 327.972H180.623L182.125 322.364H183.661L185.152 327.947H185.227L186.714 322.364H188.25L186.008 330H184.491L182.94 324.487H182.826L181.275 330H179.763ZM189.66 330V322.364H191.147V330H189.66ZM190.411 321.185C190.153 321.185 189.931 321.099 189.745 320.927C189.563 320.751 189.472 320.542 189.472 320.3C189.472 320.055 189.563 319.846 189.745 319.674C189.931 319.498 190.153 319.411 190.411 319.411C190.67 319.411 190.89 319.498 191.072 319.674C191.258 319.846 191.351 320.055 191.351 320.3C191.351 320.542 191.258 320.751 191.072 320.927C190.89 321.099 190.67 321.185 190.411 321.185ZM194.633 319.818V330H193.147V319.818H194.633ZM198.12 319.818V330H196.633V319.818H198.12ZM203.944 330V319.818H205.43V323.602H205.52C205.606 323.442 205.73 323.259 205.893 323.05C206.055 322.841 206.28 322.659 206.569 322.503C206.857 322.344 207.238 322.264 207.712 322.264C208.329 322.264 208.879 322.42 209.363 322.732C209.847 323.043 210.226 323.492 210.501 324.079C210.78 324.665 210.919 325.371 210.919 326.197C210.919 327.022 210.781 327.73 210.506 328.32C210.231 328.906 209.853 329.359 209.373 329.677C208.892 329.992 208.344 330.149 207.727 330.149C207.263 330.149 206.884 330.071 206.589 329.915C206.297 329.76 206.068 329.577 205.903 329.369C205.737 329.16 205.609 328.974 205.52 328.812H205.396V330H203.944ZM205.4 326.182C205.4 326.719 205.478 327.189 205.634 327.594C205.79 327.998 206.015 328.315 206.31 328.543C206.605 328.769 206.967 328.881 207.394 328.881C207.838 328.881 208.209 328.764 208.508 328.528C208.806 328.29 209.031 327.967 209.184 327.559C209.34 327.151 209.418 326.692 209.418 326.182C209.418 325.678 209.341 325.226 209.189 324.825C209.04 324.424 208.814 324.107 208.513 323.875C208.214 323.643 207.842 323.527 207.394 323.527C206.963 323.527 206.599 323.638 206.3 323.86C206.005 324.082 205.782 324.392 205.629 324.79C205.477 325.187 205.4 325.652 205.4 326.182ZM215.879 330.154C215.127 330.154 214.479 329.993 213.935 329.672C213.395 329.347 212.978 328.891 212.683 328.305C212.391 327.715 212.245 327.024 212.245 326.232C212.245 325.449 212.391 324.76 212.683 324.163C212.978 323.567 213.389 323.101 213.916 322.766C214.446 322.432 215.066 322.264 215.775 322.264C216.206 322.264 216.623 322.335 217.028 322.478C217.432 322.621 217.795 322.844 218.117 323.149C218.438 323.454 218.692 323.85 218.877 324.337C219.063 324.821 219.156 325.41 219.156 326.102V326.629H213.085V325.516H217.699C217.699 325.125 217.619 324.778 217.46 324.477C217.301 324.172 217.078 323.931 216.789 323.756C216.504 323.58 216.169 323.492 215.785 323.492C215.367 323.492 215.003 323.595 214.691 323.8C214.383 324.003 214.144 324.268 213.975 324.596C213.81 324.921 213.727 325.274 213.727 325.655V326.525C213.727 327.035 213.816 327.469 213.995 327.827C214.177 328.185 214.431 328.459 214.756 328.648C215.081 328.833 215.46 328.926 215.894 328.926C216.176 328.926 216.433 328.886 216.665 328.807C216.897 328.724 217.097 328.601 217.266 328.439C217.435 328.277 217.565 328.076 217.654 327.837L219.061 328.091C218.948 328.505 218.746 328.868 218.455 329.18C218.166 329.488 217.803 329.728 217.366 329.901C216.932 330.07 216.436 330.154 215.879 330.154ZM226.732 330.169C226.248 330.169 225.811 330.08 225.42 329.901C225.029 329.718 224.719 329.455 224.49 329.11C224.265 328.765 224.152 328.343 224.152 327.842C224.152 327.411 224.235 327.057 224.401 326.778C224.566 326.5 224.79 326.28 225.072 326.117C225.354 325.955 225.668 325.832 226.016 325.749C226.364 325.666 226.719 325.603 227.08 325.56C227.538 325.507 227.909 325.464 228.194 325.431C228.479 325.395 228.686 325.337 228.815 325.257C228.945 325.178 229.009 325.048 229.009 324.869V324.835C229.009 324.4 228.887 324.064 228.641 323.825C228.399 323.587 228.038 323.467 227.558 323.467C227.057 323.467 226.663 323.578 226.374 323.8C226.089 324.019 225.892 324.263 225.783 324.531L224.386 324.213C224.551 323.749 224.793 323.375 225.112 323.089C225.433 322.801 225.803 322.592 226.22 322.463C226.638 322.33 227.077 322.264 227.538 322.264C227.843 322.264 228.166 322.301 228.507 322.374C228.852 322.443 229.173 322.572 229.472 322.761C229.773 322.95 230.02 323.22 230.212 323.572C230.405 323.92 230.501 324.372 230.501 324.929V330H229.049V328.956H228.989C228.893 329.148 228.749 329.337 228.557 329.523C228.365 329.708 228.118 329.862 227.816 329.985C227.515 330.108 227.153 330.169 226.732 330.169ZM227.055 328.976C227.466 328.976 227.818 328.895 228.109 328.732C228.404 328.57 228.628 328.358 228.781 328.096C228.936 327.831 229.014 327.547 229.014 327.246V326.261C228.961 326.314 228.859 326.364 228.706 326.411C228.557 326.454 228.386 326.492 228.194 326.525C228.002 326.555 227.814 326.583 227.632 326.609C227.45 326.633 227.297 326.652 227.175 326.669C226.886 326.705 226.623 326.767 226.384 326.853C226.149 326.939 225.96 327.063 225.818 327.226C225.678 327.385 225.609 327.597 225.609 327.862C225.609 328.23 225.745 328.509 226.016 328.697C226.288 328.883 226.635 328.976 227.055 328.976ZM238.74 322.364L235.971 330H234.38L231.606 322.364H233.202L235.136 328.24H235.215L237.144 322.364H238.74ZM242.141 330.169C241.657 330.169 241.219 330.08 240.828 329.901C240.437 329.718 240.127 329.455 239.898 329.11C239.673 328.765 239.56 328.343 239.56 327.842C239.56 327.411 239.643 327.057 239.809 326.778C239.975 326.5 240.198 326.28 240.48 326.117C240.762 325.955 241.077 325.832 241.425 325.749C241.773 325.666 242.127 325.603 242.489 325.56C242.946 325.507 243.317 325.464 243.602 325.431C243.887 325.395 244.094 325.337 244.224 325.257C244.353 325.178 244.418 325.048 244.418 324.869V324.835C244.418 324.4 244.295 324.064 244.05 323.825C243.808 323.587 243.446 323.467 242.966 323.467C242.465 323.467 242.071 323.578 241.783 323.8C241.498 324.019 241.3 324.263 241.191 324.531L239.794 324.213C239.96 323.749 240.202 323.375 240.52 323.089C240.841 322.801 241.211 322.592 241.628 322.463C242.046 322.33 242.485 322.264 242.946 322.264C243.251 322.264 243.574 322.301 243.915 322.374C244.26 322.443 244.582 322.572 244.88 322.761C245.181 322.95 245.428 323.22 245.621 323.572C245.813 323.92 245.909 324.372 245.909 324.929V330H244.457V328.956H244.398C244.302 329.148 244.157 329.337 243.965 329.523C243.773 329.708 243.526 329.862 243.224 329.985C242.923 330.108 242.561 330.169 242.141 330.169ZM242.464 328.976C242.875 328.976 243.226 328.895 243.518 328.732C243.813 328.57 244.036 328.358 244.189 328.096C244.345 327.831 244.422 327.547 244.422 327.246V326.261C244.369 326.314 244.267 326.364 244.114 326.411C243.965 326.454 243.794 326.492 243.602 326.525C243.41 326.555 243.223 326.583 243.04 326.609C242.858 326.633 242.706 326.652 242.583 326.669C242.295 326.705 242.031 326.767 241.793 326.853C241.557 326.939 241.368 327.063 241.226 327.226C241.087 327.385 241.017 327.597 241.017 327.862C241.017 328.23 241.153 328.509 241.425 328.697C241.696 328.883 242.043 328.976 242.464 328.976ZM247.889 330V322.364H249.375V330H247.889ZM248.64 321.185C248.381 321.185 248.159 321.099 247.973 320.927C247.791 320.751 247.7 320.542 247.7 320.3C247.7 320.055 247.791 319.846 247.973 319.674C248.159 319.498 248.381 319.411 248.64 319.411C248.898 319.411 249.119 319.498 249.301 319.674C249.486 319.846 249.579 320.055 249.579 320.3C249.579 320.542 249.486 320.751 249.301 320.927C249.119 321.099 248.898 321.185 248.64 321.185ZM252.862 319.818V330H251.375V319.818H252.862ZM257.084 330.169C256.6 330.169 256.162 330.08 255.771 329.901C255.38 329.718 255.07 329.455 254.842 329.11C254.616 328.765 254.504 328.343 254.504 327.842C254.504 327.411 254.586 327.057 254.752 326.778C254.918 326.5 255.142 326.28 255.423 326.117C255.705 325.955 256.02 325.832 256.368 325.749C256.716 325.666 257.071 325.603 257.432 325.56C257.889 325.507 258.261 325.464 258.546 325.431C258.831 325.395 259.038 325.337 259.167 325.257C259.296 325.178 259.361 325.048 259.361 324.869V324.835C259.361 324.4 259.238 324.064 258.993 323.825C258.751 323.587 258.39 323.467 257.909 323.467C257.409 323.467 257.014 323.578 256.726 323.8C256.441 324.019 256.244 324.263 256.134 324.531L254.737 324.213C254.903 323.749 255.145 323.375 255.463 323.089C255.785 322.801 256.154 322.592 256.572 322.463C256.989 322.33 257.429 322.264 257.889 322.264C258.194 322.264 258.517 322.301 258.859 322.374C259.203 322.443 259.525 322.572 259.823 322.761C260.125 322.95 260.372 323.22 260.564 323.572C260.756 323.92 260.852 324.372 260.852 324.929V330H259.401V328.956H259.341C259.245 329.148 259.101 329.337 258.908 329.523C258.716 329.708 258.469 329.862 258.168 329.985C257.866 330.108 257.505 330.169 257.084 330.169ZM257.407 328.976C257.818 328.976 258.169 328.895 258.461 328.732C258.756 328.57 258.98 328.358 259.132 328.096C259.288 327.831 259.366 327.547 259.366 327.246V326.261C259.313 326.314 259.21 326.364 259.058 326.411C258.908 326.454 258.738 326.492 258.546 326.525C258.353 326.555 258.166 326.583 257.984 326.609C257.801 326.633 257.649 326.652 257.526 326.669C257.238 326.705 256.975 326.767 256.736 326.853C256.501 326.939 256.312 327.063 256.169 327.226C256.03 327.385 255.96 327.597 255.96 327.862C255.96 328.23 256.096 328.509 256.368 328.697C256.64 328.883 256.986 328.976 257.407 328.976ZM262.952 330V319.818H264.438V323.602H264.528C264.614 323.442 264.738 323.259 264.9 323.05C265.063 322.841 265.288 322.659 265.577 322.503C265.865 322.344 266.246 322.264 266.72 322.264C267.337 322.264 267.887 322.42 268.371 322.732C268.855 323.043 269.234 323.492 269.509 324.079C269.788 324.665 269.927 325.371 269.927 326.197C269.927 327.022 269.789 327.73 269.514 328.32C269.239 328.906 268.861 329.359 268.381 329.677C267.9 329.992 267.351 330.149 266.735 330.149C266.271 330.149 265.891 330.071 265.597 329.915C265.305 329.76 265.076 329.577 264.91 329.369C264.745 329.16 264.617 328.974 264.528 328.812H264.403V330H262.952ZM264.408 326.182C264.408 326.719 264.486 327.189 264.642 327.594C264.798 327.998 265.023 328.315 265.318 328.543C265.613 328.769 265.974 328.881 266.402 328.881C266.846 328.881 267.217 328.764 267.516 328.528C267.814 328.29 268.039 327.967 268.192 327.559C268.347 327.151 268.425 326.692 268.425 326.182C268.425 325.678 268.349 325.226 268.197 324.825C268.047 324.424 267.822 324.107 267.521 323.875C267.222 323.643 266.849 323.527 266.402 323.527C265.971 323.527 265.606 323.638 265.308 323.86C265.013 324.082 264.789 324.392 264.637 324.79C264.485 325.187 264.408 325.652 264.408 326.182ZM273.082 319.818V330H271.596V319.818H273.082ZM278.373 330.154C277.621 330.154 276.973 329.993 276.43 329.672C275.889 329.347 275.472 328.891 275.177 328.305C274.885 327.715 274.739 327.024 274.739 326.232C274.739 325.449 274.885 324.76 275.177 324.163C275.472 323.567 275.883 323.101 276.41 322.766C276.94 322.432 277.56 322.264 278.269 322.264C278.7 322.264 279.118 322.335 279.522 322.478C279.926 322.621 280.289 322.844 280.611 323.149C280.932 323.454 281.186 323.85 281.371 324.337C281.557 324.821 281.65 325.41 281.65 326.102V326.629H275.579V325.516H280.193C280.193 325.125 280.114 324.778 279.954 324.477C279.795 324.172 279.572 323.931 279.283 323.756C278.998 323.58 278.664 323.492 278.279 323.492C277.861 323.492 277.497 323.595 277.185 323.8C276.877 324.003 276.638 324.268 276.469 324.596C276.304 324.921 276.221 325.274 276.221 325.655V326.525C276.221 327.035 276.31 327.469 276.489 327.827C276.672 328.185 276.925 328.459 277.25 328.648C277.575 328.833 277.954 328.926 278.388 328.926C278.67 328.926 278.927 328.886 279.159 328.807C279.391 328.724 279.592 328.601 279.761 328.439C279.93 328.277 280.059 328.076 280.148 327.837L281.555 328.091C281.443 328.505 281.24 328.868 280.949 329.18C280.66 329.488 280.297 329.728 279.86 329.901C279.426 330.07 278.93 330.154 278.373 330.154ZM289.226 330.169C288.743 330.169 288.305 330.08 287.914 329.901C287.523 329.718 287.213 329.455 286.984 329.11C286.759 328.765 286.646 328.343 286.646 327.842C286.646 327.411 286.729 327.057 286.895 326.778C287.061 326.5 287.284 326.28 287.566 326.117C287.848 325.955 288.163 325.832 288.511 325.749C288.859 325.666 289.213 325.603 289.574 325.56C290.032 325.507 290.403 325.464 290.688 325.431C290.973 325.395 291.18 325.337 291.31 325.257C291.439 325.178 291.503 325.048 291.503 324.869V324.835C291.503 324.4 291.381 324.064 291.136 323.825C290.894 323.587 290.532 323.467 290.052 323.467C289.551 323.467 289.157 323.578 288.869 323.8C288.583 324.019 288.386 324.263 288.277 324.531L286.88 324.213C287.046 323.749 287.288 323.375 287.606 323.089C287.927 322.801 288.297 322.592 288.714 322.463C289.132 322.33 289.571 322.264 290.032 322.264C290.337 322.264 290.66 322.301 291.001 322.374C291.346 322.443 291.668 322.572 291.966 322.761C292.267 322.95 292.514 323.22 292.707 323.572C292.899 323.92 292.995 324.372 292.995 324.929V330H291.543V328.956H291.484C291.387 329.148 291.243 329.337 291.051 329.523C290.859 329.708 290.612 329.862 290.31 329.985C290.009 330.108 289.647 330.169 289.226 330.169ZM289.55 328.976C289.961 328.976 290.312 328.895 290.604 328.732C290.899 328.57 291.122 328.358 291.275 328.096C291.431 327.831 291.508 327.547 291.508 327.246V326.261C291.455 326.314 291.353 326.364 291.2 326.411C291.051 326.454 290.88 326.492 290.688 326.525C290.496 326.555 290.309 326.583 290.126 326.609C289.944 326.633 289.792 326.652 289.669 326.669C289.381 326.705 289.117 326.767 288.878 326.853C288.643 326.939 288.454 327.063 288.312 327.226C288.172 327.385 288.103 327.597 288.103 327.862C288.103 328.23 288.239 328.509 288.511 328.697C288.782 328.883 289.129 328.976 289.55 328.976ZM298.609 322.364V323.557H294.294V322.364H298.609ZM295.477 330V321.479C295.477 321.001 295.581 320.605 295.79 320.29C295.999 319.972 296.276 319.735 296.62 319.58C296.965 319.42 297.34 319.341 297.744 319.341C298.042 319.341 298.298 319.366 298.51 319.415C298.722 319.462 298.879 319.505 298.982 319.545L298.634 320.748C298.564 320.728 298.475 320.705 298.366 320.678C298.256 320.648 298.124 320.634 297.968 320.634C297.607 320.634 297.348 320.723 297.192 320.902C297.04 321.081 296.964 321.339 296.964 321.678V330H295.477ZM303.707 322.364V323.557H299.536V322.364H303.707ZM300.655 320.534H302.141V327.758C302.141 328.046 302.185 328.263 302.271 328.409C302.357 328.552 302.468 328.649 302.604 328.702C302.743 328.752 302.894 328.777 303.056 328.777C303.176 328.777 303.28 328.769 303.369 328.752C303.459 328.736 303.528 328.722 303.578 328.712L303.847 329.94C303.761 329.973 303.638 330.007 303.479 330.04C303.32 330.076 303.121 330.096 302.882 330.099C302.491 330.106 302.127 330.036 301.788 329.891C301.45 329.745 301.177 329.519 300.968 329.214C300.759 328.91 300.655 328.527 300.655 328.066V320.534ZM308.561 330.154C307.809 330.154 307.161 329.993 306.617 329.672C306.077 329.347 305.659 328.891 305.364 328.305C305.073 327.715 304.927 327.024 304.927 326.232C304.927 325.449 305.073 324.76 305.364 324.163C305.659 323.567 306.07 323.101 306.597 322.766C307.128 322.432 307.747 322.264 308.457 322.264C308.887 322.264 309.305 322.335 309.709 322.478C310.114 322.621 310.477 322.844 310.798 323.149C311.12 323.454 311.373 323.85 311.559 324.337C311.744 324.821 311.837 325.41 311.837 326.102V326.629H305.767V325.516H310.381C310.381 325.125 310.301 324.778 310.142 324.477C309.983 324.172 309.759 323.931 309.471 323.756C309.186 323.58 308.851 323.492 308.467 323.492C308.049 323.492 307.684 323.595 307.373 323.8C307.065 324.003 306.826 324.268 306.657 324.596C306.491 324.921 306.408 325.274 306.408 325.655V326.525C306.408 327.035 306.498 327.469 306.677 327.827C306.859 328.185 307.113 328.459 307.437 328.648C307.762 328.833 308.142 328.926 308.576 328.926C308.858 328.926 309.114 328.886 309.347 328.807C309.579 328.724 309.779 328.601 309.948 328.439C310.117 328.277 310.246 328.076 310.336 327.837L311.743 328.091C311.63 328.505 311.428 328.868 311.136 329.18C310.848 329.488 310.485 329.728 310.047 329.901C309.613 330.07 309.118 330.154 308.561 330.154ZM313.487 330V322.364H314.923V323.577H315.003C315.142 323.166 315.387 322.843 315.739 322.607C316.093 322.369 316.494 322.249 316.942 322.249C317.035 322.249 317.144 322.253 317.27 322.259C317.399 322.266 317.5 322.274 317.573 322.284V323.706C317.514 323.689 317.408 323.671 317.255 323.651C317.103 323.628 316.95 323.616 316.798 323.616C316.446 323.616 316.133 323.691 315.858 323.84C315.586 323.986 315.371 324.19 315.212 324.452C315.053 324.71 314.973 325.005 314.973 325.337V330H313.487ZM328.287 324.228L326.94 324.467C326.883 324.294 326.794 324.13 326.671 323.974C326.552 323.819 326.39 323.691 326.184 323.592C325.979 323.492 325.722 323.442 325.413 323.442C324.993 323.442 324.641 323.537 324.359 323.726C324.078 323.911 323.937 324.152 323.937 324.447C323.937 324.702 324.031 324.907 324.22 325.063C324.409 325.219 324.714 325.347 325.135 325.446L326.348 325.724C327.051 325.887 327.574 326.137 327.919 326.475C328.264 326.813 328.436 327.252 328.436 327.793C328.436 328.25 328.304 328.658 328.038 329.016C327.777 329.37 327.41 329.649 326.94 329.851C326.472 330.053 325.93 330.154 325.314 330.154C324.459 330.154 323.761 329.972 323.221 329.607C322.681 329.239 322.349 328.717 322.227 328.041L323.663 327.822C323.753 328.197 323.937 328.48 324.215 328.673C324.494 328.862 324.857 328.956 325.304 328.956C325.791 328.956 326.181 328.855 326.472 328.653C326.764 328.447 326.91 328.197 326.91 327.902C326.91 327.663 326.82 327.463 326.641 327.3C326.466 327.138 326.196 327.015 325.831 326.933L324.538 326.649C323.826 326.487 323.299 326.228 322.957 325.874C322.619 325.519 322.45 325.07 322.45 324.526C322.45 324.076 322.576 323.681 322.828 323.343C323.08 323.005 323.428 322.741 323.872 322.553C324.316 322.36 324.825 322.264 325.399 322.264C326.224 322.264 326.873 322.443 327.347 322.801C327.821 323.156 328.135 323.631 328.287 324.228ZM333.362 330.154C332.609 330.154 331.961 329.993 331.418 329.672C330.878 329.347 330.46 328.891 330.165 328.305C329.873 327.715 329.728 327.024 329.728 326.232C329.728 325.449 329.873 324.76 330.165 324.163C330.46 323.567 330.871 323.101 331.398 322.766C331.928 322.432 332.548 322.264 333.257 322.264C333.688 322.264 334.106 322.335 334.51 322.478C334.915 322.621 335.277 322.844 335.599 323.149C335.92 323.454 336.174 323.85 336.36 324.337C336.545 324.821 336.638 325.41 336.638 326.102V326.629H330.568V325.516H335.181C335.181 325.125 335.102 324.778 334.943 324.477C334.784 324.172 334.56 323.931 334.272 323.756C333.987 323.58 333.652 323.492 333.267 323.492C332.85 323.492 332.485 323.595 332.174 323.8C331.865 324.003 331.627 324.268 331.458 324.596C331.292 324.921 331.209 325.274 331.209 325.655V326.525C331.209 327.035 331.299 327.469 331.478 327.827C331.66 328.185 331.913 328.459 332.238 328.648C332.563 328.833 332.943 328.926 333.377 328.926C333.658 328.926 333.915 328.886 334.147 328.807C334.379 328.724 334.58 328.601 334.749 328.439C334.918 328.277 335.047 328.076 335.137 327.837L336.544 328.091C336.431 328.505 336.229 328.868 335.937 329.18C335.649 329.488 335.286 329.728 334.848 329.901C334.414 330.07 333.919 330.154 333.362 330.154ZM341.504 330.154C340.765 330.154 340.129 329.987 339.595 329.652C339.065 329.314 338.657 328.848 338.372 328.255C338.087 327.662 337.944 326.982 337.944 326.217C337.944 325.441 338.09 324.757 338.382 324.163C338.674 323.567 339.084 323.101 339.615 322.766C340.145 322.432 340.77 322.264 341.489 322.264C342.069 322.264 342.586 322.372 343.04 322.587C343.494 322.799 343.861 323.098 344.139 323.482C344.421 323.867 344.588 324.316 344.641 324.83H343.194C343.115 324.472 342.932 324.163 342.647 323.905C342.366 323.646 341.988 323.517 341.514 323.517C341.1 323.517 340.737 323.626 340.425 323.845C340.117 324.061 339.877 324.369 339.704 324.77C339.532 325.168 339.446 325.638 339.446 326.182C339.446 326.739 339.53 327.219 339.699 327.624C339.868 328.028 340.107 328.341 340.415 328.563C340.727 328.785 341.093 328.896 341.514 328.896C341.796 328.896 342.051 328.845 342.28 328.742C342.512 328.636 342.705 328.485 342.861 328.29C343.02 328.094 343.131 327.859 343.194 327.584H344.641C344.588 328.078 344.427 328.518 344.159 328.906C343.89 329.294 343.531 329.599 343.08 329.821C342.633 330.043 342.107 330.154 341.504 330.154ZM349.447 330.154C348.731 330.154 348.107 329.99 347.573 329.662C347.039 329.334 346.625 328.875 346.33 328.285C346.035 327.695 345.888 327.005 345.888 326.217C345.888 325.424 346.035 324.732 346.33 324.138C346.625 323.545 347.039 323.085 347.573 322.756C348.107 322.428 348.731 322.264 349.447 322.264C350.163 322.264 350.788 322.428 351.322 322.756C351.855 323.085 352.27 323.545 352.565 324.138C352.86 324.732 353.007 325.424 353.007 326.217C353.007 327.005 352.86 327.695 352.565 328.285C352.27 328.875 351.855 329.334 351.322 329.662C350.788 329.99 350.163 330.154 349.447 330.154ZM349.452 328.906C349.916 328.906 350.301 328.784 350.606 328.538C350.911 328.293 351.136 327.967 351.282 327.559C351.431 327.151 351.506 326.702 351.506 326.212C351.506 325.724 351.431 325.277 351.282 324.869C351.136 324.458 350.911 324.129 350.606 323.88C350.301 323.631 349.916 323.507 349.452 323.507C348.985 323.507 348.597 323.631 348.289 323.88C347.984 324.129 347.757 324.458 347.608 324.869C347.462 325.277 347.389 325.724 347.389 326.212C347.389 326.702 347.462 327.151 347.608 327.559C347.757 327.967 347.984 328.293 348.289 328.538C348.597 328.784 348.985 328.906 349.452 328.906ZM356.153 325.466V330H354.666V322.364H356.093V323.607H356.188C356.363 323.202 356.638 322.877 357.013 322.632C357.391 322.387 357.866 322.264 358.44 322.264C358.96 322.264 359.416 322.374 359.807 322.592C360.198 322.808 360.501 323.129 360.717 323.557C360.932 323.984 361.04 324.513 361.04 325.143V330H359.553V325.322C359.553 324.768 359.409 324.336 359.121 324.024C358.832 323.709 358.436 323.552 357.933 323.552C357.588 323.552 357.281 323.626 357.013 323.776C356.748 323.925 356.537 324.143 356.381 324.432C356.229 324.717 356.153 325.062 356.153 325.466ZM365.892 330.149C365.276 330.149 364.725 329.992 364.242 329.677C363.761 329.359 363.383 328.906 363.108 328.32C362.836 327.73 362.7 327.022 362.7 326.197C362.7 325.371 362.838 324.665 363.113 324.079C363.391 323.492 363.773 323.043 364.256 322.732C364.74 322.42 365.289 322.264 365.902 322.264C366.376 322.264 366.757 322.344 367.046 322.503C367.337 322.659 367.563 322.841 367.722 323.05C367.884 323.259 368.01 323.442 368.1 323.602H368.189V319.818H369.676V330H368.224V328.812H368.1C368.01 328.974 367.881 329.16 367.712 329.369C367.546 329.577 367.317 329.76 367.026 329.915C366.734 330.071 366.356 330.149 365.892 330.149ZM366.22 328.881C366.648 328.881 367.009 328.769 367.304 328.543C367.602 328.315 367.828 327.998 367.98 327.594C368.136 327.189 368.214 326.719 368.214 326.182C368.214 325.652 368.138 325.187 367.985 324.79C367.833 324.392 367.609 324.082 367.314 323.86C367.019 323.638 366.654 323.527 366.22 323.527C365.773 323.527 365.4 323.643 365.102 323.875C364.803 324.107 364.578 324.424 364.426 324.825C364.276 325.226 364.202 325.678 364.202 326.182C364.202 326.692 364.278 327.151 364.43 327.559C364.583 327.967 364.808 328.29 365.107 328.528C365.408 328.764 365.779 328.881 366.22 328.881ZM374.019 330.169C373.536 330.169 373.098 330.08 372.707 329.901C372.316 329.718 372.006 329.455 371.777 329.11C371.552 328.765 371.439 328.343 371.439 327.842C371.439 327.411 371.522 327.057 371.688 326.778C371.853 326.5 372.077 326.28 372.359 326.117C372.641 325.955 372.956 325.832 373.304 325.749C373.652 325.666 374.006 325.603 374.367 325.56C374.825 325.507 375.196 325.464 375.481 325.431C375.766 325.395 375.973 325.337 376.103 325.257C376.232 325.178 376.296 325.048 376.296 324.869V324.835C376.296 324.4 376.174 324.064 375.929 323.825C375.687 323.587 375.325 323.467 374.845 323.467C374.344 323.467 373.95 323.578 373.661 323.8C373.376 324.019 373.179 324.263 373.07 324.531L371.673 324.213C371.839 323.749 372.081 323.375 372.399 323.089C372.72 322.801 373.09 322.592 373.507 322.463C373.925 322.33 374.364 322.264 374.825 322.264C375.13 322.264 375.453 322.301 375.794 322.374C376.139 322.443 376.46 322.572 376.759 322.761C377.06 322.95 377.307 323.22 377.5 323.572C377.692 323.92 377.788 324.372 377.788 324.929V330H376.336V328.956H376.277C376.18 329.148 376.036 329.337 375.844 329.523C375.652 329.708 375.405 329.862 375.103 329.985C374.802 330.108 374.44 330.169 374.019 330.169ZM374.343 328.976C374.754 328.976 375.105 328.895 375.397 328.732C375.692 328.57 375.915 328.358 376.068 328.096C376.224 327.831 376.301 327.547 376.301 327.246V326.261C376.248 326.314 376.146 326.364 375.993 326.411C375.844 326.454 375.673 326.492 375.481 326.525C375.289 326.555 375.102 326.583 374.919 326.609C374.737 326.633 374.585 326.652 374.462 326.669C374.174 326.705 373.91 326.767 373.671 326.853C373.436 326.939 373.247 327.063 373.105 327.226C372.965 327.385 372.896 327.597 372.896 327.862C372.896 328.23 373.032 328.509 373.304 328.697C373.575 328.883 373.922 328.976 374.343 328.976ZM379.768 330V322.364H381.205V323.577H381.284C381.423 323.166 381.669 322.843 382.02 322.607C382.375 322.369 382.776 322.249 383.223 322.249C383.316 322.249 383.425 322.253 383.551 322.259C383.68 322.266 383.782 322.274 383.854 322.284V323.706C383.795 323.689 383.689 323.671 383.536 323.651C383.384 323.628 383.231 323.616 383.079 323.616C382.728 323.616 382.414 323.691 382.139 323.84C381.868 323.986 381.652 324.19 381.493 324.452C381.334 324.71 381.254 325.005 381.254 325.337V330H379.768ZM386.313 332.864C386.091 332.864 385.889 332.845 385.706 332.809C385.524 332.776 385.388 332.739 385.299 332.7L385.657 331.482C385.928 331.554 386.17 331.586 386.383 331.576C386.595 331.566 386.782 331.487 386.944 331.337C387.11 331.188 387.256 330.945 387.382 330.607L387.566 330.099L384.772 322.364H386.363L388.297 328.29H388.376L390.31 322.364H391.906L388.759 331.019C388.613 331.417 388.428 331.753 388.202 332.028C387.977 332.307 387.708 332.516 387.397 332.655C387.085 332.794 386.724 332.864 386.313 332.864ZM173.341 339.364L170.571 347H168.98L166.206 339.364H167.802L169.736 345.24H169.816L171.745 339.364H173.341ZM177.769 347.154C177.017 347.154 176.369 346.993 175.825 346.672C175.285 346.347 174.867 345.891 174.572 345.305C174.281 344.715 174.135 344.024 174.135 343.232C174.135 342.449 174.281 341.76 174.572 341.163C174.867 340.567 175.278 340.101 175.805 339.766C176.336 339.432 176.955 339.264 177.665 339.264C178.095 339.264 178.513 339.335 178.917 339.478C179.322 339.621 179.685 339.844 180.006 340.149C180.328 340.454 180.581 340.85 180.767 341.337C180.952 341.821 181.045 342.41 181.045 343.102V343.629H174.975V342.516H179.589C179.589 342.125 179.509 341.778 179.35 341.477C179.191 341.172 178.967 340.931 178.679 340.756C178.394 340.58 178.059 340.492 177.675 340.492C177.257 340.492 176.892 340.595 176.581 340.8C176.273 341.003 176.034 341.268 175.865 341.596C175.699 341.921 175.616 342.274 175.616 342.655V343.525C175.616 344.035 175.706 344.469 175.885 344.827C176.067 345.185 176.321 345.459 176.645 345.648C176.97 345.833 177.35 345.926 177.784 345.926C178.066 345.926 178.323 345.886 178.555 345.807C178.787 345.724 178.987 345.601 179.156 345.439C179.325 345.277 179.454 345.076 179.544 344.837L180.951 345.091C180.838 345.505 180.636 345.868 180.344 346.18C180.056 346.488 179.693 346.728 179.256 346.901C178.821 347.07 178.326 347.154 177.769 347.154ZM182.695 347V339.364H184.131V340.577H184.211C184.35 340.166 184.595 339.843 184.947 339.607C185.301 339.369 185.702 339.249 186.15 339.249C186.243 339.249 186.352 339.253 186.478 339.259C186.607 339.266 186.708 339.274 186.781 339.284V340.706C186.722 340.689 186.616 340.671 186.463 340.651C186.311 340.628 186.158 340.616 186.006 340.616C185.654 340.616 185.341 340.691 185.066 340.84C184.794 340.986 184.579 341.19 184.42 341.452C184.261 341.71 184.181 342.005 184.181 342.337V347H182.695ZM188.068 347V339.364H189.554V347H188.068ZM188.818 338.185C188.56 338.185 188.338 338.099 188.152 337.927C187.97 337.751 187.879 337.542 187.879 337.3C187.879 337.055 187.97 336.846 188.152 336.674C188.338 336.498 188.56 336.411 188.818 336.411C189.077 336.411 189.297 336.498 189.48 336.674C189.665 336.846 189.758 337.055 189.758 337.3C189.758 337.542 189.665 337.751 189.48 337.927C189.297 338.099 189.077 338.185 188.818 338.185ZM195.188 339.364V340.557H190.873V339.364H195.188ZM192.056 347V338.479C192.056 338.001 192.161 337.605 192.369 337.29C192.578 336.972 192.855 336.735 193.2 336.58C193.544 336.42 193.919 336.341 194.323 336.341C194.621 336.341 194.877 336.366 195.089 336.415C195.301 336.462 195.458 336.505 195.561 336.545L195.213 337.748C195.143 337.728 195.054 337.705 194.945 337.678C194.835 337.648 194.703 337.634 194.547 337.634C194.186 337.634 193.927 337.723 193.771 337.902C193.619 338.081 193.543 338.339 193.543 338.678V347H192.056ZM196.722 347V339.364H198.208V347H196.722ZM197.473 338.185C197.214 338.185 196.992 338.099 196.806 337.927C196.624 337.751 196.533 337.542 196.533 337.3C196.533 337.055 196.624 336.846 196.806 336.674C196.992 336.498 197.214 336.411 197.473 336.411C197.731 336.411 197.952 336.498 198.134 336.674C198.319 336.846 198.412 337.055 198.412 337.3C198.412 337.542 198.319 337.751 198.134 337.927C197.952 338.099 197.731 338.185 197.473 338.185ZM203.425 347.154C202.686 347.154 202.049 346.987 201.516 346.652C200.985 346.314 200.578 345.848 200.293 345.255C200.008 344.662 199.865 343.982 199.865 343.217C199.865 342.441 200.011 341.757 200.303 341.163C200.594 340.567 201.005 340.101 201.536 339.766C202.066 339.432 202.691 339.264 203.41 339.264C203.99 339.264 204.507 339.372 204.961 339.587C205.415 339.799 205.781 340.098 206.06 340.482C206.342 340.867 206.509 341.316 206.562 341.83H205.115C205.036 341.472 204.853 341.163 204.568 340.905C204.287 340.646 203.909 340.517 203.435 340.517C203.021 340.517 202.658 340.626 202.346 340.845C202.038 341.061 201.798 341.369 201.625 341.77C201.453 342.168 201.367 342.638 201.367 343.182C201.367 343.739 201.451 344.219 201.62 344.624C201.789 345.028 202.028 345.341 202.336 345.563C202.648 345.785 203.014 345.896 203.435 345.896C203.717 345.896 203.972 345.845 204.2 345.742C204.432 345.636 204.626 345.485 204.782 345.29C204.941 345.094 205.052 344.859 205.115 344.584H206.562C206.509 345.078 206.348 345.518 206.08 345.906C205.811 346.294 205.452 346.599 205.001 346.821C204.553 347.043 204.028 347.154 203.425 347.154ZM210.374 347.169C209.89 347.169 209.453 347.08 209.061 346.901C208.67 346.718 208.36 346.455 208.132 346.11C207.906 345.765 207.794 345.343 207.794 344.842C207.794 344.411 207.877 344.057 208.042 343.778C208.208 343.5 208.432 343.28 208.713 343.117C208.995 342.955 209.31 342.832 209.658 342.749C210.006 342.666 210.361 342.603 210.722 342.56C211.179 342.507 211.551 342.464 211.836 342.431C212.121 342.395 212.328 342.337 212.457 342.257C212.586 342.178 212.651 342.048 212.651 341.869V341.835C212.651 341.4 212.528 341.064 212.283 340.825C212.041 340.587 211.68 340.467 211.199 340.467C210.699 340.467 210.304 340.578 210.016 340.8C209.731 341.019 209.534 341.263 209.424 341.531L208.027 341.213C208.193 340.749 208.435 340.375 208.753 340.089C209.075 339.801 209.444 339.592 209.862 339.463C210.279 339.33 210.719 339.264 211.179 339.264C211.484 339.264 211.807 339.301 212.149 339.374C212.493 339.443 212.815 339.572 213.113 339.761C213.415 339.95 213.662 340.22 213.854 340.572C214.046 340.92 214.142 341.372 214.142 341.929V347H212.691V345.956H212.631C212.535 346.148 212.391 346.337 212.199 346.523C212.006 346.708 211.759 346.862 211.458 346.985C211.156 347.108 210.795 347.169 210.374 347.169ZM210.697 345.976C211.108 345.976 211.459 345.895 211.751 345.732C212.046 345.57 212.27 345.358 212.422 345.096C212.578 344.831 212.656 344.547 212.656 344.246V343.261C212.603 343.314 212.5 343.364 212.348 343.411C212.199 343.454 212.028 343.492 211.836 343.525C211.643 343.555 211.456 343.583 211.274 343.609C211.092 343.633 210.939 343.652 210.816 343.669C210.528 343.705 210.265 343.767 210.026 343.853C209.791 343.939 209.602 344.063 209.459 344.226C209.32 344.385 209.25 344.597 209.25 344.862C209.25 345.23 209.386 345.509 209.658 345.697C209.93 345.883 210.276 345.976 210.697 345.976ZM219.687 339.364V340.557H215.516V339.364H219.687ZM216.634 337.534H218.121V344.758C218.121 345.046 218.164 345.263 218.25 345.409C218.336 345.552 218.447 345.649 218.583 345.702C218.722 345.752 218.873 345.777 219.036 345.777C219.155 345.777 219.259 345.769 219.349 345.752C219.438 345.736 219.508 345.722 219.558 345.712L219.826 346.94C219.74 346.973 219.617 347.007 219.458 347.04C219.299 347.076 219.1 347.096 218.862 347.099C218.471 347.106 218.106 347.036 217.768 346.891C217.43 346.745 217.156 346.519 216.948 346.214C216.739 345.91 216.634 345.527 216.634 345.066V337.534ZM221.331 347V339.364H222.818V347H221.331ZM222.082 338.185C221.824 338.185 221.601 338.099 221.416 337.927C221.234 337.751 221.142 337.542 221.142 337.3C221.142 337.055 221.234 336.846 221.416 336.674C221.601 336.498 221.824 336.411 222.082 336.411C222.341 336.411 222.561 336.498 222.743 336.674C222.929 336.846 223.022 337.055 223.022 337.3C223.022 337.542 222.929 337.751 222.743 337.927C222.561 338.099 222.341 338.185 222.082 338.185ZM228.034 347.154C227.318 347.154 226.694 346.99 226.16 346.662C225.626 346.334 225.212 345.875 224.917 345.285C224.622 344.695 224.475 344.005 224.475 343.217C224.475 342.424 224.622 341.732 224.917 341.138C225.212 340.545 225.626 340.085 226.16 339.756C226.694 339.428 227.318 339.264 228.034 339.264C228.75 339.264 229.375 339.428 229.909 339.756C230.442 340.085 230.856 340.545 231.151 341.138C231.446 341.732 231.594 342.424 231.594 343.217C231.594 344.005 231.446 344.695 231.151 345.285C230.856 345.875 230.442 346.334 229.909 346.662C229.375 346.99 228.75 347.154 228.034 347.154ZM228.039 345.906C228.503 345.906 228.888 345.784 229.193 345.538C229.498 345.293 229.723 344.967 229.869 344.559C230.018 344.151 230.093 343.702 230.093 343.212C230.093 342.724 230.018 342.277 229.869 341.869C229.723 341.458 229.498 341.129 229.193 340.88C228.888 340.631 228.503 340.507 228.039 340.507C227.572 340.507 227.184 340.631 226.876 340.88C226.571 341.129 226.344 341.458 226.195 341.869C226.049 342.277 225.976 342.724 225.976 343.212C225.976 343.702 226.049 344.151 226.195 344.559C226.344 344.967 226.571 345.293 226.876 345.538C227.184 345.784 227.572 345.906 228.039 345.906ZM234.74 342.466V347H233.253V339.364H234.68V340.607H234.775C234.95 340.202 235.225 339.877 235.6 339.632C235.978 339.387 236.453 339.264 237.027 339.264C237.547 339.264 238.003 339.374 238.394 339.592C238.785 339.808 239.088 340.129 239.304 340.557C239.519 340.984 239.627 341.513 239.627 342.143V347H238.14V342.322C238.14 341.768 237.996 341.336 237.708 341.024C237.419 340.709 237.023 340.552 236.52 340.552C236.175 340.552 235.868 340.626 235.6 340.776C235.335 340.925 235.124 341.143 234.968 341.432C234.816 341.717 234.74 342.062 234.74 342.466ZM245.325 347V339.364H246.812V347H245.325ZM246.076 338.185C245.818 338.185 245.596 338.099 245.41 337.927C245.228 337.751 245.137 337.542 245.137 337.3C245.137 337.055 245.228 336.846 245.41 336.674C245.596 336.498 245.818 336.411 246.076 336.411C246.335 336.411 246.555 336.498 246.737 336.674C246.923 336.846 247.016 337.055 247.016 337.3C247.016 337.542 246.923 337.751 246.737 337.927C246.555 338.099 246.335 338.185 246.076 338.185ZM254.534 341.228L253.187 341.467C253.13 341.294 253.041 341.13 252.918 340.974C252.799 340.819 252.637 340.691 252.431 340.592C252.226 340.492 251.969 340.442 251.661 340.442C251.24 340.442 250.888 340.537 250.607 340.726C250.325 340.911 250.184 341.152 250.184 341.447C250.184 341.702 250.278 341.907 250.467 342.063C250.656 342.219 250.961 342.347 251.382 342.446L252.595 342.724C253.298 342.887 253.821 343.137 254.166 343.475C254.511 343.813 254.683 344.252 254.683 344.793C254.683 345.25 254.551 345.658 254.286 346.016C254.024 346.37 253.657 346.649 253.187 346.851C252.719 347.053 252.178 347.154 251.561 347.154C250.706 347.154 250.008 346.972 249.468 346.607C248.928 346.239 248.596 345.717 248.474 345.041L249.911 344.822C250 345.197 250.184 345.48 250.462 345.673C250.741 345.862 251.104 345.956 251.551 345.956C252.038 345.956 252.428 345.855 252.719 345.653C253.011 345.447 253.157 345.197 253.157 344.902C253.157 344.663 253.067 344.463 252.888 344.3C252.713 344.138 252.443 344.015 252.078 343.933L250.786 343.649C250.073 343.487 249.546 343.228 249.205 342.874C248.866 342.519 248.697 342.07 248.697 341.526C248.697 341.076 248.823 340.681 249.075 340.343C249.327 340.005 249.675 339.741 250.119 339.553C250.563 339.36 251.072 339.264 251.646 339.264C252.471 339.264 253.121 339.443 253.594 339.801C254.068 340.156 254.382 340.631 254.534 341.228ZM263.239 347.154C262.5 347.154 261.864 346.987 261.33 346.652C260.8 346.314 260.392 345.848 260.107 345.255C259.822 344.662 259.68 343.982 259.68 343.217C259.68 342.441 259.826 341.757 260.117 341.163C260.409 340.567 260.82 340.101 261.35 339.766C261.88 339.432 262.505 339.264 263.224 339.264C263.804 339.264 264.321 339.372 264.776 339.587C265.23 339.799 265.596 340.098 265.874 340.482C266.156 340.867 266.323 341.316 266.376 341.83H264.93C264.85 341.472 264.668 341.163 264.383 340.905C264.101 340.646 263.723 340.517 263.249 340.517C262.835 340.517 262.472 340.626 262.161 340.845C261.852 341.061 261.612 341.369 261.44 341.77C261.267 342.168 261.181 342.638 261.181 343.182C261.181 343.739 261.266 344.219 261.435 344.624C261.604 345.028 261.842 345.341 262.151 345.563C262.462 345.785 262.828 345.896 263.249 345.896C263.531 345.896 263.786 345.845 264.015 345.742C264.247 345.636 264.441 345.485 264.597 345.29C264.756 345.094 264.867 344.859 264.93 344.584H266.376C266.323 345.078 266.163 345.518 265.894 345.906C265.626 346.294 265.266 346.599 264.815 346.821C264.368 347.043 263.843 347.154 263.239 347.154ZM271.183 347.154C270.467 347.154 269.842 346.99 269.308 346.662C268.775 346.334 268.36 345.875 268.066 345.285C267.771 344.695 267.623 344.005 267.623 343.217C267.623 342.424 267.771 341.732 268.066 341.138C268.36 340.545 268.775 340.085 269.308 339.756C269.842 339.428 270.467 339.264 271.183 339.264C271.899 339.264 272.523 339.428 273.057 339.756C273.591 340.085 274.005 340.545 274.3 341.138C274.595 341.732 274.742 342.424 274.742 343.217C274.742 344.005 274.595 344.695 274.3 345.285C274.005 345.875 273.591 346.334 273.057 346.662C272.523 346.99 271.899 347.154 271.183 347.154ZM271.188 345.906C271.652 345.906 272.036 345.784 272.341 345.538C272.646 345.293 272.871 344.967 273.017 344.559C273.166 344.151 273.241 343.702 273.241 343.212C273.241 342.724 273.166 342.277 273.017 341.869C272.871 341.458 272.646 341.129 272.341 340.88C272.036 340.631 271.652 340.507 271.188 340.507C270.72 340.507 270.333 340.631 270.024 340.88C269.719 341.129 269.492 341.458 269.343 341.869C269.197 342.277 269.124 342.724 269.124 343.212C269.124 343.702 269.197 344.151 269.343 344.559C269.492 344.967 269.719 345.293 270.024 345.538C270.333 345.784 270.72 345.906 271.188 345.906ZM276.402 347V339.364H277.828V340.607H277.923C278.082 340.186 278.342 339.857 278.703 339.622C279.065 339.384 279.497 339.264 280.001 339.264C280.511 339.264 280.939 339.384 281.284 339.622C281.632 339.861 281.889 340.189 282.054 340.607H282.134C282.316 340.199 282.606 339.874 283.004 339.632C283.402 339.387 283.876 339.264 284.426 339.264C285.118 339.264 285.684 339.481 286.121 339.915C286.562 340.35 286.782 341.004 286.782 341.879V347H285.296V342.018C285.296 341.501 285.155 341.127 284.873 340.895C284.592 340.663 284.255 340.547 283.864 340.547C283.38 340.547 283.004 340.696 282.735 340.994C282.467 341.289 282.333 341.669 282.333 342.133V347H280.851V341.924C280.851 341.51 280.722 341.177 280.463 340.925C280.205 340.673 279.868 340.547 279.454 340.547C279.172 340.547 278.912 340.621 278.674 340.771C278.438 340.916 278.248 341.12 278.102 341.382C277.959 341.644 277.888 341.947 277.888 342.292V347H276.402ZM288.775 349.864V339.364H290.226V340.602H290.351C290.437 340.442 290.561 340.259 290.724 340.05C290.886 339.841 291.111 339.659 291.4 339.503C291.688 339.344 292.069 339.264 292.543 339.264C293.16 339.264 293.71 339.42 294.194 339.732C294.678 340.043 295.057 340.492 295.332 341.079C295.611 341.665 295.75 342.371 295.75 343.197C295.75 344.022 295.612 344.73 295.337 345.32C295.062 345.906 294.684 346.359 294.204 346.677C293.723 346.992 293.175 347.149 292.558 347.149C292.094 347.149 291.715 347.071 291.42 346.915C291.128 346.76 290.899 346.577 290.733 346.369C290.568 346.16 290.44 345.974 290.351 345.812H290.261V349.864H288.775ZM290.231 343.182C290.231 343.719 290.309 344.189 290.465 344.594C290.621 344.998 290.846 345.315 291.141 345.543C291.436 345.769 291.797 345.881 292.225 345.881C292.669 345.881 293.04 345.764 293.339 345.528C293.637 345.29 293.862 344.967 294.015 344.559C294.171 344.151 294.248 343.692 294.248 343.182C294.248 342.678 294.172 342.226 294.02 341.825C293.871 341.424 293.645 341.107 293.344 340.875C293.045 340.643 292.672 340.527 292.225 340.527C291.794 340.527 291.43 340.638 291.131 340.86C290.836 341.082 290.613 341.392 290.46 341.79C290.308 342.187 290.231 342.652 290.231 343.182ZM298.902 336.818V347H297.415V336.818H298.902ZM304.193 347.154C303.44 347.154 302.792 346.993 302.249 346.672C301.709 346.347 301.291 345.891 300.996 345.305C300.704 344.715 300.559 344.024 300.559 343.232C300.559 342.449 300.704 341.76 300.996 341.163C301.291 340.567 301.702 340.101 302.229 339.766C302.759 339.432 303.379 339.264 304.088 339.264C304.519 339.264 304.937 339.335 305.341 339.478C305.746 339.621 306.109 339.844 306.43 340.149C306.752 340.454 307.005 340.85 307.191 341.337C307.376 341.821 307.469 342.41 307.469 343.102V343.629H301.399V342.516H306.012C306.012 342.125 305.933 341.778 305.774 341.477C305.615 341.172 305.391 340.931 305.103 340.756C304.818 340.58 304.483 340.492 304.098 340.492C303.681 340.492 303.316 340.595 303.005 340.8C302.696 341.003 302.458 341.268 302.289 341.596C302.123 341.921 302.04 342.274 302.04 342.655V343.525C302.04 344.035 302.13 344.469 302.309 344.827C302.491 345.185 302.744 345.459 303.069 345.648C303.394 345.833 303.774 345.926 304.208 345.926C304.489 345.926 304.746 345.886 304.978 345.807C305.21 345.724 305.411 345.601 305.58 345.439C305.749 345.277 305.878 345.076 305.968 344.837L307.375 345.091C307.262 345.505 307.06 345.868 306.768 346.18C306.48 346.488 306.117 346.728 305.679 346.901C305.245 347.07 304.75 347.154 304.193 347.154ZM312.683 339.364V340.557H308.512V339.364H312.683ZM309.631 337.534H311.117V344.758C311.117 345.046 311.16 345.263 311.246 345.409C311.332 345.552 311.443 345.649 311.579 345.702C311.719 345.752 311.869 345.777 312.032 345.777C312.151 345.777 312.256 345.769 312.345 345.752C312.434 345.736 312.504 345.722 312.554 345.712L312.822 346.94C312.736 346.973 312.613 347.007 312.454 347.04C312.295 347.076 312.096 347.096 311.858 347.099C311.467 347.106 311.102 347.036 310.764 346.891C310.426 346.745 310.153 346.519 309.944 346.214C309.735 345.91 309.631 345.527 309.631 345.066V337.534ZM317.537 347.154C316.784 347.154 316.136 346.993 315.593 346.672C315.052 346.347 314.635 345.891 314.34 345.305C314.048 344.715 313.902 344.024 313.902 343.232C313.902 342.449 314.048 341.76 314.34 341.163C314.635 340.567 315.046 340.101 315.573 339.766C316.103 339.432 316.723 339.264 317.432 339.264C317.863 339.264 318.281 339.335 318.685 339.478C319.089 339.621 319.452 339.844 319.774 340.149C320.095 340.454 320.349 340.85 320.534 341.337C320.72 341.821 320.813 342.41 320.813 343.102V343.629H314.743V342.516H319.356C319.356 342.125 319.277 341.778 319.118 341.477C318.958 341.172 318.735 340.931 318.446 340.756C318.161 340.58 317.827 340.492 317.442 340.492C317.025 340.492 316.66 340.595 316.348 340.8C316.04 341.003 315.801 341.268 315.632 341.596C315.467 341.921 315.384 342.274 315.384 342.655V343.525C315.384 344.035 315.473 344.469 315.652 344.827C315.835 345.185 316.088 345.459 316.413 345.648C316.738 345.833 317.117 345.926 317.551 345.926C317.833 345.926 318.09 345.886 318.322 345.807C318.554 345.724 318.755 345.601 318.924 345.439C319.093 345.277 319.222 345.076 319.311 344.837L320.718 345.091C320.606 345.505 320.404 345.868 320.112 346.18C319.824 346.488 319.461 346.728 319.023 346.901C318.589 347.07 318.093 347.154 317.537 347.154ZM325.321 347.149C324.704 347.149 324.154 346.992 323.67 346.677C323.19 346.359 322.812 345.906 322.537 345.32C322.265 344.73 322.129 344.022 322.129 343.197C322.129 342.371 322.267 341.665 322.542 341.079C322.82 340.492 323.201 340.043 323.685 339.732C324.169 339.42 324.718 339.264 325.331 339.264C325.805 339.264 326.186 339.344 326.474 339.503C326.766 339.659 326.991 339.841 327.15 340.05C327.313 340.259 327.439 340.442 327.528 340.602H327.618V336.818H329.104V347H327.653V345.812H327.528C327.439 345.974 327.309 346.16 327.14 346.369C326.975 346.577 326.746 346.76 326.454 346.915C326.163 347.071 325.785 347.149 325.321 347.149ZM325.649 345.881C326.077 345.881 326.438 345.769 326.733 345.543C327.031 345.315 327.256 344.998 327.409 344.594C327.565 344.189 327.643 343.719 327.643 343.182C327.643 342.652 327.566 342.187 327.414 341.79C327.261 341.392 327.038 341.082 326.743 340.86C326.448 340.638 326.083 340.527 325.649 340.527C325.202 340.527 324.829 340.643 324.53 340.875C324.232 341.107 324.007 341.424 323.854 341.825C323.705 342.226 323.631 342.678 323.631 343.182C323.631 343.692 323.707 344.151 323.859 344.559C324.012 344.967 324.237 345.29 324.535 345.528C324.837 345.764 325.208 345.881 325.649 345.881ZM332.205 347.094C331.933 347.094 331.7 346.998 331.504 346.806C331.309 346.611 331.211 346.375 331.211 346.1C331.211 345.828 331.309 345.596 331.504 345.404C331.7 345.209 331.933 345.111 332.205 345.111C332.477 345.111 332.711 345.209 332.906 345.404C333.102 345.596 333.2 345.828 333.2 346.1C333.2 346.282 333.153 346.45 333.06 346.602C332.971 346.751 332.852 346.871 332.702 346.96C332.553 347.05 332.388 347.094 332.205 347.094Z" fill="#7B857F"/>
</svg>
