<svg width="500" height="500" viewBox="0 0 500 500" fill="none" xmlns="http://www.w3.org/2000/svg">
<g opacity="0.25">
<path d="M279.966 151.597H223.256C219.278 151.597 216.053 154.821 216.053 158.799V292.797C216.053 296.775 219.278 300 223.256 300H279.966C283.944 300 287.169 296.775 287.169 292.797V158.799C287.169 154.821 283.944 151.597 279.966 151.597Z" fill="black"/>
<path d="M286.556 176.908H285.908C285.074 176.908 284.398 177.584 284.398 178.418V200.506C284.398 201.339 285.074 202.015 285.908 202.015H286.556C287.39 202.015 288.066 201.339 288.066 200.506V178.418C288.066 177.584 287.39 176.908 286.556 176.908Z" fill="black"/>
<path d="M216.199 181.832H215.086C214.38 181.832 213.809 182.404 213.809 183.109V190.399C213.809 191.104 214.38 191.676 215.086 191.676H216.199C216.904 191.676 217.476 191.104 217.476 190.399V183.109C217.476 182.404 216.904 181.832 216.199 181.832Z" fill="black"/>
<path d="M258.695 150H247.035V150.456H258.695V150Z" fill="black"/>
<path d="M263.511 150H260.975V150.456H263.511V150Z" fill="black"/>
<path d="M278.766 151.597H222.056C218.078 151.597 214.854 154.821 214.854 158.799V292.797C214.854 296.775 218.078 300 222.056 300H278.766C282.744 300 285.969 296.775 285.969 292.797V158.799C285.969 154.821 282.744 151.597 278.766 151.597Z" fill="black"/>
<path d="M283.893 160.045H216.924C216.15 160.045 215.523 160.672 215.523 161.445V290.393C215.523 291.167 216.15 291.794 216.924 291.794H283.893C284.667 291.794 285.294 291.167 285.294 290.393V161.445C285.294 160.672 284.667 160.045 283.893 160.045Z" fill="white"/>
<path opacity="0.05" d="M269.655 166.526H227.319C223.54 166.526 220.477 169.59 220.477 173.369V234.837C220.477 238.616 223.54 241.679 227.319 241.679H269.655C273.434 241.679 276.498 238.616 276.498 234.837V173.369C276.498 169.59 273.434 166.526 269.655 166.526Z" fill="black"/>
<path opacity="0.05" d="M256.832 205.2C256.229 205.2 255.631 205.319 255.073 205.55C254.515 205.781 254.008 206.12 253.581 206.547C253.154 206.974 252.815 207.481 252.584 208.039C252.353 208.597 252.234 209.194 252.234 209.798V251.122C252.234 251.726 252.352 252.325 252.583 252.883C252.814 253.442 253.152 253.949 253.58 254.376C254.007 254.804 254.514 255.143 255.072 255.374C255.63 255.606 256.228 255.725 256.832 255.725H285.302V205.2H256.832Z" fill="black"/>
<path d="M241.415 155.963H198.289C197.857 155.962 197.429 156.047 197.03 156.212C196.63 156.377 196.267 156.619 195.962 156.925C195.656 157.23 195.414 157.593 195.249 157.992C195.084 158.392 194.999 158.82 195 159.252V181.389C195 181.821 195.085 182.249 195.25 182.648C195.416 183.047 195.658 183.41 195.963 183.715C196.269 184.02 196.631 184.263 197.03 184.428C197.429 184.593 197.857 184.678 198.289 184.678H228.738L235.338 188.045V184.674H241.424C242.294 184.671 243.127 184.324 243.742 183.709C244.357 183.093 244.702 182.259 244.703 181.389V159.252C244.703 158.38 244.357 157.543 243.74 156.926C243.123 156.309 242.287 155.963 241.415 155.963Z" fill="#576369"/>
<path d="M238.952 164.333H205.812C205.312 164.333 204.833 164.135 204.48 163.782C204.126 163.428 203.928 162.949 203.928 162.449C203.928 161.95 204.126 161.471 204.48 161.117C204.833 160.764 205.312 160.565 205.812 160.565H238.952C239.452 160.565 239.931 160.764 240.284 161.117C240.637 161.471 240.836 161.95 240.836 162.449C240.836 162.949 240.637 163.428 240.284 163.782C239.931 164.135 239.452 164.333 238.952 164.333ZM205.812 161.008C205.443 161.029 205.096 161.19 204.842 161.458C204.588 161.727 204.447 162.082 204.447 162.452C204.447 162.821 204.588 163.177 204.842 163.445C205.096 163.714 205.443 163.875 205.812 163.895H238.952C239.321 163.875 239.668 163.714 239.922 163.445C240.175 163.177 240.317 162.821 240.317 162.452C240.317 162.082 240.175 161.727 239.922 161.458C239.668 161.19 239.321 161.029 238.952 161.008H205.812Z" fill="white"/>
<path d="M238.953 170.729H216.145C215.67 170.705 215.223 170.5 214.895 170.156C214.567 169.811 214.385 169.354 214.385 168.879C214.385 168.404 214.567 167.947 214.895 167.602C215.223 167.258 215.67 167.053 216.145 167.029H238.953C239.428 167.053 239.875 167.258 240.203 167.602C240.53 167.947 240.713 168.404 240.713 168.879C240.713 169.354 240.53 169.811 240.203 170.156C239.875 170.5 239.428 170.705 238.953 170.729ZM216.145 167.403C215.944 167.392 215.743 167.422 215.555 167.491C215.366 167.56 215.193 167.667 215.047 167.805C214.901 167.943 214.785 168.11 214.705 168.295C214.626 168.479 214.585 168.678 214.585 168.879C214.585 169.08 214.626 169.279 214.705 169.464C214.785 169.648 214.901 169.815 215.047 169.953C215.193 170.091 215.366 170.198 215.555 170.267C215.743 170.336 215.944 170.366 216.145 170.355H238.953C239.154 170.366 239.355 170.336 239.543 170.267C239.732 170.198 239.905 170.091 240.051 169.953C240.197 169.815 240.313 169.648 240.393 169.464C240.472 169.279 240.513 169.08 240.513 168.879C240.513 168.678 240.472 168.479 240.393 168.295C240.313 168.11 240.197 167.943 240.051 167.805C239.905 167.667 239.732 167.56 239.543 167.491C239.355 167.422 239.154 167.392 238.953 167.403H216.145Z" fill="white"/>
<path d="M238.952 177.114H210.948C210.468 177.09 210.016 176.883 209.685 176.535C209.355 176.188 209.17 175.726 209.17 175.246C209.17 174.766 209.355 174.304 209.685 173.956C210.016 173.609 210.468 173.402 210.948 173.378H238.961C239.44 173.402 239.892 173.609 240.223 173.956C240.554 174.304 240.739 174.766 240.739 175.246C240.739 175.726 240.554 176.188 240.223 176.535C239.892 176.883 239.44 177.09 238.961 177.114H238.952ZM210.948 173.788C210.75 173.777 210.551 173.807 210.365 173.875C210.178 173.943 210.008 174.049 209.863 174.185C209.719 174.322 209.604 174.486 209.526 174.669C209.447 174.851 209.407 175.047 209.407 175.246C209.407 175.444 209.447 175.641 209.526 175.823C209.604 176.006 209.719 176.17 209.863 176.307C210.008 176.443 210.178 176.549 210.365 176.617C210.551 176.685 210.75 176.714 210.948 176.703H238.961C239.159 176.714 239.357 176.685 239.544 176.617C239.73 176.549 239.901 176.443 240.045 176.307C240.19 176.17 240.305 176.006 240.383 175.823C240.462 175.641 240.502 175.444 240.502 175.246C240.502 175.047 240.462 174.851 240.383 174.669C240.305 174.486 240.19 174.322 240.045 174.185C239.901 174.049 239.73 173.943 239.544 173.875C239.357 173.807 239.159 173.777 238.961 173.788H210.948Z" fill="white"/>
<path d="M302.48 176.646H253.041C252.169 176.646 251.332 176.992 250.715 177.609C250.098 178.226 249.752 179.062 249.752 179.934V192.629C249.752 193.061 249.837 193.489 250.002 193.888C250.168 194.287 250.41 194.65 250.715 194.955C251.021 195.26 251.383 195.503 251.782 195.668C252.181 195.833 252.609 195.918 253.041 195.918H259.126V199.271L265.722 195.905H302.48C303.352 195.905 304.189 195.558 304.805 194.941C305.422 194.325 305.769 193.488 305.769 192.616V179.934C305.769 179.062 305.422 178.226 304.805 177.609C304.189 176.992 303.352 176.646 302.48 176.646Z" fill="black"/>
<path opacity="0.7" d="M302.48 176.646H253.041C252.169 176.646 251.332 176.992 250.715 177.609C250.098 178.226 249.752 179.062 249.752 179.934V192.629C249.752 193.061 249.837 193.489 250.002 193.888C250.168 194.287 250.41 194.65 250.715 194.955C251.021 195.26 251.383 195.503 251.782 195.668C252.181 195.833 252.609 195.918 253.041 195.918H259.126V199.271L265.722 195.905H302.48C303.352 195.905 304.189 195.558 304.805 194.941C305.422 194.325 305.769 193.488 305.769 192.616V179.934C305.769 179.062 305.422 178.226 304.805 177.609C304.189 176.992 303.352 176.646 302.48 176.646Z" fill="white"/>
<path d="M288.714 184.951H255.573C255.074 184.951 254.595 184.752 254.241 184.399C253.888 184.045 253.689 183.566 253.689 183.067C253.689 182.567 253.888 182.088 254.241 181.734C254.595 181.381 255.074 181.183 255.573 181.183H288.714C289.213 181.183 289.692 181.381 290.046 181.734C290.399 182.088 290.598 182.567 290.598 183.067C290.598 183.566 290.399 184.045 290.046 184.399C289.692 184.752 289.213 184.951 288.714 184.951ZM255.573 181.625C255.191 181.625 254.824 181.777 254.554 182.047C254.284 182.318 254.132 182.684 254.132 183.067C254.132 183.449 254.284 183.816 254.554 184.086C254.824 184.356 255.191 184.508 255.573 184.508H288.714C289.096 184.508 289.463 184.356 289.733 184.086C290.003 183.816 290.155 183.449 290.155 183.067C290.155 182.684 290.003 182.318 289.733 182.047C289.463 181.777 289.096 181.625 288.714 181.625H255.573Z" fill="white"/>
<path d="M278.4 191.341H255.592C255.102 191.341 254.632 191.147 254.285 190.8C253.939 190.454 253.744 189.984 253.744 189.494C253.744 189.004 253.939 188.534 254.285 188.188C254.632 187.841 255.102 187.646 255.592 187.646H278.4C278.89 187.646 279.36 187.841 279.706 188.188C280.053 188.534 280.247 189.004 280.247 189.494C280.247 189.984 280.053 190.454 279.706 190.8C279.36 191.147 278.89 191.341 278.4 191.341ZM255.592 188.016C255.2 188.016 254.824 188.172 254.547 188.449C254.269 188.726 254.114 189.102 254.114 189.494C254.114 189.886 254.269 190.262 254.547 190.539C254.824 190.816 255.2 190.972 255.592 190.972H278.4C278.792 190.972 279.168 190.816 279.445 190.539C279.722 190.262 279.878 189.886 279.878 189.494C279.878 189.102 279.722 188.726 279.445 188.449C279.168 188.172 278.792 188.016 278.4 188.016H255.592Z" fill="white"/>
</g>
<path d="M121.801 321.141V319.818H129.681V321.141H126.504V330H124.973V321.141H121.801ZM132.79 325.466V330H131.303V319.818H132.77V323.607H132.864C133.043 323.196 133.316 322.869 133.684 322.627C134.052 322.385 134.533 322.264 135.126 322.264C135.65 322.264 136.107 322.372 136.498 322.587C136.893 322.803 137.198 323.124 137.413 323.552C137.632 323.976 137.741 324.506 137.741 325.143V330H136.255V325.322C136.255 324.762 136.111 324.327 135.822 324.019C135.534 323.708 135.133 323.552 134.619 323.552C134.268 323.552 133.953 323.626 133.674 323.776C133.399 323.925 133.182 324.143 133.023 324.432C132.867 324.717 132.79 325.062 132.79 325.466ZM139.725 330V322.364H141.211V330H139.725ZM140.476 321.185C140.217 321.185 139.995 321.099 139.809 320.927C139.627 320.751 139.536 320.542 139.536 320.3C139.536 320.055 139.627 319.846 139.809 319.674C139.995 319.498 140.217 319.411 140.476 319.411C140.734 319.411 140.955 319.498 141.137 319.674C141.322 319.846 141.415 320.055 141.415 320.3C141.415 320.542 141.322 320.751 141.137 320.927C140.955 321.099 140.734 321.185 140.476 321.185ZM148.934 324.228L147.586 324.467C147.53 324.294 147.44 324.13 147.318 323.974C147.198 323.819 147.036 323.691 146.831 323.592C146.625 323.492 146.368 323.442 146.06 323.442C145.639 323.442 145.288 323.537 145.006 323.726C144.724 323.911 144.583 324.152 144.583 324.447C144.583 324.702 144.678 324.907 144.867 325.063C145.056 325.219 145.361 325.347 145.782 325.446L146.995 325.724C147.697 325.887 148.221 326.137 148.566 326.475C148.91 326.813 149.083 327.252 149.083 327.793C149.083 328.25 148.95 328.658 148.685 329.016C148.423 329.37 148.057 329.649 147.586 329.851C147.119 330.053 146.577 330.154 145.96 330.154C145.105 330.154 144.408 329.972 143.867 329.607C143.327 329.239 142.996 328.717 142.873 328.041L144.31 327.822C144.399 328.197 144.583 328.48 144.862 328.673C145.14 328.862 145.503 328.956 145.951 328.956C146.438 328.956 146.827 328.855 147.119 328.653C147.411 328.447 147.556 328.197 147.556 327.902C147.556 327.663 147.467 327.463 147.288 327.3C147.112 327.138 146.842 327.015 146.478 326.933L145.185 326.649C144.472 326.487 143.945 326.228 143.604 325.874C143.266 325.519 143.097 325.07 143.097 324.526C143.097 324.076 143.223 323.681 143.475 323.343C143.727 323.005 144.075 322.741 144.519 322.553C144.963 322.36 145.472 322.264 146.045 322.264C146.87 322.264 147.52 322.443 147.994 322.801C148.468 323.156 148.781 323.631 148.934 324.228ZM154.422 332.864V322.364H155.874V323.602H155.998C156.084 323.442 156.209 323.259 156.371 323.05C156.533 322.841 156.759 322.659 157.047 322.503C157.335 322.344 157.717 322.264 158.191 322.264C158.807 322.264 159.357 322.42 159.841 322.732C160.325 323.043 160.705 323.492 160.98 324.079C161.258 324.665 161.397 325.371 161.397 326.197C161.397 327.022 161.26 327.73 160.985 328.32C160.71 328.906 160.332 329.359 159.851 329.677C159.371 329.992 158.822 330.149 158.206 330.149C157.742 330.149 157.362 330.071 157.067 329.915C156.775 329.76 156.547 329.577 156.381 329.369C156.215 329.16 156.088 328.974 155.998 328.812H155.909V332.864H154.422ZM155.879 326.182C155.879 326.719 155.957 327.189 156.112 327.594C156.268 327.998 156.494 328.315 156.789 328.543C157.084 328.769 157.445 328.881 157.872 328.881C158.317 328.881 158.688 328.764 158.986 328.528C159.284 328.29 159.51 327.967 159.662 327.559C159.818 327.151 159.896 326.692 159.896 326.182C159.896 325.678 159.82 325.226 159.667 324.825C159.518 324.424 159.293 324.107 158.991 323.875C158.693 323.643 158.32 323.527 157.872 323.527C157.442 323.527 157.077 323.638 156.779 323.86C156.484 324.082 156.26 324.392 156.108 324.79C155.955 325.187 155.879 325.652 155.879 326.182ZM165.285 330.169C164.801 330.169 164.364 330.08 163.973 329.901C163.581 329.718 163.272 329.455 163.043 329.11C162.818 328.765 162.705 328.343 162.705 327.842C162.705 327.411 162.788 327.057 162.953 326.778C163.119 326.5 163.343 326.28 163.625 326.117C163.906 325.955 164.221 325.832 164.569 325.749C164.917 325.666 165.272 325.603 165.633 325.56C166.09 325.507 166.462 325.464 166.747 325.431C167.032 325.395 167.239 325.337 167.368 325.257C167.497 325.178 167.562 325.048 167.562 324.869V324.835C167.562 324.4 167.439 324.064 167.194 323.825C166.952 323.587 166.591 323.467 166.11 323.467C165.61 323.467 165.215 323.578 164.927 323.8C164.642 324.019 164.445 324.263 164.335 324.531L162.938 324.213C163.104 323.749 163.346 323.375 163.664 323.089C163.986 322.801 164.355 322.592 164.773 322.463C165.191 322.33 165.63 322.264 166.09 322.264C166.395 322.264 166.719 322.301 167.06 322.374C167.405 322.443 167.726 322.572 168.024 322.761C168.326 322.95 168.573 323.22 168.765 323.572C168.957 323.92 169.054 324.372 169.054 324.929V330H167.602V328.956H167.542C167.446 329.148 167.302 329.337 167.11 329.523C166.917 329.708 166.67 329.862 166.369 329.985C166.067 330.108 165.706 330.169 165.285 330.169ZM165.608 328.976C166.019 328.976 166.371 328.895 166.662 328.732C166.957 328.57 167.181 328.358 167.333 328.096C167.489 327.831 167.567 327.547 167.567 327.246V326.261C167.514 326.314 167.411 326.364 167.259 326.411C167.11 326.454 166.939 326.492 166.747 326.525C166.554 326.555 166.367 326.583 166.185 326.609C166.003 326.633 165.85 326.652 165.728 326.669C165.439 326.705 165.176 326.767 164.937 326.853C164.702 326.939 164.513 327.063 164.37 327.226C164.231 327.385 164.161 327.597 164.161 327.862C164.161 328.23 164.297 328.509 164.569 328.697C164.841 328.883 165.187 328.976 165.608 328.976ZM174.235 333.023C173.629 333.023 173.107 332.943 172.669 332.784C172.235 332.625 171.88 332.415 171.605 332.153C171.33 331.891 171.125 331.604 170.989 331.293L172.266 330.766C172.356 330.911 172.475 331.066 172.624 331.228C172.777 331.394 172.982 331.535 173.241 331.651C173.503 331.767 173.839 331.825 174.25 331.825C174.814 331.825 175.279 331.687 175.647 331.412C176.015 331.14 176.199 330.706 176.199 330.109V328.608H176.104C176.015 328.77 175.886 328.951 175.717 329.15C175.551 329.349 175.322 329.521 175.031 329.667C174.739 329.813 174.359 329.886 173.892 329.886C173.289 329.886 172.745 329.745 172.261 329.463C171.781 329.178 171.4 328.759 171.118 328.205C170.84 327.648 170.7 326.964 170.7 326.152C170.7 325.34 170.838 324.644 171.113 324.064C171.391 323.484 171.773 323.04 172.256 322.732C172.74 322.42 173.289 322.264 173.902 322.264C174.376 322.264 174.759 322.344 175.051 322.503C175.342 322.659 175.569 322.841 175.732 323.05C175.897 323.259 176.025 323.442 176.114 323.602H176.224V322.364H177.68V330.169C177.68 330.825 177.528 331.364 177.223 331.785C176.918 332.206 176.506 332.517 175.985 332.719C175.468 332.922 174.885 333.023 174.235 333.023ZM174.22 328.653C174.648 328.653 175.009 328.553 175.304 328.354C175.602 328.152 175.828 327.864 175.98 327.489C176.136 327.112 176.214 326.659 176.214 326.132C176.214 325.618 176.138 325.166 175.985 324.775C175.833 324.384 175.609 324.079 175.314 323.86C175.019 323.638 174.654 323.527 174.22 323.527C173.773 323.527 173.4 323.643 173.102 323.875C172.803 324.104 172.578 324.415 172.426 324.81C172.276 325.204 172.202 325.645 172.202 326.132C172.202 326.633 172.278 327.072 172.43 327.45C172.583 327.827 172.808 328.122 173.107 328.335C173.408 328.547 173.779 328.653 174.22 328.653ZM182.965 330.154C182.213 330.154 181.565 329.993 181.021 329.672C180.481 329.347 180.064 328.891 179.769 328.305C179.477 327.715 179.331 327.024 179.331 326.232C179.331 325.449 179.477 324.76 179.769 324.163C180.064 323.567 180.475 323.101 181.002 322.766C181.532 322.432 182.152 322.264 182.861 322.264C183.292 322.264 183.709 322.335 184.114 322.478C184.518 322.621 184.881 322.844 185.203 323.149C185.524 323.454 185.778 323.85 185.963 324.337C186.149 324.821 186.242 325.41 186.242 326.102V326.629H180.171V325.516H184.785C184.785 325.125 184.705 324.778 184.546 324.477C184.387 324.172 184.163 323.931 183.875 323.756C183.59 323.58 183.255 323.492 182.871 323.492C182.453 323.492 182.089 323.595 181.777 323.8C181.469 324.003 181.23 324.268 181.061 324.596C180.895 324.921 180.813 325.274 180.813 325.655V326.525C180.813 327.035 180.902 327.469 181.081 327.827C181.263 328.185 181.517 328.459 181.842 328.648C182.167 328.833 182.546 328.926 182.98 328.926C183.262 328.926 183.519 328.886 183.751 328.807C183.983 328.724 184.183 328.601 184.352 328.439C184.521 328.277 184.651 328.076 184.74 327.837L186.147 328.091C186.034 328.505 185.832 328.868 185.541 329.18C185.252 329.488 184.889 329.728 184.452 329.901C184.018 330.07 183.522 330.154 182.965 330.154ZM193.252 330L191.004 322.364H192.541L194.037 327.972H194.112L195.613 322.364H197.149L198.641 327.947H198.715L200.202 322.364H201.738L199.496 330H197.979L196.428 324.487H196.314L194.763 330H193.252ZM203.149 330V322.364H204.635V330H203.149ZM203.899 321.185C203.641 321.185 203.419 321.099 203.233 320.927C203.051 320.751 202.96 320.542 202.96 320.3C202.96 320.055 203.051 319.846 203.233 319.674C203.419 319.498 203.641 319.411 203.899 319.411C204.158 319.411 204.378 319.498 204.561 319.674C204.746 319.846 204.839 320.055 204.839 320.3C204.839 320.542 204.746 320.751 204.561 320.927C204.378 321.099 204.158 321.185 203.899 321.185ZM208.122 319.818V330H206.635V319.818H208.122ZM211.608 319.818V330H210.121V319.818H211.608ZM217.432 330V319.818H218.919V323.602H219.008C219.094 323.442 219.219 323.259 219.381 323.05C219.543 322.841 219.769 322.659 220.057 322.503C220.345 322.344 220.727 322.264 221.201 322.264C221.817 322.264 222.367 322.42 222.851 322.732C223.335 323.043 223.715 323.492 223.99 324.079C224.268 324.665 224.407 325.371 224.407 326.197C224.407 327.022 224.27 327.73 223.995 328.32C223.719 328.906 223.342 329.359 222.861 329.677C222.38 329.992 221.832 330.149 221.215 330.149C220.751 330.149 220.372 330.071 220.077 329.915C219.785 329.76 219.557 329.577 219.391 329.369C219.225 329.16 219.098 328.974 219.008 328.812H218.884V330H217.432ZM218.889 326.182C218.889 326.719 218.967 327.189 219.122 327.594C219.278 327.998 219.504 328.315 219.799 328.543C220.094 328.769 220.455 328.881 220.882 328.881C221.326 328.881 221.698 328.764 221.996 328.528C222.294 328.29 222.52 327.967 222.672 327.559C222.828 327.151 222.906 326.692 222.906 326.182C222.906 325.678 222.83 325.226 222.677 324.825C222.528 324.424 222.303 324.107 222.001 323.875C221.703 323.643 221.33 323.527 220.882 323.527C220.451 323.527 220.087 323.638 219.789 323.86C219.494 324.082 219.27 324.392 219.117 324.79C218.965 325.187 218.889 325.652 218.889 326.182ZM229.368 330.154C228.615 330.154 227.967 329.993 227.424 329.672C226.883 329.347 226.466 328.891 226.171 328.305C225.879 327.715 225.733 327.024 225.733 326.232C225.733 325.449 225.879 324.76 226.171 324.163C226.466 323.567 226.877 323.101 227.404 322.766C227.934 322.432 228.554 322.264 229.263 322.264C229.694 322.264 230.112 322.335 230.516 322.478C230.92 322.621 231.283 322.844 231.605 323.149C231.926 323.454 232.18 323.85 232.366 324.337C232.551 324.821 232.644 325.41 232.644 326.102V326.629H226.574V325.516H231.187C231.187 325.125 231.108 324.778 230.949 324.477C230.79 324.172 230.566 323.931 230.277 323.756C229.992 323.58 229.658 323.492 229.273 323.492C228.856 323.492 228.491 323.595 228.179 323.8C227.871 324.003 227.633 324.268 227.464 324.596C227.298 324.921 227.215 325.274 227.215 325.655V326.525C227.215 327.035 227.304 327.469 227.483 327.827C227.666 328.185 227.919 328.459 228.244 328.648C228.569 328.833 228.948 328.926 229.383 328.926C229.664 328.926 229.921 328.886 230.153 328.807C230.385 328.724 230.586 328.601 230.755 328.439C230.924 328.277 231.053 328.076 231.142 327.837L232.549 328.091C232.437 328.505 232.235 328.868 231.943 329.18C231.655 329.488 231.292 329.728 230.854 329.901C230.42 330.07 229.924 330.154 229.368 330.154ZM240.221 330.169C239.737 330.169 239.299 330.08 238.908 329.901C238.517 329.718 238.207 329.455 237.978 329.11C237.753 328.765 237.64 328.343 237.64 327.842C237.64 327.411 237.723 327.057 237.889 326.778C238.055 326.5 238.278 326.28 238.56 326.117C238.842 325.955 239.157 325.832 239.505 325.749C239.853 325.666 240.207 325.603 240.569 325.56C241.026 325.507 241.397 325.464 241.682 325.431C241.967 325.395 242.174 325.337 242.304 325.257C242.433 325.178 242.498 325.048 242.498 324.869V324.835C242.498 324.4 242.375 324.064 242.13 323.825C241.888 323.587 241.526 323.467 241.046 323.467C240.545 323.467 240.151 323.578 239.863 323.8C239.578 324.019 239.38 324.263 239.271 324.531L237.874 324.213C238.04 323.749 238.282 323.375 238.6 323.089C238.921 322.801 239.291 322.592 239.709 322.463C240.126 322.33 240.565 322.264 241.026 322.264C241.331 322.264 241.654 322.301 241.995 322.374C242.34 322.443 242.662 322.572 242.96 322.761C243.262 322.95 243.508 323.22 243.701 323.572C243.893 323.92 243.989 324.372 243.989 324.929V330H242.537V328.956H242.478C242.382 329.148 242.237 329.337 242.045 329.523C241.853 329.708 241.606 329.862 241.304 329.985C241.003 330.108 240.642 330.169 240.221 330.169ZM240.544 328.976C240.955 328.976 241.306 328.895 241.598 328.732C241.893 328.57 242.116 328.358 242.269 328.096C242.425 327.831 242.503 327.547 242.503 327.246V326.261C242.45 326.314 242.347 326.364 242.194 326.411C242.045 326.454 241.874 326.492 241.682 326.525C241.49 326.555 241.303 326.583 241.12 326.609C240.938 326.633 240.786 326.652 240.663 326.669C240.375 326.705 240.111 326.767 239.873 326.853C239.637 326.939 239.448 327.063 239.306 327.226C239.167 327.385 239.097 327.597 239.097 327.862C239.097 328.23 239.233 328.509 239.505 328.697C239.776 328.883 240.123 328.976 240.544 328.976ZM252.228 322.364L249.459 330H247.868L245.094 322.364H246.69L248.624 328.24H248.703L250.632 322.364H252.228ZM255.629 330.169C255.145 330.169 254.707 330.08 254.316 329.901C253.925 329.718 253.615 329.455 253.387 329.11C253.161 328.765 253.049 328.343 253.049 327.842C253.049 327.411 253.131 327.057 253.297 326.778C253.463 326.5 253.687 326.28 253.968 326.117C254.25 325.955 254.565 325.832 254.913 325.749C255.261 325.666 255.616 325.603 255.977 325.56C256.434 325.507 256.805 325.464 257.09 325.431C257.376 325.395 257.583 325.337 257.712 325.257C257.841 325.178 257.906 325.048 257.906 324.869V324.835C257.906 324.4 257.783 324.064 257.538 323.825C257.296 323.587 256.935 323.467 256.454 323.467C255.954 323.467 255.559 323.578 255.271 323.8C254.986 324.019 254.789 324.263 254.679 324.531L253.282 324.213C253.448 323.749 253.69 323.375 254.008 323.089C254.33 322.801 254.699 322.592 255.117 322.463C255.534 322.33 255.974 322.264 256.434 322.264C256.739 322.264 257.062 322.301 257.404 322.374C257.748 322.443 258.07 322.572 258.368 322.761C258.67 322.95 258.917 323.22 259.109 323.572C259.301 323.92 259.397 324.372 259.397 324.929V330H257.946V328.956H257.886C257.79 329.148 257.646 329.337 257.453 329.523C257.261 329.708 257.014 329.862 256.713 329.985C256.411 330.108 256.05 330.169 255.629 330.169ZM255.952 328.976C256.363 328.976 256.714 328.895 257.006 328.732C257.301 328.57 257.525 328.358 257.677 328.096C257.833 327.831 257.911 327.547 257.911 327.246V326.261C257.858 326.314 257.755 326.364 257.603 326.411C257.453 326.454 257.283 326.492 257.09 326.525C256.898 326.555 256.711 326.583 256.529 326.609C256.346 326.633 256.194 326.652 256.071 326.669C255.783 326.705 255.519 326.767 255.281 326.853C255.045 326.939 254.857 327.063 254.714 327.226C254.575 327.385 254.505 327.597 254.505 327.862C254.505 328.23 254.641 328.509 254.913 328.697C255.185 328.883 255.531 328.976 255.952 328.976ZM261.377 330V322.364H262.864V330H261.377ZM262.128 321.185C261.869 321.185 261.647 321.099 261.462 320.927C261.279 320.751 261.188 320.542 261.188 320.3C261.188 320.055 261.279 319.846 261.462 319.674C261.647 319.498 261.869 319.411 262.128 319.411C262.386 319.411 262.607 319.498 262.789 319.674C262.975 319.846 263.068 320.055 263.068 320.3C263.068 320.542 262.975 320.751 262.789 320.927C262.607 321.099 262.386 321.185 262.128 321.185ZM266.35 319.818V330H264.864V319.818H266.35ZM270.572 330.169C270.088 330.169 269.651 330.08 269.26 329.901C268.869 329.718 268.559 329.455 268.33 329.11C268.105 328.765 267.992 328.343 267.992 327.842C267.992 327.411 268.075 327.057 268.241 326.778C268.406 326.5 268.63 326.28 268.912 326.117C269.193 325.955 269.508 325.832 269.856 325.749C270.204 325.666 270.559 325.603 270.92 325.56C271.378 325.507 271.749 325.464 272.034 325.431C272.319 325.395 272.526 325.337 272.655 325.257C272.785 325.178 272.849 325.048 272.849 324.869V324.835C272.849 324.4 272.727 324.064 272.481 323.825C272.239 323.587 271.878 323.467 271.397 323.467C270.897 323.467 270.503 323.578 270.214 323.8C269.929 324.019 269.732 324.263 269.623 324.531L268.226 324.213C268.391 323.749 268.633 323.375 268.951 323.089C269.273 322.801 269.642 322.592 270.06 322.463C270.478 322.33 270.917 322.264 271.378 322.264C271.682 322.264 272.006 322.301 272.347 322.374C272.692 322.443 273.013 322.572 273.312 322.761C273.613 322.95 273.86 323.22 274.052 323.572C274.245 323.92 274.341 324.372 274.341 324.929V330H272.889V328.956H272.829C272.733 329.148 272.589 329.337 272.397 329.523C272.205 329.708 271.958 329.862 271.656 329.985C271.354 330.108 270.993 330.169 270.572 330.169ZM270.895 328.976C271.306 328.976 271.658 328.895 271.949 328.732C272.244 328.57 272.468 328.358 272.62 328.096C272.776 327.831 272.854 327.547 272.854 327.246V326.261C272.801 326.314 272.698 326.364 272.546 326.411C272.397 326.454 272.226 326.492 272.034 326.525C271.842 326.555 271.654 326.583 271.472 326.609C271.29 326.633 271.137 326.652 271.015 326.669C270.726 326.705 270.463 326.767 270.224 326.853C269.989 326.939 269.8 327.063 269.657 327.226C269.518 327.385 269.449 327.597 269.449 327.862C269.449 328.23 269.584 328.509 269.856 328.697C270.128 328.883 270.474 328.976 270.895 328.976ZM276.44 330V319.818H277.926V323.602H278.016C278.102 323.442 278.226 323.259 278.389 323.05C278.551 322.841 278.777 322.659 279.065 322.503C279.353 322.344 279.734 322.264 280.208 322.264C280.825 322.264 281.375 322.42 281.859 322.732C282.343 323.043 282.722 323.492 282.997 324.079C283.276 324.665 283.415 325.371 283.415 326.197C283.415 327.022 283.277 327.73 283.002 328.32C282.727 328.906 282.349 329.359 281.869 329.677C281.388 329.992 280.84 330.149 280.223 330.149C279.759 330.149 279.38 330.071 279.085 329.915C278.793 329.76 278.564 329.577 278.399 329.369C278.233 329.16 278.105 328.974 278.016 328.812H277.892V330H276.44ZM277.897 326.182C277.897 326.719 277.974 327.189 278.13 327.594C278.286 327.998 278.511 328.315 278.806 328.543C279.101 328.769 279.463 328.881 279.89 328.881C280.334 328.881 280.706 328.764 281.004 328.528C281.302 328.29 281.527 327.967 281.68 327.559C281.836 327.151 281.914 326.692 281.914 326.182C281.914 325.678 281.837 325.226 281.685 324.825C281.536 324.424 281.31 324.107 281.009 323.875C280.71 323.643 280.338 323.527 279.89 323.527C279.459 323.527 279.095 323.638 278.796 323.86C278.501 324.082 278.278 324.392 278.125 324.79C277.973 325.187 277.897 325.652 277.897 326.182ZM286.571 319.818V330H285.084V319.818H286.571ZM291.862 330.154C291.109 330.154 290.461 329.993 289.918 329.672C289.378 329.347 288.96 328.891 288.665 328.305C288.373 327.715 288.228 327.024 288.228 326.232C288.228 325.449 288.373 324.76 288.665 324.163C288.96 323.567 289.371 323.101 289.898 322.766C290.428 322.432 291.048 322.264 291.757 322.264C292.188 322.264 292.606 322.335 293.01 322.478C293.415 322.621 293.777 322.844 294.099 323.149C294.42 323.454 294.674 323.85 294.86 324.337C295.045 324.821 295.138 325.41 295.138 326.102V326.629H289.068V325.516H293.681C293.681 325.125 293.602 324.778 293.443 324.477C293.284 324.172 293.06 323.931 292.772 323.756C292.487 323.58 292.152 323.492 291.767 323.492C291.35 323.492 290.985 323.595 290.674 323.8C290.365 324.003 290.127 324.268 289.958 324.596C289.792 324.921 289.709 325.274 289.709 325.655V326.525C289.709 327.035 289.799 327.469 289.978 327.827C290.16 328.185 290.413 328.459 290.738 328.648C291.063 328.833 291.443 328.926 291.877 328.926C292.158 328.926 292.415 328.886 292.647 328.807C292.879 328.724 293.08 328.601 293.249 328.439C293.418 328.277 293.547 328.076 293.637 327.837L295.044 328.091C294.931 328.505 294.729 328.868 294.437 329.18C294.149 329.488 293.786 329.728 293.348 329.901C292.914 330.07 292.419 330.154 291.862 330.154ZM302.715 330.169C302.231 330.169 301.793 330.08 301.402 329.901C301.011 329.718 300.701 329.455 300.473 329.11C300.247 328.765 300.134 328.343 300.134 327.842C300.134 327.411 300.217 327.057 300.383 326.778C300.549 326.5 300.773 326.28 301.054 326.117C301.336 325.955 301.651 325.832 301.999 325.749C302.347 325.666 302.701 325.603 303.063 325.56C303.52 325.507 303.891 325.464 304.176 325.431C304.461 325.395 304.669 325.337 304.798 325.257C304.927 325.178 304.992 325.048 304.992 324.869V324.835C304.992 324.4 304.869 324.064 304.624 323.825C304.382 323.587 304.021 323.467 303.54 323.467C303.04 323.467 302.645 323.578 302.357 323.8C302.072 324.019 301.875 324.263 301.765 324.531L300.368 324.213C300.534 323.749 300.776 323.375 301.094 323.089C301.416 322.801 301.785 322.592 302.203 322.463C302.62 322.33 303.059 322.264 303.52 322.264C303.825 322.264 304.148 322.301 304.49 322.374C304.834 322.443 305.156 322.572 305.454 322.761C305.756 322.95 306.003 323.22 306.195 323.572C306.387 323.92 306.483 324.372 306.483 324.929V330H305.032V328.956H304.972C304.876 329.148 304.732 329.337 304.539 329.523C304.347 329.708 304.1 329.862 303.799 329.985C303.497 330.108 303.136 330.169 302.715 330.169ZM303.038 328.976C303.449 328.976 303.8 328.895 304.092 328.732C304.387 328.57 304.611 328.358 304.763 328.096C304.919 327.831 304.997 327.547 304.997 327.246V326.261C304.944 326.314 304.841 326.364 304.688 326.411C304.539 326.454 304.369 326.492 304.176 326.525C303.984 326.555 303.797 326.583 303.615 326.609C303.432 326.633 303.28 326.652 303.157 326.669C302.869 326.705 302.605 326.767 302.367 326.853C302.131 326.939 301.943 327.063 301.8 327.226C301.661 327.385 301.591 327.597 301.591 327.862C301.591 328.23 301.727 328.509 301.999 328.697C302.271 328.883 302.617 328.976 303.038 328.976ZM312.097 322.364V323.557H307.782V322.364H312.097ZM308.965 330V321.479C308.965 321.001 309.07 320.605 309.278 320.29C309.487 319.972 309.764 319.735 310.109 319.58C310.453 319.42 310.828 319.341 311.232 319.341C311.531 319.341 311.786 319.366 311.998 319.415C312.21 319.462 312.368 319.505 312.47 319.545L312.122 320.748C312.053 320.728 311.963 320.705 311.854 320.678C311.744 320.648 311.612 320.634 311.456 320.634C311.095 320.634 310.836 320.723 310.68 320.902C310.528 321.081 310.452 321.339 310.452 321.678V330H308.965ZM317.196 322.364V323.557H313.025V322.364H317.196ZM314.143 320.534H315.63V327.758C315.63 328.046 315.673 328.263 315.759 328.409C315.845 328.552 315.956 328.649 316.092 328.702C316.231 328.752 316.382 328.777 316.544 328.777C316.664 328.777 316.768 328.769 316.858 328.752C316.947 328.736 317.017 328.722 317.066 328.712L317.335 329.94C317.249 329.973 317.126 330.007 316.967 330.04C316.808 330.076 316.609 330.096 316.37 330.099C315.979 330.106 315.615 330.036 315.277 329.891C314.939 329.745 314.665 329.519 314.456 329.214C314.248 328.91 314.143 328.527 314.143 328.066V320.534ZM322.049 330.154C321.297 330.154 320.649 329.993 320.105 329.672C319.565 329.347 319.148 328.891 318.853 328.305C318.561 327.715 318.415 327.024 318.415 326.232C318.415 325.449 318.561 324.76 318.853 324.163C319.148 323.567 319.559 323.101 320.085 322.766C320.616 322.432 321.236 322.264 321.945 322.264C322.376 322.264 322.793 322.335 323.198 322.478C323.602 322.621 323.965 322.844 324.286 323.149C324.608 323.454 324.862 323.85 325.047 324.337C325.233 324.821 325.326 325.41 325.326 326.102V326.629H319.255V325.516H323.869C323.869 325.125 323.789 324.778 323.63 324.477C323.471 324.172 323.247 323.931 322.959 323.756C322.674 323.58 322.339 323.492 321.955 323.492C321.537 323.492 321.173 323.595 320.861 323.8C320.553 324.003 320.314 324.268 320.145 324.596C319.979 324.921 319.897 325.274 319.897 325.655V326.525C319.897 327.035 319.986 327.469 320.165 327.827C320.347 328.185 320.601 328.459 320.926 328.648C321.251 328.833 321.63 328.926 322.064 328.926C322.346 328.926 322.603 328.886 322.835 328.807C323.067 328.724 323.267 328.601 323.436 328.439C323.605 328.277 323.735 328.076 323.824 327.837L325.231 328.091C325.118 328.505 324.916 328.868 324.625 329.18C324.336 329.488 323.973 329.728 323.536 329.901C323.102 330.07 322.606 330.154 322.049 330.154ZM326.975 330V322.364H328.412V323.577H328.491C328.63 323.166 328.876 322.843 329.227 322.607C329.582 322.369 329.983 322.249 330.43 322.249C330.523 322.249 330.632 322.253 330.758 322.259C330.888 322.266 330.989 322.274 331.062 322.284V323.706C331.002 323.689 330.896 323.671 330.743 323.651C330.591 323.628 330.438 323.616 330.286 323.616C329.935 323.616 329.621 323.691 329.346 323.84C329.075 323.986 328.859 324.19 328.7 324.452C328.541 324.71 328.461 325.005 328.461 325.337V330H326.975ZM336.053 330V322.364H337.48V323.607H337.574C337.733 323.186 337.994 322.857 338.355 322.622C338.716 322.384 339.149 322.264 339.652 322.264C340.163 322.264 340.59 322.384 340.935 322.622C341.283 322.861 341.54 323.189 341.706 323.607H341.785C341.968 323.199 342.258 322.874 342.655 322.632C343.053 322.387 343.527 322.264 344.077 322.264C344.77 322.264 345.335 322.481 345.772 322.915C346.213 323.35 346.434 324.004 346.434 324.879V330H344.947V325.018C344.947 324.501 344.806 324.127 344.525 323.895C344.243 323.663 343.906 323.547 343.515 323.547C343.031 323.547 342.655 323.696 342.387 323.994C342.118 324.289 341.984 324.669 341.984 325.133V330H340.503V324.924C340.503 324.51 340.373 324.177 340.115 323.925C339.856 323.673 339.52 323.547 339.106 323.547C338.824 323.547 338.564 323.621 338.325 323.771C338.09 323.916 337.899 324.12 337.753 324.382C337.611 324.644 337.54 324.947 337.54 325.292V330H336.053ZM351.643 330.154C350.927 330.154 350.302 329.99 349.768 329.662C349.235 329.334 348.82 328.875 348.525 328.285C348.23 327.695 348.083 327.005 348.083 326.217C348.083 325.424 348.23 324.732 348.525 324.138C348.82 323.545 349.235 323.085 349.768 322.756C350.302 322.428 350.927 322.264 351.643 322.264C352.359 322.264 352.983 322.428 353.517 322.756C354.051 323.085 354.465 323.545 354.76 324.138C355.055 324.732 355.202 325.424 355.202 326.217C355.202 327.005 355.055 327.695 354.76 328.285C354.465 328.875 354.051 329.334 353.517 329.662C352.983 329.99 352.359 330.154 351.643 330.154ZM351.648 328.906C352.112 328.906 352.496 328.784 352.801 328.538C353.106 328.293 353.331 327.967 353.477 327.559C353.626 327.151 353.701 326.702 353.701 326.212C353.701 325.724 353.626 325.277 353.477 324.869C353.331 324.458 353.106 324.129 352.801 323.88C352.496 323.631 352.112 323.507 351.648 323.507C351.18 323.507 350.793 323.631 350.484 323.88C350.179 324.129 349.952 324.458 349.803 324.869C349.657 325.277 349.584 325.724 349.584 326.212C349.584 326.702 349.657 327.151 349.803 327.559C349.952 327.967 350.179 328.293 350.484 328.538C350.793 328.784 351.18 328.906 351.648 328.906ZM356.981 330V319.818H358.467V323.602H358.557C358.643 323.442 358.767 323.259 358.93 323.05C359.092 322.841 359.318 322.659 359.606 322.503C359.894 322.344 360.275 322.264 360.749 322.264C361.366 322.264 361.916 322.42 362.4 322.732C362.884 323.043 363.263 323.492 363.538 324.079C363.817 324.665 363.956 325.371 363.956 326.197C363.956 327.022 363.819 327.73 363.543 328.32C363.268 328.906 362.89 329.359 362.41 329.677C361.929 329.992 361.381 330.149 360.764 330.149C360.3 330.149 359.921 330.071 359.626 329.915C359.334 329.76 359.105 329.577 358.94 329.369C358.774 329.16 358.646 328.974 358.557 328.812H358.433V330H356.981ZM358.438 326.182C358.438 326.719 358.515 327.189 358.671 327.594C358.827 327.998 359.052 328.315 359.347 328.543C359.642 328.769 360.004 328.881 360.431 328.881C360.875 328.881 361.247 328.764 361.545 328.528C361.843 328.29 362.069 327.967 362.221 327.559C362.377 327.151 362.455 326.692 362.455 326.182C362.455 325.678 362.378 325.226 362.226 324.825C362.077 324.424 361.851 324.107 361.55 323.875C361.252 323.643 360.879 323.527 360.431 323.527C360 323.527 359.636 323.638 359.337 323.86C359.042 324.082 358.819 324.392 358.666 324.79C358.514 325.187 358.438 325.652 358.438 326.182ZM365.625 330V322.364H367.112V330H365.625ZM366.376 321.185C366.117 321.185 365.895 321.099 365.71 320.927C365.527 320.751 365.436 320.542 365.436 320.3C365.436 320.055 365.527 319.846 365.71 319.674C365.895 319.498 366.117 319.411 366.376 319.411C366.634 319.411 366.855 319.498 367.037 319.674C367.223 319.846 367.316 320.055 367.316 320.3C367.316 320.542 367.223 320.751 367.037 320.927C366.855 321.099 366.634 321.185 366.376 321.185ZM370.598 319.818V330H369.112V319.818H370.598ZM375.889 330.154C375.137 330.154 374.489 329.993 373.945 329.672C373.405 329.347 372.987 328.891 372.692 328.305C372.401 327.715 372.255 327.024 372.255 326.232C372.255 325.449 372.401 324.76 372.692 324.163C372.987 323.567 373.398 323.101 373.925 322.766C374.456 322.432 375.075 322.264 375.785 322.264C376.216 322.264 376.633 322.335 377.038 322.478C377.442 322.621 377.805 322.844 378.126 323.149C378.448 323.454 378.701 323.85 378.887 324.337C379.073 324.821 379.165 325.41 379.165 326.102V326.629H373.095V325.516H377.709C377.709 325.125 377.629 324.778 377.47 324.477C377.311 324.172 377.087 323.931 376.799 323.756C376.514 323.58 376.179 323.492 375.795 323.492C375.377 323.492 375.012 323.595 374.701 323.8C374.393 324.003 374.154 324.268 373.985 324.596C373.819 324.921 373.736 325.274 373.736 325.655V326.525C373.736 327.035 373.826 327.469 374.005 327.827C374.187 328.185 374.441 328.459 374.766 328.648C375.09 328.833 375.47 328.926 375.904 328.926C376.186 328.926 376.443 328.886 376.675 328.807C376.907 328.724 377.107 328.601 377.276 328.439C377.445 328.277 377.574 328.076 377.664 327.837L379.071 328.091C378.958 328.505 378.756 328.868 378.464 329.18C378.176 329.488 377.813 329.728 377.376 329.901C376.941 330.07 376.446 330.154 375.889 330.154ZM173.841 339.364L171.071 347H169.48L166.706 339.364H168.302L170.236 345.24H170.316L172.245 339.364H173.841ZM178.269 347.154C177.517 347.154 176.869 346.993 176.325 346.672C175.785 346.347 175.367 345.891 175.072 345.305C174.781 344.715 174.635 344.024 174.635 343.232C174.635 342.449 174.781 341.76 175.072 341.163C175.367 340.567 175.778 340.101 176.305 339.766C176.836 339.432 177.455 339.264 178.165 339.264C178.595 339.264 179.013 339.335 179.417 339.478C179.822 339.621 180.185 339.844 180.506 340.149C180.828 340.454 181.081 340.85 181.267 341.337C181.452 341.821 181.545 342.41 181.545 343.102V343.629H175.475V342.516H180.089C180.089 342.125 180.009 341.778 179.85 341.477C179.691 341.172 179.467 340.931 179.179 340.756C178.894 340.58 178.559 340.492 178.175 340.492C177.757 340.492 177.392 340.595 177.081 340.8C176.773 341.003 176.534 341.268 176.365 341.596C176.199 341.921 176.116 342.274 176.116 342.655V343.525C176.116 344.035 176.206 344.469 176.385 344.827C176.567 345.185 176.821 345.459 177.145 345.648C177.47 345.833 177.85 345.926 178.284 345.926C178.566 345.926 178.823 345.886 179.055 345.807C179.287 345.724 179.487 345.601 179.656 345.439C179.825 345.277 179.954 345.076 180.044 344.837L181.451 345.091C181.338 345.505 181.136 345.868 180.844 346.18C180.556 346.488 180.193 346.728 179.756 346.901C179.321 347.07 178.826 347.154 178.269 347.154ZM183.195 347V339.364H184.631V340.577H184.711C184.85 340.166 185.095 339.843 185.447 339.607C185.801 339.369 186.202 339.249 186.65 339.249C186.743 339.249 186.852 339.253 186.978 339.259C187.107 339.266 187.208 339.274 187.281 339.284V340.706C187.222 340.689 187.116 340.671 186.963 340.651C186.811 340.628 186.658 340.616 186.506 340.616C186.154 340.616 185.841 340.691 185.566 340.84C185.294 340.986 185.079 341.19 184.92 341.452C184.761 341.71 184.681 342.005 184.681 342.337V347H183.195ZM188.568 347V339.364H190.054V347H188.568ZM189.318 338.185C189.06 338.185 188.838 338.099 188.652 337.927C188.47 337.751 188.379 337.542 188.379 337.3C188.379 337.055 188.47 336.846 188.652 336.674C188.838 336.498 189.06 336.411 189.318 336.411C189.577 336.411 189.797 336.498 189.98 336.674C190.165 336.846 190.258 337.055 190.258 337.3C190.258 337.542 190.165 337.751 189.98 337.927C189.797 338.099 189.577 338.185 189.318 338.185ZM195.688 339.364V340.557H191.373V339.364H195.688ZM192.556 347V338.479C192.556 338.001 192.661 337.605 192.869 337.29C193.078 336.972 193.355 336.735 193.7 336.58C194.044 336.42 194.419 336.341 194.823 336.341C195.121 336.341 195.377 336.366 195.589 336.415C195.801 336.462 195.958 336.505 196.061 336.545L195.713 337.748C195.643 337.728 195.554 337.705 195.445 337.678C195.335 337.648 195.203 337.634 195.047 337.634C194.686 337.634 194.427 337.723 194.271 337.902C194.119 338.081 194.043 338.339 194.043 338.678V347H192.556ZM197.222 347V339.364H198.708V347H197.222ZM197.973 338.185C197.714 338.185 197.492 338.099 197.306 337.927C197.124 337.751 197.033 337.542 197.033 337.3C197.033 337.055 197.124 336.846 197.306 336.674C197.492 336.498 197.714 336.411 197.973 336.411C198.231 336.411 198.452 336.498 198.634 336.674C198.819 336.846 198.912 337.055 198.912 337.3C198.912 337.542 198.819 337.751 198.634 337.927C198.452 338.099 198.231 338.185 197.973 338.185ZM203.925 347.154C203.186 347.154 202.549 346.987 202.016 346.652C201.485 346.314 201.078 345.848 200.793 345.255C200.508 344.662 200.365 343.982 200.365 343.217C200.365 342.441 200.511 341.757 200.803 341.163C201.094 340.567 201.505 340.101 202.036 339.766C202.566 339.432 203.191 339.264 203.91 339.264C204.49 339.264 205.007 339.372 205.461 339.587C205.915 339.799 206.281 340.098 206.56 340.482C206.842 340.867 207.009 341.316 207.062 341.83H205.615C205.536 341.472 205.353 341.163 205.068 340.905C204.787 340.646 204.409 340.517 203.935 340.517C203.521 340.517 203.158 340.626 202.846 340.845C202.538 341.061 202.298 341.369 202.125 341.77C201.953 342.168 201.867 342.638 201.867 343.182C201.867 343.739 201.951 344.219 202.12 344.624C202.289 345.028 202.528 345.341 202.836 345.563C203.148 345.785 203.514 345.896 203.935 345.896C204.217 345.896 204.472 345.845 204.7 345.742C204.932 345.636 205.126 345.485 205.282 345.29C205.441 345.094 205.552 344.859 205.615 344.584H207.062C207.009 345.078 206.848 345.518 206.58 345.906C206.311 346.294 205.952 346.599 205.501 346.821C205.053 347.043 204.528 347.154 203.925 347.154ZM210.874 347.169C210.39 347.169 209.953 347.08 209.561 346.901C209.17 346.718 208.86 346.455 208.632 346.11C208.406 345.765 208.294 345.343 208.294 344.842C208.294 344.411 208.377 344.057 208.542 343.778C208.708 343.5 208.932 343.28 209.213 343.117C209.495 342.955 209.81 342.832 210.158 342.749C210.506 342.666 210.861 342.603 211.222 342.56C211.679 342.507 212.051 342.464 212.336 342.431C212.621 342.395 212.828 342.337 212.957 342.257C213.086 342.178 213.151 342.048 213.151 341.869V341.835C213.151 341.4 213.028 341.064 212.783 340.825C212.541 340.587 212.18 340.467 211.699 340.467C211.199 340.467 210.804 340.578 210.516 340.8C210.231 341.019 210.034 341.263 209.924 341.531L208.527 341.213C208.693 340.749 208.935 340.375 209.253 340.089C209.575 339.801 209.944 339.592 210.362 339.463C210.779 339.33 211.219 339.264 211.679 339.264C211.984 339.264 212.307 339.301 212.649 339.374C212.993 339.443 213.315 339.572 213.613 339.761C213.915 339.95 214.162 340.22 214.354 340.572C214.546 340.92 214.642 341.372 214.642 341.929V347H213.191V345.956H213.131C213.035 346.148 212.891 346.337 212.699 346.523C212.506 346.708 212.259 346.862 211.958 346.985C211.656 347.108 211.295 347.169 210.874 347.169ZM211.197 345.976C211.608 345.976 211.959 345.895 212.251 345.732C212.546 345.57 212.77 345.358 212.922 345.096C213.078 344.831 213.156 344.547 213.156 344.246V343.261C213.103 343.314 213 343.364 212.848 343.411C212.699 343.454 212.528 343.492 212.336 343.525C212.143 343.555 211.956 343.583 211.774 343.609C211.592 343.633 211.439 343.652 211.316 343.669C211.028 343.705 210.765 343.767 210.526 343.853C210.291 343.939 210.102 344.063 209.959 344.226C209.82 344.385 209.75 344.597 209.75 344.862C209.75 345.23 209.886 345.509 210.158 345.697C210.43 345.883 210.776 345.976 211.197 345.976ZM220.187 339.364V340.557H216.016V339.364H220.187ZM217.134 337.534H218.621V344.758C218.621 345.046 218.664 345.263 218.75 345.409C218.836 345.552 218.947 345.649 219.083 345.702C219.222 345.752 219.373 345.777 219.536 345.777C219.655 345.777 219.759 345.769 219.849 345.752C219.938 345.736 220.008 345.722 220.058 345.712L220.326 346.94C220.24 346.973 220.117 347.007 219.958 347.04C219.799 347.076 219.6 347.096 219.362 347.099C218.971 347.106 218.606 347.036 218.268 346.891C217.93 346.745 217.656 346.519 217.448 346.214C217.239 345.91 217.134 345.527 217.134 345.066V337.534ZM221.831 347V339.364H223.318V347H221.831ZM222.582 338.185C222.324 338.185 222.101 338.099 221.916 337.927C221.734 337.751 221.642 337.542 221.642 337.3C221.642 337.055 221.734 336.846 221.916 336.674C222.101 336.498 222.324 336.411 222.582 336.411C222.841 336.411 223.061 336.498 223.243 336.674C223.429 336.846 223.522 337.055 223.522 337.3C223.522 337.542 223.429 337.751 223.243 337.927C223.061 338.099 222.841 338.185 222.582 338.185ZM228.534 347.154C227.818 347.154 227.194 346.99 226.66 346.662C226.126 346.334 225.712 345.875 225.417 345.285C225.122 344.695 224.975 344.005 224.975 343.217C224.975 342.424 225.122 341.732 225.417 341.138C225.712 340.545 226.126 340.085 226.66 339.756C227.194 339.428 227.818 339.264 228.534 339.264C229.25 339.264 229.875 339.428 230.409 339.756C230.942 340.085 231.356 340.545 231.651 341.138C231.946 341.732 232.094 342.424 232.094 343.217C232.094 344.005 231.946 344.695 231.651 345.285C231.356 345.875 230.942 346.334 230.409 346.662C229.875 346.99 229.25 347.154 228.534 347.154ZM228.539 345.906C229.003 345.906 229.388 345.784 229.693 345.538C229.998 345.293 230.223 344.967 230.369 344.559C230.518 344.151 230.593 343.702 230.593 343.212C230.593 342.724 230.518 342.277 230.369 341.869C230.223 341.458 229.998 341.129 229.693 340.88C229.388 340.631 229.003 340.507 228.539 340.507C228.072 340.507 227.684 340.631 227.376 340.88C227.071 341.129 226.844 341.458 226.695 341.869C226.549 342.277 226.476 342.724 226.476 343.212C226.476 343.702 226.549 344.151 226.695 344.559C226.844 344.967 227.071 345.293 227.376 345.538C227.684 345.784 228.072 345.906 228.539 345.906ZM235.24 342.466V347H233.753V339.364H235.18V340.607H235.275C235.45 340.202 235.725 339.877 236.1 339.632C236.478 339.387 236.953 339.264 237.527 339.264C238.047 339.264 238.503 339.374 238.894 339.592C239.285 339.808 239.588 340.129 239.804 340.557C240.019 340.984 240.127 341.513 240.127 342.143V347H238.64V342.322C238.64 341.768 238.496 341.336 238.208 341.024C237.919 340.709 237.523 340.552 237.02 340.552C236.675 340.552 236.368 340.626 236.1 340.776C235.835 340.925 235.624 341.143 235.468 341.432C235.316 341.717 235.24 342.062 235.24 342.466ZM245.825 347V339.364H247.312V347H245.825ZM246.576 338.185C246.318 338.185 246.096 338.099 245.91 337.927C245.728 337.751 245.637 337.542 245.637 337.3C245.637 337.055 245.728 336.846 245.91 336.674C246.096 336.498 246.318 336.411 246.576 336.411C246.835 336.411 247.055 336.498 247.237 336.674C247.423 336.846 247.516 337.055 247.516 337.3C247.516 337.542 247.423 337.751 247.237 337.927C247.055 338.099 246.835 338.185 246.576 338.185ZM255.034 341.228L253.687 341.467C253.63 341.294 253.541 341.13 253.418 340.974C253.299 340.819 253.137 340.691 252.931 340.592C252.726 340.492 252.469 340.442 252.161 340.442C251.74 340.442 251.388 340.537 251.107 340.726C250.825 340.911 250.684 341.152 250.684 341.447C250.684 341.702 250.778 341.907 250.967 342.063C251.156 342.219 251.461 342.347 251.882 342.446L253.095 342.724C253.798 342.887 254.321 343.137 254.666 343.475C255.011 343.813 255.183 344.252 255.183 344.793C255.183 345.25 255.051 345.658 254.786 346.016C254.524 346.37 254.157 346.649 253.687 346.851C253.219 347.053 252.678 347.154 252.061 347.154C251.206 347.154 250.508 346.972 249.968 346.607C249.428 346.239 249.096 345.717 248.974 345.041L250.411 344.822C250.5 345.197 250.684 345.48 250.962 345.673C251.241 345.862 251.604 345.956 252.051 345.956C252.538 345.956 252.928 345.855 253.219 345.653C253.511 345.447 253.657 345.197 253.657 344.902C253.657 344.663 253.567 344.463 253.388 344.3C253.213 344.138 252.943 344.015 252.578 343.933L251.286 343.649C250.573 343.487 250.046 343.228 249.705 342.874C249.366 342.519 249.197 342.07 249.197 341.526C249.197 341.076 249.323 340.681 249.575 340.343C249.827 340.005 250.175 339.741 250.619 339.553C251.063 339.36 251.572 339.264 252.146 339.264C252.971 339.264 253.621 339.443 254.094 339.801C254.568 340.156 254.882 340.631 255.034 341.228ZM263.739 347.154C263 347.154 262.364 346.987 261.83 346.652C261.3 346.314 260.892 345.848 260.607 345.255C260.322 344.662 260.18 343.982 260.18 343.217C260.18 342.441 260.326 341.757 260.617 341.163C260.909 340.567 261.32 340.101 261.85 339.766C262.38 339.432 263.005 339.264 263.724 339.264C264.304 339.264 264.821 339.372 265.276 339.587C265.73 339.799 266.096 340.098 266.374 340.482C266.656 340.867 266.823 341.316 266.876 341.83H265.43C265.35 341.472 265.168 341.163 264.883 340.905C264.601 340.646 264.223 340.517 263.749 340.517C263.335 340.517 262.972 340.626 262.661 340.845C262.352 341.061 262.112 341.369 261.94 341.77C261.767 342.168 261.681 342.638 261.681 343.182C261.681 343.739 261.766 344.219 261.935 344.624C262.104 345.028 262.342 345.341 262.651 345.563C262.962 345.785 263.328 345.896 263.749 345.896C264.031 345.896 264.286 345.845 264.515 345.742C264.747 345.636 264.941 345.485 265.097 345.29C265.256 345.094 265.367 344.859 265.43 344.584H266.876C266.823 345.078 266.663 345.518 266.394 345.906C266.126 346.294 265.766 346.599 265.315 346.821C264.868 347.043 264.343 347.154 263.739 347.154ZM271.683 347.154C270.967 347.154 270.342 346.99 269.808 346.662C269.275 346.334 268.86 345.875 268.566 345.285C268.271 344.695 268.123 344.005 268.123 343.217C268.123 342.424 268.271 341.732 268.566 341.138C268.86 340.545 269.275 340.085 269.808 339.756C270.342 339.428 270.967 339.264 271.683 339.264C272.399 339.264 273.023 339.428 273.557 339.756C274.091 340.085 274.505 340.545 274.8 341.138C275.095 341.732 275.242 342.424 275.242 343.217C275.242 344.005 275.095 344.695 274.8 345.285C274.505 345.875 274.091 346.334 273.557 346.662C273.023 346.99 272.399 347.154 271.683 347.154ZM271.688 345.906C272.152 345.906 272.536 345.784 272.841 345.538C273.146 345.293 273.371 344.967 273.517 344.559C273.666 344.151 273.741 343.702 273.741 343.212C273.741 342.724 273.666 342.277 273.517 341.869C273.371 341.458 273.146 341.129 272.841 340.88C272.536 340.631 272.152 340.507 271.688 340.507C271.22 340.507 270.833 340.631 270.524 340.88C270.219 341.129 269.992 341.458 269.843 341.869C269.697 342.277 269.624 342.724 269.624 343.212C269.624 343.702 269.697 344.151 269.843 344.559C269.992 344.967 270.219 345.293 270.524 345.538C270.833 345.784 271.22 345.906 271.688 345.906ZM276.902 347V339.364H278.328V340.607H278.423C278.582 340.186 278.842 339.857 279.203 339.622C279.565 339.384 279.997 339.264 280.501 339.264C281.011 339.264 281.439 339.384 281.784 339.622C282.132 339.861 282.389 340.189 282.554 340.607H282.634C282.816 340.199 283.106 339.874 283.504 339.632C283.902 339.387 284.376 339.264 284.926 339.264C285.618 339.264 286.184 339.481 286.621 339.915C287.062 340.35 287.282 341.004 287.282 341.879V347H285.796V342.018C285.796 341.501 285.655 341.127 285.373 340.895C285.092 340.663 284.755 340.547 284.364 340.547C283.88 340.547 283.504 340.696 283.235 340.994C282.967 341.289 282.833 341.669 282.833 342.133V347H281.351V341.924C281.351 341.51 281.222 341.177 280.963 340.925C280.705 340.673 280.368 340.547 279.954 340.547C279.672 340.547 279.412 340.621 279.174 340.771C278.938 340.916 278.748 341.12 278.602 341.382C278.459 341.644 278.388 341.947 278.388 342.292V347H276.902ZM289.275 349.864V339.364H290.726V340.602H290.851C290.937 340.442 291.061 340.259 291.224 340.05C291.386 339.841 291.611 339.659 291.9 339.503C292.188 339.344 292.569 339.264 293.043 339.264C293.66 339.264 294.21 339.42 294.694 339.732C295.178 340.043 295.557 340.492 295.832 341.079C296.111 341.665 296.25 342.371 296.25 343.197C296.25 344.022 296.112 344.73 295.837 345.32C295.562 345.906 295.184 346.359 294.704 346.677C294.223 346.992 293.675 347.149 293.058 347.149C292.594 347.149 292.215 347.071 291.92 346.915C291.628 346.76 291.399 346.577 291.233 346.369C291.068 346.16 290.94 345.974 290.851 345.812H290.761V349.864H289.275ZM290.731 343.182C290.731 343.719 290.809 344.189 290.965 344.594C291.121 344.998 291.346 345.315 291.641 345.543C291.936 345.769 292.297 345.881 292.725 345.881C293.169 345.881 293.54 345.764 293.839 345.528C294.137 345.29 294.362 344.967 294.515 344.559C294.671 344.151 294.748 343.692 294.748 343.182C294.748 342.678 294.672 342.226 294.52 341.825C294.371 341.424 294.145 341.107 293.844 340.875C293.545 340.643 293.172 340.527 292.725 340.527C292.294 340.527 291.93 340.638 291.631 340.86C291.336 341.082 291.113 341.392 290.96 341.79C290.808 342.187 290.731 342.652 290.731 343.182ZM299.402 336.818V347H297.915V336.818H299.402ZM304.693 347.154C303.94 347.154 303.292 346.993 302.749 346.672C302.209 346.347 301.791 345.891 301.496 345.305C301.204 344.715 301.059 344.024 301.059 343.232C301.059 342.449 301.204 341.76 301.496 341.163C301.791 340.567 302.202 340.101 302.729 339.766C303.259 339.432 303.879 339.264 304.588 339.264C305.019 339.264 305.437 339.335 305.841 339.478C306.246 339.621 306.609 339.844 306.93 340.149C307.252 340.454 307.505 340.85 307.691 341.337C307.876 341.821 307.969 342.41 307.969 343.102V343.629H301.899V342.516H306.512C306.512 342.125 306.433 341.778 306.274 341.477C306.115 341.172 305.891 340.931 305.603 340.756C305.318 340.58 304.983 340.492 304.598 340.492C304.181 340.492 303.816 340.595 303.505 340.8C303.196 341.003 302.958 341.268 302.789 341.596C302.623 341.921 302.54 342.274 302.54 342.655V343.525C302.54 344.035 302.63 344.469 302.809 344.827C302.991 345.185 303.244 345.459 303.569 345.648C303.894 345.833 304.274 345.926 304.708 345.926C304.989 345.926 305.246 345.886 305.478 345.807C305.71 345.724 305.911 345.601 306.08 345.439C306.249 345.277 306.378 345.076 306.468 344.837L307.875 345.091C307.762 345.505 307.56 345.868 307.268 346.18C306.98 346.488 306.617 346.728 306.179 346.901C305.745 347.07 305.25 347.154 304.693 347.154ZM313.183 339.364V340.557H309.012V339.364H313.183ZM310.131 337.534H311.617V344.758C311.617 345.046 311.66 345.263 311.746 345.409C311.832 345.552 311.943 345.649 312.079 345.702C312.219 345.752 312.369 345.777 312.532 345.777C312.651 345.777 312.756 345.769 312.845 345.752C312.934 345.736 313.004 345.722 313.054 345.712L313.322 346.94C313.236 346.973 313.113 347.007 312.954 347.04C312.795 347.076 312.596 347.096 312.358 347.099C311.967 347.106 311.602 347.036 311.264 346.891C310.926 346.745 310.653 346.519 310.444 346.214C310.235 345.91 310.131 345.527 310.131 345.066V337.534ZM318.037 347.154C317.284 347.154 316.636 346.993 316.093 346.672C315.552 346.347 315.135 345.891 314.84 345.305C314.548 344.715 314.402 344.024 314.402 343.232C314.402 342.449 314.548 341.76 314.84 341.163C315.135 340.567 315.546 340.101 316.073 339.766C316.603 339.432 317.223 339.264 317.932 339.264C318.363 339.264 318.781 339.335 319.185 339.478C319.589 339.621 319.952 339.844 320.274 340.149C320.595 340.454 320.849 340.85 321.034 341.337C321.22 341.821 321.313 342.41 321.313 343.102V343.629H315.243V342.516H319.856C319.856 342.125 319.777 341.778 319.618 341.477C319.458 341.172 319.235 340.931 318.946 340.756C318.661 340.58 318.327 340.492 317.942 340.492C317.525 340.492 317.16 340.595 316.848 340.8C316.54 341.003 316.301 341.268 316.132 341.596C315.967 341.921 315.884 342.274 315.884 342.655V343.525C315.884 344.035 315.973 344.469 316.152 344.827C316.335 345.185 316.588 345.459 316.913 345.648C317.238 345.833 317.617 345.926 318.051 345.926C318.333 345.926 318.59 345.886 318.822 345.807C319.054 345.724 319.255 345.601 319.424 345.439C319.593 345.277 319.722 345.076 319.811 344.837L321.218 345.091C321.106 345.505 320.904 345.868 320.612 346.18C320.324 346.488 319.961 346.728 319.523 346.901C319.089 347.07 318.593 347.154 318.037 347.154ZM325.821 347.149C325.204 347.149 324.654 346.992 324.17 346.677C323.69 346.359 323.312 345.906 323.037 345.32C322.765 344.73 322.629 344.022 322.629 343.197C322.629 342.371 322.767 341.665 323.042 341.079C323.32 340.492 323.701 340.043 324.185 339.732C324.669 339.42 325.218 339.264 325.831 339.264C326.305 339.264 326.686 339.344 326.974 339.503C327.266 339.659 327.491 339.841 327.65 340.05C327.813 340.259 327.939 340.442 328.028 340.602H328.118V336.818H329.604V347H328.153V345.812H328.028C327.939 345.974 327.809 346.16 327.64 346.369C327.475 346.577 327.246 346.76 326.954 346.915C326.663 347.071 326.285 347.149 325.821 347.149ZM326.149 345.881C326.577 345.881 326.938 345.769 327.233 345.543C327.531 345.315 327.756 344.998 327.909 344.594C328.065 344.189 328.143 343.719 328.143 343.182C328.143 342.652 328.066 342.187 327.914 341.79C327.761 341.392 327.538 341.082 327.243 340.86C326.948 340.638 326.583 340.527 326.149 340.527C325.702 340.527 325.329 340.643 325.03 340.875C324.732 341.107 324.507 341.424 324.354 341.825C324.205 342.226 324.131 342.678 324.131 343.182C324.131 343.692 324.207 344.151 324.359 344.559C324.512 344.967 324.737 345.29 325.035 345.528C325.337 345.764 325.708 345.881 326.149 345.881ZM332.705 347.094C332.433 347.094 332.2 346.998 332.004 346.806C331.809 346.611 331.711 346.375 331.711 346.1C331.711 345.828 331.809 345.596 332.004 345.404C332.2 345.209 332.433 345.111 332.705 345.111C332.977 345.111 333.211 345.209 333.406 345.404C333.602 345.596 333.7 345.828 333.7 346.1C333.7 346.282 333.653 346.45 333.56 346.602C333.471 346.751 333.352 346.871 333.202 346.96C333.053 347.05 332.888 347.094 332.705 347.094Z" fill="#7B857F"/>
</svg>
