<svg width="500" height="500" viewBox="0 0 500 500" fill="none" xmlns="http://www.w3.org/2000/svg">
<g opacity="0.25">
<path d="M178.367 167.696L133.002 199.454L177.686 269.36L223.051 237.602L178.367 167.696Z" fill="#D8D8D8"/>
<path d="M199.609 234.296L199.096 237.631L176.543 234.229L177.056 230.895L199.609 234.296Z" fill="#8E8E8E"/>
<path d="M188.251 222.402L191.485 222.889L187.899 246.127L184.66 245.636L188.251 222.402Z" fill="#8E8E8E"/>
<path d="M167.499 192.869C167.531 192.915 162.986 196.161 157.346 200.104C151.706 204.048 147.109 207.213 147.076 207.162C147.044 207.111 151.589 203.87 157.229 199.922C162.869 195.975 167.446 192.818 167.499 192.869Z" fill="#8E8E8E"/>
<path d="M184.164 188.484C184.196 188.535 176.635 193.883 167.279 200.433C157.923 206.983 150.298 212.251 150.273 212.204C150.249 212.158 157.794 206.801 167.162 200.251C176.53 193.701 184.131 188.433 184.164 188.484Z" fill="#8E8E8E"/>
<path d="M187.507 193.713C187.54 193.764 179.979 199.117 170.623 205.667C161.267 212.217 153.642 217.484 153.617 217.434C153.593 217.383 161.146 212.035 170.506 205.48C179.866 198.926 187.475 193.662 187.507 193.713Z" fill="#8E8E8E"/>
<path d="M190.852 198.948C190.884 198.998 183.324 204.351 173.968 210.897C164.612 217.442 156.986 222.719 156.986 222.668C156.986 222.617 164.511 217.265 173.871 210.715C183.231 204.165 190.82 198.897 190.852 198.948Z" fill="#8E8E8E"/>
<path d="M194.183 204.182C194.215 204.233 186.655 209.581 177.299 216.131C167.943 222.681 160.317 227.949 160.297 227.898C160.277 227.847 167.833 222.499 177.202 215.949C186.57 209.399 194.183 204.131 194.183 204.182Z" fill="#8E8E8E"/>
<path d="M330.064 214.539L291.965 241.21L329.491 299.918L367.591 273.247L330.064 214.539Z" fill="#D8D8D8"/>
<path d="M347.906 270.482L347.474 273.283L328.531 270.427L328.968 267.626L347.906 270.482Z" fill="#8E8E8E"/>
<path d="M338.366 260.491L341.083 260.902L338.071 280.416L335.35 280.006L338.366 260.491Z" fill="#8E8E8E"/>
<path d="M320.921 235.709C320.953 235.76 317.141 238.489 312.402 241.802C307.663 245.115 303.798 247.764 303.766 247.726C303.733 247.688 307.55 244.95 312.285 241.633C317.019 238.316 320.889 235.637 320.921 235.709Z" fill="#8E8E8E"/>
<path d="M334.93 232.007C334.963 232.058 328.619 236.56 320.779 242.056C312.939 247.553 306.523 251.979 306.49 251.928C306.458 251.877 312.802 247.375 320.642 241.875C328.481 236.374 334.886 231.956 334.93 232.007Z" fill="#8E8E8E"/>
<path d="M337.741 236.399C337.773 236.45 331.429 240.952 323.59 246.452C315.75 251.953 309.333 256.37 309.301 256.32C309.269 256.269 315.592 251.788 323.452 246.287C331.312 240.787 337.716 236.352 337.741 236.399Z" fill="#8E8E8E"/>
<path d="M340.547 240.786C340.58 240.837 334.232 245.339 326.396 250.84C318.56 256.341 312.14 260.758 312.108 260.707C312.075 260.656 318.419 256.159 326.259 250.654C334.098 245.149 340.519 240.744 340.547 240.786Z" fill="#8E8E8E"/>
<path d="M343.377 245.191C343.41 245.242 337.066 249.739 329.226 255.24C321.387 260.741 314.97 265.158 314.938 265.112C314.905 265.065 321.249 260.559 329.089 255.058C336.929 249.558 343.325 245.14 343.377 245.191Z" fill="#8E8E8E"/>
<path d="M269.788 170.268L228.217 147L195.478 211.059L237.049 234.328L269.788 170.268Z" fill="#D8D8D8"/>
<path d="M229.931 214.287L227.295 215.23L220.6 195.864L223.24 194.916L229.931 214.287Z" fill="#8E8E8E"/>
<path d="M233.976 200.391L234.938 203.171L216.558 209.759L215.596 206.979L233.976 200.391Z" fill="#8E8E8E"/>
<path d="M247.035 171.817C247.002 171.881 242.789 169.588 237.618 166.698C232.447 163.808 228.286 161.409 228.319 161.345C228.351 161.282 232.568 163.575 237.739 166.465C242.91 169.355 247.067 171.75 247.035 171.817Z" fill="#8E8E8E"/>
<path d="M257.013 183.339C256.98 183.402 250.002 179.56 241.426 174.762C232.851 169.964 225.929 166.02 225.961 165.957C225.993 165.893 232.968 169.731 241.544 174.534C250.119 179.336 257.045 183.275 257.013 183.339Z" fill="#8E8E8E"/>
<path d="M254.566 188.134C254.533 188.197 247.555 184.359 238.979 179.557C230.403 174.755 223.481 170.815 223.514 170.752C223.546 170.688 230.521 174.53 239.096 179.328C247.672 184.127 254.598 188.07 254.566 188.134Z" fill="#8E8E8E"/>
<path d="M252.112 192.927C252.08 192.99 245.101 189.152 236.526 184.354C227.95 179.556 221.028 175.625 221.061 175.549C221.093 175.473 228.068 179.323 236.643 184.121C245.219 188.92 252.145 192.863 252.112 192.927Z" fill="#8E8E8E"/>
<path d="M249.665 197.721C249.633 197.785 242.654 193.947 234.079 189.149C225.503 184.351 218.577 180.407 218.613 180.344C218.65 180.28 225.62 184.118 234.196 188.916C242.772 193.714 249.698 197.658 249.665 197.721Z" fill="#8E8E8E"/>
<path d="M210.352 212.654L196.04 289.578L194.18 299.649L289.599 299.166C293.885 299.145 297.686 295.163 299.056 289.248L315.981 216.627C317.028 212.138 314.732 207.466 311.481 207.471L214.881 207.576C212.778 207.572 210.894 209.654 210.352 212.654Z" fill="#757575"/>
<g opacity="0.5">
<path d="M210.352 212.654L196.04 289.578L194.18 299.649L289.599 299.166C293.885 299.145 297.686 295.163 299.056 289.248L315.981 216.627C317.028 212.138 314.732 207.466 311.481 207.471L214.881 207.576C212.778 207.572 210.894 209.654 210.352 212.654Z" fill="black"/>
</g>
<path d="M280.458 284.357L270.35 199.135C269.946 195.645 267.281 193.038 264.14 193.051L241.983 193.123C241.159 193.132 240.347 193.318 239.594 193.667C238.841 194.016 238.164 194.522 237.604 195.154L227.092 206.862L165.473 207.209C161.709 207.23 158.814 210.962 159.312 215.151L168.696 293.915C169.1 297.402 171.765 300.004 174.898 300L282.306 299.776C294.265 300.034 295.41 296.34 295.41 296.34C281.679 299.518 280.458 284.378 280.458 284.357Z" fill="#757575"/>
<g opacity="0.5">
<path d="M234.144 267.313L230.521 271.384L202.623 245.116L206.246 241.046L234.144 267.313Z" fill="white"/>
<path d="M229.005 240.145L233.008 243.915L207.767 272.285L203.76 268.515L229.005 240.145Z" fill="white"/>
</g>
</g>
<path d="M128.189 323.129H126.637C126.578 322.798 126.467 322.506 126.304 322.254C126.142 322.002 125.943 321.789 125.708 321.613C125.472 321.437 125.209 321.305 124.917 321.215C124.629 321.126 124.322 321.081 123.998 321.081C123.411 321.081 122.886 321.228 122.422 321.523C121.961 321.818 121.596 322.251 121.328 322.821C121.063 323.391 120.93 324.087 120.93 324.909C120.93 325.738 121.063 326.437 121.328 327.007C121.596 327.577 121.962 328.008 122.426 328.3C122.891 328.591 123.413 328.737 123.993 328.737C124.314 328.737 124.619 328.694 124.907 328.608C125.199 328.518 125.462 328.388 125.698 328.215C125.933 328.043 126.132 327.832 126.294 327.584C126.46 327.332 126.574 327.044 126.637 326.719L128.189 326.724C128.106 327.224 127.945 327.685 127.706 328.106C127.471 328.523 127.168 328.885 126.797 329.19C126.429 329.491 126.008 329.725 125.534 329.891C125.06 330.056 124.543 330.139 123.983 330.139C123.101 330.139 122.315 329.93 121.626 329.513C120.937 329.092 120.393 328.49 119.995 327.708C119.601 326.926 119.404 325.993 119.404 324.909C119.404 323.822 119.603 322.889 120 322.11C120.398 321.328 120.942 320.728 121.631 320.31C122.32 319.889 123.104 319.679 123.983 319.679C124.523 319.679 125.027 319.757 125.494 319.913C125.965 320.065 126.387 320.29 126.762 320.589C127.136 320.884 127.446 321.245 127.691 321.673C127.937 322.097 128.102 322.582 128.189 323.129ZM134.745 326.833V322.364H136.236V330H134.775V328.678H134.695C134.519 329.085 134.238 329.425 133.85 329.697C133.465 329.965 132.987 330.099 132.413 330.099C131.923 330.099 131.488 329.992 131.111 329.776C130.736 329.558 130.441 329.234 130.226 328.807C130.014 328.379 129.907 327.851 129.907 327.221V322.364H131.394V327.042C131.394 327.562 131.538 327.977 131.827 328.285C132.115 328.593 132.489 328.747 132.95 328.747C133.229 328.747 133.505 328.678 133.78 328.538C134.059 328.399 134.289 328.189 134.471 327.907C134.657 327.625 134.748 327.267 134.745 326.833ZM138.234 330V322.364H139.67V323.577H139.75C139.889 323.166 140.134 322.843 140.486 322.607C140.84 322.369 141.241 322.249 141.689 322.249C141.782 322.249 141.891 322.253 142.017 322.259C142.146 322.266 142.247 322.274 142.32 322.284V323.706C142.261 323.689 142.155 323.671 142.002 323.651C141.85 323.628 141.697 323.616 141.545 323.616C141.193 323.616 140.88 323.691 140.605 323.84C140.333 323.986 140.118 324.19 139.959 324.452C139.8 324.71 139.72 325.005 139.72 325.337V330H138.234ZM143.607 330V322.364H145.044V323.577H145.123C145.262 323.166 145.508 322.843 145.859 322.607C146.213 322.369 146.615 322.249 147.062 322.249C147.155 322.249 147.264 322.253 147.39 322.259C147.519 322.266 147.62 322.274 147.693 322.284V323.706C147.634 323.689 147.528 323.671 147.375 323.651C147.223 323.628 147.07 323.616 146.918 323.616C146.566 323.616 146.253 323.691 145.978 323.84C145.706 323.986 145.491 324.19 145.332 324.452C145.173 324.71 145.093 325.005 145.093 325.337V330H143.607ZM151.998 330.154C151.245 330.154 150.597 329.993 150.054 329.672C149.513 329.347 149.096 328.891 148.801 328.305C148.509 327.715 148.363 327.024 148.363 326.232C148.363 325.449 148.509 324.76 148.801 324.163C149.096 323.567 149.507 323.101 150.034 322.766C150.564 322.432 151.184 322.264 151.893 322.264C152.324 322.264 152.742 322.335 153.146 322.478C153.55 322.621 153.913 322.844 154.235 323.149C154.556 323.454 154.81 323.85 154.995 324.337C155.181 324.821 155.274 325.41 155.274 326.102V326.629H149.203V325.516H153.817C153.817 325.125 153.738 324.778 153.578 324.477C153.419 324.172 153.196 323.931 152.907 323.756C152.622 323.58 152.288 323.492 151.903 323.492C151.485 323.492 151.121 323.595 150.809 323.8C150.501 324.003 150.262 324.268 150.093 324.596C149.928 324.921 149.845 325.274 149.845 325.655V326.525C149.845 327.035 149.934 327.469 150.113 327.827C150.296 328.185 150.549 328.459 150.874 328.648C151.199 328.833 151.578 328.926 152.012 328.926C152.294 328.926 152.551 328.886 152.783 328.807C153.015 328.724 153.216 328.601 153.385 328.439C153.554 328.277 153.683 328.076 153.772 327.837L155.179 328.091C155.067 328.505 154.864 328.868 154.573 329.18C154.284 329.488 153.922 329.728 153.484 329.901C153.05 330.07 152.554 330.154 151.998 330.154ZM158.41 325.466V330H156.923V322.364H158.35V323.607H158.444C158.62 323.202 158.895 322.877 159.27 322.632C159.648 322.387 160.123 322.264 160.697 322.264C161.217 322.264 161.673 322.374 162.064 322.592C162.455 322.808 162.758 323.129 162.974 323.557C163.189 323.984 163.297 324.513 163.297 325.143V330H161.81V325.322C161.81 324.768 161.666 324.336 161.378 324.024C161.089 323.709 160.693 323.552 160.189 323.552C159.845 323.552 159.538 323.626 159.27 323.776C159.005 323.925 158.794 324.143 158.638 324.432C158.486 324.717 158.41 325.062 158.41 325.466ZM168.855 322.364V323.557H164.684V322.364H168.855ZM165.802 320.534H167.289V327.758C167.289 328.046 167.332 328.263 167.418 328.409C167.504 328.552 167.615 328.649 167.751 328.702C167.89 328.752 168.041 328.777 168.204 328.777C168.323 328.777 168.427 328.769 168.517 328.752C168.606 328.736 168.676 328.722 168.726 328.712L168.994 329.94C168.908 329.973 168.785 330.007 168.626 330.04C168.467 330.076 168.268 330.096 168.03 330.099C167.639 330.106 167.274 330.036 166.936 329.891C166.598 329.745 166.324 329.519 166.116 329.214C165.907 328.91 165.802 328.527 165.802 328.066V320.534ZM172.15 319.818V330H170.663V319.818H172.15ZM175.089 332.864C174.867 332.864 174.665 332.845 174.483 332.809C174.3 332.776 174.165 332.739 174.075 332.7L174.433 331.482C174.705 331.554 174.947 331.586 175.159 331.576C175.371 331.566 175.558 331.487 175.721 331.337C175.886 331.188 176.032 330.945 176.158 330.607L176.342 330.099L173.548 322.364H175.139L177.073 328.29H177.153L179.086 322.364H180.682L177.535 331.019C177.39 331.417 177.204 331.753 176.979 332.028C176.753 332.307 176.485 332.516 176.173 332.655C175.862 332.794 175.5 332.864 175.089 332.864ZM183.535 328.608L183.46 329.15C183.411 329.548 183.326 329.962 183.207 330.393C183.091 330.827 182.97 331.23 182.844 331.601C182.721 331.972 182.62 332.267 182.54 332.486H181.487C181.53 332.28 181.589 332.002 181.665 331.651C181.742 331.303 181.816 330.913 181.889 330.482C181.962 330.051 182.017 329.612 182.053 329.165L182.103 328.608H183.535ZM192.74 322.364V323.557H188.569V322.364H192.74ZM189.687 320.534H191.174V327.758C191.174 328.046 191.217 328.263 191.303 328.409C191.389 328.552 191.5 328.649 191.636 328.702C191.775 328.752 191.926 328.777 192.088 328.777C192.208 328.777 192.312 328.769 192.402 328.752C192.491 328.736 192.561 328.722 192.61 328.712L192.879 329.94C192.793 329.973 192.67 330.007 192.511 330.04C192.352 330.076 192.153 330.096 191.914 330.099C191.523 330.106 191.159 330.036 190.821 329.891C190.483 329.745 190.209 329.519 190 329.214C189.792 328.91 189.687 328.527 189.687 328.066V320.534ZM196.035 325.466V330H194.548V319.818H196.015V323.607H196.109C196.288 323.196 196.562 322.869 196.93 322.627C197.297 322.385 197.778 322.264 198.371 322.264C198.895 322.264 199.352 322.372 199.743 322.587C200.138 322.803 200.443 323.124 200.658 323.552C200.877 323.976 200.986 324.506 200.986 325.143V330H199.5V325.322C199.5 324.762 199.356 324.327 199.067 324.019C198.779 323.708 198.378 323.552 197.864 323.552C197.513 323.552 197.198 323.626 196.92 323.776C196.644 323.925 196.427 324.143 196.268 324.432C196.113 324.717 196.035 325.062 196.035 325.466ZM206.261 330.154C205.509 330.154 204.861 329.993 204.317 329.672C203.777 329.347 203.359 328.891 203.064 328.305C202.773 327.715 202.627 327.024 202.627 326.232C202.627 325.449 202.773 324.76 203.064 324.163C203.359 323.567 203.77 323.101 204.297 322.766C204.828 322.432 205.448 322.264 206.157 322.264C206.588 322.264 207.005 322.335 207.41 322.478C207.814 322.621 208.177 322.844 208.498 323.149C208.82 323.454 209.073 323.85 209.259 324.337C209.445 324.821 209.537 325.41 209.537 326.102V326.629H203.467V325.516H208.081C208.081 325.125 208.001 324.778 207.842 324.477C207.683 324.172 207.459 323.931 207.171 323.756C206.886 323.58 206.551 323.492 206.167 323.492C205.749 323.492 205.385 323.595 205.073 323.8C204.765 324.003 204.526 324.268 204.357 324.596C204.191 324.921 204.108 325.274 204.108 325.655V326.525C204.108 327.035 204.198 327.469 204.377 327.827C204.559 328.185 204.813 328.459 205.138 328.648C205.462 328.833 205.842 328.926 206.276 328.926C206.558 328.926 206.815 328.886 207.047 328.807C207.279 328.724 207.479 328.601 207.648 328.439C207.817 328.277 207.947 328.076 208.036 327.837L209.443 328.091C209.33 328.505 209.128 328.868 208.836 329.18C208.548 329.488 208.185 329.728 207.748 329.901C207.314 330.07 206.818 330.154 206.261 330.154ZM211.187 330V322.364H212.624V323.577H212.703C212.842 323.166 213.088 322.843 213.439 322.607C213.794 322.369 214.195 322.249 214.642 322.249C214.735 322.249 214.844 322.253 214.97 322.259C215.099 322.266 215.201 322.274 215.273 322.284V323.706C215.214 323.689 215.108 323.671 214.955 323.651C214.803 323.628 214.65 323.616 214.498 323.616C214.147 323.616 213.833 323.691 213.558 323.84C213.286 323.986 213.071 324.19 212.912 324.452C212.753 324.71 212.673 325.005 212.673 325.337V330H211.187ZM219.578 330.154C218.825 330.154 218.177 329.993 217.634 329.672C217.093 329.347 216.676 328.891 216.381 328.305C216.089 327.715 215.943 327.024 215.943 326.232C215.943 325.449 216.089 324.76 216.381 324.163C216.676 323.567 217.087 323.101 217.614 322.766C218.144 322.432 218.764 322.264 219.473 322.264C219.904 322.264 220.322 322.335 220.726 322.478C221.13 322.621 221.493 322.844 221.815 323.149C222.136 323.454 222.39 323.85 222.575 324.337C222.761 324.821 222.854 325.41 222.854 326.102V326.629H216.784V325.516H221.397C221.397 325.125 221.318 324.778 221.159 324.477C220.999 324.172 220.776 323.931 220.487 323.756C220.202 323.58 219.868 323.492 219.483 323.492C219.066 323.492 218.701 323.595 218.389 323.8C218.081 324.003 217.843 324.268 217.673 324.596C217.508 324.921 217.425 325.274 217.425 325.655V326.525C217.425 327.035 217.514 327.469 217.693 327.827C217.876 328.185 218.129 328.459 218.454 328.648C218.779 328.833 219.158 328.926 219.593 328.926C219.874 328.926 220.131 328.886 220.363 328.807C220.595 328.724 220.796 328.601 220.965 328.439C221.134 328.277 221.263 328.076 221.352 327.837L222.759 328.091C222.647 328.505 222.445 328.868 222.153 329.18C221.865 329.488 221.502 329.728 221.064 329.901C220.63 330.07 220.134 330.154 219.578 330.154ZM230.431 330.169C229.947 330.169 229.509 330.08 229.118 329.901C228.727 329.718 228.417 329.455 228.188 329.11C227.963 328.765 227.85 328.343 227.85 327.842C227.85 327.411 227.933 327.057 228.099 326.778C228.265 326.5 228.488 326.28 228.77 326.117C229.052 325.955 229.367 325.832 229.715 325.749C230.063 325.666 230.417 325.603 230.779 325.56C231.236 325.507 231.607 325.464 231.892 325.431C232.177 325.395 232.384 325.337 232.514 325.257C232.643 325.178 232.708 325.048 232.708 324.869V324.835C232.708 324.4 232.585 324.064 232.34 323.825C232.098 323.587 231.736 323.467 231.256 323.467C230.755 323.467 230.361 323.578 230.073 323.8C229.788 324.019 229.59 324.263 229.481 324.531L228.084 324.213C228.25 323.749 228.492 323.375 228.81 323.089C229.131 322.801 229.501 322.592 229.919 322.463C230.336 322.33 230.775 322.264 231.236 322.264C231.541 322.264 231.864 322.301 232.205 322.374C232.55 322.443 232.872 322.572 233.17 322.761C233.472 322.95 233.718 323.22 233.911 323.572C234.103 323.92 234.199 324.372 234.199 324.929V330H232.747V328.956H232.688C232.592 329.148 232.447 329.337 232.255 329.523C232.063 329.708 231.816 329.862 231.514 329.985C231.213 330.108 230.852 330.169 230.431 330.169ZM230.754 328.976C231.165 328.976 231.516 328.895 231.808 328.732C232.103 328.57 232.326 328.358 232.479 328.096C232.635 327.831 232.713 327.547 232.713 327.246V326.261C232.66 326.314 232.557 326.364 232.404 326.411C232.255 326.454 232.084 326.492 231.892 326.525C231.7 326.555 231.513 326.583 231.33 326.609C231.148 326.633 230.996 326.652 230.873 326.669C230.585 326.705 230.321 326.767 230.083 326.853C229.847 326.939 229.658 327.063 229.516 327.226C229.377 327.385 229.307 327.597 229.307 327.862C229.307 328.23 229.443 328.509 229.715 328.697C229.986 328.883 230.333 328.976 230.754 328.976ZM236.179 330V322.364H237.616V323.577H237.695C237.835 323.166 238.08 322.843 238.431 322.607C238.786 322.369 239.187 322.249 239.634 322.249C239.727 322.249 239.836 322.253 239.962 322.259C240.092 322.266 240.193 322.274 240.266 322.284V323.706C240.206 323.689 240.1 323.671 239.947 323.651C239.795 323.628 239.643 323.616 239.49 323.616C239.139 323.616 238.826 323.691 238.55 323.84C238.279 323.986 238.063 324.19 237.904 324.452C237.745 324.71 237.665 325.005 237.665 325.337V330H236.179ZM244.57 330.154C243.817 330.154 243.169 329.993 242.626 329.672C242.086 329.347 241.668 328.891 241.373 328.305C241.081 327.715 240.936 327.024 240.936 326.232C240.936 325.449 241.081 324.76 241.373 324.163C241.668 323.567 242.079 323.101 242.606 322.766C243.136 322.432 243.756 322.264 244.465 322.264C244.896 322.264 245.314 322.335 245.718 322.478C246.123 322.621 246.485 322.844 246.807 323.149C247.128 323.454 247.382 323.85 247.568 324.337C247.753 324.821 247.846 325.41 247.846 326.102V326.629H241.776V325.516H246.389C246.389 325.125 246.31 324.778 246.151 324.477C245.992 324.172 245.768 323.931 245.48 323.756C245.195 323.58 244.86 323.492 244.475 323.492C244.058 323.492 243.693 323.595 243.382 323.8C243.073 324.003 242.835 324.268 242.666 324.596C242.5 324.921 242.417 325.274 242.417 325.655V326.525C242.417 327.035 242.507 327.469 242.686 327.827C242.868 328.185 243.121 328.459 243.446 328.648C243.771 328.833 244.151 328.926 244.585 328.926C244.866 328.926 245.123 328.886 245.355 328.807C245.587 328.724 245.788 328.601 245.957 328.439C246.126 328.277 246.255 328.076 246.345 327.837L247.752 328.091C247.639 328.505 247.437 328.868 247.145 329.18C246.857 329.488 246.494 329.728 246.056 329.901C245.622 330.07 245.127 330.154 244.57 330.154ZM254.687 325.466V330H253.2V322.364H254.627V323.607H254.722C254.897 323.202 255.173 322.877 255.547 322.632C255.925 322.387 256.401 322.264 256.974 322.264C257.494 322.264 257.95 322.374 258.341 322.592C258.732 322.808 259.035 323.129 259.251 323.557C259.466 323.984 259.574 324.513 259.574 325.143V330H258.088V325.322C258.088 324.768 257.943 324.336 257.655 324.024C257.367 323.709 256.971 323.552 256.467 323.552C256.122 323.552 255.816 323.626 255.547 323.776C255.282 323.925 255.071 324.143 254.916 324.432C254.763 324.717 254.687 325.062 254.687 325.466ZM264.784 330.154C264.068 330.154 263.444 329.99 262.91 329.662C262.376 329.334 261.962 328.875 261.667 328.285C261.372 327.695 261.225 327.005 261.225 326.217C261.225 325.424 261.372 324.732 261.667 324.138C261.962 323.545 262.376 323.085 262.91 322.756C263.444 322.428 264.068 322.264 264.784 322.264C265.5 322.264 266.125 322.428 266.659 322.756C267.192 323.085 267.606 323.545 267.901 324.138C268.196 324.732 268.344 325.424 268.344 326.217C268.344 327.005 268.196 327.695 267.901 328.285C267.606 328.875 267.192 329.334 266.659 329.662C266.125 329.99 265.5 330.154 264.784 330.154ZM264.789 328.906C265.253 328.906 265.638 328.784 265.943 328.538C266.248 328.293 266.473 327.967 266.619 327.559C266.768 327.151 266.843 326.702 266.843 326.212C266.843 325.724 266.768 325.277 266.619 324.869C266.473 324.458 266.248 324.129 265.943 323.88C265.638 323.631 265.253 323.507 264.789 323.507C264.322 323.507 263.934 323.631 263.626 323.88C263.321 324.129 263.094 324.458 262.945 324.869C262.799 325.277 262.726 325.724 262.726 326.212C262.726 326.702 262.799 327.151 262.945 327.559C263.094 327.967 263.321 328.293 263.626 328.538C263.934 328.784 264.322 328.906 264.789 328.906ZM273.708 330V322.364H275.195V330H273.708ZM274.459 321.185C274.2 321.185 273.978 321.099 273.793 320.927C273.61 320.751 273.519 320.542 273.519 320.3C273.519 320.055 273.61 319.846 273.793 319.674C273.978 319.498 274.2 319.411 274.459 319.411C274.718 319.411 274.938 319.498 275.12 319.674C275.306 319.846 275.399 320.055 275.399 320.3C275.399 320.542 275.306 320.751 275.12 320.927C274.938 321.099 274.718 321.185 274.459 321.185ZM280.759 322.364V323.557H276.588V322.364H280.759ZM277.707 320.534H279.193V327.758C279.193 328.046 279.236 328.263 279.322 328.409C279.409 328.552 279.52 328.649 279.656 328.702C279.795 328.752 279.946 328.777 280.108 328.777C280.227 328.777 280.332 328.769 280.421 328.752C280.511 328.736 280.58 328.722 280.63 328.712L280.898 329.94C280.812 329.973 280.69 330.007 280.531 330.04C280.371 330.076 280.173 330.096 279.934 330.099C279.543 330.106 279.178 330.036 278.84 329.891C278.502 329.745 278.229 329.519 278.02 329.214C277.811 328.91 277.707 328.527 277.707 328.066V320.534ZM285.613 330.154C284.86 330.154 284.212 329.993 283.669 329.672C283.129 329.347 282.711 328.891 282.416 328.305C282.124 327.715 281.979 327.024 281.979 326.232C281.979 325.449 282.124 324.76 282.416 324.163C282.711 323.567 283.122 323.101 283.649 322.766C284.179 322.432 284.799 322.264 285.508 322.264C285.939 322.264 286.357 322.335 286.761 322.478C287.166 322.621 287.528 322.844 287.85 323.149C288.171 323.454 288.425 323.85 288.611 324.337C288.796 324.821 288.889 325.41 288.889 326.102V326.629H282.819V325.516H287.432C287.432 325.125 287.353 324.778 287.194 324.477C287.035 324.172 286.811 323.931 286.523 323.756C286.238 323.58 285.903 323.492 285.518 323.492C285.101 323.492 284.736 323.595 284.425 323.8C284.116 324.003 283.878 324.268 283.709 324.596C283.543 324.921 283.46 325.274 283.46 325.655V326.525C283.46 327.035 283.55 327.469 283.729 327.827C283.911 328.185 284.164 328.459 284.489 328.648C284.814 328.833 285.193 328.926 285.628 328.926C285.909 328.926 286.166 328.886 286.398 328.807C286.63 328.724 286.831 328.601 287 328.439C287.169 328.277 287.298 328.076 287.388 327.837L288.795 328.091C288.682 328.505 288.48 328.868 288.188 329.18C287.9 329.488 287.537 329.728 287.099 329.901C286.665 330.07 286.17 330.154 285.613 330.154ZM290.538 330V322.364H291.965V323.607H292.06C292.219 323.186 292.479 322.857 292.84 322.622C293.201 322.384 293.634 322.264 294.138 322.264C294.648 322.264 295.076 322.384 295.42 322.622C295.768 322.861 296.025 323.189 296.191 323.607H296.271C296.453 323.199 296.743 322.874 297.141 322.632C297.538 322.387 298.012 322.264 298.562 322.264C299.255 322.264 299.82 322.481 300.258 322.915C300.699 323.35 300.919 324.004 300.919 324.879V330H299.433V325.018C299.433 324.501 299.292 324.127 299.01 323.895C298.728 323.663 298.392 323.547 298.001 323.547C297.517 323.547 297.141 323.696 296.872 323.994C296.604 324.289 296.469 324.669 296.469 325.133V330H294.988V324.924C294.988 324.51 294.859 324.177 294.6 323.925C294.342 323.673 294.005 323.547 293.591 323.547C293.309 323.547 293.049 323.621 292.81 323.771C292.575 323.916 292.384 324.12 292.239 324.382C292.096 324.644 292.025 324.947 292.025 325.292V330H290.538ZM308.634 324.228L307.286 324.467C307.23 324.294 307.141 324.13 307.018 323.974C306.899 323.819 306.736 323.691 306.531 323.592C306.325 323.492 306.068 323.442 305.76 323.442C305.339 323.442 304.988 323.537 304.706 323.726C304.424 323.911 304.284 324.152 304.284 324.447C304.284 324.702 304.378 324.907 304.567 325.063C304.756 325.219 305.061 325.347 305.482 325.446L306.695 325.724C307.397 325.887 307.921 326.137 308.266 326.475C308.61 326.813 308.783 327.252 308.783 327.793C308.783 328.25 308.65 328.658 308.385 329.016C308.123 329.37 307.757 329.649 307.286 329.851C306.819 330.053 306.277 330.154 305.661 330.154C304.806 330.154 304.108 329.972 303.568 329.607C303.027 329.239 302.696 328.717 302.573 328.041L304.01 327.822C304.1 328.197 304.284 328.48 304.562 328.673C304.84 328.862 305.203 328.956 305.651 328.956C306.138 328.956 306.527 328.855 306.819 328.653C307.111 328.447 307.257 328.197 307.257 327.902C307.257 327.663 307.167 327.463 306.988 327.3C306.812 327.138 306.542 327.015 306.178 326.933L304.885 326.649C304.173 326.487 303.646 326.228 303.304 325.874C302.966 325.519 302.797 325.07 302.797 324.526C302.797 324.076 302.923 323.681 303.175 323.343C303.427 323.005 303.775 322.741 304.219 322.553C304.663 322.36 305.172 322.264 305.745 322.264C306.57 322.264 307.22 322.443 307.694 322.801C308.168 323.156 308.481 323.631 308.634 324.228ZM317.687 322.364V323.557H313.516V322.364H317.687ZM314.634 320.534H316.121V327.758C316.121 328.046 316.164 328.263 316.25 328.409C316.336 328.552 316.447 328.649 316.583 328.702C316.722 328.752 316.873 328.777 317.036 328.777C317.155 328.777 317.259 328.769 317.349 328.752C317.438 328.736 317.508 328.722 317.558 328.712L317.826 329.94C317.74 329.973 317.617 330.007 317.458 330.04C317.299 330.076 317.1 330.096 316.862 330.099C316.471 330.106 316.106 330.036 315.768 329.891C315.43 329.745 315.156 329.519 314.948 329.214C314.739 328.91 314.634 328.527 314.634 328.066V320.534ZM322.466 330.154C321.75 330.154 321.125 329.99 320.592 329.662C320.058 329.334 319.644 328.875 319.349 328.285C319.054 327.695 318.906 327.005 318.906 326.217C318.906 325.424 319.054 324.732 319.349 324.138C319.644 323.545 320.058 323.085 320.592 322.756C321.125 322.428 321.75 322.264 322.466 322.264C323.182 322.264 323.807 322.428 324.34 322.756C324.874 323.085 325.288 323.545 325.583 324.138C325.878 324.732 326.026 325.424 326.026 326.217C326.026 327.005 325.878 327.695 325.583 328.285C325.288 328.875 324.874 329.334 324.34 329.662C323.807 329.99 323.182 330.154 322.466 330.154ZM322.471 328.906C322.935 328.906 323.319 328.784 323.624 328.538C323.929 328.293 324.155 327.967 324.3 327.559C324.45 327.151 324.524 326.702 324.524 326.212C324.524 325.724 324.45 325.277 324.3 324.869C324.155 324.458 323.929 324.129 323.624 323.88C323.319 323.631 322.935 323.507 322.471 323.507C322.004 323.507 321.616 323.631 321.308 323.88C321.003 324.129 320.776 324.458 320.626 324.869C320.481 325.277 320.408 325.724 320.408 326.212C320.408 326.702 320.481 327.151 320.626 327.559C320.776 327.967 321.003 328.293 321.308 328.538C321.616 328.784 322.004 328.906 322.471 328.906ZM334.249 330.149C333.632 330.149 333.082 329.992 332.598 329.677C332.117 329.359 331.74 328.906 331.464 328.32C331.193 327.73 331.057 327.022 331.057 326.197C331.057 325.371 331.194 324.665 331.469 324.079C331.748 323.492 332.129 323.043 332.613 322.732C333.097 322.42 333.645 322.264 334.259 322.264C334.732 322.264 335.114 322.344 335.402 322.503C335.694 322.659 335.919 322.841 336.078 323.05C336.241 323.259 336.366 323.442 336.456 323.602H336.545V319.818H338.032V330H336.58V328.812H336.456C336.366 328.974 336.237 329.16 336.068 329.369C335.902 329.577 335.674 329.76 335.382 329.915C335.09 330.071 334.713 330.149 334.249 330.149ZM334.577 328.881C335.004 328.881 335.366 328.769 335.661 328.543C335.959 328.315 336.184 327.998 336.337 327.594C336.492 327.189 336.57 326.719 336.57 326.182C336.57 325.652 336.494 325.187 336.342 324.79C336.189 324.392 335.965 324.082 335.67 323.86C335.375 323.638 335.011 323.527 334.577 323.527C334.129 323.527 333.756 323.643 333.458 323.875C333.16 324.107 332.934 324.424 332.782 324.825C332.633 325.226 332.558 325.678 332.558 326.182C332.558 326.692 332.634 327.151 332.787 327.559C332.939 327.967 333.165 328.29 333.463 328.528C333.765 328.764 334.136 328.881 334.577 328.881ZM340.154 330V322.364H341.64V330H340.154ZM340.904 321.185C340.646 321.185 340.424 321.099 340.238 320.927C340.056 320.751 339.965 320.542 339.965 320.3C339.965 320.055 340.056 319.846 340.238 319.674C340.424 319.498 340.646 319.411 340.904 319.411C341.163 319.411 341.383 319.498 341.566 319.674C341.751 319.846 341.844 320.055 341.844 320.3C341.844 320.542 341.751 320.751 341.566 320.927C341.383 321.099 341.163 321.185 340.904 321.185ZM349.362 324.228L348.015 324.467C347.959 324.294 347.869 324.13 347.746 323.974C347.627 323.819 347.465 323.691 347.259 323.592C347.054 323.492 346.797 323.442 346.489 323.442C346.068 323.442 345.716 323.537 345.435 323.726C345.153 323.911 345.012 324.152 345.012 324.447C345.012 324.702 345.107 324.907 345.295 325.063C345.484 325.219 345.789 325.347 346.21 325.446L347.423 325.724C348.126 325.887 348.65 326.137 348.994 326.475C349.339 326.813 349.511 327.252 349.511 327.793C349.511 328.25 349.379 328.658 349.114 329.016C348.852 329.37 348.486 329.649 348.015 329.851C347.548 330.053 347.006 330.154 346.389 330.154C345.534 330.154 344.836 329.972 344.296 329.607C343.756 329.239 343.424 328.717 343.302 328.041L344.739 327.822C344.828 328.197 345.012 328.48 345.29 328.673C345.569 328.862 345.932 328.956 346.379 328.956C346.866 328.956 347.256 328.855 347.548 328.653C347.839 328.447 347.985 328.197 347.985 327.902C347.985 327.663 347.896 327.463 347.717 327.3C347.541 327.138 347.271 327.015 346.906 326.933L345.614 326.649C344.901 326.487 344.374 326.228 344.033 325.874C343.695 325.519 343.526 325.07 343.526 324.526C343.526 324.076 343.652 323.681 343.903 323.343C344.155 323.005 344.503 322.741 344.947 322.553C345.392 322.36 345.9 322.264 346.474 322.264C347.299 322.264 347.949 322.443 348.423 322.801C348.897 323.156 349.21 323.631 349.362 324.228ZM351.146 332.864V322.364H352.597V323.602H352.722C352.808 323.442 352.932 323.259 353.095 323.05C353.257 322.841 353.482 322.659 353.771 322.503C354.059 322.344 354.44 322.264 354.914 322.264C355.531 322.264 356.081 322.42 356.565 322.732C357.049 323.043 357.428 323.492 357.703 324.079C357.982 324.665 358.121 325.371 358.121 326.197C358.121 327.022 357.983 327.73 357.708 328.32C357.433 328.906 357.055 329.359 356.575 329.677C356.094 329.992 355.546 330.149 354.929 330.149C354.465 330.149 354.086 330.071 353.791 329.915C353.499 329.76 353.27 329.577 353.105 329.369C352.939 329.16 352.811 328.974 352.722 328.812H352.632V332.864H351.146ZM352.602 326.182C352.602 326.719 352.68 327.189 352.836 327.594C352.992 327.998 353.217 328.315 353.512 328.543C353.807 328.769 354.169 328.881 354.596 328.881C355.04 328.881 355.411 328.764 355.71 328.528C356.008 328.29 356.233 327.967 356.386 327.559C356.542 327.151 356.619 326.692 356.619 326.182C356.619 325.678 356.543 325.226 356.391 324.825C356.242 324.424 356.016 324.107 355.715 323.875C355.416 323.643 355.044 323.527 354.596 323.527C354.165 323.527 353.801 323.638 353.502 323.86C353.207 324.082 352.984 324.392 352.831 324.79C352.679 325.187 352.602 325.652 352.602 326.182ZM361.273 319.818V330H359.786V319.818H361.273ZM365.495 330.169C365.011 330.169 364.574 330.08 364.183 329.901C363.791 329.718 363.482 329.455 363.253 329.11C363.027 328.765 362.915 328.343 362.915 327.842C362.915 327.411 362.998 327.057 363.163 326.778C363.329 326.5 363.553 326.28 363.835 326.117C364.116 325.955 364.431 325.832 364.779 325.749C365.127 325.666 365.482 325.603 365.843 325.56C366.3 325.507 366.672 325.464 366.957 325.431C367.242 325.395 367.449 325.337 367.578 325.257C367.707 325.178 367.772 325.048 367.772 324.869V324.835C367.772 324.4 367.649 324.064 367.404 323.825C367.162 323.587 366.801 323.467 366.32 323.467C365.82 323.467 365.425 323.578 365.137 323.8C364.852 324.019 364.655 324.263 364.545 324.531L363.148 324.213C363.314 323.749 363.556 323.375 363.874 323.089C364.196 322.801 364.565 322.592 364.983 322.463C365.401 322.33 365.84 322.264 366.3 322.264C366.605 322.264 366.929 322.301 367.27 322.374C367.615 322.443 367.936 322.572 368.234 322.761C368.536 322.95 368.783 323.22 368.975 323.572C369.167 323.92 369.263 324.372 369.263 324.929V330H367.812V328.956H367.752C367.656 329.148 367.512 329.337 367.32 329.523C367.127 329.708 366.88 329.862 366.579 329.985C366.277 330.108 365.916 330.169 365.495 330.169ZM365.818 328.976C366.229 328.976 366.58 328.895 366.872 328.732C367.167 328.57 367.391 328.358 367.543 328.096C367.699 327.831 367.777 327.547 367.777 327.246V326.261C367.724 326.314 367.621 326.364 367.469 326.411C367.32 326.454 367.149 326.492 366.957 326.525C366.764 326.555 366.577 326.583 366.395 326.609C366.213 326.633 366.06 326.652 365.938 326.669C365.649 326.705 365.386 326.767 365.147 326.853C364.912 326.939 364.723 327.063 364.58 327.226C364.441 327.385 364.371 327.597 364.371 327.862C364.371 328.23 364.507 328.509 364.779 328.697C365.051 328.883 365.397 328.976 365.818 328.976ZM371.91 332.864C371.688 332.864 371.485 332.845 371.303 332.809C371.121 332.776 370.985 332.739 370.895 332.7L371.253 331.482C371.525 331.554 371.767 331.586 371.979 331.576C372.191 331.566 372.379 331.487 372.541 331.337C372.707 331.188 372.853 330.945 372.979 330.607L373.162 330.099L370.368 322.364H371.959L373.893 328.29H373.973L375.907 322.364H377.503L374.356 331.019C374.21 331.417 374.024 331.753 373.799 332.028C373.573 332.307 373.305 332.516 372.993 332.655C372.682 332.794 372.321 332.864 371.91 332.864ZM379.401 330.094C379.129 330.094 378.895 329.998 378.7 329.806C378.504 329.611 378.406 329.375 378.406 329.1C378.406 328.828 378.504 328.596 378.7 328.404C378.895 328.209 379.129 328.111 379.401 328.111C379.672 328.111 379.906 328.209 380.102 328.404C380.297 328.596 380.395 328.828 380.395 329.1C380.395 329.282 380.348 329.45 380.256 329.602C380.166 329.751 380.047 329.871 379.898 329.96C379.749 330.05 379.583 330.094 379.401 330.094Z" fill="#7B857F"/>
</svg>
