<svg width="500" height="500" viewBox="0 0 500 500" fill="none" xmlns="http://www.w3.org/2000/svg">
<path d="M135.231 322.493C135.178 322.022 134.96 321.658 134.575 321.399C134.191 321.137 133.707 321.006 133.123 321.006C132.706 321.006 132.345 321.073 132.04 321.205C131.735 321.335 131.498 321.513 131.329 321.742C131.163 321.968 131.08 322.224 131.08 322.513C131.08 322.755 131.137 322.964 131.249 323.139C131.365 323.315 131.516 323.462 131.702 323.582C131.891 323.698 132.093 323.795 132.308 323.875C132.524 323.951 132.731 324.014 132.93 324.064L133.924 324.322C134.249 324.402 134.582 324.51 134.923 324.646C135.265 324.781 135.581 324.96 135.873 325.183C136.164 325.405 136.4 325.68 136.579 326.008C136.761 326.336 136.852 326.729 136.852 327.186C136.852 327.763 136.703 328.275 136.405 328.722C136.11 329.17 135.681 329.523 135.117 329.781C134.557 330.04 133.879 330.169 133.084 330.169C132.321 330.169 131.662 330.048 131.105 329.806C130.548 329.564 130.112 329.221 129.797 328.777C129.483 328.33 129.309 327.799 129.275 327.186H130.817C130.847 327.554 130.966 327.861 131.175 328.106C131.387 328.348 131.657 328.528 131.985 328.648C132.316 328.764 132.679 328.822 133.074 328.822C133.508 328.822 133.894 328.754 134.232 328.618C134.574 328.479 134.842 328.286 135.038 328.041C135.233 327.793 135.331 327.503 135.331 327.171C135.331 326.87 135.245 326.623 135.072 326.43C134.903 326.238 134.673 326.079 134.381 325.953C134.093 325.827 133.766 325.716 133.402 325.62L132.199 325.292C131.383 325.07 130.737 324.743 130.26 324.312C129.786 323.882 129.549 323.312 129.549 322.602C129.549 322.016 129.708 321.504 130.026 321.066C130.344 320.629 130.775 320.289 131.319 320.047C131.862 319.802 132.476 319.679 133.158 319.679C133.848 319.679 134.456 319.8 134.983 320.042C135.513 320.284 135.931 320.617 136.236 321.041C136.541 321.462 136.7 321.946 136.713 322.493H135.231ZM141.785 330.154C141.069 330.154 140.445 329.99 139.911 329.662C139.377 329.334 138.963 328.875 138.668 328.285C138.373 327.695 138.226 327.005 138.226 326.217C138.226 325.424 138.373 324.732 138.668 324.138C138.963 323.545 139.377 323.085 139.911 322.756C140.445 322.428 141.069 322.264 141.785 322.264C142.501 322.264 143.126 322.428 143.66 322.756C144.193 323.085 144.607 323.545 144.902 324.138C145.197 324.732 145.345 325.424 145.345 326.217C145.345 327.005 145.197 327.695 144.902 328.285C144.607 328.875 144.193 329.334 143.66 329.662C143.126 329.99 142.501 330.154 141.785 330.154ZM141.79 328.906C142.254 328.906 142.639 328.784 142.944 328.538C143.249 328.293 143.474 327.967 143.62 327.559C143.769 327.151 143.843 326.702 143.843 326.212C143.843 325.724 143.769 325.277 143.62 324.869C143.474 324.458 143.249 324.129 142.944 323.88C142.639 323.631 142.254 323.507 141.79 323.507C141.323 323.507 140.935 323.631 140.627 323.88C140.322 324.129 140.095 324.458 139.946 324.869C139.8 325.277 139.727 325.724 139.727 326.212C139.727 326.702 139.8 327.151 139.946 327.559C140.095 327.967 140.322 328.293 140.627 328.538C140.935 328.784 141.323 328.906 141.79 328.906ZM147.004 330V322.364H148.441V323.577H148.521C148.66 323.166 148.905 322.843 149.256 322.607C149.611 322.369 150.012 322.249 150.459 322.249C150.552 322.249 150.662 322.253 150.788 322.259C150.917 322.266 151.018 322.274 151.091 322.284V323.706C151.031 323.689 150.925 323.671 150.773 323.651C150.62 323.628 150.468 323.616 150.315 323.616C149.964 323.616 149.651 323.691 149.376 323.84C149.104 323.986 148.888 324.19 148.729 324.452C148.57 324.71 148.491 325.005 148.491 325.337V330H147.004ZM152.377 330V322.364H153.814V323.577H153.894C154.033 323.166 154.278 322.843 154.629 322.607C154.984 322.369 155.385 322.249 155.832 322.249C155.925 322.249 156.035 322.253 156.161 322.259C156.29 322.266 156.391 322.274 156.464 322.284V323.706C156.404 323.689 156.298 323.671 156.146 323.651C155.993 323.628 155.841 323.616 155.688 323.616C155.337 323.616 155.024 323.691 154.749 323.84C154.477 323.986 154.261 324.19 154.102 324.452C153.943 324.71 153.864 325.005 153.864 325.337V330H152.377ZM158.922 332.864C158.7 332.864 158.498 332.845 158.316 332.809C158.133 332.776 157.998 332.739 157.908 332.7L158.266 331.482C158.538 331.554 158.78 331.586 158.992 331.576C159.204 331.566 159.391 331.487 159.554 331.337C159.719 331.188 159.865 330.945 159.991 330.607L160.175 330.099L157.381 322.364H158.972L160.906 328.29H160.986L162.919 322.364H164.515L161.368 331.019C161.223 331.417 161.037 331.753 160.812 332.028C160.586 332.307 160.318 332.516 160.006 332.655C159.695 332.794 159.333 332.864 158.922 332.864ZM167.368 328.608L167.293 329.15C167.244 329.548 167.159 329.962 167.04 330.393C166.924 330.827 166.803 331.23 166.677 331.601C166.554 331.972 166.453 332.267 166.373 332.486H165.32C165.363 332.28 165.422 332.002 165.498 331.651C165.575 331.303 165.649 330.913 165.722 330.482C165.795 330.051 165.85 329.612 165.886 329.165L165.936 328.608H167.368ZM174.495 325.466V330H173.008V322.364H174.435V323.607H174.529C174.705 323.202 174.98 322.877 175.355 322.632C175.733 322.387 176.208 322.264 176.782 322.264C177.302 322.264 177.758 322.374 178.149 322.592C178.54 322.808 178.843 323.129 179.059 323.557C179.274 323.984 179.382 324.513 179.382 325.143V330H177.895V325.322C177.895 324.768 177.751 324.336 177.463 324.024C177.174 323.709 176.778 323.552 176.274 323.552C175.93 323.552 175.623 323.626 175.355 323.776C175.09 323.925 174.879 324.143 174.723 324.432C174.571 324.717 174.495 325.062 174.495 325.466ZM184.592 330.154C183.876 330.154 183.251 329.99 182.718 329.662C182.184 329.334 181.77 328.875 181.475 328.285C181.18 327.695 181.032 327.005 181.032 326.217C181.032 325.424 181.18 324.732 181.475 324.138C181.77 323.545 182.184 323.085 182.718 322.756C183.251 322.428 183.876 322.264 184.592 322.264C185.308 322.264 185.933 322.428 186.466 322.756C187 323.085 187.414 323.545 187.709 324.138C188.004 324.732 188.152 325.424 188.152 326.217C188.152 327.005 188.004 327.695 187.709 328.285C187.414 328.875 187 329.334 186.466 329.662C185.933 329.99 185.308 330.154 184.592 330.154ZM184.597 328.906C185.061 328.906 185.445 328.784 185.75 328.538C186.055 328.293 186.281 327.967 186.426 327.559C186.576 327.151 186.65 326.702 186.65 326.212C186.65 325.724 186.576 325.277 186.426 324.869C186.281 324.458 186.055 324.129 185.75 323.88C185.445 323.631 185.061 323.507 184.597 323.507C184.13 323.507 183.742 323.631 183.434 323.88C183.129 324.129 182.902 324.458 182.752 324.869C182.607 325.277 182.534 325.724 182.534 326.212C182.534 326.702 182.607 327.151 182.752 327.559C182.902 327.967 183.129 328.293 183.434 328.538C183.742 328.784 184.13 328.906 184.597 328.906ZM193.516 330V322.364H194.953V323.577H195.032C195.171 323.166 195.417 322.843 195.768 322.607C196.123 322.369 196.524 322.249 196.971 322.249C197.064 322.249 197.173 322.253 197.299 322.259C197.429 322.266 197.53 322.274 197.603 322.284V323.706C197.543 323.689 197.437 323.671 197.284 323.651C197.132 323.628 196.979 323.616 196.827 323.616C196.476 323.616 196.162 323.691 195.887 323.84C195.616 323.986 195.4 324.19 195.241 324.452C195.082 324.71 195.002 325.005 195.002 325.337V330H193.516ZM201.907 330.154C201.154 330.154 200.506 329.993 199.963 329.672C199.423 329.347 199.005 328.891 198.71 328.305C198.418 327.715 198.272 327.024 198.272 326.232C198.272 325.449 198.418 324.76 198.71 324.163C199.005 323.567 199.416 323.101 199.943 322.766C200.473 322.432 201.093 322.264 201.802 322.264C202.233 322.264 202.651 322.335 203.055 322.478C203.459 322.621 203.822 322.844 204.144 323.149C204.465 323.454 204.719 323.85 204.905 324.337C205.09 324.821 205.183 325.41 205.183 326.102V326.629H199.113V325.516H203.726C203.726 325.125 203.647 324.778 203.488 324.477C203.329 324.172 203.105 323.931 202.816 323.756C202.531 323.58 202.197 323.492 201.812 323.492C201.395 323.492 201.03 323.595 200.718 323.8C200.41 324.003 200.172 324.268 200.003 324.596C199.837 324.921 199.754 325.274 199.754 325.655V326.525C199.754 327.035 199.843 327.469 200.022 327.827C200.205 328.185 200.458 328.459 200.783 328.648C201.108 328.833 201.487 328.926 201.922 328.926C202.203 328.926 202.46 328.886 202.692 328.807C202.924 328.724 203.125 328.601 203.294 328.439C203.463 328.277 203.592 328.076 203.682 327.837L205.089 328.091C204.976 328.505 204.774 328.868 204.482 329.18C204.194 329.488 203.831 329.728 203.393 329.901C202.959 330.07 202.464 330.154 201.907 330.154ZM212.555 324.228L211.207 324.467C211.151 324.294 211.061 324.13 210.939 323.974C210.82 323.819 210.657 323.691 210.452 323.592C210.246 323.492 209.989 323.442 209.681 323.442C209.26 323.442 208.909 323.537 208.627 323.726C208.345 323.911 208.204 324.152 208.204 324.447C208.204 324.702 208.299 324.907 208.488 325.063C208.677 325.219 208.982 325.347 209.403 325.446L210.616 325.724C211.318 325.887 211.842 326.137 212.187 326.475C212.531 326.813 212.704 327.252 212.704 327.793C212.704 328.25 212.571 328.658 212.306 329.016C212.044 329.37 211.678 329.649 211.207 329.851C210.74 330.053 210.198 330.154 209.582 330.154C208.726 330.154 208.029 329.972 207.489 329.607C206.948 329.239 206.617 328.717 206.494 328.041L207.931 327.822C208.021 328.197 208.204 328.48 208.483 328.673C208.761 328.862 209.124 328.956 209.572 328.956C210.059 328.956 210.448 328.855 210.74 328.653C211.032 328.447 211.177 328.197 211.177 327.902C211.177 327.663 211.088 327.463 210.909 327.3C210.733 327.138 210.463 327.015 210.099 326.933L208.806 326.649C208.093 326.487 207.566 326.228 207.225 325.874C206.887 325.519 206.718 325.07 206.718 324.526C206.718 324.076 206.844 323.681 207.096 323.343C207.348 323.005 207.696 322.741 208.14 322.553C208.584 322.36 209.093 322.264 209.666 322.264C210.491 322.264 211.141 322.443 211.615 322.801C212.089 323.156 212.402 323.631 212.555 324.228ZM219.176 326.833V322.364H220.667V330H219.205V328.678H219.126C218.95 329.085 218.668 329.425 218.281 329.697C217.896 329.965 217.417 330.099 216.844 330.099C216.353 330.099 215.919 329.992 215.541 329.776C215.167 329.558 214.872 329.234 214.656 328.807C214.444 328.379 214.338 327.851 214.338 327.221V322.364H215.825V327.042C215.825 327.562 215.969 327.977 216.257 328.285C216.546 328.593 216.92 328.747 217.381 328.747C217.659 328.747 217.936 328.678 218.211 328.538C218.489 328.399 218.72 328.189 218.902 327.907C219.088 327.625 219.179 327.267 219.176 326.833ZM224.151 319.818V330H222.664V319.818H224.151ZM229.715 322.364V323.557H225.544V322.364H229.715ZM226.663 320.534H228.149V327.758C228.149 328.046 228.192 328.263 228.278 328.409C228.365 328.552 228.476 328.649 228.612 328.702C228.751 328.752 228.902 328.777 229.064 328.777C229.183 328.777 229.288 328.769 229.377 328.752C229.467 328.736 229.536 328.722 229.586 328.712L229.854 329.94C229.768 329.973 229.646 330.007 229.487 330.04C229.328 330.076 229.129 330.096 228.89 330.099C228.499 330.106 228.134 330.036 227.796 329.891C227.458 329.745 227.185 329.519 226.976 329.214C226.767 328.91 226.663 328.527 226.663 328.066V320.534ZM236.959 324.228L235.612 324.467C235.555 324.294 235.466 324.13 235.343 323.974C235.224 323.819 235.061 323.691 234.856 323.592C234.65 323.492 234.394 323.442 234.085 323.442C233.664 323.442 233.313 323.537 233.031 323.726C232.75 323.911 232.609 324.152 232.609 324.447C232.609 324.702 232.703 324.907 232.892 325.063C233.081 325.219 233.386 325.347 233.807 325.446L235.02 325.724C235.723 325.887 236.246 326.137 236.591 326.475C236.936 326.813 237.108 327.252 237.108 327.793C237.108 328.25 236.975 328.658 236.71 329.016C236.448 329.37 236.082 329.649 235.612 329.851C235.144 330.053 234.602 330.154 233.986 330.154C233.131 330.154 232.433 329.972 231.893 329.607C231.353 329.239 231.021 328.717 230.899 328.041L232.335 327.822C232.425 328.197 232.609 328.48 232.887 328.673C233.166 328.862 233.528 328.956 233.976 328.956C234.463 328.956 234.853 328.855 235.144 328.653C235.436 328.447 235.582 328.197 235.582 327.902C235.582 327.663 235.492 327.463 235.313 327.3C235.138 327.138 234.868 327.015 234.503 326.933L233.21 326.649C232.498 326.487 231.971 326.228 231.629 325.874C231.291 325.519 231.122 325.07 231.122 324.526C231.122 324.076 231.248 323.681 231.5 323.343C231.752 323.005 232.1 322.741 232.544 322.553C232.988 322.36 233.497 322.264 234.07 322.264C234.896 322.264 235.545 322.443 236.019 322.801C236.493 323.156 236.806 323.631 236.959 324.228ZM242.448 330V322.364H243.874V323.607H243.969C244.128 323.186 244.388 322.857 244.749 322.622C245.111 322.384 245.543 322.264 246.047 322.264C246.557 322.264 246.985 322.384 247.33 322.622C247.678 322.861 247.935 323.189 248.1 323.607H248.18C248.362 323.199 248.652 322.874 249.05 322.632C249.448 322.387 249.921 322.264 250.472 322.264C251.164 322.264 251.729 322.481 252.167 322.915C252.608 323.35 252.828 324.004 252.828 324.879V330H251.342V325.018C251.342 324.501 251.201 324.127 250.919 323.895C250.637 323.663 250.301 323.547 249.91 323.547C249.426 323.547 249.05 323.696 248.781 323.994C248.513 324.289 248.379 324.669 248.379 325.133V330H246.897V324.924C246.897 324.51 246.768 324.177 246.509 323.925C246.251 323.673 245.914 323.547 245.5 323.547C245.218 323.547 244.958 323.621 244.72 323.771C244.484 323.916 244.294 324.12 244.148 324.382C244.005 324.644 243.934 324.947 243.934 325.292V330H242.448ZM257.043 330.169C256.559 330.169 256.121 330.08 255.73 329.901C255.339 329.718 255.029 329.455 254.801 329.11C254.575 328.765 254.463 328.343 254.463 327.842C254.463 327.411 254.545 327.057 254.711 326.778C254.877 326.5 255.101 326.28 255.382 326.117C255.664 325.955 255.979 325.832 256.327 325.749C256.675 325.666 257.03 325.603 257.391 325.56C257.848 325.507 258.219 325.464 258.505 325.431C258.79 325.395 258.997 325.337 259.126 325.257C259.255 325.178 259.32 325.048 259.32 324.869V324.835C259.32 324.4 259.197 324.064 258.952 323.825C258.71 323.587 258.349 323.467 257.868 323.467C257.368 323.467 256.973 323.578 256.685 323.8C256.4 324.019 256.203 324.263 256.093 324.531L254.696 324.213C254.862 323.749 255.104 323.375 255.422 323.089C255.744 322.801 256.113 322.592 256.531 322.463C256.948 322.33 257.388 322.264 257.848 322.264C258.153 322.264 258.476 322.301 258.818 322.374C259.162 322.443 259.484 322.572 259.782 322.761C260.084 322.95 260.331 323.22 260.523 323.572C260.715 323.92 260.811 324.372 260.811 324.929V330H259.36V328.956H259.3C259.204 329.148 259.06 329.337 258.867 329.523C258.675 329.708 258.428 329.862 258.127 329.985C257.825 330.108 257.464 330.169 257.043 330.169ZM257.366 328.976C257.777 328.976 258.128 328.895 258.42 328.732C258.715 328.57 258.939 328.358 259.091 328.096C259.247 327.831 259.325 327.547 259.325 327.246V326.261C259.272 326.314 259.169 326.364 259.017 326.411C258.867 326.454 258.697 326.492 258.505 326.525C258.312 326.555 258.125 326.583 257.943 326.609C257.76 326.633 257.608 326.652 257.485 326.669C257.197 326.705 256.934 326.767 256.695 326.853C256.46 326.939 256.271 327.063 256.128 327.226C255.989 327.385 255.919 327.597 255.919 327.862C255.919 328.23 256.055 328.509 256.327 328.697C256.599 328.883 256.945 328.976 257.366 328.976ZM266.356 322.364V323.557H262.185V322.364H266.356ZM263.303 320.534H264.79V327.758C264.79 328.046 264.833 328.263 264.919 328.409C265.005 328.552 265.116 328.649 265.252 328.702C265.391 328.752 265.542 328.777 265.705 328.777C265.824 328.777 265.928 328.769 266.018 328.752C266.107 328.736 266.177 328.722 266.227 328.712L266.495 329.94C266.409 329.973 266.286 330.007 266.127 330.04C265.968 330.076 265.769 330.096 265.531 330.099C265.14 330.106 264.775 330.036 264.437 329.891C264.099 329.745 263.825 329.519 263.617 329.214C263.408 328.91 263.303 328.527 263.303 328.066V320.534ZM271.135 330.154C270.396 330.154 269.759 329.987 269.226 329.652C268.695 329.314 268.288 328.848 268.003 328.255C267.718 327.662 267.575 326.982 267.575 326.217C267.575 325.441 267.721 324.757 268.013 324.163C268.304 323.567 268.715 323.101 269.246 322.766C269.776 322.432 270.401 322.264 271.12 322.264C271.7 322.264 272.217 322.372 272.671 322.587C273.125 322.799 273.491 323.098 273.77 323.482C274.052 323.867 274.219 324.316 274.272 324.83H272.825C272.746 324.472 272.563 324.163 272.278 323.905C271.997 323.646 271.619 323.517 271.145 323.517C270.73 323.517 270.368 323.626 270.056 323.845C269.748 324.061 269.507 324.369 269.335 324.77C269.163 325.168 269.077 325.638 269.077 326.182C269.077 326.739 269.161 327.219 269.33 327.624C269.499 328.028 269.738 328.341 270.046 328.563C270.358 328.785 270.724 328.896 271.145 328.896C271.427 328.896 271.682 328.845 271.91 328.742C272.142 328.636 272.336 328.485 272.492 328.29C272.651 328.094 272.762 327.859 272.825 327.584H274.272C274.219 328.078 274.058 328.518 273.79 328.906C273.521 329.294 273.162 329.599 272.711 329.821C272.263 330.043 271.738 330.154 271.135 330.154ZM277.348 325.466V330H275.862V319.818H277.328V323.607H277.423C277.602 323.196 277.875 322.869 278.243 322.627C278.611 322.385 279.091 322.264 279.685 322.264C280.208 322.264 280.666 322.372 281.057 322.587C281.451 322.803 281.756 323.124 281.972 323.552C282.19 323.976 282.3 324.506 282.3 325.143V330H280.813V325.322C280.813 324.762 280.669 324.327 280.381 324.019C280.092 323.708 279.691 323.552 279.178 323.552C278.826 323.552 278.511 323.626 278.233 323.776C277.958 323.925 277.741 324.143 277.582 324.432C277.426 324.717 277.348 325.062 277.348 325.466ZM288.928 332.864C288.706 332.864 288.504 332.845 288.322 332.809C288.139 332.776 288.003 332.739 287.914 332.7L288.272 331.482C288.544 331.554 288.786 331.586 288.998 331.576C289.21 331.566 289.397 331.487 289.56 331.337C289.725 331.188 289.871 330.945 289.997 330.607L290.181 330.099L287.387 322.364H288.978L290.912 328.29H290.991L292.925 322.364H294.521L291.374 331.019C291.228 331.417 291.043 331.753 290.817 332.028C290.592 332.307 290.324 332.516 290.012 332.655C289.7 332.794 289.339 332.864 288.928 332.864ZM298.875 330.154C298.159 330.154 297.534 329.99 297.001 329.662C296.467 329.334 296.053 328.875 295.758 328.285C295.463 327.695 295.315 327.005 295.315 326.217C295.315 325.424 295.463 324.732 295.758 324.138C296.053 323.545 296.467 323.085 297.001 322.756C297.534 322.428 298.159 322.264 298.875 322.264C299.591 322.264 300.216 322.428 300.749 322.756C301.283 323.085 301.697 323.545 301.992 324.138C302.287 324.732 302.435 325.424 302.435 326.217C302.435 327.005 302.287 327.695 301.992 328.285C301.697 328.875 301.283 329.334 300.749 329.662C300.216 329.99 299.591 330.154 298.875 330.154ZM298.88 328.906C299.344 328.906 299.729 328.784 300.033 328.538C300.338 328.293 300.564 327.967 300.71 327.559C300.859 327.151 300.933 326.702 300.933 326.212C300.933 325.724 300.859 325.277 300.71 324.869C300.564 324.458 300.338 324.129 300.033 323.88C299.729 323.631 299.344 323.507 298.88 323.507C298.413 323.507 298.025 323.631 297.717 323.88C297.412 324.129 297.185 324.458 297.036 324.869C296.89 325.277 296.817 325.724 296.817 326.212C296.817 326.702 296.89 327.151 297.036 327.559C297.185 327.967 297.412 328.293 297.717 328.538C298.025 328.784 298.413 328.906 298.88 328.906ZM308.931 326.833V322.364H310.423V330H308.961V328.678H308.882C308.706 329.085 308.424 329.425 308.036 329.697C307.652 329.965 307.173 330.099 306.6 330.099C306.109 330.099 305.675 329.992 305.297 329.776C304.923 329.558 304.628 329.234 304.412 328.807C304.2 328.379 304.094 327.851 304.094 327.221V322.364H305.581V327.042C305.581 327.562 305.725 327.977 306.013 328.285C306.301 328.593 306.676 328.747 307.137 328.747C307.415 328.747 307.692 328.678 307.967 328.538C308.245 328.399 308.476 328.189 308.658 327.907C308.844 327.625 308.935 327.267 308.931 326.833ZM312.42 330V322.364H313.857V323.577H313.937C314.076 323.166 314.321 322.843 314.672 322.607C315.027 322.369 315.428 322.249 315.875 322.249C315.968 322.249 316.078 322.253 316.204 322.259C316.333 322.266 316.434 322.274 316.507 322.284V323.706C316.447 323.689 316.341 323.671 316.189 323.651C316.036 323.628 315.884 323.616 315.731 323.616C315.38 323.616 315.067 323.691 314.792 323.84C314.52 323.986 314.304 324.19 314.145 324.452C313.986 324.71 313.907 325.005 313.907 325.337V330H312.42ZM324.715 330.154C323.976 330.154 323.339 329.987 322.806 329.652C322.276 329.314 321.868 328.848 321.583 328.255C321.298 327.662 321.155 326.982 321.155 326.217C321.155 325.441 321.301 324.757 321.593 324.163C321.884 323.567 322.295 323.101 322.826 322.766C323.356 322.432 323.981 322.264 324.7 322.264C325.28 322.264 325.797 322.372 326.251 322.587C326.705 322.799 327.071 323.098 327.35 323.482C327.632 323.867 327.799 324.316 327.852 324.83H326.405C326.326 324.472 326.143 324.163 325.858 323.905C325.577 323.646 325.199 323.517 324.725 323.517C324.311 323.517 323.948 323.626 323.636 323.845C323.328 324.061 323.088 324.369 322.915 324.77C322.743 325.168 322.657 325.638 322.657 326.182C322.657 326.739 322.741 327.219 322.91 327.624C323.079 328.028 323.318 328.341 323.626 328.563C323.938 328.785 324.304 328.896 324.725 328.896C325.007 328.896 325.262 328.845 325.491 328.742C325.723 328.636 325.916 328.485 326.072 328.29C326.231 328.094 326.342 327.859 326.405 327.584H327.852C327.799 328.078 327.638 328.518 327.37 328.906C327.101 329.294 326.742 329.599 326.291 329.821C325.843 330.043 325.318 330.154 324.715 330.154ZM329.442 330V322.364H330.878V323.577H330.958C331.097 323.166 331.342 322.843 331.694 322.607C332.048 322.369 332.449 322.249 332.897 322.249C332.99 322.249 333.099 322.253 333.225 322.259C333.354 322.266 333.455 322.274 333.528 322.284V323.706C333.469 323.689 333.363 323.671 333.21 323.651C333.058 323.628 332.905 323.616 332.753 323.616C332.401 323.616 332.088 323.691 331.813 323.84C331.541 323.986 331.326 324.19 331.167 324.452C331.008 324.71 330.928 325.005 330.928 325.337V330H329.442ZM334.815 330V322.364H336.301V330H334.815ZM335.565 321.185C335.307 321.185 335.085 321.099 334.899 320.927C334.717 320.751 334.626 320.542 334.626 320.3C334.626 320.055 334.717 319.846 334.899 319.674C335.085 319.498 335.307 319.411 335.565 319.411C335.824 319.411 336.044 319.498 336.227 319.674C336.412 319.846 336.505 320.055 336.505 320.3C336.505 320.542 336.412 320.751 336.227 320.927C336.044 321.099 335.824 321.185 335.565 321.185ZM341.866 322.364V323.557H337.695V322.364H341.866ZM338.813 320.534H340.3V327.758C340.3 328.046 340.343 328.263 340.429 328.409C340.515 328.552 340.626 328.649 340.762 328.702C340.901 328.752 341.052 328.777 341.214 328.777C341.334 328.777 341.438 328.769 341.528 328.752C341.617 328.736 341.687 328.722 341.736 328.712L342.005 329.94C341.919 329.973 341.796 330.007 341.637 330.04C341.478 330.076 341.279 330.096 341.04 330.099C340.649 330.106 340.285 330.036 339.947 329.891C339.609 329.745 339.335 329.519 339.126 329.214C338.918 328.91 338.813 328.527 338.813 328.066V320.534ZM346.719 330.154C345.967 330.154 345.319 329.993 344.775 329.672C344.235 329.347 343.817 328.891 343.522 328.305C343.231 327.715 343.085 327.024 343.085 326.232C343.085 325.449 343.231 324.76 343.522 324.163C343.817 323.567 344.228 323.101 344.755 322.766C345.286 322.432 345.906 322.264 346.615 322.264C347.046 322.264 347.463 322.335 347.868 322.478C348.272 322.621 348.635 322.844 348.956 323.149C349.278 323.454 349.531 323.85 349.717 324.337C349.903 324.821 349.995 325.41 349.995 326.102V326.629H343.925V325.516H348.539C348.539 325.125 348.459 324.778 348.3 324.477C348.141 324.172 347.917 323.931 347.629 323.756C347.344 323.58 347.009 323.492 346.625 323.492C346.207 323.492 345.843 323.595 345.531 323.8C345.223 324.003 344.984 324.268 344.815 324.596C344.649 324.921 344.566 325.274 344.566 325.655V326.525C344.566 327.035 344.656 327.469 344.835 327.827C345.017 328.185 345.271 328.459 345.596 328.648C345.92 328.833 346.3 328.926 346.734 328.926C347.016 328.926 347.273 328.886 347.505 328.807C347.737 328.724 347.937 328.601 348.106 328.439C348.275 328.277 348.405 328.076 348.494 327.837L349.901 328.091C349.788 328.505 349.586 328.868 349.294 329.18C349.006 329.488 348.643 329.728 348.206 329.901C347.772 330.07 347.276 330.154 346.719 330.154ZM351.645 330V322.364H353.082V323.577H353.161C353.3 323.166 353.546 322.843 353.897 322.607C354.252 322.369 354.653 322.249 355.1 322.249C355.193 322.249 355.302 322.253 355.428 322.259C355.557 322.266 355.659 322.274 355.731 322.284V323.706C355.672 323.689 355.566 323.671 355.413 323.651C355.261 323.628 355.108 323.616 354.956 323.616C354.605 323.616 354.291 323.691 354.016 323.84C353.744 323.986 353.529 324.19 353.37 324.452C353.211 324.71 353.131 325.005 353.131 325.337V330H351.645ZM357.018 330V322.364H358.504V330H357.018ZM357.769 321.185C357.51 321.185 357.288 321.099 357.102 320.927C356.92 320.751 356.829 320.542 356.829 320.3C356.829 320.055 356.92 319.846 357.102 319.674C357.288 319.498 357.51 319.411 357.769 319.411C358.027 319.411 358.247 319.498 358.43 319.674C358.615 319.846 358.708 320.055 358.708 320.3C358.708 320.542 358.615 320.751 358.43 320.927C358.247 321.099 358.027 321.185 357.769 321.185ZM362.726 330.169C362.243 330.169 361.805 330.08 361.414 329.901C361.023 329.718 360.713 329.455 360.484 329.11C360.259 328.765 360.146 328.343 360.146 327.842C360.146 327.411 360.229 327.057 360.395 326.778C360.561 326.5 360.784 326.28 361.066 326.117C361.348 325.955 361.663 325.832 362.011 325.749C362.359 325.666 362.713 325.603 363.074 325.56C363.532 325.507 363.903 325.464 364.188 325.431C364.473 325.395 364.68 325.337 364.81 325.257C364.939 325.178 365.003 325.048 365.003 324.869V324.835C365.003 324.4 364.881 324.064 364.636 323.825C364.394 323.587 364.032 323.467 363.552 323.467C363.051 323.467 362.657 323.578 362.369 323.8C362.083 324.019 361.886 324.263 361.777 324.531L360.38 324.213C360.546 323.749 360.788 323.375 361.106 323.089C361.427 322.801 361.797 322.592 362.214 322.463C362.632 322.33 363.071 322.264 363.532 322.264C363.837 322.264 364.16 322.301 364.501 322.374C364.846 322.443 365.168 322.572 365.466 322.761C365.767 322.95 366.014 323.22 366.207 323.572C366.399 323.92 366.495 324.372 366.495 324.929V330H365.043V328.956H364.984C364.887 329.148 364.743 329.337 364.551 329.523C364.359 329.708 364.112 329.862 363.81 329.985C363.509 330.108 363.147 330.169 362.726 330.169ZM363.05 328.976C363.461 328.976 363.812 328.895 364.104 328.732C364.399 328.57 364.622 328.358 364.775 328.096C364.931 327.831 365.008 327.547 365.008 327.246V326.261C364.955 326.314 364.853 326.364 364.7 326.411C364.551 326.454 364.38 326.492 364.188 326.525C363.996 326.555 363.809 326.583 363.626 326.609C363.444 326.633 363.292 326.652 363.169 326.669C362.881 326.705 362.617 326.767 362.378 326.853C362.143 326.939 361.954 327.063 361.812 327.226C361.672 327.385 361.603 327.597 361.603 327.862C361.603 328.23 361.739 328.509 362.011 328.697C362.282 328.883 362.629 328.976 363.05 328.976ZM369.454 330.094C369.182 330.094 368.949 329.998 368.753 329.806C368.558 329.611 368.46 329.375 368.46 329.1C368.46 328.828 368.558 328.596 368.753 328.404C368.949 328.209 369.182 328.111 369.454 328.111C369.726 328.111 369.96 328.209 370.155 328.404C370.351 328.596 370.449 328.828 370.449 329.1C370.449 329.282 370.402 329.45 370.309 329.602C370.22 329.751 370.101 329.871 369.951 329.96C369.802 330.05 369.637 330.094 369.454 330.094Z" fill="#7B857F"/>
<g opacity="0.25">
<circle cx="301.078" cy="169.769" r="65.3846" stroke="#646464" stroke-width="0.769231" stroke-dasharray="7.69 7.69"/>
<circle cx="173.385" cy="236.692" r="40" stroke="#646464" stroke-width="0.769231" stroke-dasharray="7.69 7.69"/>
<path d="M290.448 263.717H205.552C202.703 263.717 200.393 261.407 200.393 258.557V148.509C200.393 145.66 202.703 143.35 205.552 143.35H268.385L295.608 170.281V258.557C295.608 261.407 293.298 263.717 290.448 263.717Z" fill="#646464"/>
<path d="M237.923 220.731L235.5 218.308L245.192 208.615L235.5 198.923L237.923 196.5L247.615 206.192L257.308 196.5L259.731 198.923L250.038 208.615L259.731 218.308L257.308 220.731L247.615 211.038L237.923 220.731Z" fill="black"/>
<path d="M268.385 143.35L295.316 170.281H274.109C270.947 170.281 268.385 167.718 268.385 164.557V143.35Z" fill="#848484"/>
<path fill-rule="evenodd" clip-rule="evenodd" d="M219.323 279.959C214.243 283.769 207.907 285.513 201.593 284.838C195.279 284.164 189.454 281.121 185.294 276.324C181.133 271.527 178.945 265.331 179.17 258.985C179.395 252.638 182.017 246.613 186.508 242.123C190.998 237.632 197.023 235.011 203.369 234.785C209.716 234.56 215.911 236.748 220.709 240.909C225.506 245.07 228.549 250.894 229.223 257.208C229.898 263.523 228.154 269.858 224.344 274.938L248.385 298.979L243.364 304L219.323 279.959ZM191.58 272.555C188.217 269.192 186.327 264.631 186.327 259.875C186.327 255.119 188.217 250.558 191.58 247.195C194.943 243.832 199.504 241.943 204.26 241.943C209.016 241.943 213.577 243.832 216.94 247.195C220.303 250.558 222.192 255.119 222.192 259.875C222.192 264.631 220.303 269.192 216.94 272.555C213.577 275.918 209.016 277.807 204.26 277.807C199.504 277.807 194.943 275.918 191.58 272.555Z" fill="black"/>
</g>
</svg>
